ISO-10303-21;
HEADER;
/* Generated by software containing ST-Developer
 * from STEP Tools, Inc. (www.steptools.com) 
 */
/* OPTION: using custom renumber hook */

FILE_DESCRIPTION(
/* description */ ('STEP AP242 Edition 2',
'CAx-IF Rec.Pracs.---Representation and Presentation of Product Manufa
cturing Information (PMI)---4.0---2014-10-13',
'CAx-IF Rec.Pracs.---3D Tessellated Geometry---0.4---2014-09-14','2;1',
'CAx-IF Rec.Pracs.---User Defined Attributes---1.5---2016-08-15'),
/* implementation_level */ '2;1');

FILE_NAME(
/* name */ 'Engine_Plate - Engine_Tank',
/* time_stamp */ '2026-06-19T12:09:11Z',
/* author */ (''),
/* organization */ (''),
/* preprocessor_version */ 'ST-DEVELOPER v20',
/* originating_system */ 'ONSHAPE BY PTC INC, 1.216',
/* authorisation */ '  ');

FILE_SCHEMA (('AP242_MANAGED_MODEL_BASED_3D_ENGINEERING_MIM_LF { 1 0 10303 442 3 1 4 }'));
ENDSEC;

DATA;
#10=SHAPE_REPRESENTATION_RELATIONSHIP('','',#241,#11);
#11=ADVANCED_BREP_SHAPE_REPRESENTATION('',(#239),#407);
#12=SPHERICAL_SURFACE('',#267,0.0014);
#13=SPHERICAL_SURFACE('',#268,0.0014);
#14=SPHERICAL_SURFACE('',#269,0.0014);
#15=SPHERICAL_SURFACE('',#270,0.0014);
#16=CIRCLE('',#245,0.0075);
#17=CIRCLE('',#246,0.0075);
#18=CIRCLE('',#248,0.0075);
#19=CIRCLE('',#249,0.0075);
#20=CIRCLE('',#255,0.0014);
#21=CIRCLE('',#256,0.0014);
#22=CIRCLE('',#257,0.0014);
#23=CIRCLE('',#258,0.0014);
#24=CIRCLE('',#260,0.0014);
#25=CIRCLE('',#262,0.0014);
#26=CIRCLE('',#264,0.0014);
#27=CIRCLE('',#266,0.0014);
#28=CYLINDRICAL_SURFACE('',#244,0.0075);
#29=CYLINDRICAL_SURFACE('',#247,0.0075);
#30=CYLINDRICAL_SURFACE('',#259,0.0014);
#31=CYLINDRICAL_SURFACE('',#261,0.0014);
#32=CYLINDRICAL_SURFACE('',#263,0.0014);
#33=CYLINDRICAL_SURFACE('',#265,0.0014);
#34=ORIENTED_EDGE('',*,*,#86,.T.);
#35=ORIENTED_EDGE('',*,*,#87,.T.);
#36=ORIENTED_EDGE('',*,*,#88,.F.);
#37=ORIENTED_EDGE('',*,*,#89,.T.);
#38=ORIENTED_EDGE('',*,*,#90,.F.);
#39=ORIENTED_EDGE('',*,*,#89,.F.);
#40=ORIENTED_EDGE('',*,*,#91,.F.);
#41=ORIENTED_EDGE('',*,*,#92,.F.);
#42=ORIENTED_EDGE('',*,*,#93,.F.);
#43=ORIENTED_EDGE('',*,*,#94,.F.);
#44=ORIENTED_EDGE('',*,*,#95,.F.);
#45=ORIENTED_EDGE('',*,*,#87,.F.);
#46=ORIENTED_EDGE('',*,*,#96,.T.);
#47=ORIENTED_EDGE('',*,*,#92,.T.);
#48=ORIENTED_EDGE('',*,*,#97,.T.);
#49=ORIENTED_EDGE('',*,*,#98,.F.);
#50=ORIENTED_EDGE('',*,*,#99,.F.);
#51=ORIENTED_EDGE('',*,*,#94,.T.);
#52=ORIENTED_EDGE('',*,*,#100,.F.);
#53=ORIENTED_EDGE('',*,*,#101,.T.);
#54=ORIENTED_EDGE('',*,*,#88,.T.);
#55=ORIENTED_EDGE('',*,*,#95,.T.);
#56=ORIENTED_EDGE('',*,*,#99,.T.);
#57=ORIENTED_EDGE('',*,*,#102,.F.);
#58=ORIENTED_EDGE('',*,*,#97,.F.);
#59=ORIENTED_EDGE('',*,*,#91,.T.);
#60=ORIENTED_EDGE('',*,*,#100,.T.);
#61=ORIENTED_EDGE('',*,*,#93,.T.);
#62=ORIENTED_EDGE('',*,*,#86,.F.);
#63=ORIENTED_EDGE('',*,*,#90,.T.);
#64=ORIENTED_EDGE('',*,*,#96,.F.);
#65=ORIENTED_EDGE('',*,*,#103,.T.);
#66=ORIENTED_EDGE('',*,*,#104,.F.);
#67=ORIENTED_EDGE('',*,*,#105,.F.);
#68=ORIENTED_EDGE('',*,*,#106,.F.);
#69=ORIENTED_EDGE('',*,*,#107,.F.);
#70=ORIENTED_EDGE('',*,*,#98,.T.);
#71=ORIENTED_EDGE('',*,*,#102,.T.);
#72=ORIENTED_EDGE('',*,*,#101,.F.);
#73=ORIENTED_EDGE('',*,*,#103,.F.);
#74=ORIENTED_EDGE('',*,*,#108,.T.);
#75=ORIENTED_EDGE('',*,*,#107,.T.);
#76=ORIENTED_EDGE('',*,*,#109,.T.);
#77=ORIENTED_EDGE('',*,*,#106,.T.);
#78=ORIENTED_EDGE('',*,*,#110,.T.);
#79=ORIENTED_EDGE('',*,*,#105,.T.);
#80=ORIENTED_EDGE('',*,*,#111,.T.);
#81=ORIENTED_EDGE('',*,*,#104,.T.);
#82=ORIENTED_EDGE('',*,*,#110,.F.);
#83=ORIENTED_EDGE('',*,*,#109,.F.);
#84=ORIENTED_EDGE('',*,*,#108,.F.);
#85=ORIENTED_EDGE('',*,*,#111,.F.);
#86=EDGE_CURVE('',#112,#113,#132,.T.);
#87=EDGE_CURVE('',#113,#114,#133,.T.);
#88=EDGE_CURVE('',#115,#114,#134,.T.);
#89=EDGE_CURVE('',#115,#112,#135,.F.);
#90=EDGE_CURVE('',#112,#116,#16,.F.);
#91=EDGE_CURVE('',#117,#115,#17,.F.);
#92=EDGE_CURVE('',#116,#117,#136,.T.);
#93=EDGE_CURVE('',#118,#113,#18,.F.);
#94=EDGE_CURVE('',#119,#118,#137,.F.);
#95=EDGE_CURVE('',#114,#119,#19,.F.);
#96=EDGE_CURVE('',#120,#116,#138,.T.);
#97=EDGE_CURVE('',#117,#121,#139,.T.);
#98=EDGE_CURVE('',#120,#121,#140,.T.);
#99=EDGE_CURVE('',#119,#122,#141,.T.);
#100=EDGE_CURVE('',#123,#118,#142,.T.);
#101=EDGE_CURVE('',#123,#122,#143,.T.);
#102=EDGE_CURVE('',#121,#122,#144,.T.);
#103=EDGE_CURVE('',#120,#123,#145,.T.);
#104=EDGE_CURVE('',#124,#124,#20,.T.);
#105=EDGE_CURVE('',#125,#125,#21,.T.);
#106=EDGE_CURVE('',#126,#126,#22,.T.);
#107=EDGE_CURVE('',#127,#127,#23,.T.);
#108=EDGE_CURVE('',#128,#128,#24,.T.);
#109=EDGE_CURVE('',#129,#129,#25,.T.);
#110=EDGE_CURVE('',#130,#130,#26,.T.);
#111=EDGE_CURVE('',#131,#131,#27,.T.);
#112=VERTEX_POINT('',#346);
#113=VERTEX_POINT('',#347);
#114=VERTEX_POINT('',#349);
#115=VERTEX_POINT('',#351);
#116=VERTEX_POINT('',#355);
#117=VERTEX_POINT('',#357);
#118=VERTEX_POINT('',#361);
#119=VERTEX_POINT('',#363);
#120=VERTEX_POINT('',#367);
#121=VERTEX_POINT('',#369);
#122=VERTEX_POINT('',#373);
#123=VERTEX_POINT('',#375);
#124=VERTEX_POINT('',#383);
#125=VERTEX_POINT('',#385);
#126=VERTEX_POINT('',#387);
#127=VERTEX_POINT('',#389);
#128=VERTEX_POINT('',#392);
#129=VERTEX_POINT('',#395);
#130=VERTEX_POINT('',#398);
#131=VERTEX_POINT('',#401);
#132=LINE('',#345,#146);
#133=LINE('',#348,#147);
#134=LINE('',#350,#148);
#135=LINE('',#352,#149);
#136=LINE('',#358,#150);
#137=LINE('',#362,#151);
#138=LINE('',#366,#152);
#139=LINE('',#368,#153);
#140=LINE('',#370,#154);
#141=LINE('',#372,#155);
#142=LINE('',#374,#156);
#143=LINE('',#376,#157);
#144=LINE('',#378,#158);
#145=LINE('',#380,#159);
#146=VECTOR('',#275,1.);
#147=VECTOR('',#276,1.);
#148=VECTOR('',#277,1.);
#149=VECTOR('',#278,1.);
#150=VECTOR('',#285,1.);
#151=VECTOR('',#290,1.);
#152=VECTOR('',#295,1.);
#153=VECTOR('',#296,1.);
#154=VECTOR('',#297,1.);
#155=VECTOR('',#300,1.);
#156=VECTOR('',#301,1.);
#157=VECTOR('',#302,1.);
#158=VECTOR('',#305,1.);
#159=VECTOR('',#308,1.);
#160=EDGE_LOOP('',(#34,#35,#36,#37));
#161=EDGE_LOOP('',(#38,#39,#40,#41));
#162=EDGE_LOOP('',(#42,#43,#44,#45));
#163=EDGE_LOOP('',(#46,#47,#48,#49));
#164=EDGE_LOOP('',(#50,#51,#52,#53));
#165=EDGE_LOOP('',(#54,#55,#56,#57,#58,#59));
#166=EDGE_LOOP('',(#60,#61,#62,#63,#64,#65));
#167=EDGE_LOOP('',(#66));
#168=EDGE_LOOP('',(#67));
#169=EDGE_LOOP('',(#68));
#170=EDGE_LOOP('',(#69));
#171=EDGE_LOOP('',(#70,#71,#72,#73));
#172=EDGE_LOOP('',(#74));
#173=EDGE_LOOP('',(#75));
#174=EDGE_LOOP('',(#76));
#175=EDGE_LOOP('',(#77));
#176=EDGE_LOOP('',(#78));
#177=EDGE_LOOP('',(#79));
#178=EDGE_LOOP('',(#80));
#179=EDGE_LOOP('',(#81));
#180=EDGE_LOOP('',(#82));
#181=EDGE_LOOP('',(#83));
#182=EDGE_LOOP('',(#84));
#183=EDGE_LOOP('',(#85));
#184=FACE_BOUND('',#160,.T.);
#185=FACE_BOUND('',#161,.T.);
#186=FACE_BOUND('',#162,.T.);
#187=FACE_BOUND('',#163,.T.);
#188=FACE_BOUND('',#164,.T.);
#189=FACE_BOUND('',#165,.T.);
#190=FACE_BOUND('',#166,.T.);
#191=FACE_BOUND('',#167,.T.);
#192=FACE_BOUND('',#168,.T.);
#193=FACE_BOUND('',#169,.T.);
#194=FACE_BOUND('',#170,.T.);
#195=FACE_BOUND('',#171,.T.);
#196=FACE_BOUND('',#172,.T.);
#197=FACE_BOUND('',#173,.T.);
#198=FACE_BOUND('',#174,.T.);
#199=FACE_BOUND('',#175,.T.);
#200=FACE_BOUND('',#176,.T.);
#201=FACE_BOUND('',#177,.T.);
#202=FACE_BOUND('',#178,.T.);
#203=FACE_BOUND('',#179,.T.);
#204=FACE_BOUND('',#180,.T.);
#205=FACE_BOUND('',#181,.T.);
#206=FACE_BOUND('',#182,.T.);
#207=FACE_BOUND('',#183,.T.);
#208=PLANE('',#243);
#209=PLANE('',#250);
#210=PLANE('',#251);
#211=PLANE('',#252);
#212=PLANE('',#253);
#213=PLANE('',#254);
#214=ADVANCED_FACE('',(#184),#208,.F.);
#215=ADVANCED_FACE('',(#185),#28,.T.);
#216=ADVANCED_FACE('',(#186),#29,.T.);
#217=ADVANCED_FACE('',(#187),#209,.T.);
#218=ADVANCED_FACE('',(#188),#210,.F.);
#219=ADVANCED_FACE('',(#189),#211,.F.);
#220=ADVANCED_FACE('',(#190),#212,.F.);
#221=ADVANCED_FACE('',(#191,#192,#193,#194,#195),#213,.F.);
#222=ADVANCED_FACE('',(#196,#197),#30,.T.);
#223=ADVANCED_FACE('',(#198,#199),#31,.T.);
#224=ADVANCED_FACE('',(#200,#201),#32,.T.);
#225=ADVANCED_FACE('',(#202,#203),#33,.T.);
#226=ADVANCED_FACE('',(#204),#12,.T.);
#227=ADVANCED_FACE('',(#205),#13,.T.);
#228=ADVANCED_FACE('',(#206),#14,.T.);
#229=ADVANCED_FACE('',(#207),#15,.T.);
#230=CLOSED_SHELL('',(#214,#215,#216,#217,#218,#219,#220,#221,#222,#223,
#224,#225,#226,#227,#228,#229));
#231=STYLED_ITEM('',(#232),#239);
#232=PRESENTATION_STYLE_ASSIGNMENT((#233));
#233=SURFACE_STYLE_USAGE(.BOTH.,#234);
#234=SURFACE_SIDE_STYLE('',(#235));
#235=SURFACE_STYLE_FILL_AREA(#236);
#236=FILL_AREA_STYLE('',(#237));
#237=FILL_AREA_STYLE_COLOUR('',#238);
#238=COLOUR_RGB('',0.231372549019608,0.380392156862745,0.705882352941177);
#239=MANIFOLD_SOLID_BREP('Engine_Tank',#230);
#240=SHAPE_DEFINITION_REPRESENTATION(#412,#241);
#241=SHAPE_REPRESENTATION('Engine_Tank',(#242),#407);
#242=AXIS2_PLACEMENT_3D('',#343,#271,#272);
#243=AXIS2_PLACEMENT_3D('',#344,#273,#274);
#244=AXIS2_PLACEMENT_3D('',#353,#279,#280);
#245=AXIS2_PLACEMENT_3D('',#354,#281,#282);
#246=AXIS2_PLACEMENT_3D('',#356,#283,#284);
#247=AXIS2_PLACEMENT_3D('',#359,#286,#287);
#248=AXIS2_PLACEMENT_3D('',#360,#288,#289);
#249=AXIS2_PLACEMENT_3D('',#364,#291,#292);
#250=AXIS2_PLACEMENT_3D('',#365,#293,#294);
#251=AXIS2_PLACEMENT_3D('',#371,#298,#299);
#252=AXIS2_PLACEMENT_3D('',#377,#303,#304);
#253=AXIS2_PLACEMENT_3D('',#379,#306,#307);
#254=AXIS2_PLACEMENT_3D('',#381,#309,#310);
#255=AXIS2_PLACEMENT_3D('',#382,#311,#312);
#256=AXIS2_PLACEMENT_3D('',#384,#313,#314);
#257=AXIS2_PLACEMENT_3D('',#386,#315,#316);
#258=AXIS2_PLACEMENT_3D('',#388,#317,#318);
#259=AXIS2_PLACEMENT_3D('',#390,#319,#320);
#260=AXIS2_PLACEMENT_3D('',#391,#321,#322);
#261=AXIS2_PLACEMENT_3D('',#393,#323,#324);
#262=AXIS2_PLACEMENT_3D('',#394,#325,#326);
#263=AXIS2_PLACEMENT_3D('',#396,#327,#328);
#264=AXIS2_PLACEMENT_3D('',#397,#329,#330);
#265=AXIS2_PLACEMENT_3D('',#399,#331,#332);
#266=AXIS2_PLACEMENT_3D('',#400,#333,#334);
#267=AXIS2_PLACEMENT_3D('',#402,#335,#336);
#268=AXIS2_PLACEMENT_3D('',#403,#337,#338);
#269=AXIS2_PLACEMENT_3D('',#404,#339,#340);
#270=AXIS2_PLACEMENT_3D('',#405,#341,#342);
#271=DIRECTION('',(0.,0.,1.));
#272=DIRECTION('',(1.,0.,0.));
#273=DIRECTION('',(0.,-1.94810894855178E-16,1.));
#274=DIRECTION('',(0.,-1.,-1.94810894855178E-16));
#275=DIRECTION('',(-1.,0.,0.));
#276=DIRECTION('',(0.,1.,1.94810894855178E-16));
#277=DIRECTION('',(-1.,0.,0.));
#278=DIRECTION('',(0.,1.,1.94810894855178E-16));
#279=DIRECTION('',(0.,-1.,-1.94810894855178E-16));
#280=DIRECTION('',(0.,1.94810894855178E-16,-1.));
#281=DIRECTION('',(0.,1.,0.));
#282=DIRECTION('',(0.,0.,1.));
#283=DIRECTION('',(0.,-1.,0.));
#284=DIRECTION('',(0.,0.,-1.));
#285=DIRECTION('',(0.,1.,1.94810894855178E-16));
#286=DIRECTION('',(0.,1.,1.94810894855178E-16));
#287=DIRECTION('',(0.,-1.94810894855178E-16,1.));
#288=DIRECTION('',(0.,1.,0.));
#289=DIRECTION('',(0.,0.,1.));
#290=DIRECTION('',(0.,1.,1.94810894855178E-16));
#291=DIRECTION('',(0.,-1.,0.));
#292=DIRECTION('',(0.,0.,-1.));
#293=DIRECTION('',(1.,0.,0.));
#294=DIRECTION('',(0.,1.,0.));
#295=DIRECTION('',(0.,0.,-1.));
#296=DIRECTION('',(0.,0.,1.));
#297=DIRECTION('',(0.,1.,0.));
#298=DIRECTION('',(1.,0.,0.));
#299=DIRECTION('',(0.,1.,0.));
#300=DIRECTION('',(0.,0.,1.));
#301=DIRECTION('',(0.,0.,-1.));
#302=DIRECTION('',(0.,1.,0.));
#303=DIRECTION('',(0.,-1.,0.));
#304=DIRECTION('',(0.,0.,-1.));
#305=DIRECTION('',(-1.,0.,0.));
#306=DIRECTION('',(0.,1.,0.));
#307=DIRECTION('',(0.,0.,1.));
#308=DIRECTION('',(-1.,0.,0.));
#309=DIRECTION('',(0.,0.,-1.));
#310=DIRECTION('',(1.,0.,0.));
#311=DIRECTION('',(0.,0.,1.));
#312=DIRECTION('',(1.,0.,0.));
#313=DIRECTION('',(0.,0.,1.));
#314=DIRECTION('',(1.,0.,0.));
#315=DIRECTION('',(0.,0.,1.));
#316=DIRECTION('',(1.,0.,0.));
#317=DIRECTION('',(0.,0.,1.));
#318=DIRECTION('',(1.,0.,0.));
#319=DIRECTION('',(0.,0.,-1.));
#320=DIRECTION('',(-1.,0.,0.));
#321=DIRECTION('',(0.,0.,-1.));
#322=DIRECTION('',(-1.,0.,0.));
#323=DIRECTION('',(0.,0.,-1.));
#324=DIRECTION('',(-1.,0.,0.));
#325=DIRECTION('',(0.,0.,-1.));
#326=DIRECTION('',(-1.,0.,0.));
#327=DIRECTION('',(0.,0.,-1.));
#328=DIRECTION('',(-1.,0.,0.));
#329=DIRECTION('',(0.,0.,-1.));
#330=DIRECTION('',(-1.,0.,0.));
#331=DIRECTION('',(0.,0.,-1.));
#332=DIRECTION('',(-1.,0.,0.));
#333=DIRECTION('',(0.,0.,-1.));
#334=DIRECTION('',(-1.,0.,0.));
#335=DIRECTION('',(0.,0.,1.));
#336=DIRECTION('',(1.,0.,0.));
#337=DIRECTION('',(0.,0.,1.));
#338=DIRECTION('',(1.,0.,0.));
#339=DIRECTION('',(0.,0.,1.));
#340=DIRECTION('',(1.,0.,0.));
#341=DIRECTION('',(0.,0.,1.));
#342=DIRECTION('',(1.,0.,0.));
#343=CARTESIAN_POINT('',(0.,0.,0.));
#344=CARTESIAN_POINT('',(0.0154645973017993,0.0810096719645081,-0.0042101750738802));
#345=CARTESIAN_POINT('',(0.0154645973017993,0.0609742020599661,-0.00421017507388021));
#346=CARTESIAN_POINT('',(0.00796459730179925,0.0609742020599661,-0.00421017507388021));
#347=CARTESIAN_POINT('',(0.00421459730179924,0.0609742020599661,-0.00421017507388021));
#348=CARTESIAN_POINT('',(0.00421459730179924,0.0810096719645081,-0.0042101750738802));
#349=CARTESIAN_POINT('',(0.00421459730179924,0.10104514186905,-0.0042101750738802));
#350=CARTESIAN_POINT('',(0.0154645973017993,0.10104514186905,-0.0042101750738802));
#351=CARTESIAN_POINT('',(0.00796459730179925,0.10104514186905,-0.0042101750738802));
#352=CARTESIAN_POINT('',(0.00796459730179925,0.0609742020599661,-0.00421017507388021));
#353=CARTESIAN_POINT('',(0.00796459730179925,0.0782615906203283,0.0032898249261198));
#354=CARTESIAN_POINT('',(0.00796459730179925,0.0609742020599661,0.0032898249261198));
#355=CARTESIAN_POINT('',(0.0154645973017993,0.0609742020599661,0.0032898249261198));
#356=CARTESIAN_POINT('',(0.00796459730179925,0.10104514186905,0.0032898249261198));
#357=CARTESIAN_POINT('',(0.0154645973017993,0.10104514186905,0.0032898249261198));
#358=CARTESIAN_POINT('',(0.0154645973017993,0.10104514186905,0.0032898249261198));
#359=CARTESIAN_POINT('',(0.00421459730179924,0.0810096719645081,0.0032898249261198));
#360=CARTESIAN_POINT('',(0.00421459730179924,0.0609742020599661,0.0032898249261198));
#361=CARTESIAN_POINT('',(-0.00328540269820076,0.0609742020599661,0.00328982492611979));
#362=CARTESIAN_POINT('',(-0.00328540269820076,0.0782615906203283,0.0032898249261198));
#363=CARTESIAN_POINT('',(-0.00328540269820076,0.10104514186905,0.0032898249261198));
#364=CARTESIAN_POINT('',(0.00421459730179924,0.10104514186905,0.0032898249261198));
#365=CARTESIAN_POINT('',(0.0154645973017993,0.0782615906203283,0.0140846850693343));
#366=CARTESIAN_POINT('',(0.0154645973017993,0.0609742020599661,0.000211250631392023));
#367=CARTESIAN_POINT('',(0.0154645973017993,0.0609742020599661,0.00463267633666425));
#368=CARTESIAN_POINT('',(0.0154645973017993,0.10104514186905,0.000211250631392027));
#369=CARTESIAN_POINT('',(0.0154645973017993,0.10104514186905,0.00463267633666425));
#370=CARTESIAN_POINT('',(0.0154645973017993,0.0810096719645081,0.00463267633666425));
#371=CARTESIAN_POINT('',(-0.00328540269820076,0.0782615906203283,0.0140846850693343));
#372=CARTESIAN_POINT('',(-0.00328540269820076,0.10104514186905,0.000211250631392027));
#373=CARTESIAN_POINT('',(-0.00328540269820076,0.10104514186905,0.00463267633666425));
#374=CARTESIAN_POINT('',(-0.00328540269820076,0.0609742020599661,0.000211250631392023));
#375=CARTESIAN_POINT('',(-0.00328540269820076,0.0609742020599661,0.00463267633666425));
#376=CARTESIAN_POINT('',(-0.00328540269820076,0.0810096719645081,0.00463267633666425));
#377=CARTESIAN_POINT('',(0.0154645973017993,0.10104514186905,0.000211250631392027));
#378=CARTESIAN_POINT('',(0.0154645973017993,0.10104514186905,0.00463267633666425));
#379=CARTESIAN_POINT('',(0.0154645973017993,0.0609742020599661,0.000211250631392023));
#380=CARTESIAN_POINT('',(0.0154645973017993,0.0609742020599661,0.00463267633666425));
#381=CARTESIAN_POINT('',(0.00608959730179924,0.0823990009108675,0.00463267633666425));
#382=CARTESIAN_POINT('',(0.00153777608647942,0.067881241440773,0.00463267633666425));
#383=CARTESIAN_POINT('',(0.00293777608647942,0.067881241440773,0.00463267633666425));
#384=CARTESIAN_POINT('',(0.0107372850179672,0.067881241440773,0.00463267633666425));
#385=CARTESIAN_POINT('',(0.0121372850179672,0.067881241440773,0.00463267633666425));
#386=CARTESIAN_POINT('',(0.0107372850179672,0.0941381024882431,0.00463267633666425));
#387=CARTESIAN_POINT('',(0.0121372850179672,0.0941381024882431,0.00463267633666425));
#388=CARTESIAN_POINT('',(0.00153777608647942,0.0941381024882431,0.00463267633666425));
#389=CARTESIAN_POINT('',(0.00293777608647942,0.0941381024882431,0.00463267633666425));
#390=CARTESIAN_POINT('',(0.00153777608647942,0.0941381024882431,0.00663267633666425));
#391=CARTESIAN_POINT('',(0.00153777608647942,0.0941381024882431,0.00523267633666425));
#392=CARTESIAN_POINT('',(0.000137776086479425,0.0941381024882431,0.00523267633666425));
#393=CARTESIAN_POINT('',(0.0107372850179672,0.0941381024882431,0.00663267633666425));
#394=CARTESIAN_POINT('',(0.0107372850179672,0.0941381024882431,0.00523267633666425));
#395=CARTESIAN_POINT('',(0.00933728501796722,0.0941381024882431,0.00523267633666425));
#396=CARTESIAN_POINT('',(0.0107372850179672,0.067881241440773,0.00663267633666425));
#397=CARTESIAN_POINT('',(0.0107372850179672,0.067881241440773,0.00523267633666425));
#398=CARTESIAN_POINT('',(0.00933728501796722,0.067881241440773,0.00523267633666425));
#399=CARTESIAN_POINT('',(0.00153777608647942,0.067881241440773,0.00663267633666425));
#400=CARTESIAN_POINT('',(0.00153777608647942,0.067881241440773,0.00523267633666425));
#401=CARTESIAN_POINT('',(0.000137776086479425,0.067881241440773,0.00523267633666425));
#402=CARTESIAN_POINT('',(0.0107372850179672,0.067881241440773,0.00523267633666425));
#403=CARTESIAN_POINT('',(0.0107372850179672,0.0941381024882431,0.00523267633666425));
#404=CARTESIAN_POINT('',(0.00153777608647942,0.0941381024882431,0.00523267633666425));
#405=CARTESIAN_POINT('',(0.00153777608647942,0.067881241440773,0.00523267633666425));
#406=MECHANICAL_DESIGN_GEOMETRIC_PRESENTATION_REPRESENTATION('',(#231),
#407);
#407=(
GEOMETRIC_REPRESENTATION_CONTEXT(3)
GLOBAL_UNCERTAINTY_ASSIGNED_CONTEXT((#408))
GLOBAL_UNIT_ASSIGNED_CONTEXT((#411,#410,#409))
REPRESENTATION_CONTEXT('Engine_Tank','TOP_LEVEL_ASSEMBLY_PART')
);
#408=UNCERTAINTY_MEASURE_WITH_UNIT(LENGTH_MEASURE(1.E-8),#411,
'DISTANCE_ACCURACY_VALUE','Maximum Tolerance applied to model');
#409=(
NAMED_UNIT(*)
SI_UNIT($,.STERADIAN.)
SOLID_ANGLE_UNIT()
);
#410=(
NAMED_UNIT(*)
PLANE_ANGLE_UNIT()
SI_UNIT($,.RADIAN.)
);
#411=(
LENGTH_UNIT()
NAMED_UNIT(*)
SI_UNIT($,.METRE.)
);
#412=PRODUCT_DEFINITION_SHAPE('','',#413);
#413=PRODUCT_DEFINITION('','',#415,#414);
#414=PRODUCT_DEFINITION_CONTEXT('',#421,'design');
#415=PRODUCT_DEFINITION_FORMATION_WITH_SPECIFIED_SOURCE('','',#417,
 .NOT_KNOWN.);
#416=PRODUCT_RELATED_PRODUCT_CATEGORY('','',(#417));
#417=PRODUCT('Engine_Tank','Engine_Tank','Engine_Tank',(#419));
#418=PRODUCT_CATEGORY('','');
#419=PRODUCT_CONTEXT('',#421,'mechanical');
#420=APPLICATION_PROTOCOL_DEFINITION('international standard',
'ap242_managed_model_based_3d_engineering',2020,#421);
#421=APPLICATION_CONTEXT('managed model based 3d engineering');
ENDSEC;
END-ISO-10303-21;
