ISO-10303-21;
HEADER;
/* Generated by software containing ST-Developer
 * from STEP Tools, Inc. (www.steptools.com) 
 */
/* OPTION: using custom renumber hook */

FILE_DESCRIPTION(
/* description */ ('STEP AP242 Edition 2',
'CAx-IF Rec.Pracs.---Representation and Presentation of Product Manufa
cturing Information (PMI)---4.0---2014-10-13',
'CAx-IF Rec.Pracs.---3D Tessellated Geometry---0.4---2014-09-14','2;1',
'CAx-IF Rec.Pracs.---User Defined Attributes---1.5---2016-08-15'),
/* implementation_level */ '2;1');

FILE_NAME(
/* name */ 'Engine_Plate - Rear_Engine_Railing',
/* time_stamp */ '2026-06-19T12:09:11Z',
/* author */ (''),
/* organization */ (''),
/* preprocessor_version */ 'ST-DEVELOPER v20',
/* originating_system */ 'ONSHAPE BY PTC INC, 1.216',
/* authorisation */ '  ');

FILE_SCHEMA (('AP242_MANAGED_MODEL_BASED_3D_ENGINEERING_MIM_LF { 1 0 10303 442 3 1 4 }'));
ENDSEC;

DATA;
#10=SHAPE_REPRESENTATION_RELATIONSHIP('','',#1425,#11);
#11=ADVANCED_BREP_SHAPE_REPRESENTATION('',(#1423),#2231);
#12=ORIENTED_EDGE('',*,*,#408,.T.);
#13=ORIENTED_EDGE('',*,*,#409,.T.);
#14=ORIENTED_EDGE('',*,*,#410,.F.);
#15=ORIENTED_EDGE('',*,*,#411,.F.);
#16=ORIENTED_EDGE('',*,*,#412,.T.);
#17=ORIENTED_EDGE('',*,*,#413,.T.);
#18=ORIENTED_EDGE('',*,*,#414,.F.);
#19=ORIENTED_EDGE('',*,*,#415,.F.);
#20=ORIENTED_EDGE('',*,*,#416,.T.);
#21=ORIENTED_EDGE('',*,*,#417,.T.);
#22=ORIENTED_EDGE('',*,*,#418,.F.);
#23=ORIENTED_EDGE('',*,*,#419,.F.);
#24=ORIENTED_EDGE('',*,*,#420,.F.);
#25=ORIENTED_EDGE('',*,*,#421,.F.);
#26=ORIENTED_EDGE('',*,*,#422,.T.);
#27=ORIENTED_EDGE('',*,*,#423,.T.);
#28=ORIENTED_EDGE('',*,*,#424,.T.);
#29=ORIENTED_EDGE('',*,*,#423,.F.);
#30=ORIENTED_EDGE('',*,*,#425,.F.);
#31=ORIENTED_EDGE('',*,*,#426,.T.);
#32=ORIENTED_EDGE('',*,*,#427,.T.);
#33=ORIENTED_EDGE('',*,*,#426,.F.);
#34=ORIENTED_EDGE('',*,*,#428,.F.);
#35=ORIENTED_EDGE('',*,*,#429,.T.);
#36=ORIENTED_EDGE('',*,*,#430,.T.);
#37=ORIENTED_EDGE('',*,*,#429,.F.);
#38=ORIENTED_EDGE('',*,*,#431,.F.);
#39=ORIENTED_EDGE('',*,*,#432,.T.);
#40=ORIENTED_EDGE('',*,*,#433,.T.);
#41=ORIENTED_EDGE('',*,*,#432,.F.);
#42=ORIENTED_EDGE('',*,*,#434,.F.);
#43=ORIENTED_EDGE('',*,*,#435,.T.);
#44=ORIENTED_EDGE('',*,*,#436,.F.);
#45=ORIENTED_EDGE('',*,*,#435,.F.);
#46=ORIENTED_EDGE('',*,*,#437,.T.);
#47=ORIENTED_EDGE('',*,*,#438,.T.);
#48=ORIENTED_EDGE('',*,*,#439,.F.);
#49=ORIENTED_EDGE('',*,*,#438,.F.);
#50=ORIENTED_EDGE('',*,*,#440,.T.);
#51=ORIENTED_EDGE('',*,*,#441,.T.);
#52=ORIENTED_EDGE('',*,*,#442,.F.);
#53=ORIENTED_EDGE('',*,*,#441,.F.);
#54=ORIENTED_EDGE('',*,*,#443,.T.);
#55=ORIENTED_EDGE('',*,*,#444,.T.);
#56=ORIENTED_EDGE('',*,*,#445,.T.);
#57=ORIENTED_EDGE('',*,*,#444,.F.);
#58=ORIENTED_EDGE('',*,*,#446,.F.);
#59=ORIENTED_EDGE('',*,*,#447,.T.);
#60=ORIENTED_EDGE('',*,*,#448,.F.);
#61=ORIENTED_EDGE('',*,*,#447,.F.);
#62=ORIENTED_EDGE('',*,*,#449,.T.);
#63=ORIENTED_EDGE('',*,*,#450,.T.);
#64=ORIENTED_EDGE('',*,*,#451,.F.);
#65=ORIENTED_EDGE('',*,*,#450,.F.);
#66=ORIENTED_EDGE('',*,*,#452,.T.);
#67=ORIENTED_EDGE('',*,*,#453,.T.);
#68=ORIENTED_EDGE('',*,*,#454,.F.);
#69=ORIENTED_EDGE('',*,*,#453,.F.);
#70=ORIENTED_EDGE('',*,*,#455,.T.);
#71=ORIENTED_EDGE('',*,*,#456,.T.);
#72=ORIENTED_EDGE('',*,*,#457,.T.);
#73=ORIENTED_EDGE('',*,*,#456,.F.);
#74=ORIENTED_EDGE('',*,*,#458,.F.);
#75=ORIENTED_EDGE('',*,*,#459,.T.);
#76=ORIENTED_EDGE('',*,*,#460,.F.);
#77=ORIENTED_EDGE('',*,*,#459,.F.);
#78=ORIENTED_EDGE('',*,*,#461,.T.);
#79=ORIENTED_EDGE('',*,*,#462,.T.);
#80=ORIENTED_EDGE('',*,*,#463,.F.);
#81=ORIENTED_EDGE('',*,*,#462,.F.);
#82=ORIENTED_EDGE('',*,*,#464,.T.);
#83=ORIENTED_EDGE('',*,*,#465,.T.);
#84=ORIENTED_EDGE('',*,*,#466,.F.);
#85=ORIENTED_EDGE('',*,*,#465,.F.);
#86=ORIENTED_EDGE('',*,*,#467,.T.);
#87=ORIENTED_EDGE('',*,*,#468,.T.);
#88=ORIENTED_EDGE('',*,*,#469,.T.);
#89=ORIENTED_EDGE('',*,*,#468,.F.);
#90=ORIENTED_EDGE('',*,*,#470,.F.);
#91=ORIENTED_EDGE('',*,*,#471,.T.);
#92=ORIENTED_EDGE('',*,*,#472,.F.);
#93=ORIENTED_EDGE('',*,*,#471,.F.);
#94=ORIENTED_EDGE('',*,*,#473,.T.);
#95=ORIENTED_EDGE('',*,*,#474,.T.);
#96=ORIENTED_EDGE('',*,*,#475,.F.);
#97=ORIENTED_EDGE('',*,*,#474,.F.);
#98=ORIENTED_EDGE('',*,*,#476,.T.);
#99=ORIENTED_EDGE('',*,*,#477,.T.);
#100=ORIENTED_EDGE('',*,*,#478,.F.);
#101=ORIENTED_EDGE('',*,*,#477,.F.);
#102=ORIENTED_EDGE('',*,*,#479,.T.);
#103=ORIENTED_EDGE('',*,*,#480,.T.);
#104=ORIENTED_EDGE('',*,*,#481,.T.);
#105=ORIENTED_EDGE('',*,*,#480,.F.);
#106=ORIENTED_EDGE('',*,*,#482,.F.);
#107=ORIENTED_EDGE('',*,*,#483,.T.);
#108=ORIENTED_EDGE('',*,*,#484,.F.);
#109=ORIENTED_EDGE('',*,*,#483,.F.);
#110=ORIENTED_EDGE('',*,*,#485,.T.);
#111=ORIENTED_EDGE('',*,*,#486,.T.);
#112=ORIENTED_EDGE('',*,*,#487,.F.);
#113=ORIENTED_EDGE('',*,*,#486,.F.);
#114=ORIENTED_EDGE('',*,*,#488,.T.);
#115=ORIENTED_EDGE('',*,*,#489,.T.);
#116=ORIENTED_EDGE('',*,*,#490,.F.);
#117=ORIENTED_EDGE('',*,*,#489,.F.);
#118=ORIENTED_EDGE('',*,*,#491,.T.);
#119=ORIENTED_EDGE('',*,*,#492,.T.);
#120=ORIENTED_EDGE('',*,*,#493,.T.);
#121=ORIENTED_EDGE('',*,*,#492,.F.);
#122=ORIENTED_EDGE('',*,*,#494,.F.);
#123=ORIENTED_EDGE('',*,*,#495,.T.);
#124=ORIENTED_EDGE('',*,*,#496,.F.);
#125=ORIENTED_EDGE('',*,*,#495,.F.);
#126=ORIENTED_EDGE('',*,*,#497,.T.);
#127=ORIENTED_EDGE('',*,*,#498,.T.);
#128=ORIENTED_EDGE('',*,*,#499,.F.);
#129=ORIENTED_EDGE('',*,*,#498,.F.);
#130=ORIENTED_EDGE('',*,*,#500,.T.);
#131=ORIENTED_EDGE('',*,*,#501,.T.);
#132=ORIENTED_EDGE('',*,*,#502,.F.);
#133=ORIENTED_EDGE('',*,*,#501,.F.);
#134=ORIENTED_EDGE('',*,*,#503,.T.);
#135=ORIENTED_EDGE('',*,*,#504,.T.);
#136=ORIENTED_EDGE('',*,*,#505,.F.);
#137=ORIENTED_EDGE('',*,*,#504,.F.);
#138=ORIENTED_EDGE('',*,*,#506,.T.);
#139=ORIENTED_EDGE('',*,*,#507,.T.);
#140=ORIENTED_EDGE('',*,*,#508,.F.);
#141=ORIENTED_EDGE('',*,*,#507,.F.);
#142=ORIENTED_EDGE('',*,*,#509,.T.);
#143=ORIENTED_EDGE('',*,*,#510,.T.);
#144=ORIENTED_EDGE('',*,*,#511,.T.);
#145=ORIENTED_EDGE('',*,*,#510,.F.);
#146=ORIENTED_EDGE('',*,*,#512,.F.);
#147=ORIENTED_EDGE('',*,*,#513,.T.);
#148=ORIENTED_EDGE('',*,*,#514,.F.);
#149=ORIENTED_EDGE('',*,*,#513,.F.);
#150=ORIENTED_EDGE('',*,*,#515,.T.);
#151=ORIENTED_EDGE('',*,*,#516,.T.);
#152=ORIENTED_EDGE('',*,*,#517,.F.);
#153=ORIENTED_EDGE('',*,*,#516,.F.);
#154=ORIENTED_EDGE('',*,*,#518,.T.);
#155=ORIENTED_EDGE('',*,*,#519,.T.);
#156=ORIENTED_EDGE('',*,*,#520,.F.);
#157=ORIENTED_EDGE('',*,*,#519,.F.);
#158=ORIENTED_EDGE('',*,*,#521,.T.);
#159=ORIENTED_EDGE('',*,*,#522,.T.);
#160=ORIENTED_EDGE('',*,*,#523,.T.);
#161=ORIENTED_EDGE('',*,*,#522,.F.);
#162=ORIENTED_EDGE('',*,*,#524,.F.);
#163=ORIENTED_EDGE('',*,*,#525,.T.);
#164=ORIENTED_EDGE('',*,*,#526,.F.);
#165=ORIENTED_EDGE('',*,*,#525,.F.);
#166=ORIENTED_EDGE('',*,*,#527,.T.);
#167=ORIENTED_EDGE('',*,*,#528,.T.);
#168=ORIENTED_EDGE('',*,*,#529,.F.);
#169=ORIENTED_EDGE('',*,*,#528,.F.);
#170=ORIENTED_EDGE('',*,*,#530,.T.);
#171=ORIENTED_EDGE('',*,*,#531,.T.);
#172=ORIENTED_EDGE('',*,*,#532,.F.);
#173=ORIENTED_EDGE('',*,*,#531,.F.);
#174=ORIENTED_EDGE('',*,*,#533,.T.);
#175=ORIENTED_EDGE('',*,*,#534,.T.);
#176=ORIENTED_EDGE('',*,*,#535,.T.);
#177=ORIENTED_EDGE('',*,*,#534,.F.);
#178=ORIENTED_EDGE('',*,*,#536,.F.);
#179=ORIENTED_EDGE('',*,*,#537,.T.);
#180=ORIENTED_EDGE('',*,*,#538,.F.);
#181=ORIENTED_EDGE('',*,*,#537,.F.);
#182=ORIENTED_EDGE('',*,*,#539,.T.);
#183=ORIENTED_EDGE('',*,*,#419,.T.);
#184=ORIENTED_EDGE('',*,*,#540,.F.);
#185=ORIENTED_EDGE('',*,*,#541,.F.);
#186=ORIENTED_EDGE('',*,*,#542,.T.);
#187=ORIENTED_EDGE('',*,*,#543,.T.);
#188=ORIENTED_EDGE('',*,*,#544,.F.);
#189=ORIENTED_EDGE('',*,*,#543,.F.);
#190=ORIENTED_EDGE('',*,*,#545,.T.);
#191=ORIENTED_EDGE('',*,*,#546,.T.);
#192=ORIENTED_EDGE('',*,*,#547,.T.);
#193=ORIENTED_EDGE('',*,*,#546,.F.);
#194=ORIENTED_EDGE('',*,*,#548,.F.);
#195=ORIENTED_EDGE('',*,*,#549,.T.);
#196=ORIENTED_EDGE('',*,*,#550,.T.);
#197=ORIENTED_EDGE('',*,*,#549,.F.);
#198=ORIENTED_EDGE('',*,*,#551,.F.);
#199=ORIENTED_EDGE('',*,*,#552,.T.);
#200=ORIENTED_EDGE('',*,*,#553,.F.);
#201=ORIENTED_EDGE('',*,*,#552,.F.);
#202=ORIENTED_EDGE('',*,*,#554,.T.);
#203=ORIENTED_EDGE('',*,*,#555,.T.);
#204=ORIENTED_EDGE('',*,*,#556,.F.);
#205=ORIENTED_EDGE('',*,*,#555,.F.);
#206=ORIENTED_EDGE('',*,*,#557,.T.);
#207=ORIENTED_EDGE('',*,*,#558,.T.);
#208=ORIENTED_EDGE('',*,*,#559,.F.);
#209=ORIENTED_EDGE('',*,*,#558,.F.);
#210=ORIENTED_EDGE('',*,*,#560,.T.);
#211=ORIENTED_EDGE('',*,*,#561,.T.);
#212=ORIENTED_EDGE('',*,*,#562,.F.);
#213=ORIENTED_EDGE('',*,*,#561,.F.);
#214=ORIENTED_EDGE('',*,*,#563,.T.);
#215=ORIENTED_EDGE('',*,*,#564,.T.);
#216=ORIENTED_EDGE('',*,*,#565,.F.);
#217=ORIENTED_EDGE('',*,*,#564,.F.);
#218=ORIENTED_EDGE('',*,*,#566,.T.);
#219=ORIENTED_EDGE('',*,*,#421,.T.);
#220=ORIENTED_EDGE('',*,*,#567,.T.);
#221=ORIENTED_EDGE('',*,*,#414,.T.);
#222=ORIENTED_EDGE('',*,*,#568,.F.);
#223=ORIENTED_EDGE('',*,*,#569,.T.);
#224=ORIENTED_EDGE('',*,*,#570,.T.);
#225=ORIENTED_EDGE('',*,*,#410,.T.);
#226=ORIENTED_EDGE('',*,*,#571,.F.);
#227=ORIENTED_EDGE('',*,*,#572,.T.);
#228=ORIENTED_EDGE('',*,*,#422,.F.);
#229=ORIENTED_EDGE('',*,*,#566,.F.);
#230=ORIENTED_EDGE('',*,*,#563,.F.);
#231=ORIENTED_EDGE('',*,*,#560,.F.);
#232=ORIENTED_EDGE('',*,*,#557,.F.);
#233=ORIENTED_EDGE('',*,*,#554,.F.);
#234=ORIENTED_EDGE('',*,*,#551,.T.);
#235=ORIENTED_EDGE('',*,*,#548,.T.);
#236=ORIENTED_EDGE('',*,*,#545,.F.);
#237=ORIENTED_EDGE('',*,*,#542,.F.);
#238=ORIENTED_EDGE('',*,*,#573,.T.);
#239=ORIENTED_EDGE('',*,*,#574,.F.);
#240=ORIENTED_EDGE('',*,*,#575,.T.);
#241=ORIENTED_EDGE('',*,*,#576,.T.);
#242=ORIENTED_EDGE('',*,*,#577,.T.);
#243=ORIENTED_EDGE('',*,*,#578,.T.);
#244=ORIENTED_EDGE('',*,*,#579,.T.);
#245=ORIENTED_EDGE('',*,*,#580,.T.);
#246=ORIENTED_EDGE('',*,*,#416,.F.);
#247=ORIENTED_EDGE('',*,*,#539,.F.);
#248=ORIENTED_EDGE('',*,*,#536,.T.);
#249=ORIENTED_EDGE('',*,*,#533,.F.);
#250=ORIENTED_EDGE('',*,*,#530,.F.);
#251=ORIENTED_EDGE('',*,*,#527,.F.);
#252=ORIENTED_EDGE('',*,*,#524,.T.);
#253=ORIENTED_EDGE('',*,*,#521,.F.);
#254=ORIENTED_EDGE('',*,*,#518,.F.);
#255=ORIENTED_EDGE('',*,*,#515,.F.);
#256=ORIENTED_EDGE('',*,*,#512,.T.);
#257=ORIENTED_EDGE('',*,*,#509,.F.);
#258=ORIENTED_EDGE('',*,*,#506,.F.);
#259=ORIENTED_EDGE('',*,*,#503,.F.);
#260=ORIENTED_EDGE('',*,*,#500,.F.);
#261=ORIENTED_EDGE('',*,*,#497,.F.);
#262=ORIENTED_EDGE('',*,*,#494,.T.);
#263=ORIENTED_EDGE('',*,*,#491,.F.);
#264=ORIENTED_EDGE('',*,*,#488,.F.);
#265=ORIENTED_EDGE('',*,*,#485,.F.);
#266=ORIENTED_EDGE('',*,*,#482,.T.);
#267=ORIENTED_EDGE('',*,*,#479,.F.);
#268=ORIENTED_EDGE('',*,*,#476,.F.);
#269=ORIENTED_EDGE('',*,*,#473,.F.);
#270=ORIENTED_EDGE('',*,*,#470,.T.);
#271=ORIENTED_EDGE('',*,*,#467,.F.);
#272=ORIENTED_EDGE('',*,*,#464,.F.);
#273=ORIENTED_EDGE('',*,*,#461,.F.);
#274=ORIENTED_EDGE('',*,*,#458,.T.);
#275=ORIENTED_EDGE('',*,*,#455,.F.);
#276=ORIENTED_EDGE('',*,*,#452,.F.);
#277=ORIENTED_EDGE('',*,*,#449,.F.);
#278=ORIENTED_EDGE('',*,*,#446,.T.);
#279=ORIENTED_EDGE('',*,*,#443,.F.);
#280=ORIENTED_EDGE('',*,*,#440,.F.);
#281=ORIENTED_EDGE('',*,*,#437,.F.);
#282=ORIENTED_EDGE('',*,*,#434,.T.);
#283=ORIENTED_EDGE('',*,*,#431,.T.);
#284=ORIENTED_EDGE('',*,*,#428,.T.);
#285=ORIENTED_EDGE('',*,*,#425,.T.);
#286=ORIENTED_EDGE('',*,*,#412,.F.);
#287=ORIENTED_EDGE('',*,*,#581,.F.);
#288=ORIENTED_EDGE('',*,*,#582,.F.);
#289=ORIENTED_EDGE('',*,*,#583,.T.);
#290=ORIENTED_EDGE('',*,*,#408,.F.);
#291=ORIENTED_EDGE('',*,*,#584,.F.);
#292=ORIENTED_EDGE('',*,*,#585,.F.);
#293=ORIENTED_EDGE('',*,*,#586,.T.);
#294=ORIENTED_EDGE('',*,*,#420,.T.);
#295=ORIENTED_EDGE('',*,*,#424,.F.);
#296=ORIENTED_EDGE('',*,*,#427,.F.);
#297=ORIENTED_EDGE('',*,*,#430,.F.);
#298=ORIENTED_EDGE('',*,*,#433,.F.);
#299=ORIENTED_EDGE('',*,*,#436,.T.);
#300=ORIENTED_EDGE('',*,*,#439,.T.);
#301=ORIENTED_EDGE('',*,*,#442,.T.);
#302=ORIENTED_EDGE('',*,*,#445,.F.);
#303=ORIENTED_EDGE('',*,*,#448,.T.);
#304=ORIENTED_EDGE('',*,*,#451,.T.);
#305=ORIENTED_EDGE('',*,*,#454,.T.);
#306=ORIENTED_EDGE('',*,*,#457,.F.);
#307=ORIENTED_EDGE('',*,*,#460,.T.);
#308=ORIENTED_EDGE('',*,*,#463,.T.);
#309=ORIENTED_EDGE('',*,*,#466,.T.);
#310=ORIENTED_EDGE('',*,*,#469,.F.);
#311=ORIENTED_EDGE('',*,*,#472,.T.);
#312=ORIENTED_EDGE('',*,*,#475,.T.);
#313=ORIENTED_EDGE('',*,*,#478,.T.);
#314=ORIENTED_EDGE('',*,*,#481,.F.);
#315=ORIENTED_EDGE('',*,*,#484,.T.);
#316=ORIENTED_EDGE('',*,*,#487,.T.);
#317=ORIENTED_EDGE('',*,*,#490,.T.);
#318=ORIENTED_EDGE('',*,*,#493,.F.);
#319=ORIENTED_EDGE('',*,*,#496,.T.);
#320=ORIENTED_EDGE('',*,*,#499,.T.);
#321=ORIENTED_EDGE('',*,*,#502,.T.);
#322=ORIENTED_EDGE('',*,*,#505,.T.);
#323=ORIENTED_EDGE('',*,*,#508,.T.);
#324=ORIENTED_EDGE('',*,*,#511,.F.);
#325=ORIENTED_EDGE('',*,*,#514,.T.);
#326=ORIENTED_EDGE('',*,*,#517,.T.);
#327=ORIENTED_EDGE('',*,*,#520,.T.);
#328=ORIENTED_EDGE('',*,*,#523,.F.);
#329=ORIENTED_EDGE('',*,*,#526,.T.);
#330=ORIENTED_EDGE('',*,*,#529,.T.);
#331=ORIENTED_EDGE('',*,*,#532,.T.);
#332=ORIENTED_EDGE('',*,*,#535,.F.);
#333=ORIENTED_EDGE('',*,*,#538,.T.);
#334=ORIENTED_EDGE('',*,*,#418,.T.);
#335=ORIENTED_EDGE('',*,*,#587,.F.);
#336=ORIENTED_EDGE('',*,*,#588,.F.);
#337=ORIENTED_EDGE('',*,*,#589,.F.);
#338=ORIENTED_EDGE('',*,*,#590,.F.);
#339=ORIENTED_EDGE('',*,*,#591,.F.);
#340=ORIENTED_EDGE('',*,*,#592,.F.);
#341=ORIENTED_EDGE('',*,*,#593,.T.);
#342=ORIENTED_EDGE('',*,*,#594,.F.);
#343=ORIENTED_EDGE('',*,*,#540,.T.);
#344=ORIENTED_EDGE('',*,*,#544,.T.);
#345=ORIENTED_EDGE('',*,*,#547,.F.);
#346=ORIENTED_EDGE('',*,*,#550,.F.);
#347=ORIENTED_EDGE('',*,*,#553,.T.);
#348=ORIENTED_EDGE('',*,*,#556,.T.);
#349=ORIENTED_EDGE('',*,*,#559,.T.);
#350=ORIENTED_EDGE('',*,*,#562,.T.);
#351=ORIENTED_EDGE('',*,*,#565,.T.);
#352=ORIENTED_EDGE('',*,*,#589,.T.);
#353=ORIENTED_EDGE('',*,*,#595,.F.);
#354=ORIENTED_EDGE('',*,*,#578,.F.);
#355=ORIENTED_EDGE('',*,*,#596,.T.);
#356=ORIENTED_EDGE('',*,*,#594,.T.);
#357=ORIENTED_EDGE('',*,*,#597,.T.);
#358=ORIENTED_EDGE('',*,*,#573,.F.);
#359=ORIENTED_EDGE('',*,*,#541,.T.);
#360=ORIENTED_EDGE('',*,*,#587,.T.);
#361=ORIENTED_EDGE('',*,*,#417,.F.);
#362=ORIENTED_EDGE('',*,*,#580,.F.);
#363=ORIENTED_EDGE('',*,*,#598,.T.);
#364=ORIENTED_EDGE('',*,*,#588,.T.);
#365=ORIENTED_EDGE('',*,*,#598,.F.);
#366=ORIENTED_EDGE('',*,*,#579,.F.);
#367=ORIENTED_EDGE('',*,*,#595,.T.);
#368=ORIENTED_EDGE('',*,*,#599,.F.);
#369=ORIENTED_EDGE('',*,*,#592,.T.);
#370=ORIENTED_EDGE('',*,*,#600,.F.);
#371=ORIENTED_EDGE('',*,*,#575,.F.);
#372=ORIENTED_EDGE('',*,*,#582,.T.);
#373=ORIENTED_EDGE('',*,*,#601,.T.);
#374=ORIENTED_EDGE('',*,*,#569,.F.);
#375=ORIENTED_EDGE('',*,*,#602,.F.);
#376=ORIENTED_EDGE('',*,*,#585,.T.);
#377=ORIENTED_EDGE('',*,*,#603,.T.);
#378=ORIENTED_EDGE('',*,*,#572,.F.);
#379=ORIENTED_EDGE('',*,*,#604,.F.);
#380=ORIENTED_EDGE('',*,*,#590,.T.);
#381=ORIENTED_EDGE('',*,*,#596,.F.);
#382=ORIENTED_EDGE('',*,*,#577,.F.);
#383=ORIENTED_EDGE('',*,*,#605,.T.);
#384=ORIENTED_EDGE('',*,*,#591,.T.);
#385=ORIENTED_EDGE('',*,*,#605,.F.);
#386=ORIENTED_EDGE('',*,*,#576,.F.);
#387=ORIENTED_EDGE('',*,*,#600,.T.);
#388=ORIENTED_EDGE('',*,*,#586,.F.);
#389=ORIENTED_EDGE('',*,*,#604,.T.);
#390=ORIENTED_EDGE('',*,*,#571,.T.);
#391=ORIENTED_EDGE('',*,*,#409,.F.);
#392=ORIENTED_EDGE('',*,*,#583,.F.);
#393=ORIENTED_EDGE('',*,*,#602,.T.);
#394=ORIENTED_EDGE('',*,*,#568,.T.);
#395=ORIENTED_EDGE('',*,*,#413,.F.);
#396=ORIENTED_EDGE('',*,*,#603,.F.);
#397=ORIENTED_EDGE('',*,*,#584,.T.);
#398=ORIENTED_EDGE('',*,*,#411,.T.);
#399=ORIENTED_EDGE('',*,*,#570,.F.);
#400=ORIENTED_EDGE('',*,*,#593,.F.);
#401=ORIENTED_EDGE('',*,*,#599,.T.);
#402=ORIENTED_EDGE('',*,*,#574,.T.);
#403=ORIENTED_EDGE('',*,*,#597,.F.);
#404=ORIENTED_EDGE('',*,*,#601,.F.);
#405=ORIENTED_EDGE('',*,*,#581,.T.);
#406=ORIENTED_EDGE('',*,*,#415,.T.);
#407=ORIENTED_EDGE('',*,*,#567,.F.);
#408=EDGE_CURVE('',#606,#607,#738,.T.);
#409=EDGE_CURVE('',#607,#608,#739,.T.);
#410=EDGE_CURVE('',#609,#608,#740,.T.);
#411=EDGE_CURVE('',#606,#609,#741,.T.);
#412=EDGE_CURVE('',#610,#611,#742,.T.);
#413=EDGE_CURVE('',#611,#612,#743,.T.);
#414=EDGE_CURVE('',#613,#612,#744,.T.);
#415=EDGE_CURVE('',#610,#613,#745,.T.);
#416=EDGE_CURVE('',#614,#615,#746,.T.);
#417=EDGE_CURVE('',#615,#616,#747,.T.);
#418=EDGE_CURVE('',#617,#616,#748,.T.);
#419=EDGE_CURVE('',#614,#617,#749,.T.);
#420=EDGE_CURVE('',#618,#619,#750,.T.);
#421=EDGE_CURVE('',#620,#618,#751,.T.);
#422=EDGE_CURVE('',#620,#621,#752,.T.);
#423=EDGE_CURVE('',#621,#619,#753,.T.);
#424=EDGE_CURVE('',#622,#619,#754,.T.);
#425=EDGE_CURVE('',#623,#621,#755,.T.);
#426=EDGE_CURVE('',#623,#622,#756,.T.);
#427=EDGE_CURVE('',#624,#622,#757,.T.);
#428=EDGE_CURVE('',#625,#623,#758,.T.);
#429=EDGE_CURVE('',#625,#624,#759,.T.);
#430=EDGE_CURVE('',#626,#624,#760,.T.);
#431=EDGE_CURVE('',#627,#625,#761,.T.);
#432=EDGE_CURVE('',#627,#626,#762,.T.);
#433=EDGE_CURVE('',#628,#626,#763,.T.);
#434=EDGE_CURVE('',#629,#627,#764,.T.);
#435=EDGE_CURVE('',#629,#628,#765,.T.);
#436=EDGE_CURVE('',#628,#630,#766,.T.);
#437=EDGE_CURVE('',#629,#631,#767,.T.);
#438=EDGE_CURVE('',#631,#630,#768,.T.);
#439=EDGE_CURVE('',#630,#632,#769,.T.);
#440=EDGE_CURVE('',#631,#633,#770,.T.);
#441=EDGE_CURVE('',#633,#632,#771,.T.);
#442=EDGE_CURVE('',#632,#634,#772,.T.);
#443=EDGE_CURVE('',#633,#635,#773,.T.);
#444=EDGE_CURVE('',#635,#634,#774,.T.);
#445=EDGE_CURVE('',#636,#634,#775,.T.);
#446=EDGE_CURVE('',#637,#635,#776,.T.);
#447=EDGE_CURVE('',#637,#636,#777,.T.);
#448=EDGE_CURVE('',#636,#638,#778,.T.);
#449=EDGE_CURVE('',#637,#639,#779,.T.);
#450=EDGE_CURVE('',#639,#638,#780,.T.);
#451=EDGE_CURVE('',#638,#640,#781,.T.);
#452=EDGE_CURVE('',#639,#641,#782,.T.);
#453=EDGE_CURVE('',#641,#640,#783,.T.);
#454=EDGE_CURVE('',#640,#642,#784,.T.);
#455=EDGE_CURVE('',#641,#643,#785,.T.);
#456=EDGE_CURVE('',#643,#642,#786,.T.);
#457=EDGE_CURVE('',#644,#642,#787,.T.);
#458=EDGE_CURVE('',#645,#643,#788,.T.);
#459=EDGE_CURVE('',#645,#644,#789,.T.);
#460=EDGE_CURVE('',#644,#646,#790,.T.);
#461=EDGE_CURVE('',#645,#647,#791,.T.);
#462=EDGE_CURVE('',#647,#646,#792,.T.);
#463=EDGE_CURVE('',#646,#648,#793,.T.);
#464=EDGE_CURVE('',#647,#649,#794,.T.);
#465=EDGE_CURVE('',#649,#648,#795,.T.);
#466=EDGE_CURVE('',#648,#650,#796,.T.);
#467=EDGE_CURVE('',#649,#651,#797,.T.);
#468=EDGE_CURVE('',#651,#650,#798,.T.);
#469=EDGE_CURVE('',#652,#650,#799,.T.);
#470=EDGE_CURVE('',#653,#651,#800,.T.);
#471=EDGE_CURVE('',#653,#652,#801,.T.);
#472=EDGE_CURVE('',#652,#654,#802,.T.);
#473=EDGE_CURVE('',#653,#655,#803,.T.);
#474=EDGE_CURVE('',#655,#654,#804,.T.);
#475=EDGE_CURVE('',#654,#656,#805,.T.);
#476=EDGE_CURVE('',#655,#657,#806,.T.);
#477=EDGE_CURVE('',#657,#656,#807,.T.);
#478=EDGE_CURVE('',#656,#658,#808,.T.);
#479=EDGE_CURVE('',#657,#659,#809,.T.);
#480=EDGE_CURVE('',#659,#658,#810,.T.);
#481=EDGE_CURVE('',#660,#658,#811,.T.);
#482=EDGE_CURVE('',#661,#659,#812,.T.);
#483=EDGE_CURVE('',#661,#660,#813,.T.);
#484=EDGE_CURVE('',#660,#662,#814,.T.);
#485=EDGE_CURVE('',#661,#663,#815,.T.);
#486=EDGE_CURVE('',#663,#662,#816,.T.);
#487=EDGE_CURVE('',#662,#664,#817,.T.);
#488=EDGE_CURVE('',#663,#665,#818,.T.);
#489=EDGE_CURVE('',#665,#664,#819,.T.);
#490=EDGE_CURVE('',#664,#666,#820,.T.);
#491=EDGE_CURVE('',#665,#667,#821,.T.);
#492=EDGE_CURVE('',#667,#666,#822,.T.);
#493=EDGE_CURVE('',#668,#666,#823,.T.);
#494=EDGE_CURVE('',#669,#667,#824,.T.);
#495=EDGE_CURVE('',#669,#668,#825,.T.);
#496=EDGE_CURVE('',#668,#670,#826,.T.);
#497=EDGE_CURVE('',#669,#671,#827,.T.);
#498=EDGE_CURVE('',#671,#670,#828,.T.);
#499=EDGE_CURVE('',#670,#672,#829,.T.);
#500=EDGE_CURVE('',#671,#673,#830,.T.);
#501=EDGE_CURVE('',#673,#672,#831,.T.);
#502=EDGE_CURVE('',#672,#674,#832,.T.);
#503=EDGE_CURVE('',#673,#675,#833,.T.);
#504=EDGE_CURVE('',#675,#674,#834,.T.);
#505=EDGE_CURVE('',#674,#676,#835,.T.);
#506=EDGE_CURVE('',#675,#677,#836,.T.);
#507=EDGE_CURVE('',#677,#676,#837,.T.);
#508=EDGE_CURVE('',#676,#678,#838,.T.);
#509=EDGE_CURVE('',#677,#679,#839,.T.);
#510=EDGE_CURVE('',#679,#678,#840,.T.);
#511=EDGE_CURVE('',#680,#678,#841,.T.);
#512=EDGE_CURVE('',#681,#679,#842,.T.);
#513=EDGE_CURVE('',#681,#680,#843,.T.);
#514=EDGE_CURVE('',#680,#682,#844,.T.);
#515=EDGE_CURVE('',#681,#683,#845,.T.);
#516=EDGE_CURVE('',#683,#682,#846,.T.);
#517=EDGE_CURVE('',#682,#684,#847,.T.);
#518=EDGE_CURVE('',#683,#685,#848,.T.);
#519=EDGE_CURVE('',#685,#684,#849,.T.);
#520=EDGE_CURVE('',#684,#686,#850,.T.);
#521=EDGE_CURVE('',#685,#687,#851,.T.);
#522=EDGE_CURVE('',#687,#686,#852,.T.);
#523=EDGE_CURVE('',#688,#686,#853,.T.);
#524=EDGE_CURVE('',#689,#687,#854,.T.);
#525=EDGE_CURVE('',#689,#688,#855,.T.);
#526=EDGE_CURVE('',#688,#690,#856,.T.);
#527=EDGE_CURVE('',#689,#691,#857,.T.);
#528=EDGE_CURVE('',#691,#690,#858,.T.);
#529=EDGE_CURVE('',#690,#692,#859,.T.);
#530=EDGE_CURVE('',#691,#693,#860,.T.);
#531=EDGE_CURVE('',#693,#692,#861,.T.);
#532=EDGE_CURVE('',#692,#694,#862,.T.);
#533=EDGE_CURVE('',#693,#695,#863,.T.);
#534=EDGE_CURVE('',#695,#694,#864,.T.);
#535=EDGE_CURVE('',#696,#694,#865,.T.);
#536=EDGE_CURVE('',#697,#695,#866,.T.);
#537=EDGE_CURVE('',#697,#696,#867,.T.);
#538=EDGE_CURVE('',#696,#617,#868,.T.);
#539=EDGE_CURVE('',#697,#614,#869,.T.);
#540=EDGE_CURVE('',#698,#699,#870,.T.);
#541=EDGE_CURVE('',#700,#698,#871,.T.);
#542=EDGE_CURVE('',#700,#701,#872,.T.);
#543=EDGE_CURVE('',#701,#699,#873,.T.);
#544=EDGE_CURVE('',#699,#702,#874,.T.);
#545=EDGE_CURVE('',#701,#703,#875,.T.);
#546=EDGE_CURVE('',#703,#702,#876,.T.);
#547=EDGE_CURVE('',#704,#702,#877,.T.);
#548=EDGE_CURVE('',#705,#703,#878,.T.);
#549=EDGE_CURVE('',#705,#704,#879,.T.);
#550=EDGE_CURVE('',#706,#704,#880,.T.);
#551=EDGE_CURVE('',#707,#705,#881,.T.);
#552=EDGE_CURVE('',#707,#706,#882,.T.);
#553=EDGE_CURVE('',#706,#708,#883,.T.);
#554=EDGE_CURVE('',#707,#709,#884,.T.);
#555=EDGE_CURVE('',#709,#708,#885,.T.);
#556=EDGE_CURVE('',#708,#710,#886,.T.);
#557=EDGE_CURVE('',#709,#711,#887,.T.);
#558=EDGE_CURVE('',#711,#710,#888,.T.);
#559=EDGE_CURVE('',#710,#712,#889,.T.);
#560=EDGE_CURVE('',#711,#713,#890,.T.);
#561=EDGE_CURVE('',#713,#712,#891,.T.);
#562=EDGE_CURVE('',#712,#714,#892,.T.);
#563=EDGE_CURVE('',#713,#715,#893,.T.);
#564=EDGE_CURVE('',#715,#714,#894,.T.);
#565=EDGE_CURVE('',#714,#618,#895,.T.);
#566=EDGE_CURVE('',#715,#620,#896,.T.);
#567=EDGE_CURVE('',#716,#613,#897,.T.);
#568=EDGE_CURVE('',#717,#612,#898,.T.);
#569=EDGE_CURVE('',#717,#716,#899,.T.);
#570=EDGE_CURVE('',#718,#609,#900,.T.);
#571=EDGE_CURVE('',#719,#608,#901,.T.);
#572=EDGE_CURVE('',#719,#718,#902,.T.);
#573=EDGE_CURVE('',#700,#720,#903,.T.);
#574=EDGE_CURVE('',#721,#720,#904,.T.);
#575=EDGE_CURVE('',#721,#722,#905,.T.);
#576=EDGE_CURVE('',#722,#723,#906,.T.);
#577=EDGE_CURVE('',#723,#724,#907,.T.);
#578=EDGE_CURVE('',#724,#725,#908,.T.);
#579=EDGE_CURVE('',#725,#726,#909,.T.);
#580=EDGE_CURVE('',#726,#615,#910,.T.);
#581=EDGE_CURVE('',#727,#610,#911,.T.);
#582=EDGE_CURVE('',#728,#727,#912,.T.);
#583=EDGE_CURVE('',#728,#611,#913,.T.);
#584=EDGE_CURVE('',#729,#606,#914,.T.);
#585=EDGE_CURVE('',#730,#729,#915,.T.);
#586=EDGE_CURVE('',#730,#607,#916,.T.);
#587=EDGE_CURVE('',#731,#616,#917,.T.);
#588=EDGE_CURVE('',#732,#731,#918,.T.);
#589=EDGE_CURVE('',#733,#732,#919,.T.);
#590=EDGE_CURVE('',#734,#733,#920,.T.);
#591=EDGE_CURVE('',#735,#734,#921,.T.);
#592=EDGE_CURVE('',#736,#735,#922,.T.);
#593=EDGE_CURVE('',#736,#737,#923,.T.);
#594=EDGE_CURVE('',#698,#737,#924,.T.);
#595=EDGE_CURVE('',#725,#732,#925,.T.);
#596=EDGE_CURVE('',#724,#733,#926,.T.);
#597=EDGE_CURVE('',#737,#720,#927,.T.);
#598=EDGE_CURVE('',#726,#731,#928,.T.);
#599=EDGE_CURVE('',#736,#721,#929,.T.);
#600=EDGE_CURVE('',#722,#735,#930,.T.);
#601=EDGE_CURVE('',#727,#716,#931,.T.);
#602=EDGE_CURVE('',#728,#717,#932,.T.);
#603=EDGE_CURVE('',#729,#718,#933,.T.);
#604=EDGE_CURVE('',#730,#719,#934,.T.);
#605=EDGE_CURVE('',#723,#734,#935,.T.);
#606=VERTEX_POINT('',#1834);
#607=VERTEX_POINT('',#1835);
#608=VERTEX_POINT('',#1837);
#609=VERTEX_POINT('',#1839);
#610=VERTEX_POINT('',#1843);
#611=VERTEX_POINT('',#1844);
#612=VERTEX_POINT('',#1846);
#613=VERTEX_POINT('',#1848);
#614=VERTEX_POINT('',#1852);
#615=VERTEX_POINT('',#1853);
#616=VERTEX_POINT('',#1855);
#617=VERTEX_POINT('',#1857);
#618=VERTEX_POINT('',#1861);
#619=VERTEX_POINT('',#1862);
#620=VERTEX_POINT('',#1864);
#621=VERTEX_POINT('',#1866);
#622=VERTEX_POINT('',#1870);
#623=VERTEX_POINT('',#1872);
#624=VERTEX_POINT('',#1876);
#625=VERTEX_POINT('',#1878);
#626=VERTEX_POINT('',#1882);
#627=VERTEX_POINT('',#1884);
#628=VERTEX_POINT('',#1888);
#629=VERTEX_POINT('',#1890);
#630=VERTEX_POINT('',#1894);
#631=VERTEX_POINT('',#1896);
#632=VERTEX_POINT('',#1900);
#633=VERTEX_POINT('',#1902);
#634=VERTEX_POINT('',#1906);
#635=VERTEX_POINT('',#1908);
#636=VERTEX_POINT('',#1912);
#637=VERTEX_POINT('',#1914);
#638=VERTEX_POINT('',#1918);
#639=VERTEX_POINT('',#1920);
#640=VERTEX_POINT('',#1924);
#641=VERTEX_POINT('',#1926);
#642=VERTEX_POINT('',#1930);
#643=VERTEX_POINT('',#1932);
#644=VERTEX_POINT('',#1936);
#645=VERTEX_POINT('',#1938);
#646=VERTEX_POINT('',#1942);
#647=VERTEX_POINT('',#1944);
#648=VERTEX_POINT('',#1948);
#649=VERTEX_POINT('',#1950);
#650=VERTEX_POINT('',#1954);
#651=VERTEX_POINT('',#1956);
#652=VERTEX_POINT('',#1960);
#653=VERTEX_POINT('',#1962);
#654=VERTEX_POINT('',#1966);
#655=VERTEX_POINT('',#1968);
#656=VERTEX_POINT('',#1972);
#657=VERTEX_POINT('',#1974);
#658=VERTEX_POINT('',#1978);
#659=VERTEX_POINT('',#1980);
#660=VERTEX_POINT('',#1984);
#661=VERTEX_POINT('',#1986);
#662=VERTEX_POINT('',#1990);
#663=VERTEX_POINT('',#1992);
#664=VERTEX_POINT('',#1996);
#665=VERTEX_POINT('',#1998);
#666=VERTEX_POINT('',#2002);
#667=VERTEX_POINT('',#2004);
#668=VERTEX_POINT('',#2008);
#669=VERTEX_POINT('',#2010);
#670=VERTEX_POINT('',#2014);
#671=VERTEX_POINT('',#2016);
#672=VERTEX_POINT('',#2020);
#673=VERTEX_POINT('',#2022);
#674=VERTEX_POINT('',#2026);
#675=VERTEX_POINT('',#2028);
#676=VERTEX_POINT('',#2032);
#677=VERTEX_POINT('',#2034);
#678=VERTEX_POINT('',#2038);
#679=VERTEX_POINT('',#2040);
#680=VERTEX_POINT('',#2044);
#681=VERTEX_POINT('',#2046);
#682=VERTEX_POINT('',#2050);
#683=VERTEX_POINT('',#2052);
#684=VERTEX_POINT('',#2056);
#685=VERTEX_POINT('',#2058);
#686=VERTEX_POINT('',#2062);
#687=VERTEX_POINT('',#2064);
#688=VERTEX_POINT('',#2068);
#689=VERTEX_POINT('',#2070);
#690=VERTEX_POINT('',#2074);
#691=VERTEX_POINT('',#2076);
#692=VERTEX_POINT('',#2080);
#693=VERTEX_POINT('',#2082);
#694=VERTEX_POINT('',#2086);
#695=VERTEX_POINT('',#2088);
#696=VERTEX_POINT('',#2092);
#697=VERTEX_POINT('',#2094);
#698=VERTEX_POINT('',#2101);
#699=VERTEX_POINT('',#2102);
#700=VERTEX_POINT('',#2104);
#701=VERTEX_POINT('',#2106);
#702=VERTEX_POINT('',#2110);
#703=VERTEX_POINT('',#2112);
#704=VERTEX_POINT('',#2116);
#705=VERTEX_POINT('',#2118);
#706=VERTEX_POINT('',#2122);
#707=VERTEX_POINT('',#2124);
#708=VERTEX_POINT('',#2128);
#709=VERTEX_POINT('',#2130);
#710=VERTEX_POINT('',#2134);
#711=VERTEX_POINT('',#2136);
#712=VERTEX_POINT('',#2140);
#713=VERTEX_POINT('',#2142);
#714=VERTEX_POINT('',#2146);
#715=VERTEX_POINT('',#2148);
#716=VERTEX_POINT('',#2155);
#717=VERTEX_POINT('',#2157);
#718=VERTEX_POINT('',#2160);
#719=VERTEX_POINT('',#2162);
#720=VERTEX_POINT('',#2165);
#721=VERTEX_POINT('',#2167);
#722=VERTEX_POINT('',#2169);
#723=VERTEX_POINT('',#2171);
#724=VERTEX_POINT('',#2173);
#725=VERTEX_POINT('',#2175);
#726=VERTEX_POINT('',#2177);
#727=VERTEX_POINT('',#2181);
#728=VERTEX_POINT('',#2183);
#729=VERTEX_POINT('',#2186);
#730=VERTEX_POINT('',#2188);
#731=VERTEX_POINT('',#2191);
#732=VERTEX_POINT('',#2193);
#733=VERTEX_POINT('',#2195);
#734=VERTEX_POINT('',#2197);
#735=VERTEX_POINT('',#2199);
#736=VERTEX_POINT('',#2201);
#737=VERTEX_POINT('',#2203);
#738=LINE('',#1833,#936);
#739=LINE('',#1836,#937);
#740=LINE('',#1838,#938);
#741=LINE('',#1840,#939);
#742=LINE('',#1842,#940);
#743=LINE('',#1845,#941);
#744=LINE('',#1847,#942);
#745=LINE('',#1849,#943);
#746=LINE('',#1851,#944);
#747=LINE('',#1854,#945);
#748=LINE('',#1856,#946);
#749=LINE('',#1858,#947);
#750=LINE('',#1860,#948);
#751=LINE('',#1863,#949);
#752=LINE('',#1865,#950);
#753=LINE('',#1867,#951);
#754=LINE('',#1869,#952);
#755=LINE('',#1871,#953);
#756=LINE('',#1873,#954);
#757=LINE('',#1875,#955);
#758=LINE('',#1877,#956);
#759=LINE('',#1879,#957);
#760=LINE('',#1881,#958);
#761=LINE('',#1883,#959);
#762=LINE('',#1885,#960);
#763=LINE('',#1887,#961);
#764=LINE('',#1889,#962);
#765=LINE('',#1891,#963);
#766=LINE('',#1893,#964);
#767=LINE('',#1895,#965);
#768=LINE('',#1897,#966);
#769=LINE('',#1899,#967);
#770=LINE('',#1901,#968);
#771=LINE('',#1903,#969);
#772=LINE('',#1905,#970);
#773=LINE('',#1907,#971);
#774=LINE('',#1909,#972);
#775=LINE('',#1911,#973);
#776=LINE('',#1913,#974);
#777=LINE('',#1915,#975);
#778=LINE('',#1917,#976);
#779=LINE('',#1919,#977);
#780=LINE('',#1921,#978);
#781=LINE('',#1923,#979);
#782=LINE('',#1925,#980);
#783=LINE('',#1927,#981);
#784=LINE('',#1929,#982);
#785=LINE('',#1931,#983);
#786=LINE('',#1933,#984);
#787=LINE('',#1935,#985);
#788=LINE('',#1937,#986);
#789=LINE('',#1939,#987);
#790=LINE('',#1941,#988);
#791=LINE('',#1943,#989);
#792=LINE('',#1945,#990);
#793=LINE('',#1947,#991);
#794=LINE('',#1949,#992);
#795=LINE('',#1951,#993);
#796=LINE('',#1953,#994);
#797=LINE('',#1955,#995);
#798=LINE('',#1957,#996);
#799=LINE('',#1959,#997);
#800=LINE('',#1961,#998);
#801=LINE('',#1963,#999);
#802=LINE('',#1965,#1000);
#803=LINE('',#1967,#1001);
#804=LINE('',#1969,#1002);
#805=LINE('',#1971,#1003);
#806=LINE('',#1973,#1004);
#807=LINE('',#1975,#1005);
#808=LINE('',#1977,#1006);
#809=LINE('',#1979,#1007);
#810=LINE('',#1981,#1008);
#811=LINE('',#1983,#1009);
#812=LINE('',#1985,#1010);
#813=LINE('',#1987,#1011);
#814=LINE('',#1989,#1012);
#815=LINE('',#1991,#1013);
#816=LINE('',#1993,#1014);
#817=LINE('',#1995,#1015);
#818=LINE('',#1997,#1016);
#819=LINE('',#1999,#1017);
#820=LINE('',#2001,#1018);
#821=LINE('',#2003,#1019);
#822=LINE('',#2005,#1020);
#823=LINE('',#2007,#1021);
#824=LINE('',#2009,#1022);
#825=LINE('',#2011,#1023);
#826=LINE('',#2013,#1024);
#827=LINE('',#2015,#1025);
#828=LINE('',#2017,#1026);
#829=LINE('',#2019,#1027);
#830=LINE('',#2021,#1028);
#831=LINE('',#2023,#1029);
#832=LINE('',#2025,#1030);
#833=LINE('',#2027,#1031);
#834=LINE('',#2029,#1032);
#835=LINE('',#2031,#1033);
#836=LINE('',#2033,#1034);
#837=LINE('',#2035,#1035);
#838=LINE('',#2037,#1036);
#839=LINE('',#2039,#1037);
#840=LINE('',#2041,#1038);
#841=LINE('',#2043,#1039);
#842=LINE('',#2045,#1040);
#843=LINE('',#2047,#1041);
#844=LINE('',#2049,#1042);
#845=LINE('',#2051,#1043);
#846=LINE('',#2053,#1044);
#847=LINE('',#2055,#1045);
#848=LINE('',#2057,#1046);
#849=LINE('',#2059,#1047);
#850=LINE('',#2061,#1048);
#851=LINE('',#2063,#1049);
#852=LINE('',#2065,#1050);
#853=LINE('',#2067,#1051);
#854=LINE('',#2069,#1052);
#855=LINE('',#2071,#1053);
#856=LINE('',#2073,#1054);
#857=LINE('',#2075,#1055);
#858=LINE('',#2077,#1056);
#859=LINE('',#2079,#1057);
#860=LINE('',#2081,#1058);
#861=LINE('',#2083,#1059);
#862=LINE('',#2085,#1060);
#863=LINE('',#2087,#1061);
#864=LINE('',#2089,#1062);
#865=LINE('',#2091,#1063);
#866=LINE('',#2093,#1064);
#867=LINE('',#2095,#1065);
#868=LINE('',#2097,#1066);
#869=LINE('',#2098,#1067);
#870=LINE('',#2100,#1068);
#871=LINE('',#2103,#1069);
#872=LINE('',#2105,#1070);
#873=LINE('',#2107,#1071);
#874=LINE('',#2109,#1072);
#875=LINE('',#2111,#1073);
#876=LINE('',#2113,#1074);
#877=LINE('',#2115,#1075);
#878=LINE('',#2117,#1076);
#879=LINE('',#2119,#1077);
#880=LINE('',#2121,#1078);
#881=LINE('',#2123,#1079);
#882=LINE('',#2125,#1080);
#883=LINE('',#2127,#1081);
#884=LINE('',#2129,#1082);
#885=LINE('',#2131,#1083);
#886=LINE('',#2133,#1084);
#887=LINE('',#2135,#1085);
#888=LINE('',#2137,#1086);
#889=LINE('',#2139,#1087);
#890=LINE('',#2141,#1088);
#891=LINE('',#2143,#1089);
#892=LINE('',#2145,#1090);
#893=LINE('',#2147,#1091);
#894=LINE('',#2149,#1092);
#895=LINE('',#2151,#1093);
#896=LINE('',#2152,#1094);
#897=LINE('',#2154,#1095);
#898=LINE('',#2156,#1096);
#899=LINE('',#2158,#1097);
#900=LINE('',#2159,#1098);
#901=LINE('',#2161,#1099);
#902=LINE('',#2163,#1100);
#903=LINE('',#2164,#1101);
#904=LINE('',#2166,#1102);
#905=LINE('',#2168,#1103);
#906=LINE('',#2170,#1104);
#907=LINE('',#2172,#1105);
#908=LINE('',#2174,#1106);
#909=LINE('',#2176,#1107);
#910=LINE('',#2178,#1108);
#911=LINE('',#2180,#1109);
#912=LINE('',#2182,#1110);
#913=LINE('',#2184,#1111);
#914=LINE('',#2185,#1112);
#915=LINE('',#2187,#1113);
#916=LINE('',#2189,#1114);
#917=LINE('',#2190,#1115);
#918=LINE('',#2192,#1116);
#919=LINE('',#2194,#1117);
#920=LINE('',#2196,#1118);
#921=LINE('',#2198,#1119);
#922=LINE('',#2200,#1120);
#923=LINE('',#2202,#1121);
#924=LINE('',#2204,#1122);
#925=LINE('',#2206,#1123);
#926=LINE('',#2207,#1124);
#927=LINE('',#2209,#1125);
#928=LINE('',#2211,#1126);
#929=LINE('',#2214,#1127);
#930=LINE('',#2215,#1128);
#931=LINE('',#2217,#1129);
#932=LINE('',#2218,#1130);
#933=LINE('',#2220,#1131);
#934=LINE('',#2221,#1132);
#935=LINE('',#2223,#1133);
#936=VECTOR('',#1499,1.);
#937=VECTOR('',#1500,1.);
#938=VECTOR('',#1501,1.);
#939=VECTOR('',#1502,1.);
#940=VECTOR('',#1505,1.);
#941=VECTOR('',#1506,1.);
#942=VECTOR('',#1507,1.);
#943=VECTOR('',#1508,1.);
#944=VECTOR('',#1511,1.);
#945=VECTOR('',#1512,1.);
#946=VECTOR('',#1513,1.);
#947=VECTOR('',#1514,1.);
#948=VECTOR('',#1517,1.);
#949=VECTOR('',#1518,1.);
#950=VECTOR('',#1519,1.);
#951=VECTOR('',#1520,1.);
#952=VECTOR('',#1523,1.);
#953=VECTOR('',#1524,1.);
#954=VECTOR('',#1525,1.);
#955=VECTOR('',#1528,1.);
#956=VECTOR('',#1529,1.);
#957=VECTOR('',#1530,1.);
#958=VECTOR('',#1533,1.);
#959=VECTOR('',#1534,1.);
#960=VECTOR('',#1535,1.);
#961=VECTOR('',#1538,1.);
#962=VECTOR('',#1539,1.);
#963=VECTOR('',#1540,1.);
#964=VECTOR('',#1543,1.);
#965=VECTOR('',#1544,1.);
#966=VECTOR('',#1545,1.);
#967=VECTOR('',#1548,1.);
#968=VECTOR('',#1549,1.);
#969=VECTOR('',#1550,1.);
#970=VECTOR('',#1553,1.);
#971=VECTOR('',#1554,1.);
#972=VECTOR('',#1555,1.);
#973=VECTOR('',#1558,1.);
#974=VECTOR('',#1559,1.);
#975=VECTOR('',#1560,1.);
#976=VECTOR('',#1563,1.);
#977=VECTOR('',#1564,1.);
#978=VECTOR('',#1565,1.);
#979=VECTOR('',#1568,1.);
#980=VECTOR('',#1569,1.);
#981=VECTOR('',#1570,1.);
#982=VECTOR('',#1573,1.);
#983=VECTOR('',#1574,1.);
#984=VECTOR('',#1575,1.);
#985=VECTOR('',#1578,1.);
#986=VECTOR('',#1579,1.);
#987=VECTOR('',#1580,1.);
#988=VECTOR('',#1583,1.);
#989=VECTOR('',#1584,1.);
#990=VECTOR('',#1585,1.);
#991=VECTOR('',#1588,1.);
#992=VECTOR('',#1589,1.);
#993=VECTOR('',#1590,1.);
#994=VECTOR('',#1593,1.);
#995=VECTOR('',#1594,1.);
#996=VECTOR('',#1595,1.);
#997=VECTOR('',#1598,1.);
#998=VECTOR('',#1599,1.);
#999=VECTOR('',#1600,1.);
#1000=VECTOR('',#1603,1.);
#1001=VECTOR('',#1604,1.);
#1002=VECTOR('',#1605,1.);
#1003=VECTOR('',#1608,1.);
#1004=VECTOR('',#1609,1.);
#1005=VECTOR('',#1610,1.);
#1006=VECTOR('',#1613,1.);
#1007=VECTOR('',#1614,1.);
#1008=VECTOR('',#1615,1.);
#1009=VECTOR('',#1618,1.);
#1010=VECTOR('',#1619,1.);
#1011=VECTOR('',#1620,1.);
#1012=VECTOR('',#1623,1.);
#1013=VECTOR('',#1624,1.);
#1014=VECTOR('',#1625,1.);
#1015=VECTOR('',#1628,1.);
#1016=VECTOR('',#1629,1.);
#1017=VECTOR('',#1630,1.);
#1018=VECTOR('',#1633,1.);
#1019=VECTOR('',#1634,1.);
#1020=VECTOR('',#1635,1.);
#1021=VECTOR('',#1638,1.);
#1022=VECTOR('',#1639,1.);
#1023=VECTOR('',#1640,1.);
#1024=VECTOR('',#1643,1.);
#1025=VECTOR('',#1644,1.);
#1026=VECTOR('',#1645,1.);
#1027=VECTOR('',#1648,1.);
#1028=VECTOR('',#1649,1.);
#1029=VECTOR('',#1650,1.);
#1030=VECTOR('',#1653,1.);
#1031=VECTOR('',#1654,1.);
#1032=VECTOR('',#1655,1.);
#1033=VECTOR('',#1658,1.);
#1034=VECTOR('',#1659,1.);
#1035=VECTOR('',#1660,1.);
#1036=VECTOR('',#1663,1.);
#1037=VECTOR('',#1664,1.);
#1038=VECTOR('',#1665,1.);
#1039=VECTOR('',#1668,1.);
#1040=VECTOR('',#1669,1.);
#1041=VECTOR('',#1670,1.);
#1042=VECTOR('',#1673,1.);
#1043=VECTOR('',#1674,1.);
#1044=VECTOR('',#1675,1.);
#1045=VECTOR('',#1678,1.);
#1046=VECTOR('',#1679,1.);
#1047=VECTOR('',#1680,1.);
#1048=VECTOR('',#1683,1.);
#1049=VECTOR('',#1684,1.);
#1050=VECTOR('',#1685,1.);
#1051=VECTOR('',#1688,1.);
#1052=VECTOR('',#1689,1.);
#1053=VECTOR('',#1690,1.);
#1054=VECTOR('',#1693,1.);
#1055=VECTOR('',#1694,1.);
#1056=VECTOR('',#1695,1.);
#1057=VECTOR('',#1698,1.);
#1058=VECTOR('',#1699,1.);
#1059=VECTOR('',#1700,1.);
#1060=VECTOR('',#1703,1.);
#1061=VECTOR('',#1704,1.);
#1062=VECTOR('',#1705,1.);
#1063=VECTOR('',#1708,1.);
#1064=VECTOR('',#1709,1.);
#1065=VECTOR('',#1710,1.);
#1066=VECTOR('',#1713,1.);
#1067=VECTOR('',#1714,1.);
#1068=VECTOR('',#1717,1.);
#1069=VECTOR('',#1718,1.);
#1070=VECTOR('',#1719,1.);
#1071=VECTOR('',#1720,1.);
#1072=VECTOR('',#1723,1.);
#1073=VECTOR('',#1724,1.);
#1074=VECTOR('',#1725,1.);
#1075=VECTOR('',#1728,1.);
#1076=VECTOR('',#1729,1.);
#1077=VECTOR('',#1730,1.);
#1078=VECTOR('',#1733,1.);
#1079=VECTOR('',#1734,1.);
#1080=VECTOR('',#1735,1.);
#1081=VECTOR('',#1738,1.);
#1082=VECTOR('',#1739,1.);
#1083=VECTOR('',#1740,1.);
#1084=VECTOR('',#1743,1.);
#1085=VECTOR('',#1744,1.);
#1086=VECTOR('',#1745,1.);
#1087=VECTOR('',#1748,1.);
#1088=VECTOR('',#1749,1.);
#1089=VECTOR('',#1750,1.);
#1090=VECTOR('',#1753,1.);
#1091=VECTOR('',#1754,1.);
#1092=VECTOR('',#1755,1.);
#1093=VECTOR('',#1758,1.);
#1094=VECTOR('',#1759,1.);
#1095=VECTOR('',#1762,1.);
#1096=VECTOR('',#1763,1.);
#1097=VECTOR('',#1764,1.);
#1098=VECTOR('',#1765,1.);
#1099=VECTOR('',#1766,1.);
#1100=VECTOR('',#1767,1.);
#1101=VECTOR('',#1768,1.);
#1102=VECTOR('',#1769,1.);
#1103=VECTOR('',#1770,1.);
#1104=VECTOR('',#1771,1.);
#1105=VECTOR('',#1772,1.);
#1106=VECTOR('',#1773,1.);
#1107=VECTOR('',#1774,1.);
#1108=VECTOR('',#1775,1.);
#1109=VECTOR('',#1778,1.);
#1110=VECTOR('',#1779,1.);
#1111=VECTOR('',#1780,1.);
#1112=VECTOR('',#1781,1.);
#1113=VECTOR('',#1782,1.);
#1114=VECTOR('',#1783,1.);
#1115=VECTOR('',#1784,1.);
#1116=VECTOR('',#1785,1.);
#1117=VECTOR('',#1786,1.);
#1118=VECTOR('',#1787,1.);
#1119=VECTOR('',#1788,1.);
#1120=VECTOR('',#1789,1.);
#1121=VECTOR('',#1790,1.);
#1122=VECTOR('',#1791,1.);
#1123=VECTOR('',#1794,1.);
#1124=VECTOR('',#1795,1.);
#1125=VECTOR('',#1798,1.);
#1126=VECTOR('',#1801,1.);
#1127=VECTOR('',#1806,1.);
#1128=VECTOR('',#1807,1.);
#1129=VECTOR('',#1810,1.);
#1130=VECTOR('',#1811,1.);
#1131=VECTOR('',#1814,1.);
#1132=VECTOR('',#1815,1.);
#1133=VECTOR('',#1818,1.);
#1134=EDGE_LOOP('',(#12,#13,#14,#15));
#1135=EDGE_LOOP('',(#16,#17,#18,#19));
#1136=EDGE_LOOP('',(#20,#21,#22,#23));
#1137=EDGE_LOOP('',(#24,#25,#26,#27));
#1138=EDGE_LOOP('',(#28,#29,#30,#31));
#1139=EDGE_LOOP('',(#32,#33,#34,#35));
#1140=EDGE_LOOP('',(#36,#37,#38,#39));
#1141=EDGE_LOOP('',(#40,#41,#42,#43));
#1142=EDGE_LOOP('',(#44,#45,#46,#47));
#1143=EDGE_LOOP('',(#48,#49,#50,#51));
#1144=EDGE_LOOP('',(#52,#53,#54,#55));
#1145=EDGE_LOOP('',(#56,#57,#58,#59));
#1146=EDGE_LOOP('',(#60,#61,#62,#63));
#1147=EDGE_LOOP('',(#64,#65,#66,#67));
#1148=EDGE_LOOP('',(#68,#69,#70,#71));
#1149=EDGE_LOOP('',(#72,#73,#74,#75));
#1150=EDGE_LOOP('',(#76,#77,#78,#79));
#1151=EDGE_LOOP('',(#80,#81,#82,#83));
#1152=EDGE_LOOP('',(#84,#85,#86,#87));
#1153=EDGE_LOOP('',(#88,#89,#90,#91));
#1154=EDGE_LOOP('',(#92,#93,#94,#95));
#1155=EDGE_LOOP('',(#96,#97,#98,#99));
#1156=EDGE_LOOP('',(#100,#101,#102,#103));
#1157=EDGE_LOOP('',(#104,#105,#106,#107));
#1158=EDGE_LOOP('',(#108,#109,#110,#111));
#1159=EDGE_LOOP('',(#112,#113,#114,#115));
#1160=EDGE_LOOP('',(#116,#117,#118,#119));
#1161=EDGE_LOOP('',(#120,#121,#122,#123));
#1162=EDGE_LOOP('',(#124,#125,#126,#127));
#1163=EDGE_LOOP('',(#128,#129,#130,#131));
#1164=EDGE_LOOP('',(#132,#133,#134,#135));
#1165=EDGE_LOOP('',(#136,#137,#138,#139));
#1166=EDGE_LOOP('',(#140,#141,#142,#143));
#1167=EDGE_LOOP('',(#144,#145,#146,#147));
#1168=EDGE_LOOP('',(#148,#149,#150,#151));
#1169=EDGE_LOOP('',(#152,#153,#154,#155));
#1170=EDGE_LOOP('',(#156,#157,#158,#159));
#1171=EDGE_LOOP('',(#160,#161,#162,#163));
#1172=EDGE_LOOP('',(#164,#165,#166,#167));
#1173=EDGE_LOOP('',(#168,#169,#170,#171));
#1174=EDGE_LOOP('',(#172,#173,#174,#175));
#1175=EDGE_LOOP('',(#176,#177,#178,#179));
#1176=EDGE_LOOP('',(#180,#181,#182,#183));
#1177=EDGE_LOOP('',(#184,#185,#186,#187));
#1178=EDGE_LOOP('',(#188,#189,#190,#191));
#1179=EDGE_LOOP('',(#192,#193,#194,#195));
#1180=EDGE_LOOP('',(#196,#197,#198,#199));
#1181=EDGE_LOOP('',(#200,#201,#202,#203));
#1182=EDGE_LOOP('',(#204,#205,#206,#207));
#1183=EDGE_LOOP('',(#208,#209,#210,#211));
#1184=EDGE_LOOP('',(#212,#213,#214,#215));
#1185=EDGE_LOOP('',(#216,#217,#218,#219));
#1186=EDGE_LOOP('',(#220,#221,#222,#223));
#1187=EDGE_LOOP('',(#224,#225,#226,#227));
#1188=EDGE_LOOP('',(#228,#229,#230,#231,#232,#233,#234,#235,#236,#237,#238,
#239,#240,#241,#242,#243,#244,#245,#246,#247,#248,#249,#250,#251,#252,#253,
#254,#255,#256,#257,#258,#259,#260,#261,#262,#263,#264,#265,#266,#267,#268,
#269,#270,#271,#272,#273,#274,#275,#276,#277,#278,#279,#280,#281,#282,#283,
#284,#285));
#1189=EDGE_LOOP('',(#286,#287,#288,#289));
#1190=EDGE_LOOP('',(#290,#291,#292,#293));
#1191=EDGE_LOOP('',(#294,#295,#296,#297,#298,#299,#300,#301,#302,#303,#304,
#305,#306,#307,#308,#309,#310,#311,#312,#313,#314,#315,#316,#317,#318,#319,
#320,#321,#322,#323,#324,#325,#326,#327,#328,#329,#330,#331,#332,#333,#334,
#335,#336,#337,#338,#339,#340,#341,#342,#343,#344,#345,#346,#347,#348,#349,
#350,#351));
#1192=EDGE_LOOP('',(#352,#353,#354,#355));
#1193=EDGE_LOOP('',(#356,#357,#358,#359));
#1194=EDGE_LOOP('',(#360,#361,#362,#363));
#1195=EDGE_LOOP('',(#364,#365,#366,#367));
#1196=EDGE_LOOP('',(#368,#369,#370,#371));
#1197=EDGE_LOOP('',(#372,#373,#374,#375));
#1198=EDGE_LOOP('',(#376,#377,#378,#379));
#1199=EDGE_LOOP('',(#380,#381,#382,#383));
#1200=EDGE_LOOP('',(#384,#385,#386,#387));
#1201=EDGE_LOOP('',(#388,#389,#390,#391));
#1202=EDGE_LOOP('',(#392,#393,#394,#395));
#1203=EDGE_LOOP('',(#396,#397,#398,#399));
#1204=EDGE_LOOP('',(#400,#401,#402,#403));
#1205=EDGE_LOOP('',(#404,#405,#406,#407));
#1206=FACE_BOUND('',#1134,.T.);
#1207=FACE_BOUND('',#1135,.T.);
#1208=FACE_BOUND('',#1136,.T.);
#1209=FACE_BOUND('',#1137,.T.);
#1210=FACE_BOUND('',#1138,.T.);
#1211=FACE_BOUND('',#1139,.T.);
#1212=FACE_BOUND('',#1140,.T.);
#1213=FACE_BOUND('',#1141,.T.);
#1214=FACE_BOUND('',#1142,.T.);
#1215=FACE_BOUND('',#1143,.T.);
#1216=FACE_BOUND('',#1144,.T.);
#1217=FACE_BOUND('',#1145,.T.);
#1218=FACE_BOUND('',#1146,.T.);
#1219=FACE_BOUND('',#1147,.T.);
#1220=FACE_BOUND('',#1148,.T.);
#1221=FACE_BOUND('',#1149,.T.);
#1222=FACE_BOUND('',#1150,.T.);
#1223=FACE_BOUND('',#1151,.T.);
#1224=FACE_BOUND('',#1152,.T.);
#1225=FACE_BOUND('',#1153,.T.);
#1226=FACE_BOUND('',#1154,.T.);
#1227=FACE_BOUND('',#1155,.T.);
#1228=FACE_BOUND('',#1156,.T.);
#1229=FACE_BOUND('',#1157,.T.);
#1230=FACE_BOUND('',#1158,.T.);
#1231=FACE_BOUND('',#1159,.T.);
#1232=FACE_BOUND('',#1160,.T.);
#1233=FACE_BOUND('',#1161,.T.);
#1234=FACE_BOUND('',#1162,.T.);
#1235=FACE_BOUND('',#1163,.T.);
#1236=FACE_BOUND('',#1164,.T.);
#1237=FACE_BOUND('',#1165,.T.);
#1238=FACE_BOUND('',#1166,.T.);
#1239=FACE_BOUND('',#1167,.T.);
#1240=FACE_BOUND('',#1168,.T.);
#1241=FACE_BOUND('',#1169,.T.);
#1242=FACE_BOUND('',#1170,.T.);
#1243=FACE_BOUND('',#1171,.T.);
#1244=FACE_BOUND('',#1172,.T.);
#1245=FACE_BOUND('',#1173,.T.);
#1246=FACE_BOUND('',#1174,.T.);
#1247=FACE_BOUND('',#1175,.T.);
#1248=FACE_BOUND('',#1176,.T.);
#1249=FACE_BOUND('',#1177,.T.);
#1250=FACE_BOUND('',#1178,.T.);
#1251=FACE_BOUND('',#1179,.T.);
#1252=FACE_BOUND('',#1180,.T.);
#1253=FACE_BOUND('',#1181,.T.);
#1254=FACE_BOUND('',#1182,.T.);
#1255=FACE_BOUND('',#1183,.T.);
#1256=FACE_BOUND('',#1184,.T.);
#1257=FACE_BOUND('',#1185,.T.);
#1258=FACE_BOUND('',#1186,.T.);
#1259=FACE_BOUND('',#1187,.T.);
#1260=FACE_BOUND('',#1188,.T.);
#1261=FACE_BOUND('',#1189,.T.);
#1262=FACE_BOUND('',#1190,.T.);
#1263=FACE_BOUND('',#1191,.T.);
#1264=FACE_BOUND('',#1192,.T.);
#1265=FACE_BOUND('',#1193,.T.);
#1266=FACE_BOUND('',#1194,.T.);
#1267=FACE_BOUND('',#1195,.T.);
#1268=FACE_BOUND('',#1196,.T.);
#1269=FACE_BOUND('',#1197,.T.);
#1270=FACE_BOUND('',#1198,.T.);
#1271=FACE_BOUND('',#1199,.T.);
#1272=FACE_BOUND('',#1200,.T.);
#1273=FACE_BOUND('',#1201,.T.);
#1274=FACE_BOUND('',#1202,.T.);
#1275=FACE_BOUND('',#1203,.T.);
#1276=FACE_BOUND('',#1204,.T.);
#1277=FACE_BOUND('',#1205,.T.);
#1278=PLANE('',#1427);
#1279=PLANE('',#1428);
#1280=PLANE('',#1429);
#1281=PLANE('',#1430);
#1282=PLANE('',#1431);
#1283=PLANE('',#1432);
#1284=PLANE('',#1433);
#1285=PLANE('',#1434);
#1286=PLANE('',#1435);
#1287=PLANE('',#1436);
#1288=PLANE('',#1437);
#1289=PLANE('',#1438);
#1290=PLANE('',#1439);
#1291=PLANE('',#1440);
#1292=PLANE('',#1441);
#1293=PLANE('',#1442);
#1294=PLANE('',#1443);
#1295=PLANE('',#1444);
#1296=PLANE('',#1445);
#1297=PLANE('',#1446);
#1298=PLANE('',#1447);
#1299=PLANE('',#1448);
#1300=PLANE('',#1449);
#1301=PLANE('',#1450);
#1302=PLANE('',#1451);
#1303=PLANE('',#1452);
#1304=PLANE('',#1453);
#1305=PLANE('',#1454);
#1306=PLANE('',#1455);
#1307=PLANE('',#1456);
#1308=PLANE('',#1457);
#1309=PLANE('',#1458);
#1310=PLANE('',#1459);
#1311=PLANE('',#1460);
#1312=PLANE('',#1461);
#1313=PLANE('',#1462);
#1314=PLANE('',#1463);
#1315=PLANE('',#1464);
#1316=PLANE('',#1465);
#1317=PLANE('',#1466);
#1318=PLANE('',#1467);
#1319=PLANE('',#1468);
#1320=PLANE('',#1469);
#1321=PLANE('',#1470);
#1322=PLANE('',#1471);
#1323=PLANE('',#1472);
#1324=PLANE('',#1473);
#1325=PLANE('',#1474);
#1326=PLANE('',#1475);
#1327=PLANE('',#1476);
#1328=PLANE('',#1477);
#1329=PLANE('',#1478);
#1330=PLANE('',#1479);
#1331=PLANE('',#1480);
#1332=PLANE('',#1481);
#1333=PLANE('',#1482);
#1334=PLANE('',#1483);
#1335=PLANE('',#1484);
#1336=PLANE('',#1485);
#1337=PLANE('',#1486);
#1338=PLANE('',#1487);
#1339=PLANE('',#1488);
#1340=PLANE('',#1489);
#1341=PLANE('',#1490);
#1342=PLANE('',#1491);
#1343=PLANE('',#1492);
#1344=PLANE('',#1493);
#1345=PLANE('',#1494);
#1346=ADVANCED_FACE('',(#1206),#1278,.F.);
#1347=ADVANCED_FACE('',(#1207),#1279,.F.);
#1348=ADVANCED_FACE('',(#1208),#1280,.T.);
#1349=ADVANCED_FACE('',(#1209),#1281,.T.);
#1350=ADVANCED_FACE('',(#1210),#1282,.F.);
#1351=ADVANCED_FACE('',(#1211),#1283,.F.);
#1352=ADVANCED_FACE('',(#1212),#1284,.F.);
#1353=ADVANCED_FACE('',(#1213),#1285,.F.);
#1354=ADVANCED_FACE('',(#1214),#1286,.T.);
#1355=ADVANCED_FACE('',(#1215),#1287,.T.);
#1356=ADVANCED_FACE('',(#1216),#1288,.T.);
#1357=ADVANCED_FACE('',(#1217),#1289,.F.);
#1358=ADVANCED_FACE('',(#1218),#1290,.T.);
#1359=ADVANCED_FACE('',(#1219),#1291,.T.);
#1360=ADVANCED_FACE('',(#1220),#1292,.T.);
#1361=ADVANCED_FACE('',(#1221),#1293,.F.);
#1362=ADVANCED_FACE('',(#1222),#1294,.T.);
#1363=ADVANCED_FACE('',(#1223),#1295,.T.);
#1364=ADVANCED_FACE('',(#1224),#1296,.T.);
#1365=ADVANCED_FACE('',(#1225),#1297,.F.);
#1366=ADVANCED_FACE('',(#1226),#1298,.T.);
#1367=ADVANCED_FACE('',(#1227),#1299,.T.);
#1368=ADVANCED_FACE('',(#1228),#1300,.T.);
#1369=ADVANCED_FACE('',(#1229),#1301,.F.);
#1370=ADVANCED_FACE('',(#1230),#1302,.T.);
#1371=ADVANCED_FACE('',(#1231),#1303,.T.);
#1372=ADVANCED_FACE('',(#1232),#1304,.T.);
#1373=ADVANCED_FACE('',(#1233),#1305,.F.);
#1374=ADVANCED_FACE('',(#1234),#1306,.T.);
#1375=ADVANCED_FACE('',(#1235),#1307,.T.);
#1376=ADVANCED_FACE('',(#1236),#1308,.T.);
#1377=ADVANCED_FACE('',(#1237),#1309,.T.);
#1378=ADVANCED_FACE('',(#1238),#1310,.T.);
#1379=ADVANCED_FACE('',(#1239),#1311,.F.);
#1380=ADVANCED_FACE('',(#1240),#1312,.T.);
#1381=ADVANCED_FACE('',(#1241),#1313,.T.);
#1382=ADVANCED_FACE('',(#1242),#1314,.T.);
#1383=ADVANCED_FACE('',(#1243),#1315,.F.);
#1384=ADVANCED_FACE('',(#1244),#1316,.T.);
#1385=ADVANCED_FACE('',(#1245),#1317,.T.);
#1386=ADVANCED_FACE('',(#1246),#1318,.T.);
#1387=ADVANCED_FACE('',(#1247),#1319,.F.);
#1388=ADVANCED_FACE('',(#1248),#1320,.T.);
#1389=ADVANCED_FACE('',(#1249),#1321,.T.);
#1390=ADVANCED_FACE('',(#1250),#1322,.T.);
#1391=ADVANCED_FACE('',(#1251),#1323,.F.);
#1392=ADVANCED_FACE('',(#1252),#1324,.F.);
#1393=ADVANCED_FACE('',(#1253),#1325,.T.);
#1394=ADVANCED_FACE('',(#1254),#1326,.T.);
#1395=ADVANCED_FACE('',(#1255),#1327,.T.);
#1396=ADVANCED_FACE('',(#1256),#1328,.T.);
#1397=ADVANCED_FACE('',(#1257),#1329,.T.);
#1398=ADVANCED_FACE('',(#1258,#1259,#1260),#1330,.F.);
#1399=ADVANCED_FACE('',(#1261,#1262,#1263),#1331,.T.);
#1400=ADVANCED_FACE('',(#1264),#1332,.F.);
#1401=ADVANCED_FACE('',(#1265),#1333,.F.);
#1402=ADVANCED_FACE('',(#1266),#1334,.F.);
#1403=ADVANCED_FACE('',(#1267),#1335,.F.);
#1404=ADVANCED_FACE('',(#1268),#1336,.F.);
#1405=ADVANCED_FACE('',(#1269),#1337,.F.);
#1406=ADVANCED_FACE('',(#1270),#1338,.F.);
#1407=ADVANCED_FACE('',(#1271),#1339,.F.);
#1408=ADVANCED_FACE('',(#1272),#1340,.F.);
#1409=ADVANCED_FACE('',(#1273),#1341,.T.);
#1410=ADVANCED_FACE('',(#1274),#1342,.T.);
#1411=ADVANCED_FACE('',(#1275),#1343,.F.);
#1412=ADVANCED_FACE('',(#1276),#1344,.T.);
#1413=ADVANCED_FACE('',(#1277),#1345,.F.);
#1414=CLOSED_SHELL('',(#1346,#1347,#1348,#1349,#1350,#1351,#1352,#1353,
#1354,#1355,#1356,#1357,#1358,#1359,#1360,#1361,#1362,#1363,#1364,#1365,
#1366,#1367,#1368,#1369,#1370,#1371,#1372,#1373,#1374,#1375,#1376,#1377,
#1378,#1379,#1380,#1381,#1382,#1383,#1384,#1385,#1386,#1387,#1388,#1389,
#1390,#1391,#1392,#1393,#1394,#1395,#1396,#1397,#1398,#1399,#1400,#1401,
#1402,#1403,#1404,#1405,#1406,#1407,#1408,#1409,#1410,#1411,#1412,#1413));
#1415=STYLED_ITEM('',(#1416),#1423);
#1416=PRESENTATION_STYLE_ASSIGNMENT((#1417));
#1417=SURFACE_STYLE_USAGE(.BOTH.,#1418);
#1418=SURFACE_SIDE_STYLE('',(#1419));
#1419=SURFACE_STYLE_FILL_AREA(#1420);
#1420=FILL_AREA_STYLE('',(#1421));
#1421=FILL_AREA_STYLE_COLOUR('',#1422);
#1422=COLOUR_RGB('',0.917647058823529,0.917647058823529,0.917647058823529);
#1423=MANIFOLD_SOLID_BREP('Rear_Engine_Railing',#1414);
#1424=SHAPE_DEFINITION_REPRESENTATION(#2236,#1425);
#1425=SHAPE_REPRESENTATION('Rear_Engine_Railing',(#1426),#2231);
#1426=AXIS2_PLACEMENT_3D('',#1831,#1495,#1496);
#1427=AXIS2_PLACEMENT_3D('',#1832,#1497,#1498);
#1428=AXIS2_PLACEMENT_3D('',#1841,#1503,#1504);
#1429=AXIS2_PLACEMENT_3D('',#1850,#1509,#1510);
#1430=AXIS2_PLACEMENT_3D('',#1859,#1515,#1516);
#1431=AXIS2_PLACEMENT_3D('',#1868,#1521,#1522);
#1432=AXIS2_PLACEMENT_3D('',#1874,#1526,#1527);
#1433=AXIS2_PLACEMENT_3D('',#1880,#1531,#1532);
#1434=AXIS2_PLACEMENT_3D('',#1886,#1536,#1537);
#1435=AXIS2_PLACEMENT_3D('',#1892,#1541,#1542);
#1436=AXIS2_PLACEMENT_3D('',#1898,#1546,#1547);
#1437=AXIS2_PLACEMENT_3D('',#1904,#1551,#1552);
#1438=AXIS2_PLACEMENT_3D('',#1910,#1556,#1557);
#1439=AXIS2_PLACEMENT_3D('',#1916,#1561,#1562);
#1440=AXIS2_PLACEMENT_3D('',#1922,#1566,#1567);
#1441=AXIS2_PLACEMENT_3D('',#1928,#1571,#1572);
#1442=AXIS2_PLACEMENT_3D('',#1934,#1576,#1577);
#1443=AXIS2_PLACEMENT_3D('',#1940,#1581,#1582);
#1444=AXIS2_PLACEMENT_3D('',#1946,#1586,#1587);
#1445=AXIS2_PLACEMENT_3D('',#1952,#1591,#1592);
#1446=AXIS2_PLACEMENT_3D('',#1958,#1596,#1597);
#1447=AXIS2_PLACEMENT_3D('',#1964,#1601,#1602);
#1448=AXIS2_PLACEMENT_3D('',#1970,#1606,#1607);
#1449=AXIS2_PLACEMENT_3D('',#1976,#1611,#1612);
#1450=AXIS2_PLACEMENT_3D('',#1982,#1616,#1617);
#1451=AXIS2_PLACEMENT_3D('',#1988,#1621,#1622);
#1452=AXIS2_PLACEMENT_3D('',#1994,#1626,#1627);
#1453=AXIS2_PLACEMENT_3D('',#2000,#1631,#1632);
#1454=AXIS2_PLACEMENT_3D('',#2006,#1636,#1637);
#1455=AXIS2_PLACEMENT_3D('',#2012,#1641,#1642);
#1456=AXIS2_PLACEMENT_3D('',#2018,#1646,#1647);
#1457=AXIS2_PLACEMENT_3D('',#2024,#1651,#1652);
#1458=AXIS2_PLACEMENT_3D('',#2030,#1656,#1657);
#1459=AXIS2_PLACEMENT_3D('',#2036,#1661,#1662);
#1460=AXIS2_PLACEMENT_3D('',#2042,#1666,#1667);
#1461=AXIS2_PLACEMENT_3D('',#2048,#1671,#1672);
#1462=AXIS2_PLACEMENT_3D('',#2054,#1676,#1677);
#1463=AXIS2_PLACEMENT_3D('',#2060,#1681,#1682);
#1464=AXIS2_PLACEMENT_3D('',#2066,#1686,#1687);
#1465=AXIS2_PLACEMENT_3D('',#2072,#1691,#1692);
#1466=AXIS2_PLACEMENT_3D('',#2078,#1696,#1697);
#1467=AXIS2_PLACEMENT_3D('',#2084,#1701,#1702);
#1468=AXIS2_PLACEMENT_3D('',#2090,#1706,#1707);
#1469=AXIS2_PLACEMENT_3D('',#2096,#1711,#1712);
#1470=AXIS2_PLACEMENT_3D('',#2099,#1715,#1716);
#1471=AXIS2_PLACEMENT_3D('',#2108,#1721,#1722);
#1472=AXIS2_PLACEMENT_3D('',#2114,#1726,#1727);
#1473=AXIS2_PLACEMENT_3D('',#2120,#1731,#1732);
#1474=AXIS2_PLACEMENT_3D('',#2126,#1736,#1737);
#1475=AXIS2_PLACEMENT_3D('',#2132,#1741,#1742);
#1476=AXIS2_PLACEMENT_3D('',#2138,#1746,#1747);
#1477=AXIS2_PLACEMENT_3D('',#2144,#1751,#1752);
#1478=AXIS2_PLACEMENT_3D('',#2150,#1756,#1757);
#1479=AXIS2_PLACEMENT_3D('',#2153,#1760,#1761);
#1480=AXIS2_PLACEMENT_3D('',#2179,#1776,#1777);
#1481=AXIS2_PLACEMENT_3D('',#2205,#1792,#1793);
#1482=AXIS2_PLACEMENT_3D('',#2208,#1796,#1797);
#1483=AXIS2_PLACEMENT_3D('',#2210,#1799,#1800);
#1484=AXIS2_PLACEMENT_3D('',#2212,#1802,#1803);
#1485=AXIS2_PLACEMENT_3D('',#2213,#1804,#1805);
#1486=AXIS2_PLACEMENT_3D('',#2216,#1808,#1809);
#1487=AXIS2_PLACEMENT_3D('',#2219,#1812,#1813);
#1488=AXIS2_PLACEMENT_3D('',#2222,#1816,#1817);
#1489=AXIS2_PLACEMENT_3D('',#2224,#1819,#1820);
#1490=AXIS2_PLACEMENT_3D('',#2225,#1821,#1822);
#1491=AXIS2_PLACEMENT_3D('',#2226,#1823,#1824);
#1492=AXIS2_PLACEMENT_3D('',#2227,#1825,#1826);
#1493=AXIS2_PLACEMENT_3D('',#2228,#1827,#1828);
#1494=AXIS2_PLACEMENT_3D('',#2229,#1829,#1830);
#1495=DIRECTION('',(0.,0.,1.));
#1496=DIRECTION('',(1.,0.,0.));
#1497=DIRECTION('',(0.,-1.,0.));
#1498=DIRECTION('',(0.,0.,-1.));
#1499=DIRECTION('',(0.,0.,-1.));
#1500=DIRECTION('',(-1.,0.,0.));
#1501=DIRECTION('',(0.,0.,-1.));
#1502=DIRECTION('',(-1.,0.,0.));
#1503=DIRECTION('',(0.,-1.,0.));
#1504=DIRECTION('',(0.,0.,-1.));
#1505=DIRECTION('',(0.,0.,-1.));
#1506=DIRECTION('',(-1.,0.,0.));
#1507=DIRECTION('',(0.,0.,-1.));
#1508=DIRECTION('',(-1.,0.,0.));
#1509=DIRECTION('',(0.,1.,0.));
#1510=DIRECTION('',(0.,0.,1.));
#1511=DIRECTION('',(0.,0.,1.));
#1512=DIRECTION('',(1.,0.,0.));
#1513=DIRECTION('',(0.,0.,1.));
#1514=DIRECTION('',(1.,0.,0.));
#1515=DIRECTION('',(0.,1.,0.));
#1516=DIRECTION('',(0.,0.,1.));
#1517=DIRECTION('',(0.,0.,1.));
#1518=DIRECTION('',(1.,0.,0.));
#1519=DIRECTION('',(0.,0.,1.));
#1520=DIRECTION('',(1.,0.,0.));
#1521=DIRECTION('',(0.,0.,1.));
#1522=DIRECTION('',(1.,0.,0.));
#1523=DIRECTION('',(0.,-1.,0.));
#1524=DIRECTION('',(0.,-1.,0.));
#1525=DIRECTION('',(1.,0.,0.));
#1526=DIRECTION('',(0.,0.707106781186548,0.707106781186548));
#1527=DIRECTION('',(0.,-0.707106781186548,0.707106781186548));
#1528=DIRECTION('',(0.,-0.707106781186548,0.707106781186548));
#1529=DIRECTION('',(0.,-0.707106781186548,0.707106781186548));
#1530=DIRECTION('',(1.,0.,0.));
#1531=DIRECTION('',(0.,0.,1.));
#1532=DIRECTION('',(1.,0.,0.));
#1533=DIRECTION('',(0.,-1.,0.));
#1534=DIRECTION('',(0.,-1.,0.));
#1535=DIRECTION('',(1.,0.,0.));
#1536=DIRECTION('',(0.,1.,0.));
#1537=DIRECTION('',(0.,0.,1.));
#1538=DIRECTION('',(0.,0.,1.));
#1539=DIRECTION('',(0.,0.,1.));
#1540=DIRECTION('',(1.,0.,0.));
#1541=DIRECTION('',(0.,0.,-1.));
#1542=DIRECTION('',(-1.,0.,0.));
#1543=DIRECTION('',(0.,1.,0.));
#1544=DIRECTION('',(0.,1.,0.));
#1545=DIRECTION('',(1.,0.,0.));
#1546=DIRECTION('',(0.,1.,0.));
#1547=DIRECTION('',(0.,0.,1.));
#1548=DIRECTION('',(0.,0.,1.));
#1549=DIRECTION('',(0.,0.,1.));
#1550=DIRECTION('',(1.,0.,0.));
#1551=DIRECTION('',(0.,0.,-1.));
#1552=DIRECTION('',(-1.,0.,0.));
#1553=DIRECTION('',(0.,1.,0.));
#1554=DIRECTION('',(0.,1.,0.));
#1555=DIRECTION('',(1.,0.,0.));
#1556=DIRECTION('',(0.,1.,0.));
#1557=DIRECTION('',(0.,0.,1.));
#1558=DIRECTION('',(0.,0.,1.));
#1559=DIRECTION('',(0.,0.,1.));
#1560=DIRECTION('',(1.,0.,0.));
#1561=DIRECTION('',(0.,0.,-1.));
#1562=DIRECTION('',(-1.,0.,0.));
#1563=DIRECTION('',(0.,1.,0.));
#1564=DIRECTION('',(0.,1.,0.));
#1565=DIRECTION('',(1.,0.,0.));
#1566=DIRECTION('',(0.,1.,0.));
#1567=DIRECTION('',(0.,0.,1.));
#1568=DIRECTION('',(0.,0.,1.));
#1569=DIRECTION('',(0.,0.,1.));
#1570=DIRECTION('',(1.,0.,0.));
#1571=DIRECTION('',(0.,0.,-1.));
#1572=DIRECTION('',(-1.,0.,0.));
#1573=DIRECTION('',(0.,1.,0.));
#1574=DIRECTION('',(0.,1.,0.));
#1575=DIRECTION('',(1.,0.,0.));
#1576=DIRECTION('',(0.,1.,0.));
#1577=DIRECTION('',(0.,0.,1.));
#1578=DIRECTION('',(0.,0.,1.));
#1579=DIRECTION('',(0.,0.,1.));
#1580=DIRECTION('',(1.,0.,0.));
#1581=DIRECTION('',(0.,0.,-1.));
#1582=DIRECTION('',(-1.,0.,0.));
#1583=DIRECTION('',(0.,1.,0.));
#1584=DIRECTION('',(0.,1.,0.));
#1585=DIRECTION('',(1.,0.,0.));
#1586=DIRECTION('',(0.,1.,0.));
#1587=DIRECTION('',(0.,0.,1.));
#1588=DIRECTION('',(0.,0.,1.));
#1589=DIRECTION('',(0.,0.,1.));
#1590=DIRECTION('',(1.,0.,0.));
#1591=DIRECTION('',(0.,0.,-1.));
#1592=DIRECTION('',(-1.,0.,0.));
#1593=DIRECTION('',(0.,1.,0.));
#1594=DIRECTION('',(0.,1.,0.));
#1595=DIRECTION('',(1.,0.,0.));
#1596=DIRECTION('',(0.,1.,0.));
#1597=DIRECTION('',(0.,0.,1.));
#1598=DIRECTION('',(0.,0.,1.));
#1599=DIRECTION('',(0.,0.,1.));
#1600=DIRECTION('',(1.,0.,0.));
#1601=DIRECTION('',(0.,0.,-1.));
#1602=DIRECTION('',(-1.,0.,0.));
#1603=DIRECTION('',(0.,1.,0.));
#1604=DIRECTION('',(0.,1.,0.));
#1605=DIRECTION('',(1.,0.,0.));
#1606=DIRECTION('',(0.,1.,0.));
#1607=DIRECTION('',(0.,0.,1.));
#1608=DIRECTION('',(0.,0.,1.));
#1609=DIRECTION('',(0.,0.,1.));
#1610=DIRECTION('',(1.,0.,0.));
#1611=DIRECTION('',(0.,0.,-1.));
#1612=DIRECTION('',(-1.,0.,0.));
#1613=DIRECTION('',(0.,1.,0.));
#1614=DIRECTION('',(0.,1.,0.));
#1615=DIRECTION('',(1.,0.,0.));
#1616=DIRECTION('',(0.,1.,0.));
#1617=DIRECTION('',(0.,0.,1.));
#1618=DIRECTION('',(0.,0.,1.));
#1619=DIRECTION('',(0.,0.,1.));
#1620=DIRECTION('',(1.,0.,0.));
#1621=DIRECTION('',(0.,0.,-1.));
#1622=DIRECTION('',(-1.,0.,0.));
#1623=DIRECTION('',(0.,1.,0.));
#1624=DIRECTION('',(0.,1.,0.));
#1625=DIRECTION('',(1.,0.,0.));
#1626=DIRECTION('',(0.,1.,0.));
#1627=DIRECTION('',(0.,0.,1.));
#1628=DIRECTION('',(0.,0.,1.));
#1629=DIRECTION('',(0.,0.,1.));
#1630=DIRECTION('',(1.,0.,0.));
#1631=DIRECTION('',(0.,0.,-1.));
#1632=DIRECTION('',(-1.,0.,0.));
#1633=DIRECTION('',(0.,1.,0.));
#1634=DIRECTION('',(0.,1.,0.));
#1635=DIRECTION('',(1.,0.,0.));
#1636=DIRECTION('',(0.,1.,0.));
#1637=DIRECTION('',(0.,0.,1.));
#1638=DIRECTION('',(0.,0.,1.));
#1639=DIRECTION('',(0.,0.,1.));
#1640=DIRECTION('',(1.,0.,0.));
#1641=DIRECTION('',(0.,0.,-1.));
#1642=DIRECTION('',(-1.,0.,0.));
#1643=DIRECTION('',(0.,1.,0.));
#1644=DIRECTION('',(0.,1.,0.));
#1645=DIRECTION('',(1.,0.,0.));
#1646=DIRECTION('',(0.,1.,0.));
#1647=DIRECTION('',(0.,0.,1.));
#1648=DIRECTION('',(0.,0.,1.));
#1649=DIRECTION('',(0.,0.,1.));
#1650=DIRECTION('',(1.,0.,0.));
#1651=DIRECTION('',(0.,0.,-1.));
#1652=DIRECTION('',(-1.,0.,0.));
#1653=DIRECTION('',(0.,1.,0.));
#1654=DIRECTION('',(0.,1.,0.));
#1655=DIRECTION('',(1.,0.,0.));
#1656=DIRECTION('',(0.,-0.707106781186548,-0.707106781186548));
#1657=DIRECTION('',(0.,0.707106781186548,-0.707106781186548));
#1658=DIRECTION('',(0.,0.707106781186548,-0.707106781186548));
#1659=DIRECTION('',(0.,0.707106781186548,-0.707106781186548));
#1660=DIRECTION('',(1.,0.,0.));
#1661=DIRECTION('',(0.,0.,-1.));
#1662=DIRECTION('',(-1.,0.,0.));
#1663=DIRECTION('',(0.,1.,0.));
#1664=DIRECTION('',(0.,1.,0.));
#1665=DIRECTION('',(1.,0.,0.));
#1666=DIRECTION('',(0.,1.,0.));
#1667=DIRECTION('',(0.,0.,1.));
#1668=DIRECTION('',(0.,0.,1.));
#1669=DIRECTION('',(0.,0.,1.));
#1670=DIRECTION('',(1.,0.,0.));
#1671=DIRECTION('',(0.,0.,-1.));
#1672=DIRECTION('',(-1.,0.,0.));
#1673=DIRECTION('',(0.,1.,0.));
#1674=DIRECTION('',(0.,1.,0.));
#1675=DIRECTION('',(1.,0.,0.));
#1676=DIRECTION('',(0.,1.,0.));
#1677=DIRECTION('',(0.,0.,1.));
#1678=DIRECTION('',(0.,0.,1.));
#1679=DIRECTION('',(0.,0.,1.));
#1680=DIRECTION('',(1.,0.,0.));
#1681=DIRECTION('',(0.,0.,-1.));
#1682=DIRECTION('',(-1.,0.,0.));
#1683=DIRECTION('',(0.,1.,0.));
#1684=DIRECTION('',(0.,1.,0.));
#1685=DIRECTION('',(1.,0.,0.));
#1686=DIRECTION('',(0.,1.,0.));
#1687=DIRECTION('',(0.,0.,1.));
#1688=DIRECTION('',(0.,0.,1.));
#1689=DIRECTION('',(0.,0.,1.));
#1690=DIRECTION('',(1.,0.,0.));
#1691=DIRECTION('',(0.,0.,-1.));
#1692=DIRECTION('',(-1.,0.,0.));
#1693=DIRECTION('',(0.,1.,0.));
#1694=DIRECTION('',(0.,1.,0.));
#1695=DIRECTION('',(1.,0.,0.));
#1696=DIRECTION('',(0.,1.,0.));
#1697=DIRECTION('',(0.,0.,1.));
#1698=DIRECTION('',(0.,0.,1.));
#1699=DIRECTION('',(0.,0.,1.));
#1700=DIRECTION('',(1.,0.,0.));
#1701=DIRECTION('',(0.,0.,-1.));
#1702=DIRECTION('',(-1.,0.,0.));
#1703=DIRECTION('',(0.,1.,0.));
#1704=DIRECTION('',(0.,1.,0.));
#1705=DIRECTION('',(1.,0.,0.));
#1706=DIRECTION('',(0.,1.,0.));
#1707=DIRECTION('',(0.,0.,1.));
#1708=DIRECTION('',(0.,0.,1.));
#1709=DIRECTION('',(0.,0.,1.));
#1710=DIRECTION('',(1.,0.,0.));
#1711=DIRECTION('',(0.,0.,-1.));
#1712=DIRECTION('',(-1.,0.,0.));
#1713=DIRECTION('',(0.,1.,0.));
#1714=DIRECTION('',(0.,1.,0.));
#1715=DIRECTION('',(0.,0.,1.));
#1716=DIRECTION('',(1.,0.,0.));
#1717=DIRECTION('',(0.,-1.,0.));
#1718=DIRECTION('',(1.,0.,0.));
#1719=DIRECTION('',(0.,-1.,0.));
#1720=DIRECTION('',(1.,0.,0.));
#1721=DIRECTION('',(0.,0.707106781186547,0.707106781186548));
#1722=DIRECTION('',(0.,-0.707106781186548,0.707106781186547));
#1723=DIRECTION('',(0.,-0.707106781186548,0.707106781186547));
#1724=DIRECTION('',(0.,-0.707106781186548,0.707106781186547));
#1725=DIRECTION('',(1.,0.,0.));
#1726=DIRECTION('',(0.,0.,-1.));
#1727=DIRECTION('',(-1.,0.,0.));
#1728=DIRECTION('',(0.,1.,0.));
#1729=DIRECTION('',(0.,1.,0.));
#1730=DIRECTION('',(1.,0.,0.));
#1731=DIRECTION('',(0.,-0.707106781186548,-0.707106781186548));
#1732=DIRECTION('',(0.,0.707106781186548,-0.707106781186548));
#1733=DIRECTION('',(0.,0.707106781186548,-0.707106781186548));
#1734=DIRECTION('',(0.,0.707106781186548,-0.707106781186548));
#1735=DIRECTION('',(1.,0.,0.));
#1736=DIRECTION('',(0.,0.,1.));
#1737=DIRECTION('',(1.,0.,0.));
#1738=DIRECTION('',(0.,-1.,0.));
#1739=DIRECTION('',(0.,-1.,0.));
#1740=DIRECTION('',(1.,0.,0.));
#1741=DIRECTION('',(0.,-1.,0.));
#1742=DIRECTION('',(0.,0.,-1.));
#1743=DIRECTION('',(0.,0.,-1.));
#1744=DIRECTION('',(0.,0.,-1.));
#1745=DIRECTION('',(1.,0.,0.));
#1746=DIRECTION('',(0.,0.,-1.));
#1747=DIRECTION('',(-1.,0.,0.));
#1748=DIRECTION('',(0.,1.,0.));
#1749=DIRECTION('',(0.,1.,0.));
#1750=DIRECTION('',(1.,0.,0.));
#1751=DIRECTION('',(0.,-1.,0.));
#1752=DIRECTION('',(0.,0.,-1.));
#1753=DIRECTION('',(0.,0.,-1.));
#1754=DIRECTION('',(0.,0.,-1.));
#1755=DIRECTION('',(1.,0.,0.));
#1756=DIRECTION('',(0.,0.,-1.));
#1757=DIRECTION('',(-1.,0.,0.));
#1758=DIRECTION('',(0.,1.,0.));
#1759=DIRECTION('',(0.,1.,0.));
#1760=DIRECTION('',(1.,0.,0.));
#1761=DIRECTION('',(0.,1.,0.));
#1762=DIRECTION('',(0.,-1.,0.));
#1763=DIRECTION('',(0.,-1.,0.));
#1764=DIRECTION('',(0.,0.,1.));
#1765=DIRECTION('',(0.,-1.,0.));
#1766=DIRECTION('',(0.,-1.,0.));
#1767=DIRECTION('',(0.,0.,1.));
#1768=DIRECTION('',(0.,0.,-1.));
#1769=DIRECTION('',(0.,-1.,0.));
#1770=DIRECTION('',(0.,0.,1.));
#1771=DIRECTION('',(0.,1.,0.));
#1772=DIRECTION('',(0.,0.,-1.));
#1773=DIRECTION('',(0.,-1.,0.));
#1774=DIRECTION('',(0.,0.,1.));
#1775=DIRECTION('',(0.,-1.,0.));
#1776=DIRECTION('',(1.,0.,0.));
#1777=DIRECTION('',(0.,1.,0.));
#1778=DIRECTION('',(0.,-1.,0.));
#1779=DIRECTION('',(0.,0.,1.));
#1780=DIRECTION('',(0.,-1.,0.));
#1781=DIRECTION('',(0.,-1.,0.));
#1782=DIRECTION('',(0.,0.,1.));
#1783=DIRECTION('',(0.,-1.,0.));
#1784=DIRECTION('',(0.,-1.,0.));
#1785=DIRECTION('',(0.,0.,1.));
#1786=DIRECTION('',(0.,-1.,0.));
#1787=DIRECTION('',(0.,0.,-1.));
#1788=DIRECTION('',(0.,1.,0.));
#1789=DIRECTION('',(0.,0.,1.));
#1790=DIRECTION('',(0.,-1.,0.));
#1791=DIRECTION('',(0.,0.,-1.));
#1792=DIRECTION('',(0.,0.,1.));
#1793=DIRECTION('',(1.,0.,0.));
#1794=DIRECTION('',(1.,0.,0.));
#1795=DIRECTION('',(1.,0.,0.));
#1796=DIRECTION('',(0.,-1.,0.));
#1797=DIRECTION('',(0.,0.,-1.));
#1798=DIRECTION('',(-1.,0.,0.));
#1799=DIRECTION('',(0.,0.,1.));
#1800=DIRECTION('',(1.,0.,0.));
#1801=DIRECTION('',(1.,0.,0.));
#1802=DIRECTION('',(0.,1.,0.));
#1803=DIRECTION('',(0.,0.,1.));
#1804=DIRECTION('',(0.,1.,0.));
#1805=DIRECTION('',(0.,0.,1.));
#1806=DIRECTION('',(-1.,0.,0.));
#1807=DIRECTION('',(1.,0.,0.));
#1808=DIRECTION('',(0.,1.,0.));
#1809=DIRECTION('',(0.,0.,1.));
#1810=DIRECTION('',(-1.,0.,0.));
#1811=DIRECTION('',(-1.,0.,0.));
#1812=DIRECTION('',(0.,1.,0.));
#1813=DIRECTION('',(0.,0.,1.));
#1814=DIRECTION('',(-1.,0.,0.));
#1815=DIRECTION('',(-1.,0.,0.));
#1816=DIRECTION('',(0.,-1.,0.));
#1817=DIRECTION('',(0.,0.,-1.));
#1818=DIRECTION('',(1.,0.,0.));
#1819=DIRECTION('',(0.,0.,-1.));
#1820=DIRECTION('',(-1.,0.,0.));
#1821=DIRECTION('',(0.,0.,1.));
#1822=DIRECTION('',(1.,0.,0.));
#1823=DIRECTION('',(0.,0.,1.));
#1824=DIRECTION('',(1.,0.,0.));
#1825=DIRECTION('',(0.,0.,1.));
#1826=DIRECTION('',(1.,0.,0.));
#1827=DIRECTION('',(0.,0.,1.));
#1828=DIRECTION('',(1.,0.,0.));
#1829=DIRECTION('',(0.,0.,1.));
#1830=DIRECTION('',(1.,0.,0.));
#1831=CARTESIAN_POINT('',(0.,0.,0.));
#1832=CARTESIAN_POINT('',(0.0152395973017992,0.146911991641903,0.00597766076643087));
#1833=CARTESIAN_POINT('',(0.0164395973017993,0.146911991641903,0.00597766076643087));
#1834=CARTESIAN_POINT('',(0.0164395973017993,0.146911991641903,1.00007664308671E-5));
#1835=CARTESIAN_POINT('',(0.0164395973017993,0.146911991641903,-0.00238999923356913));
#1836=CARTESIAN_POINT('',(0.0158395973017993,0.146911991641903,-0.00238999923356913));
#1837=CARTESIAN_POINT('',(0.0152395973017992,0.146911991641903,-0.00238999923356913));
#1838=CARTESIAN_POINT('',(0.0152395973017992,0.146911991641903,0.00597766076643087));
#1839=CARTESIAN_POINT('',(0.0152395973017992,0.146911991641903,1.00007664308671E-5));
#1840=CARTESIAN_POINT('',(0.0162895973017993,0.146911991641903,1.00007664308671E-5));
#1841=CARTESIAN_POINT('',(0.0152395973017992,0.146911991641903,0.00597766076643087));
#1842=CARTESIAN_POINT('',(0.0164395973017993,0.146911991641903,0.00597766076643087));
#1843=CARTESIAN_POINT('',(0.0164395973017993,0.146911991641903,0.00361000076643087));
#1844=CARTESIAN_POINT('',(0.0164395973017993,0.146911991641903,0.00121000076643087));
#1845=CARTESIAN_POINT('',(0.0162895973017993,0.146911991641903,0.00121000076643087));
#1846=CARTESIAN_POINT('',(0.0152395973017992,0.146911991641903,0.00121000076643087));
#1847=CARTESIAN_POINT('',(0.0152395973017992,0.146911991641903,0.00597766076643087));
#1848=CARTESIAN_POINT('',(0.0152395973017992,0.146911991641903,0.00361000076643087));
#1849=CARTESIAN_POINT('',(0.0158395973017993,0.146911991641903,0.00361000076643087));
#1850=CARTESIAN_POINT('',(0.0152395973017992,0.143147135942441,0.0104453207664309));
#1851=CARTESIAN_POINT('',(0.0152395973017992,0.143147135942441,0.0104453207664309));
#1852=CARTESIAN_POINT('',(0.0152395973017992,0.143147135942441,0.00654532076643087));
#1853=CARTESIAN_POINT('',(0.0152395973017992,0.143147135942441,0.0143453207664309));
#1854=CARTESIAN_POINT('',(0.0152395973017992,0.143147135942441,0.0143453207664309));
#1855=CARTESIAN_POINT('',(0.0164395973017993,0.143147135942441,0.0143453207664309));
#1856=CARTESIAN_POINT('',(0.0164395973017993,0.143147135942441,0.0104453207664309));
#1857=CARTESIAN_POINT('',(0.0164395973017993,0.143147135942441,0.00654532076643087));
#1858=CARTESIAN_POINT('',(0.0152395973017992,0.143147135942441,0.00654532076643087));
#1859=CARTESIAN_POINT('',(0.0152395973017992,0.0519284671507893,0.0137791472979007));
#1860=CARTESIAN_POINT('',(0.0164395973017993,0.0519284671507893,0.0137791472979007));
#1861=CARTESIAN_POINT('',(0.0164395973017993,0.0519284671507893,0.00654532076643082));
#1862=CARTESIAN_POINT('',(0.0164395973017993,0.0519284671507893,0.0210129738293705));
#1863=CARTESIAN_POINT('',(0.0152395973017992,0.0519284671507893,0.00654532076643082));
#1864=CARTESIAN_POINT('',(0.0152395973017992,0.0519284671507893,0.00654532076643082));
#1865=CARTESIAN_POINT('',(0.0152395973017992,0.0519284671507893,0.0137791472979007));
#1866=CARTESIAN_POINT('',(0.0152395973017992,0.0519284671507893,0.0210129738293705));
#1867=CARTESIAN_POINT('',(0.0152395973017992,0.0519284671507893,0.0210129738293705));
#1868=CARTESIAN_POINT('',(0.0152395973017992,0.0525284671507893,0.0210129738293705));
#1869=CARTESIAN_POINT('',(0.0164395973017993,0.0525284671507893,0.0210129738293705));
#1870=CARTESIAN_POINT('',(0.0164395973017993,0.0531284671507893,0.0210129738293705));
#1871=CARTESIAN_POINT('',(0.0152395973017992,0.0525284671507893,0.0210129738293705));
#1872=CARTESIAN_POINT('',(0.0152395973017992,0.0531284671507893,0.0210129738293705));
#1873=CARTESIAN_POINT('',(0.0152395973017992,0.0531284671507893,0.0210129738293705));
#1874=CARTESIAN_POINT('',(0.0152395973017992,0.0551872936822591,0.0189541472979007));
#1875=CARTESIAN_POINT('',(0.0164395973017993,0.0551872936822591,0.0189541472979007));
#1876=CARTESIAN_POINT('',(0.0164395973017993,0.0572461202137289,0.0168953207664308));
#1877=CARTESIAN_POINT('',(0.0152395973017992,0.0551872936822591,0.0189541472979007));
#1878=CARTESIAN_POINT('',(0.0152395973017992,0.0572461202137289,0.0168953207664308));
#1879=CARTESIAN_POINT('',(0.0152395973017992,0.0572461202137289,0.0168953207664308));
#1880=CARTESIAN_POINT('',(0.0152395973017992,0.0591622936822591,0.0168953207664308));
#1881=CARTESIAN_POINT('',(0.0164395973017993,0.0591622936822591,0.0168953207664308));
#1882=CARTESIAN_POINT('',(0.0164395973017993,0.0610784671507893,0.0168953207664308));
#1883=CARTESIAN_POINT('',(0.0152395973017992,0.0591622936822591,0.0168953207664308));
#1884=CARTESIAN_POINT('',(0.0152395973017992,0.0610784671507893,0.0168953207664308));
#1885=CARTESIAN_POINT('',(0.0152395973017992,0.0610784671507893,0.0168953207664308));
#1886=CARTESIAN_POINT('',(0.0152395973017992,0.0610784671507893,0.0117203207664308));
#1887=CARTESIAN_POINT('',(0.0164395973017993,0.0610784671507893,0.0117203207664308));
#1888=CARTESIAN_POINT('',(0.0164395973017993,0.0610784671507893,0.00654532076643082));
#1889=CARTESIAN_POINT('',(0.0152395973017992,0.0610784671507893,0.0117203207664308));
#1890=CARTESIAN_POINT('',(0.0152395973017992,0.0610784671507893,0.00654532076643082));
#1891=CARTESIAN_POINT('',(0.0152395973017992,0.0610784671507893,0.00654532076643082));
#1892=CARTESIAN_POINT('',(0.0152395973017992,0.0616784671507893,0.00654532076643082));
#1893=CARTESIAN_POINT('',(0.0164395973017993,0.0616784671507893,0.00654532076643082));
#1894=CARTESIAN_POINT('',(0.0164395973017993,0.0622784671507893,0.00654532076643082));
#1895=CARTESIAN_POINT('',(0.0152395973017992,0.0616784671507893,0.00654532076643082));
#1896=CARTESIAN_POINT('',(0.0152395973017992,0.0622784671507893,0.00654532076643082));
#1897=CARTESIAN_POINT('',(0.0152395973017992,0.0622784671507893,0.00654532076643082));
#1898=CARTESIAN_POINT('',(0.0152395973017992,0.0622784671507893,0.0117203207664308));
#1899=CARTESIAN_POINT('',(0.0164395973017993,0.0622784671507893,0.0117203207664308));
#1900=CARTESIAN_POINT('',(0.0164395973017993,0.0622784671507893,0.0168953207664308));
#1901=CARTESIAN_POINT('',(0.0152395973017992,0.0622784671507893,0.0117203207664308));
#1902=CARTESIAN_POINT('',(0.0152395973017992,0.0622784671507893,0.0168953207664308));
#1903=CARTESIAN_POINT('',(0.0152395973017992,0.0622784671507893,0.0168953207664308));
#1904=CARTESIAN_POINT('',(0.0152395973017992,0.0670034671507893,0.0168953207664308));
#1905=CARTESIAN_POINT('',(0.0164395973017993,0.0670034671507893,0.0168953207664308));
#1906=CARTESIAN_POINT('',(0.0164395973017993,0.0717284671507893,0.0168953207664308));
#1907=CARTESIAN_POINT('',(0.0152395973017992,0.0670034671507893,0.0168953207664308));
#1908=CARTESIAN_POINT('',(0.0152395973017992,0.0717284671507893,0.0168953207664308));
#1909=CARTESIAN_POINT('',(0.0152395973017992,0.0717284671507893,0.0168953207664308));
#1910=CARTESIAN_POINT('',(0.0152395973017992,0.0717284671507893,0.0117203207664308));
#1911=CARTESIAN_POINT('',(0.0164395973017993,0.0717284671507893,0.0117203207664308));
#1912=CARTESIAN_POINT('',(0.0164395973017993,0.0717284671507893,0.00654532076643083));
#1913=CARTESIAN_POINT('',(0.0152395973017992,0.0717284671507893,0.0117203207664308));
#1914=CARTESIAN_POINT('',(0.0152395973017992,0.0717284671507893,0.00654532076643083));
#1915=CARTESIAN_POINT('',(0.0152395973017992,0.0717284671507893,0.00654532076643083));
#1916=CARTESIAN_POINT('',(0.0152395973017992,0.0723284671507893,0.00654532076643083));
#1917=CARTESIAN_POINT('',(0.0164395973017993,0.0723284671507893,0.00654532076643083));
#1918=CARTESIAN_POINT('',(0.0164395973017993,0.0729284671507892,0.00654532076643083));
#1919=CARTESIAN_POINT('',(0.0152395973017992,0.0723284671507893,0.00654532076643083));
#1920=CARTESIAN_POINT('',(0.0152395973017992,0.0729284671507892,0.00654532076643083));
#1921=CARTESIAN_POINT('',(0.0152395973017992,0.0729284671507892,0.00654532076643083));
#1922=CARTESIAN_POINT('',(0.0152395973017992,0.0729284671507892,0.0117203207664308));
#1923=CARTESIAN_POINT('',(0.0164395973017993,0.0729284671507892,0.0117203207664308));
#1924=CARTESIAN_POINT('',(0.0164395973017993,0.0729284671507892,0.0168953207664308));
#1925=CARTESIAN_POINT('',(0.0152395973017992,0.0729284671507892,0.0117203207664308));
#1926=CARTESIAN_POINT('',(0.0152395973017992,0.0729284671507892,0.0168953207664308));
#1927=CARTESIAN_POINT('',(0.0152395973017992,0.0729284671507892,0.0168953207664308));
#1928=CARTESIAN_POINT('',(0.0152395973017992,0.0776534671507893,0.0168953207664308));
#1929=CARTESIAN_POINT('',(0.0164395973017993,0.0776534671507893,0.0168953207664308));
#1930=CARTESIAN_POINT('',(0.0164395973017993,0.0823784671507892,0.0168953207664308));
#1931=CARTESIAN_POINT('',(0.0152395973017992,0.0776534671507893,0.0168953207664308));
#1932=CARTESIAN_POINT('',(0.0152395973017992,0.0823784671507892,0.0168953207664308));
#1933=CARTESIAN_POINT('',(0.0152395973017992,0.0823784671507892,0.0168953207664308));
#1934=CARTESIAN_POINT('',(0.0152395973017992,0.0823784671507892,0.0117203207664308));
#1935=CARTESIAN_POINT('',(0.0164395973017993,0.0823784671507892,0.0117203207664308));
#1936=CARTESIAN_POINT('',(0.0164395973017993,0.0823784671507892,0.00654532076643084));
#1937=CARTESIAN_POINT('',(0.0152395973017992,0.0823784671507892,0.0117203207664308));
#1938=CARTESIAN_POINT('',(0.0152395973017992,0.0823784671507892,0.00654532076643084));
#1939=CARTESIAN_POINT('',(0.0152395973017992,0.0823784671507892,0.00654532076643084));
#1940=CARTESIAN_POINT('',(0.0152395973017992,0.0829784671507892,0.00654532076643084));
#1941=CARTESIAN_POINT('',(0.0164395973017993,0.0829784671507892,0.00654532076643084));
#1942=CARTESIAN_POINT('',(0.0164395973017993,0.0835784671507892,0.00654532076643084));
#1943=CARTESIAN_POINT('',(0.0152395973017992,0.0829784671507892,0.00654532076643084));
#1944=CARTESIAN_POINT('',(0.0152395973017992,0.0835784671507892,0.00654532076643084));
#1945=CARTESIAN_POINT('',(0.0152395973017992,0.0835784671507892,0.00654532076643084));
#1946=CARTESIAN_POINT('',(0.0152395973017992,0.0835784671507892,0.0117203207664308));
#1947=CARTESIAN_POINT('',(0.0164395973017993,0.0835784671507892,0.0117203207664308));
#1948=CARTESIAN_POINT('',(0.0164395973017993,0.0835784671507892,0.0168953207664308));
#1949=CARTESIAN_POINT('',(0.0152395973017992,0.0835784671507892,0.0117203207664308));
#1950=CARTESIAN_POINT('',(0.0152395973017992,0.0835784671507892,0.0168953207664308));
#1951=CARTESIAN_POINT('',(0.0152395973017992,0.0835784671507892,0.0168953207664308));
#1952=CARTESIAN_POINT('',(0.0152395973017992,0.0884534671507892,0.0168953207664308));
#1953=CARTESIAN_POINT('',(0.0164395973017993,0.0884534671507892,0.0168953207664308));
#1954=CARTESIAN_POINT('',(0.0164395973017993,0.0933284671507892,0.0168953207664308));
#1955=CARTESIAN_POINT('',(0.0152395973017992,0.0884534671507892,0.0168953207664308));
#1956=CARTESIAN_POINT('',(0.0152395973017992,0.0933284671507892,0.0168953207664308));
#1957=CARTESIAN_POINT('',(0.0152395973017992,0.0933284671507892,0.0168953207664308));
#1958=CARTESIAN_POINT('',(0.0152395973017992,0.0933284671507892,0.0117203207664308));
#1959=CARTESIAN_POINT('',(0.0164395973017993,0.0933284671507892,0.0117203207664308));
#1960=CARTESIAN_POINT('',(0.0164395973017993,0.0933284671507892,0.00654532076643081));
#1961=CARTESIAN_POINT('',(0.0152395973017992,0.0933284671507892,0.0117203207664308));
#1962=CARTESIAN_POINT('',(0.0152395973017992,0.0933284671507892,0.00654532076643081));
#1963=CARTESIAN_POINT('',(0.0152395973017992,0.0933284671507892,0.00654532076643081));
#1964=CARTESIAN_POINT('',(0.0152395973017992,0.0939284671507892,0.00654532076643081));
#1965=CARTESIAN_POINT('',(0.0164395973017993,0.0939284671507892,0.00654532076643081));
#1966=CARTESIAN_POINT('',(0.0164395973017993,0.0945284671507892,0.00654532076643081));
#1967=CARTESIAN_POINT('',(0.0152395973017992,0.0939284671507892,0.00654532076643081));
#1968=CARTESIAN_POINT('',(0.0152395973017992,0.0945284671507892,0.00654532076643081));
#1969=CARTESIAN_POINT('',(0.0152395973017992,0.0945284671507892,0.00654532076643081));
#1970=CARTESIAN_POINT('',(0.0152395973017992,0.0945284671507892,0.0117203207664308));
#1971=CARTESIAN_POINT('',(0.0164395973017993,0.0945284671507892,0.0117203207664308));
#1972=CARTESIAN_POINT('',(0.0164395973017993,0.0945284671507892,0.0168953207664308));
#1973=CARTESIAN_POINT('',(0.0152395973017992,0.0945284671507892,0.0117203207664308));
#1974=CARTESIAN_POINT('',(0.0152395973017992,0.0945284671507892,0.0168953207664308));
#1975=CARTESIAN_POINT('',(0.0152395973017992,0.0945284671507892,0.0168953207664308));
#1976=CARTESIAN_POINT('',(0.0152395973017992,0.0994680940158782,0.0168953207664308));
#1977=CARTESIAN_POINT('',(0.0164395973017993,0.0994680940158782,0.0168953207664308));
#1978=CARTESIAN_POINT('',(0.0164395973017993,0.104407720880967,0.0168953207664308));
#1979=CARTESIAN_POINT('',(0.0152395973017992,0.0994680940158782,0.0168953207664308));
#1980=CARTESIAN_POINT('',(0.0152395973017992,0.104407720880967,0.0168953207664308));
#1981=CARTESIAN_POINT('',(0.0152395973017992,0.104407720880967,0.0168953207664308));
#1982=CARTESIAN_POINT('',(0.0152395973017992,0.104407720880967,0.0117203207664308));
#1983=CARTESIAN_POINT('',(0.0164395973017993,0.104407720880967,0.0117203207664308));
#1984=CARTESIAN_POINT('',(0.0164395973017993,0.104407720880967,0.00654532076643083));
#1985=CARTESIAN_POINT('',(0.0152395973017992,0.104407720880967,0.0117203207664308));
#1986=CARTESIAN_POINT('',(0.0152395973017992,0.104407720880967,0.00654532076643083));
#1987=CARTESIAN_POINT('',(0.0152395973017992,0.104407720880967,0.00654532076643083));
#1988=CARTESIAN_POINT('',(0.0152395973017992,0.105007720880967,0.00654532076643083));
#1989=CARTESIAN_POINT('',(0.0164395973017993,0.105007720880967,0.00654532076643083));
#1990=CARTESIAN_POINT('',(0.0164395973017993,0.105607720880967,0.00654532076643083));
#1991=CARTESIAN_POINT('',(0.0152395973017992,0.105007720880967,0.00654532076643083));
#1992=CARTESIAN_POINT('',(0.0152395973017992,0.105607720880967,0.00654532076643083));
#1993=CARTESIAN_POINT('',(0.0152395973017992,0.105607720880967,0.00654532076643083));
#1994=CARTESIAN_POINT('',(0.0152395973017992,0.105607720880967,0.0117203207664308));
#1995=CARTESIAN_POINT('',(0.0164395973017993,0.105607720880967,0.0117203207664308));
#1996=CARTESIAN_POINT('',(0.0164395973017993,0.105607720880967,0.0168953207664308));
#1997=CARTESIAN_POINT('',(0.0152395973017992,0.105607720880967,0.0117203207664308));
#1998=CARTESIAN_POINT('',(0.0152395973017992,0.105607720880967,0.0168953207664308));
#1999=CARTESIAN_POINT('',(0.0152395973017992,0.105607720880967,0.0168953207664308));
#2000=CARTESIAN_POINT('',(0.0152395973017992,0.109934659444552,0.0168953207664308));
#2001=CARTESIAN_POINT('',(0.0164395973017993,0.109934659444552,0.0168953207664308));
#2002=CARTESIAN_POINT('',(0.0164395973017993,0.114261598008138,0.0168953207664308));
#2003=CARTESIAN_POINT('',(0.0152395973017992,0.109934659444552,0.0168953207664308));
#2004=CARTESIAN_POINT('',(0.0152395973017992,0.114261598008138,0.0168953207664308));
#2005=CARTESIAN_POINT('',(0.0152395973017992,0.114261598008138,0.0168953207664308));
#2006=CARTESIAN_POINT('',(0.0152395973017992,0.114261598008138,0.0117203207664308));
#2007=CARTESIAN_POINT('',(0.0164395973017993,0.114261598008138,0.0117203207664308));
#2008=CARTESIAN_POINT('',(0.0164395973017993,0.114261598008138,0.00654532076643085));
#2009=CARTESIAN_POINT('',(0.0152395973017992,0.114261598008138,0.0117203207664308));
#2010=CARTESIAN_POINT('',(0.0152395973017992,0.114261598008138,0.00654532076643085));
#2011=CARTESIAN_POINT('',(0.0152395973017992,0.114261598008138,0.00654532076643085));
#2012=CARTESIAN_POINT('',(0.0152395973017992,0.114861598008138,0.00654532076643085));
#2013=CARTESIAN_POINT('',(0.0164395973017993,0.114861598008138,0.00654532076643085));
#2014=CARTESIAN_POINT('',(0.0164395973017993,0.115461598008138,0.00654532076643085));
#2015=CARTESIAN_POINT('',(0.0152395973017992,0.114861598008138,0.00654532076643085));
#2016=CARTESIAN_POINT('',(0.0152395973017992,0.115461598008138,0.00654532076643085));
#2017=CARTESIAN_POINT('',(0.0152395973017992,0.115461598008138,0.00654532076643085));
#2018=CARTESIAN_POINT('',(0.0152395973017992,0.115461598008138,0.0117203207664308));
#2019=CARTESIAN_POINT('',(0.0164395973017993,0.115461598008138,0.0117203207664308));
#2020=CARTESIAN_POINT('',(0.0164395973017993,0.115461598008138,0.0168953207664308));
#2021=CARTESIAN_POINT('',(0.0152395973017992,0.115461598008138,0.0117203207664308));
#2022=CARTESIAN_POINT('',(0.0152395973017992,0.115461598008138,0.0168953207664308));
#2023=CARTESIAN_POINT('',(0.0152395973017992,0.115461598008138,0.0168953207664308));
#2024=CARTESIAN_POINT('',(0.0152395973017992,0.116061598008138,0.0168953207664308));
#2025=CARTESIAN_POINT('',(0.0164395973017993,0.116061598008138,0.0168953207664308));
#2026=CARTESIAN_POINT('',(0.0164395973017993,0.116661598008138,0.0168953207664308));
#2027=CARTESIAN_POINT('',(0.0152395973017992,0.116061598008138,0.0168953207664308));
#2028=CARTESIAN_POINT('',(0.0152395973017992,0.116661598008138,0.0168953207664308));
#2029=CARTESIAN_POINT('',(0.0152395973017992,0.116661598008138,0.0168953207664308));
#2030=CARTESIAN_POINT('',(0.0152395973017992,0.117936598008138,0.0156203207664309));
#2031=CARTESIAN_POINT('',(0.0164395973017993,0.117936598008138,0.0156203207664309));
#2032=CARTESIAN_POINT('',(0.0164395973017993,0.119211598008138,0.0143453207664309));
#2033=CARTESIAN_POINT('',(0.0152395973017992,0.117936598008138,0.0156203207664309));
#2034=CARTESIAN_POINT('',(0.0152395973017992,0.119211598008138,0.0143453207664309));
#2035=CARTESIAN_POINT('',(0.0152395973017992,0.119211598008138,0.0143453207664309));
#2036=CARTESIAN_POINT('',(0.0152395973017992,0.121772501312953,0.0143453207664309));
#2037=CARTESIAN_POINT('',(0.0164395973017993,0.121772501312953,0.0143453207664309));
#2038=CARTESIAN_POINT('',(0.0164395973017993,0.124333404617768,0.0143453207664309));
#2039=CARTESIAN_POINT('',(0.0152395973017992,0.121772501312953,0.0143453207664309));
#2040=CARTESIAN_POINT('',(0.0152395973017992,0.124333404617768,0.0143453207664309));
#2041=CARTESIAN_POINT('',(0.0152395973017992,0.124333404617768,0.0143453207664309));
#2042=CARTESIAN_POINT('',(0.0152395973017992,0.124333404617768,0.0104453207664309));
#2043=CARTESIAN_POINT('',(0.0164395973017993,0.124333404617768,0.0104453207664309));
#2044=CARTESIAN_POINT('',(0.0164395973017993,0.124333404617768,0.00654532076643087));
#2045=CARTESIAN_POINT('',(0.0152395973017992,0.124333404617768,0.0104453207664309));
#2046=CARTESIAN_POINT('',(0.0152395973017992,0.124333404617768,0.00654532076643087));
#2047=CARTESIAN_POINT('',(0.0152395973017992,0.124333404617768,0.00654532076643087));
#2048=CARTESIAN_POINT('',(0.0152395973017992,0.124933404617768,0.00654532076643087));
#2049=CARTESIAN_POINT('',(0.0164395973017993,0.124933404617768,0.00654532076643087));
#2050=CARTESIAN_POINT('',(0.0164395973017993,0.125533404617768,0.00654532076643087));
#2051=CARTESIAN_POINT('',(0.0152395973017992,0.124933404617768,0.00654532076643087));
#2052=CARTESIAN_POINT('',(0.0152395973017992,0.125533404617768,0.00654532076643087));
#2053=CARTESIAN_POINT('',(0.0152395973017992,0.125533404617768,0.00654532076643087));
#2054=CARTESIAN_POINT('',(0.0152395973017992,0.125533404617768,0.0104453207664309));
#2055=CARTESIAN_POINT('',(0.0164395973017993,0.125533404617768,0.0104453207664309));
#2056=CARTESIAN_POINT('',(0.0164395973017993,0.125533404617768,0.0143453207664309));
#2057=CARTESIAN_POINT('',(0.0152395973017992,0.125533404617768,0.0104453207664309));
#2058=CARTESIAN_POINT('',(0.0152395973017992,0.125533404617768,0.0143453207664309));
#2059=CARTESIAN_POINT('',(0.0152395973017992,0.125533404617768,0.0143453207664309));
#2060=CARTESIAN_POINT('',(0.0152395973017992,0.129461616047483,0.0143453207664309));
#2061=CARTESIAN_POINT('',(0.0164395973017993,0.129461616047483,0.0143453207664309));
#2062=CARTESIAN_POINT('',(0.0164395973017993,0.133389827477199,0.0143453207664309));
#2063=CARTESIAN_POINT('',(0.0152395973017992,0.129461616047483,0.0143453207664309));
#2064=CARTESIAN_POINT('',(0.0152395973017992,0.133389827477199,0.0143453207664309));
#2065=CARTESIAN_POINT('',(0.0152395973017992,0.133389827477199,0.0143453207664309));
#2066=CARTESIAN_POINT('',(0.0152395973017992,0.133389827477199,0.0104453207664309));
#2067=CARTESIAN_POINT('',(0.0164395973017993,0.133389827477199,0.0104453207664309));
#2068=CARTESIAN_POINT('',(0.0164395973017993,0.133389827477199,0.00654532076643088));
#2069=CARTESIAN_POINT('',(0.0152395973017992,0.133389827477199,0.0104453207664309));
#2070=CARTESIAN_POINT('',(0.0152395973017992,0.133389827477199,0.00654532076643088));
#2071=CARTESIAN_POINT('',(0.0152395973017992,0.133389827477199,0.00654532076643088));
#2072=CARTESIAN_POINT('',(0.0152395973017992,0.133989827477199,0.00654532076643088));
#2073=CARTESIAN_POINT('',(0.0164395973017993,0.133989827477199,0.00654532076643088));
#2074=CARTESIAN_POINT('',(0.0164395973017993,0.134589827477199,0.00654532076643088));
#2075=CARTESIAN_POINT('',(0.0152395973017992,0.133989827477199,0.00654532076643088));
#2076=CARTESIAN_POINT('',(0.0152395973017992,0.134589827477199,0.00654532076643088));
#2077=CARTESIAN_POINT('',(0.0152395973017992,0.134589827477199,0.00654532076643088));
#2078=CARTESIAN_POINT('',(0.0152395973017992,0.134589827477199,0.0104453207664309));
#2079=CARTESIAN_POINT('',(0.0164395973017993,0.134589827477199,0.0104453207664309));
#2080=CARTESIAN_POINT('',(0.0164395973017993,0.134589827477199,0.0143453207664309));
#2081=CARTESIAN_POINT('',(0.0152395973017992,0.134589827477199,0.0104453207664309));
#2082=CARTESIAN_POINT('',(0.0152395973017992,0.134589827477199,0.0143453207664309));
#2083=CARTESIAN_POINT('',(0.0152395973017992,0.134589827477199,0.0143453207664309));
#2084=CARTESIAN_POINT('',(0.0152395973017992,0.13826848170982,0.0143453207664309));
#2085=CARTESIAN_POINT('',(0.0164395973017993,0.13826848170982,0.0143453207664309));
#2086=CARTESIAN_POINT('',(0.0164395973017993,0.141947135942441,0.0143453207664309));
#2087=CARTESIAN_POINT('',(0.0152395973017992,0.13826848170982,0.0143453207664309));
#2088=CARTESIAN_POINT('',(0.0152395973017992,0.141947135942441,0.0143453207664309));
#2089=CARTESIAN_POINT('',(0.0152395973017992,0.141947135942441,0.0143453207664309));
#2090=CARTESIAN_POINT('',(0.0152395973017992,0.141947135942441,0.0104453207664309));
#2091=CARTESIAN_POINT('',(0.0164395973017993,0.141947135942441,0.0104453207664309));
#2092=CARTESIAN_POINT('',(0.0164395973017993,0.141947135942441,0.00654532076643087));
#2093=CARTESIAN_POINT('',(0.0152395973017992,0.141947135942441,0.0104453207664309));
#2094=CARTESIAN_POINT('',(0.0152395973017992,0.141947135942441,0.00654532076643087));
#2095=CARTESIAN_POINT('',(0.0152395973017992,0.141947135942441,0.00654532076643087));
#2096=CARTESIAN_POINT('',(0.0152395973017992,0.142547135942441,0.00654532076643087));
#2097=CARTESIAN_POINT('',(0.0164395973017993,0.142547135942441,0.00654532076643087));
#2098=CARTESIAN_POINT('',(0.0152395973017992,0.142547135942441,0.00654532076643087));
#2099=CARTESIAN_POINT('',(0.0152395973017992,0.122021029450377,0.0155453207664309));
#2100=CARTESIAN_POINT('',(0.0164395973017993,0.122021029450377,0.0155453207664309));
#2101=CARTESIAN_POINT('',(0.0164395973017993,0.146911991641903,0.0155453207664309));
#2102=CARTESIAN_POINT('',(0.0164395973017993,0.119708654282985,0.0155453207664309));
#2103=CARTESIAN_POINT('',(0.0152395973017992,0.146911991641903,0.0155453207664309));
#2104=CARTESIAN_POINT('',(0.0152395973017992,0.146911991641903,0.0155453207664309));
#2105=CARTESIAN_POINT('',(0.0152395973017992,0.122021029450377,0.0155453207664309));
#2106=CARTESIAN_POINT('',(0.0152395973017992,0.119708654282985,0.0155453207664309));
#2107=CARTESIAN_POINT('',(0.0152395973017992,0.119708654282985,0.0155453207664309));
#2108=CARTESIAN_POINT('',(0.0152395973017992,0.118433654282985,0.0168203207664308));
#2109=CARTESIAN_POINT('',(0.0164395973017993,0.118433654282985,0.0168203207664308));
#2110=CARTESIAN_POINT('',(0.0164395973017993,0.117158654282985,0.0180953207664308));
#2111=CARTESIAN_POINT('',(0.0152395973017992,0.118433654282985,0.0168203207664308));
#2112=CARTESIAN_POINT('',(0.0152395973017992,0.117158654282985,0.0180953207664308));
#2113=CARTESIAN_POINT('',(0.0152395973017992,0.117158654282985,0.0180953207664308));
#2114=CARTESIAN_POINT('',(0.0152395973017992,0.0594108218196829,0.0180953207664308));
#2115=CARTESIAN_POINT('',(0.0164395973017993,0.0594108218196829,0.0180953207664308));
#2116=CARTESIAN_POINT('',(0.0164395973017993,0.0577431764885766,0.0180953207664308));
#2117=CARTESIAN_POINT('',(0.0152395973017992,0.0594108218196829,0.0180953207664308));
#2118=CARTESIAN_POINT('',(0.0152395973017992,0.0577431764885766,0.0180953207664308));
#2119=CARTESIAN_POINT('',(0.0152395973017992,0.0577431764885766,0.0180953207664308));
#2120=CARTESIAN_POINT('',(0.0152395973017992,0.0556843499571068,0.0201541472979006));
#2121=CARTESIAN_POINT('',(0.0164395973017993,0.0556843499571068,0.0201541472979006));
#2122=CARTESIAN_POINT('',(0.0164395973017993,0.053625523425637,0.0222129738293705));
#2123=CARTESIAN_POINT('',(0.0152395973017992,0.0556843499571068,0.0201541472979006));
#2124=CARTESIAN_POINT('',(0.0152395973017992,0.053625523425637,0.0222129738293705));
#2125=CARTESIAN_POINT('',(0.0152395973017992,0.053625523425637,0.0222129738293705));
#2126=CARTESIAN_POINT('',(0.0152395973017992,0.0513284671507893,0.0222129738293705));
#2127=CARTESIAN_POINT('',(0.0164395973017993,0.0513284671507893,0.0222129738293705));
#2128=CARTESIAN_POINT('',(0.0164395973017993,0.0421332221917925,0.0222129738293705));
#2129=CARTESIAN_POINT('',(0.0152395973017992,0.0513284671507893,0.0222129738293705));
#2130=CARTESIAN_POINT('',(0.0152395973017992,0.0421332221917925,0.0222129738293705));
#2131=CARTESIAN_POINT('',(0.0152395973017992,0.0421332221917925,0.0222129738293705));
#2132=CARTESIAN_POINT('',(0.0152395973017992,0.0421332221917925,0.0216129738293705));
#2133=CARTESIAN_POINT('',(0.0164395973017993,0.0421332221917925,0.0216129738293705));
#2134=CARTESIAN_POINT('',(0.0164395973017993,0.0421332221917925,0.0210129738293705));
#2135=CARTESIAN_POINT('',(0.0152395973017992,0.0421332221917925,0.0216129738293705));
#2136=CARTESIAN_POINT('',(0.0152395973017992,0.0421332221917925,0.0210129738293705));
#2137=CARTESIAN_POINT('',(0.0152395973017992,0.0421332221917925,0.0210129738293705));
#2138=CARTESIAN_POINT('',(0.0152395973017992,0.0464308446712909,0.0210129738293705));
#2139=CARTESIAN_POINT('',(0.0164395973017993,0.0464308446712909,0.0210129738293705));
#2140=CARTESIAN_POINT('',(0.0164395973017993,0.0507284671507893,0.0210129738293705));
#2141=CARTESIAN_POINT('',(0.0152395973017992,0.0464308446712909,0.0210129738293705));
#2142=CARTESIAN_POINT('',(0.0152395973017992,0.0507284671507893,0.0210129738293705));
#2143=CARTESIAN_POINT('',(0.0152395973017992,0.0507284671507893,0.0210129738293705));
#2144=CARTESIAN_POINT('',(0.0152395973017992,0.0507284671507893,0.0137791472979007));
#2145=CARTESIAN_POINT('',(0.0164395973017993,0.0507284671507893,0.0137791472979007));
#2146=CARTESIAN_POINT('',(0.0164395973017993,0.0507284671507893,0.00654532076643082));
#2147=CARTESIAN_POINT('',(0.0152395973017992,0.0507284671507893,0.0137791472979007));
#2148=CARTESIAN_POINT('',(0.0152395973017992,0.0507284671507893,0.00654532076643082));
#2149=CARTESIAN_POINT('',(0.0152395973017992,0.0507284671507893,0.00654532076643082));
#2150=CARTESIAN_POINT('',(0.0152395973017992,0.0513284671507893,0.00654532076643082));
#2151=CARTESIAN_POINT('',(0.0164395973017993,0.0513284671507893,0.00654532076643082));
#2152=CARTESIAN_POINT('',(0.0152395973017992,0.0513284671507893,0.00654532076643082));
#2153=CARTESIAN_POINT('',(0.0152395973017992,0.0812615906203283,0.00931148729790068));
#2154=CARTESIAN_POINT('',(0.0152395973017992,0.151832887234617,0.00361000076643087));
#2155=CARTESIAN_POINT('',(0.0152395973017992,0.150629887234618,0.00361000076643087));
#2156=CARTESIAN_POINT('',(0.0152395973017992,0.151832887234617,0.00121000076643087));
#2157=CARTESIAN_POINT('',(0.0152395973017992,0.150629887234618,0.00121000076643087));
#2158=CARTESIAN_POINT('',(0.0152395973017992,0.150629887234618,0.00597766076643087));
#2159=CARTESIAN_POINT('',(0.0152395973017992,0.151832887234617,1.00007664308671E-5));
#2160=CARTESIAN_POINT('',(0.0152395973017992,0.150629887234618,1.00007664308671E-5));
#2161=CARTESIAN_POINT('',(0.0152395973017992,0.151832887234617,-0.00238999923356913));
#2162=CARTESIAN_POINT('',(0.0152395973017992,0.150629887234618,-0.00238999923356913));
#2163=CARTESIAN_POINT('',(0.0152395973017992,0.150629887234618,0.00597766076643087));
#2164=CARTESIAN_POINT('',(0.0152395973017992,0.146911991641903,0.00597766076643087));
#2165=CARTESIAN_POINT('',(0.0152395973017992,0.146911991641903,0.00481000076643087));
#2166=CARTESIAN_POINT('',(0.0152395973017992,0.151832887234617,0.00481000076643087));
#2167=CARTESIAN_POINT('',(0.0152395973017992,0.150629887234618,0.00481000076643087));
#2168=CARTESIAN_POINT('',(0.0152395973017992,0.150629887234618,0.00597766076643087));
#2169=CARTESIAN_POINT('',(0.0152395973017992,0.150629887234618,0.0155453207664309));
#2170=CARTESIAN_POINT('',(0.0152395973017992,0.151229887234617,0.0155453207664309));
#2171=CARTESIAN_POINT('',(0.0152395973017992,0.151829887234618,0.0155453207664309));
#2172=CARTESIAN_POINT('',(0.0152395973017992,0.151829887234618,0.00597766076643087));
#2173=CARTESIAN_POINT('',(0.0152395973017992,0.151829887234618,-0.00358999923356913));
#2174=CARTESIAN_POINT('',(0.0152395973017992,0.146311991641903,-0.00358999923356913));
#2175=CARTESIAN_POINT('',(0.0152395973017992,0.145711991641903,-0.00358999923356913));
#2176=CARTESIAN_POINT('',(0.0152395973017992,0.145711991641903,0.00537766076643087));
#2177=CARTESIAN_POINT('',(0.0152395973017992,0.145711991641903,0.0143453207664309));
#2178=CARTESIAN_POINT('',(0.0152395973017992,0.144429563792172,0.0143453207664309));
#2179=CARTESIAN_POINT('',(0.0164395973017993,0.0812615906203283,0.00931148729790068));
#2180=CARTESIAN_POINT('',(0.0164395973017993,0.151832887234617,0.00361000076643087));
#2181=CARTESIAN_POINT('',(0.0164395973017993,0.150629887234618,0.00361000076643087));
#2182=CARTESIAN_POINT('',(0.0164395973017993,0.150629887234618,0.00597766076643087));
#2183=CARTESIAN_POINT('',(0.0164395973017993,0.150629887234618,0.00121000076643087));
#2184=CARTESIAN_POINT('',(0.0164395973017993,0.151832887234617,0.00121000076643087));
#2185=CARTESIAN_POINT('',(0.0164395973017993,0.151832887234617,1.00007664308671E-5));
#2186=CARTESIAN_POINT('',(0.0164395973017993,0.150629887234618,1.00007664308671E-5));
#2187=CARTESIAN_POINT('',(0.0164395973017993,0.150629887234618,0.00597766076643087));
#2188=CARTESIAN_POINT('',(0.0164395973017993,0.150629887234618,-0.00238999923356913));
#2189=CARTESIAN_POINT('',(0.0164395973017993,0.151832887234617,-0.00238999923356913));
#2190=CARTESIAN_POINT('',(0.0164395973017993,0.144429563792172,0.0143453207664309));
#2191=CARTESIAN_POINT('',(0.0164395973017993,0.145711991641903,0.0143453207664309));
#2192=CARTESIAN_POINT('',(0.0164395973017993,0.145711991641903,0.00537766076643087));
#2193=CARTESIAN_POINT('',(0.0164395973017993,0.145711991641903,-0.00358999923356913));
#2194=CARTESIAN_POINT('',(0.0164395973017993,0.146311991641903,-0.00358999923356913));
#2195=CARTESIAN_POINT('',(0.0164395973017993,0.151829887234618,-0.00358999923356913));
#2196=CARTESIAN_POINT('',(0.0164395973017993,0.151829887234618,0.00597766076643087));
#2197=CARTESIAN_POINT('',(0.0164395973017993,0.151829887234618,0.0155453207664309));
#2198=CARTESIAN_POINT('',(0.0164395973017993,0.151229887234617,0.0155453207664309));
#2199=CARTESIAN_POINT('',(0.0164395973017993,0.150629887234618,0.0155453207664309));
#2200=CARTESIAN_POINT('',(0.0164395973017993,0.150629887234618,0.00597766076643087));
#2201=CARTESIAN_POINT('',(0.0164395973017993,0.150629887234618,0.00481000076643087));
#2202=CARTESIAN_POINT('',(0.0164395973017993,0.151832887234617,0.00481000076643087));
#2203=CARTESIAN_POINT('',(0.0164395973017993,0.146911991641903,0.00481000076643087));
#2204=CARTESIAN_POINT('',(0.0164395973017993,0.146911991641903,0.00597766076643087));
#2205=CARTESIAN_POINT('',(0.0152395973017992,0.146311991641903,-0.00358999923356913));
#2206=CARTESIAN_POINT('',(0.0152395973017992,0.145711991641903,-0.00358999923356913));
#2207=CARTESIAN_POINT('',(0.0152395973017992,0.151829887234618,-0.00358999923356913));
#2208=CARTESIAN_POINT('',(0.0152395973017992,0.146911991641903,0.00597766076643087));
#2209=CARTESIAN_POINT('',(0.0158395973017993,0.146911991641903,0.00481000076643087));
#2210=CARTESIAN_POINT('',(0.0152395973017992,0.144429563792172,0.0143453207664309));
#2211=CARTESIAN_POINT('',(0.0152395973017992,0.145711991641903,0.0143453207664309));
#2212=CARTESIAN_POINT('',(0.0152395973017992,0.145711991641903,0.00537766076643087));
#2213=CARTESIAN_POINT('',(0.0152395973017992,0.150629887234618,0.00597766076643087));
#2214=CARTESIAN_POINT('',(0.0158395973017993,0.150629887234618,0.00481000076643087));
#2215=CARTESIAN_POINT('',(0.0152395973017992,0.150629887234618,0.0155453207664309));
#2216=CARTESIAN_POINT('',(0.0152395973017992,0.150629887234618,0.00597766076643087));
#2217=CARTESIAN_POINT('',(0.0158395973017993,0.150629887234618,0.00361000076643087));
#2218=CARTESIAN_POINT('',(0.0162895973017993,0.150629887234618,0.00121000076643087));
#2219=CARTESIAN_POINT('',(0.0152395973017992,0.150629887234618,0.00597766076643087));
#2220=CARTESIAN_POINT('',(0.0162895973017993,0.150629887234618,1.00007664308671E-5));
#2221=CARTESIAN_POINT('',(0.0158395973017993,0.150629887234618,-0.00238999923356913));
#2222=CARTESIAN_POINT('',(0.0152395973017992,0.151829887234618,0.00597766076643087));
#2223=CARTESIAN_POINT('',(0.0152395973017992,0.151829887234618,0.0155453207664309));
#2224=CARTESIAN_POINT('',(0.0152395973017992,0.151229887234617,0.0155453207664309));
#2225=CARTESIAN_POINT('',(0.0158395973017993,0.151832887234617,-0.00238999923356913));
#2226=CARTESIAN_POINT('',(0.0162895973017993,0.151832887234617,0.00121000076643087));
#2227=CARTESIAN_POINT('',(0.0162895973017993,0.151832887234617,1.00007664308671E-5));
#2228=CARTESIAN_POINT('',(0.0158395973017993,0.151832887234617,0.00481000076643087));
#2229=CARTESIAN_POINT('',(0.0158395973017993,0.151832887234617,0.00361000076643087));
#2230=MECHANICAL_DESIGN_GEOMETRIC_PRESENTATION_REPRESENTATION('',(#1415),
#2231);
#2231=(
GEOMETRIC_REPRESENTATION_CONTEXT(3)
GLOBAL_UNCERTAINTY_ASSIGNED_CONTEXT((#2232))
GLOBAL_UNIT_ASSIGNED_CONTEXT((#2235,#2234,#2233))
REPRESENTATION_CONTEXT('Rear_Engine_Railing','TOP_LEVEL_ASSEMBLY_PART')
);
#2232=UNCERTAINTY_MEASURE_WITH_UNIT(LENGTH_MEASURE(1.E-8),#2235,
'DISTANCE_ACCURACY_VALUE','Maximum Tolerance applied to model');
#2233=(
NAMED_UNIT(*)
SI_UNIT($,.STERADIAN.)
SOLID_ANGLE_UNIT()
);
#2234=(
NAMED_UNIT(*)
PLANE_ANGLE_UNIT()
SI_UNIT($,.RADIAN.)
);
#2235=(
LENGTH_UNIT()
NAMED_UNIT(*)
SI_UNIT($,.METRE.)
);
#2236=PRODUCT_DEFINITION_SHAPE('','',#2237);
#2237=PRODUCT_DEFINITION('','',#2239,#2238);
#2238=PRODUCT_DEFINITION_CONTEXT('',#2245,'design');
#2239=PRODUCT_DEFINITION_FORMATION_WITH_SPECIFIED_SOURCE('','',#2241,
 .NOT_KNOWN.);
#2240=PRODUCT_RELATED_PRODUCT_CATEGORY('','',(#2241));
#2241=PRODUCT('Rear_Engine_Railing','Rear_Engine_Railing',
'Rear_Engine_Railing',(#2243));
#2242=PRODUCT_CATEGORY('','');
#2243=PRODUCT_CONTEXT('',#2245,'mechanical');
#2244=APPLICATION_PROTOCOL_DEFINITION('international standard',
'ap242_managed_model_based_3d_engineering',2020,#2245);
#2245=APPLICATION_CONTEXT('managed model based 3d engineering');
ENDSEC;
END-ISO-10303-21;
