ISO-10303-21;
HEADER;
/* Generated by software containing ST-Developer
 * from STEP Tools, Inc. (www.steptools.com) 
 */
/* OPTION: using custom renumber hook */

FILE_DESCRIPTION(
/* description */ ('STEP AP242 Edition 2',
'CAx-IF Rec.Pracs.---Representation and Presentation of Product Manufa
cturing Information (PMI)---4.0---2014-10-13',
'CAx-IF Rec.Pracs.---3D Tessellated Geometry---0.4---2014-09-14','2;1',
'CAx-IF Rec.Pracs.---User Defined Attributes---1.5---2016-08-15'),
/* implementation_level */ '2;1');

FILE_NAME(
/* name */ 'Engine_Plate - Front_Engine_Railing',
/* time_stamp */ '2026-06-19T12:09:11Z',
/* author */ (''),
/* organization */ (''),
/* preprocessor_version */ 'ST-DEVELOPER v20',
/* originating_system */ 'ONSHAPE BY PTC INC, 1.216',
/* authorisation */ '  ');

FILE_SCHEMA (('AP242_MANAGED_MODEL_BASED_3D_ENGINEERING_MIM_LF { 1 0 10303 442 3 1 4 }'));
ENDSEC;

DATA;
#10=SHAPE_REPRESENTATION_RELATIONSHIP('','',#1215,#11);
#11=ADVANCED_BREP_SHAPE_REPRESENTATION('',(#1213),#1901);
#12=ORIENTED_EDGE('',*,*,#348,.F.);
#13=ORIENTED_EDGE('',*,*,#349,.F.);
#14=ORIENTED_EDGE('',*,*,#350,.F.);
#15=ORIENTED_EDGE('',*,*,#351,.F.);
#16=ORIENTED_EDGE('',*,*,#352,.F.);
#17=ORIENTED_EDGE('',*,*,#353,.F.);
#18=ORIENTED_EDGE('',*,*,#354,.F.);
#19=ORIENTED_EDGE('',*,*,#355,.F.);
#20=ORIENTED_EDGE('',*,*,#356,.T.);
#21=ORIENTED_EDGE('',*,*,#357,.F.);
#22=ORIENTED_EDGE('',*,*,#358,.F.);
#23=ORIENTED_EDGE('',*,*,#359,.F.);
#24=ORIENTED_EDGE('',*,*,#360,.F.);
#25=ORIENTED_EDGE('',*,*,#361,.F.);
#26=ORIENTED_EDGE('',*,*,#362,.F.);
#27=ORIENTED_EDGE('',*,*,#363,.F.);
#28=ORIENTED_EDGE('',*,*,#364,.F.);
#29=ORIENTED_EDGE('',*,*,#365,.F.);
#30=ORIENTED_EDGE('',*,*,#366,.F.);
#31=ORIENTED_EDGE('',*,*,#367,.F.);
#32=ORIENTED_EDGE('',*,*,#368,.F.);
#33=ORIENTED_EDGE('',*,*,#369,.F.);
#34=ORIENTED_EDGE('',*,*,#370,.T.);
#35=ORIENTED_EDGE('',*,*,#371,.F.);
#36=ORIENTED_EDGE('',*,*,#372,.F.);
#37=ORIENTED_EDGE('',*,*,#373,.T.);
#38=ORIENTED_EDGE('',*,*,#374,.F.);
#39=ORIENTED_EDGE('',*,*,#375,.F.);
#40=ORIENTED_EDGE('',*,*,#356,.F.);
#41=ORIENTED_EDGE('',*,*,#376,.F.);
#42=ORIENTED_EDGE('',*,*,#377,.F.);
#43=ORIENTED_EDGE('',*,*,#378,.F.);
#44=ORIENTED_EDGE('',*,*,#379,.F.);
#45=ORIENTED_EDGE('',*,*,#380,.T.);
#46=ORIENTED_EDGE('',*,*,#381,.T.);
#47=ORIENTED_EDGE('',*,*,#382,.T.);
#48=ORIENTED_EDGE('',*,*,#383,.T.);
#49=ORIENTED_EDGE('',*,*,#384,.T.);
#50=ORIENTED_EDGE('',*,*,#385,.T.);
#51=ORIENTED_EDGE('',*,*,#386,.F.);
#52=ORIENTED_EDGE('',*,*,#387,.F.);
#53=ORIENTED_EDGE('',*,*,#388,.F.);
#54=ORIENTED_EDGE('',*,*,#389,.F.);
#55=ORIENTED_EDGE('',*,*,#390,.F.);
#56=ORIENTED_EDGE('',*,*,#391,.F.);
#57=ORIENTED_EDGE('',*,*,#392,.T.);
#58=ORIENTED_EDGE('',*,*,#372,.T.);
#59=ORIENTED_EDGE('',*,*,#393,.T.);
#60=ORIENTED_EDGE('',*,*,#394,.F.);
#61=ORIENTED_EDGE('',*,*,#395,.F.);
#62=ORIENTED_EDGE('',*,*,#369,.T.);
#63=ORIENTED_EDGE('',*,*,#396,.T.);
#64=ORIENTED_EDGE('',*,*,#397,.F.);
#65=ORIENTED_EDGE('',*,*,#398,.F.);
#66=ORIENTED_EDGE('',*,*,#378,.T.);
#67=ORIENTED_EDGE('',*,*,#399,.T.);
#68=ORIENTED_EDGE('',*,*,#400,.F.);
#69=ORIENTED_EDGE('',*,*,#401,.F.);
#70=ORIENTED_EDGE('',*,*,#402,.F.);
#71=ORIENTED_EDGE('',*,*,#403,.F.);
#72=ORIENTED_EDGE('',*,*,#386,.T.);
#73=ORIENTED_EDGE('',*,*,#404,.T.);
#74=ORIENTED_EDGE('',*,*,#405,.T.);
#75=ORIENTED_EDGE('',*,*,#404,.F.);
#76=ORIENTED_EDGE('',*,*,#385,.F.);
#77=ORIENTED_EDGE('',*,*,#406,.T.);
#78=ORIENTED_EDGE('',*,*,#407,.T.);
#79=ORIENTED_EDGE('',*,*,#406,.F.);
#80=ORIENTED_EDGE('',*,*,#384,.F.);
#81=ORIENTED_EDGE('',*,*,#408,.T.);
#82=ORIENTED_EDGE('',*,*,#409,.T.);
#83=ORIENTED_EDGE('',*,*,#408,.F.);
#84=ORIENTED_EDGE('',*,*,#383,.F.);
#85=ORIENTED_EDGE('',*,*,#410,.T.);
#86=ORIENTED_EDGE('',*,*,#411,.T.);
#87=ORIENTED_EDGE('',*,*,#410,.F.);
#88=ORIENTED_EDGE('',*,*,#382,.F.);
#89=ORIENTED_EDGE('',*,*,#412,.T.);
#90=ORIENTED_EDGE('',*,*,#413,.T.);
#91=ORIENTED_EDGE('',*,*,#412,.F.);
#92=ORIENTED_EDGE('',*,*,#381,.F.);
#93=ORIENTED_EDGE('',*,*,#414,.T.);
#94=ORIENTED_EDGE('',*,*,#415,.T.);
#95=ORIENTED_EDGE('',*,*,#414,.F.);
#96=ORIENTED_EDGE('',*,*,#380,.F.);
#97=ORIENTED_EDGE('',*,*,#416,.T.);
#98=ORIENTED_EDGE('',*,*,#417,.F.);
#99=ORIENTED_EDGE('',*,*,#416,.F.);
#100=ORIENTED_EDGE('',*,*,#379,.T.);
#101=ORIENTED_EDGE('',*,*,#401,.T.);
#102=ORIENTED_EDGE('',*,*,#418,.F.);
#103=ORIENTED_EDGE('',*,*,#419,.F.);
#104=ORIENTED_EDGE('',*,*,#391,.T.);
#105=ORIENTED_EDGE('',*,*,#420,.T.);
#106=ORIENTED_EDGE('',*,*,#421,.F.);
#107=ORIENTED_EDGE('',*,*,#420,.F.);
#108=ORIENTED_EDGE('',*,*,#390,.T.);
#109=ORIENTED_EDGE('',*,*,#422,.T.);
#110=ORIENTED_EDGE('',*,*,#423,.F.);
#111=ORIENTED_EDGE('',*,*,#422,.F.);
#112=ORIENTED_EDGE('',*,*,#389,.T.);
#113=ORIENTED_EDGE('',*,*,#424,.T.);
#114=ORIENTED_EDGE('',*,*,#425,.F.);
#115=ORIENTED_EDGE('',*,*,#424,.F.);
#116=ORIENTED_EDGE('',*,*,#388,.T.);
#117=ORIENTED_EDGE('',*,*,#426,.T.);
#118=ORIENTED_EDGE('',*,*,#427,.F.);
#119=ORIENTED_EDGE('',*,*,#426,.F.);
#120=ORIENTED_EDGE('',*,*,#387,.T.);
#121=ORIENTED_EDGE('',*,*,#403,.T.);
#122=ORIENTED_EDGE('',*,*,#428,.F.);
#123=ORIENTED_EDGE('',*,*,#418,.T.);
#124=ORIENTED_EDGE('',*,*,#421,.T.);
#125=ORIENTED_EDGE('',*,*,#423,.T.);
#126=ORIENTED_EDGE('',*,*,#425,.T.);
#127=ORIENTED_EDGE('',*,*,#427,.T.);
#128=ORIENTED_EDGE('',*,*,#402,.T.);
#129=ORIENTED_EDGE('',*,*,#405,.F.);
#130=ORIENTED_EDGE('',*,*,#407,.F.);
#131=ORIENTED_EDGE('',*,*,#409,.F.);
#132=ORIENTED_EDGE('',*,*,#411,.F.);
#133=ORIENTED_EDGE('',*,*,#413,.F.);
#134=ORIENTED_EDGE('',*,*,#415,.F.);
#135=ORIENTED_EDGE('',*,*,#417,.T.);
#136=ORIENTED_EDGE('',*,*,#400,.T.);
#137=ORIENTED_EDGE('',*,*,#429,.T.);
#138=ORIENTED_EDGE('',*,*,#430,.T.);
#139=ORIENTED_EDGE('',*,*,#431,.T.);
#140=ORIENTED_EDGE('',*,*,#432,.F.);
#141=ORIENTED_EDGE('',*,*,#394,.T.);
#142=ORIENTED_EDGE('',*,*,#433,.T.);
#143=ORIENTED_EDGE('',*,*,#434,.T.);
#144=ORIENTED_EDGE('',*,*,#397,.T.);
#145=ORIENTED_EDGE('',*,*,#435,.T.);
#146=ORIENTED_EDGE('',*,*,#436,.T.);
#147=ORIENTED_EDGE('',*,*,#437,.F.);
#148=ORIENTED_EDGE('',*,*,#430,.F.);
#149=ORIENTED_EDGE('',*,*,#438,.T.);
#150=ORIENTED_EDGE('',*,*,#376,.T.);
#151=ORIENTED_EDGE('',*,*,#355,.T.);
#152=ORIENTED_EDGE('',*,*,#439,.F.);
#153=ORIENTED_EDGE('',*,*,#440,.T.);
#154=ORIENTED_EDGE('',*,*,#441,.F.);
#155=ORIENTED_EDGE('',*,*,#436,.F.);
#156=ORIENTED_EDGE('',*,*,#442,.T.);
#157=ORIENTED_EDGE('',*,*,#371,.T.);
#158=ORIENTED_EDGE('',*,*,#443,.F.);
#159=ORIENTED_EDGE('',*,*,#434,.F.);
#160=ORIENTED_EDGE('',*,*,#444,.T.);
#161=ORIENTED_EDGE('',*,*,#374,.T.);
#162=ORIENTED_EDGE('',*,*,#428,.T.);
#163=ORIENTED_EDGE('',*,*,#445,.F.);
#164=ORIENTED_EDGE('',*,*,#446,.F.);
#165=ORIENTED_EDGE('',*,*,#357,.T.);
#166=ORIENTED_EDGE('',*,*,#392,.F.);
#167=ORIENTED_EDGE('',*,*,#419,.T.);
#168=ORIENTED_EDGE('',*,*,#393,.F.);
#169=ORIENTED_EDGE('',*,*,#375,.T.);
#170=ORIENTED_EDGE('',*,*,#444,.F.);
#171=ORIENTED_EDGE('',*,*,#433,.F.);
#172=ORIENTED_EDGE('',*,*,#396,.F.);
#173=ORIENTED_EDGE('',*,*,#368,.T.);
#174=ORIENTED_EDGE('',*,*,#442,.F.);
#175=ORIENTED_EDGE('',*,*,#435,.F.);
#176=ORIENTED_EDGE('',*,*,#373,.F.);
#177=ORIENTED_EDGE('',*,*,#395,.T.);
#178=ORIENTED_EDGE('',*,*,#432,.T.);
#179=ORIENTED_EDGE('',*,*,#443,.T.);
#180=ORIENTED_EDGE('',*,*,#399,.F.);
#181=ORIENTED_EDGE('',*,*,#377,.T.);
#182=ORIENTED_EDGE('',*,*,#438,.F.);
#183=ORIENTED_EDGE('',*,*,#429,.F.);
#184=ORIENTED_EDGE('',*,*,#370,.F.);
#185=ORIENTED_EDGE('',*,*,#398,.T.);
#186=ORIENTED_EDGE('',*,*,#437,.T.);
#187=ORIENTED_EDGE('',*,*,#441,.T.);
#188=ORIENTED_EDGE('',*,*,#447,.T.);
#189=ORIENTED_EDGE('',*,*,#448,.T.);
#190=ORIENTED_EDGE('',*,*,#449,.T.);
#191=ORIENTED_EDGE('',*,*,#450,.T.);
#192=ORIENTED_EDGE('',*,*,#445,.T.);
#193=ORIENTED_EDGE('',*,*,#431,.F.);
#194=ORIENTED_EDGE('',*,*,#440,.F.);
#195=ORIENTED_EDGE('',*,*,#451,.T.);
#196=ORIENTED_EDGE('',*,*,#452,.T.);
#197=ORIENTED_EDGE('',*,*,#453,.T.);
#198=ORIENTED_EDGE('',*,*,#454,.T.);
#199=ORIENTED_EDGE('',*,*,#455,.T.);
#200=ORIENTED_EDGE('',*,*,#362,.T.);
#201=ORIENTED_EDGE('',*,*,#456,.F.);
#202=ORIENTED_EDGE('',*,*,#448,.F.);
#203=ORIENTED_EDGE('',*,*,#457,.T.);
#204=ORIENTED_EDGE('',*,*,#361,.T.);
#205=ORIENTED_EDGE('',*,*,#458,.F.);
#206=ORIENTED_EDGE('',*,*,#459,.T.);
#207=ORIENTED_EDGE('',*,*,#460,.T.);
#208=ORIENTED_EDGE('',*,*,#349,.T.);
#209=ORIENTED_EDGE('',*,*,#461,.F.);
#210=ORIENTED_EDGE('',*,*,#462,.T.);
#211=ORIENTED_EDGE('',*,*,#463,.T.);
#212=ORIENTED_EDGE('',*,*,#359,.T.);
#213=ORIENTED_EDGE('',*,*,#464,.F.);
#214=ORIENTED_EDGE('',*,*,#449,.F.);
#215=ORIENTED_EDGE('',*,*,#456,.T.);
#216=ORIENTED_EDGE('',*,*,#358,.T.);
#217=ORIENTED_EDGE('',*,*,#446,.T.);
#218=ORIENTED_EDGE('',*,*,#450,.F.);
#219=ORIENTED_EDGE('',*,*,#464,.T.);
#220=ORIENTED_EDGE('',*,*,#354,.T.);
#221=ORIENTED_EDGE('',*,*,#465,.F.);
#222=ORIENTED_EDGE('',*,*,#451,.F.);
#223=ORIENTED_EDGE('',*,*,#439,.T.);
#224=ORIENTED_EDGE('',*,*,#353,.T.);
#225=ORIENTED_EDGE('',*,*,#466,.F.);
#226=ORIENTED_EDGE('',*,*,#467,.T.);
#227=ORIENTED_EDGE('',*,*,#468,.T.);
#228=ORIENTED_EDGE('',*,*,#351,.T.);
#229=ORIENTED_EDGE('',*,*,#469,.F.);
#230=ORIENTED_EDGE('',*,*,#470,.T.);
#231=ORIENTED_EDGE('',*,*,#471,.T.);
#232=ORIENTED_EDGE('',*,*,#367,.T.);
#233=ORIENTED_EDGE('',*,*,#472,.F.);
#234=ORIENTED_EDGE('',*,*,#452,.F.);
#235=ORIENTED_EDGE('',*,*,#465,.T.);
#236=ORIENTED_EDGE('',*,*,#366,.T.);
#237=ORIENTED_EDGE('',*,*,#473,.F.);
#238=ORIENTED_EDGE('',*,*,#453,.F.);
#239=ORIENTED_EDGE('',*,*,#472,.T.);
#240=ORIENTED_EDGE('',*,*,#474,.F.);
#241=ORIENTED_EDGE('',*,*,#454,.F.);
#242=ORIENTED_EDGE('',*,*,#473,.T.);
#243=ORIENTED_EDGE('',*,*,#365,.T.);
#244=ORIENTED_EDGE('',*,*,#475,.T.);
#245=ORIENTED_EDGE('',*,*,#476,.T.);
#246=ORIENTED_EDGE('',*,*,#477,.T.);
#247=ORIENTED_EDGE('',*,*,#478,.T.);
#248=ORIENTED_EDGE('',*,*,#479,.T.);
#249=ORIENTED_EDGE('',*,*,#480,.T.);
#250=ORIENTED_EDGE('',*,*,#481,.T.);
#251=ORIENTED_EDGE('',*,*,#482,.F.);
#252=ORIENTED_EDGE('',*,*,#483,.F.);
#253=ORIENTED_EDGE('',*,*,#484,.F.);
#254=ORIENTED_EDGE('',*,*,#485,.F.);
#255=ORIENTED_EDGE('',*,*,#486,.F.);
#256=ORIENTED_EDGE('',*,*,#487,.F.);
#257=ORIENTED_EDGE('',*,*,#363,.T.);
#258=ORIENTED_EDGE('',*,*,#457,.F.);
#259=ORIENTED_EDGE('',*,*,#447,.F.);
#260=ORIENTED_EDGE('',*,*,#488,.T.);
#261=ORIENTED_EDGE('',*,*,#489,.T.);
#262=ORIENTED_EDGE('',*,*,#490,.T.);
#263=ORIENTED_EDGE('',*,*,#491,.T.);
#264=ORIENTED_EDGE('',*,*,#492,.T.);
#265=ORIENTED_EDGE('',*,*,#493,.T.);
#266=ORIENTED_EDGE('',*,*,#494,.F.);
#267=ORIENTED_EDGE('',*,*,#495,.F.);
#268=ORIENTED_EDGE('',*,*,#496,.F.);
#269=ORIENTED_EDGE('',*,*,#497,.F.);
#270=ORIENTED_EDGE('',*,*,#498,.F.);
#271=ORIENTED_EDGE('',*,*,#499,.F.);
#272=ORIENTED_EDGE('',*,*,#475,.F.);
#273=ORIENTED_EDGE('',*,*,#364,.T.);
#274=ORIENTED_EDGE('',*,*,#487,.T.);
#275=ORIENTED_EDGE('',*,*,#500,.F.);
#276=ORIENTED_EDGE('',*,*,#498,.T.);
#277=ORIENTED_EDGE('',*,*,#501,.F.);
#278=ORIENTED_EDGE('',*,*,#477,.F.);
#279=ORIENTED_EDGE('',*,*,#502,.T.);
#280=ORIENTED_EDGE('',*,*,#497,.T.);
#281=ORIENTED_EDGE('',*,*,#503,.F.);
#282=ORIENTED_EDGE('',*,*,#478,.F.);
#283=ORIENTED_EDGE('',*,*,#501,.T.);
#284=ORIENTED_EDGE('',*,*,#496,.T.);
#285=ORIENTED_EDGE('',*,*,#504,.F.);
#286=ORIENTED_EDGE('',*,*,#479,.F.);
#287=ORIENTED_EDGE('',*,*,#503,.T.);
#288=ORIENTED_EDGE('',*,*,#495,.T.);
#289=ORIENTED_EDGE('',*,*,#505,.F.);
#290=ORIENTED_EDGE('',*,*,#480,.F.);
#291=ORIENTED_EDGE('',*,*,#504,.T.);
#292=ORIENTED_EDGE('',*,*,#494,.T.);
#293=ORIENTED_EDGE('',*,*,#506,.F.);
#294=ORIENTED_EDGE('',*,*,#481,.F.);
#295=ORIENTED_EDGE('',*,*,#505,.T.);
#296=ORIENTED_EDGE('',*,*,#493,.F.);
#297=ORIENTED_EDGE('',*,*,#507,.F.);
#298=ORIENTED_EDGE('',*,*,#482,.T.);
#299=ORIENTED_EDGE('',*,*,#506,.T.);
#300=ORIENTED_EDGE('',*,*,#492,.F.);
#301=ORIENTED_EDGE('',*,*,#508,.F.);
#302=ORIENTED_EDGE('',*,*,#483,.T.);
#303=ORIENTED_EDGE('',*,*,#507,.T.);
#304=ORIENTED_EDGE('',*,*,#491,.F.);
#305=ORIENTED_EDGE('',*,*,#509,.F.);
#306=ORIENTED_EDGE('',*,*,#484,.T.);
#307=ORIENTED_EDGE('',*,*,#508,.T.);
#308=ORIENTED_EDGE('',*,*,#490,.F.);
#309=ORIENTED_EDGE('',*,*,#510,.F.);
#310=ORIENTED_EDGE('',*,*,#485,.T.);
#311=ORIENTED_EDGE('',*,*,#509,.T.);
#312=ORIENTED_EDGE('',*,*,#489,.F.);
#313=ORIENTED_EDGE('',*,*,#511,.F.);
#314=ORIENTED_EDGE('',*,*,#486,.T.);
#315=ORIENTED_EDGE('',*,*,#510,.T.);
#316=ORIENTED_EDGE('',*,*,#488,.F.);
#317=ORIENTED_EDGE('',*,*,#455,.F.);
#318=ORIENTED_EDGE('',*,*,#474,.T.);
#319=ORIENTED_EDGE('',*,*,#511,.T.);
#320=ORIENTED_EDGE('',*,*,#499,.T.);
#321=ORIENTED_EDGE('',*,*,#502,.F.);
#322=ORIENTED_EDGE('',*,*,#476,.F.);
#323=ORIENTED_EDGE('',*,*,#500,.T.);
#324=ORIENTED_EDGE('',*,*,#350,.T.);
#325=ORIENTED_EDGE('',*,*,#460,.F.);
#326=ORIENTED_EDGE('',*,*,#512,.F.);
#327=ORIENTED_EDGE('',*,*,#469,.T.);
#328=ORIENTED_EDGE('',*,*,#360,.T.);
#329=ORIENTED_EDGE('',*,*,#471,.F.);
#330=ORIENTED_EDGE('',*,*,#513,.F.);
#331=ORIENTED_EDGE('',*,*,#458,.T.);
#332=ORIENTED_EDGE('',*,*,#470,.F.);
#333=ORIENTED_EDGE('',*,*,#512,.T.);
#334=ORIENTED_EDGE('',*,*,#459,.F.);
#335=ORIENTED_EDGE('',*,*,#513,.T.);
#336=ORIENTED_EDGE('',*,*,#352,.T.);
#337=ORIENTED_EDGE('',*,*,#463,.F.);
#338=ORIENTED_EDGE('',*,*,#514,.F.);
#339=ORIENTED_EDGE('',*,*,#466,.T.);
#340=ORIENTED_EDGE('',*,*,#348,.T.);
#341=ORIENTED_EDGE('',*,*,#468,.F.);
#342=ORIENTED_EDGE('',*,*,#515,.F.);
#343=ORIENTED_EDGE('',*,*,#461,.T.);
#344=ORIENTED_EDGE('',*,*,#467,.F.);
#345=ORIENTED_EDGE('',*,*,#514,.T.);
#346=ORIENTED_EDGE('',*,*,#462,.F.);
#347=ORIENTED_EDGE('',*,*,#515,.T.);
#348=EDGE_CURVE('',#516,#517,#628,.T.);
#349=EDGE_CURVE('',#518,#516,#629,.T.);
#350=EDGE_CURVE('',#519,#518,#630,.T.);
#351=EDGE_CURVE('',#517,#519,#631,.T.);
#352=EDGE_CURVE('',#520,#521,#632,.T.);
#353=EDGE_CURVE('',#522,#520,#633,.T.);
#354=EDGE_CURVE('',#523,#522,#634,.T.);
#355=EDGE_CURVE('',#524,#523,#635,.T.);
#356=EDGE_CURVE('',#524,#525,#636,.T.);
#357=EDGE_CURVE('',#526,#525,#637,.T.);
#358=EDGE_CURVE('',#527,#526,#638,.T.);
#359=EDGE_CURVE('',#521,#527,#639,.T.);
#360=EDGE_CURVE('',#528,#529,#640,.T.);
#361=EDGE_CURVE('',#530,#528,#641,.T.);
#362=EDGE_CURVE('',#531,#530,#642,.T.);
#363=EDGE_CURVE('',#532,#531,#643,.T.);
#364=EDGE_CURVE('',#533,#532,#644,.T.);
#365=EDGE_CURVE('',#534,#533,#645,.T.);
#366=EDGE_CURVE('',#535,#534,#646,.T.);
#367=EDGE_CURVE('',#529,#535,#647,.T.);
#368=EDGE_CURVE('',#536,#537,#648,.T.);
#369=EDGE_CURVE('',#538,#536,#649,.T.);
#370=EDGE_CURVE('',#538,#539,#650,.T.);
#371=EDGE_CURVE('',#537,#539,#651,.T.);
#372=EDGE_CURVE('',#540,#541,#652,.T.);
#373=EDGE_CURVE('',#540,#542,#653,.T.);
#374=EDGE_CURVE('',#543,#542,#654,.T.);
#375=EDGE_CURVE('',#541,#543,#655,.T.);
#376=EDGE_CURVE('',#544,#524,#656,.T.);
#377=EDGE_CURVE('',#545,#544,#657,.T.);
#378=EDGE_CURVE('',#546,#545,#658,.T.);
#379=EDGE_CURVE('',#547,#546,#659,.T.);
#380=EDGE_CURVE('',#547,#548,#660,.T.);
#381=EDGE_CURVE('',#548,#549,#661,.T.);
#382=EDGE_CURVE('',#549,#550,#662,.T.);
#383=EDGE_CURVE('',#550,#551,#663,.T.);
#384=EDGE_CURVE('',#551,#552,#664,.T.);
#385=EDGE_CURVE('',#552,#553,#665,.T.);
#386=EDGE_CURVE('',#554,#553,#666,.T.);
#387=EDGE_CURVE('',#555,#554,#667,.T.);
#388=EDGE_CURVE('',#556,#555,#668,.T.);
#389=EDGE_CURVE('',#557,#556,#669,.T.);
#390=EDGE_CURVE('',#558,#557,#670,.T.);
#391=EDGE_CURVE('',#559,#558,#671,.T.);
#392=EDGE_CURVE('',#559,#525,#672,.T.);
#393=EDGE_CURVE('',#541,#560,#673,.T.);
#394=EDGE_CURVE('',#561,#560,#674,.T.);
#395=EDGE_CURVE('',#540,#561,#675,.T.);
#396=EDGE_CURVE('',#536,#562,#676,.T.);
#397=EDGE_CURVE('',#563,#562,#677,.T.);
#398=EDGE_CURVE('',#538,#563,#678,.T.);
#399=EDGE_CURVE('',#545,#564,#679,.T.);
#400=EDGE_CURVE('',#565,#564,#680,.T.);
#401=EDGE_CURVE('',#546,#565,#681,.T.);
#402=EDGE_CURVE('',#566,#567,#682,.T.);
#403=EDGE_CURVE('',#554,#566,#683,.T.);
#404=EDGE_CURVE('',#553,#567,#684,.T.);
#405=EDGE_CURVE('',#568,#567,#685,.T.);
#406=EDGE_CURVE('',#552,#568,#686,.T.);
#407=EDGE_CURVE('',#569,#568,#687,.T.);
#408=EDGE_CURVE('',#551,#569,#688,.T.);
#409=EDGE_CURVE('',#570,#569,#689,.T.);
#410=EDGE_CURVE('',#550,#570,#690,.T.);
#411=EDGE_CURVE('',#571,#570,#691,.T.);
#412=EDGE_CURVE('',#549,#571,#692,.T.);
#413=EDGE_CURVE('',#572,#571,#693,.T.);
#414=EDGE_CURVE('',#548,#572,#694,.T.);
#415=EDGE_CURVE('',#573,#572,#695,.T.);
#416=EDGE_CURVE('',#547,#573,#696,.T.);
#417=EDGE_CURVE('',#573,#565,#697,.T.);
#418=EDGE_CURVE('',#574,#575,#698,.T.);
#419=EDGE_CURVE('',#559,#574,#699,.T.);
#420=EDGE_CURVE('',#558,#575,#700,.T.);
#421=EDGE_CURVE('',#575,#576,#701,.T.);
#422=EDGE_CURVE('',#557,#576,#702,.T.);
#423=EDGE_CURVE('',#576,#577,#703,.T.);
#424=EDGE_CURVE('',#556,#577,#704,.T.);
#425=EDGE_CURVE('',#577,#578,#705,.T.);
#426=EDGE_CURVE('',#555,#578,#706,.T.);
#427=EDGE_CURVE('',#578,#566,#707,.T.);
#428=EDGE_CURVE('',#574,#579,#708,.T.);
#429=EDGE_CURVE('',#564,#580,#709,.T.);
#430=EDGE_CURVE('',#580,#581,#710,.T.);
#431=EDGE_CURVE('',#581,#579,#711,.T.);
#432=EDGE_CURVE('',#561,#582,#712,.T.);
#433=EDGE_CURVE('',#560,#583,#713,.T.);
#434=EDGE_CURVE('',#583,#582,#714,.T.);
#435=EDGE_CURVE('',#562,#584,#715,.T.);
#436=EDGE_CURVE('',#584,#585,#716,.T.);
#437=EDGE_CURVE('',#563,#585,#717,.T.);
#438=EDGE_CURVE('',#580,#544,#718,.T.);
#439=EDGE_CURVE('',#586,#523,#719,.T.);
#440=EDGE_CURVE('',#586,#581,#720,.T.);
#441=EDGE_CURVE('',#585,#539,#721,.T.);
#442=EDGE_CURVE('',#584,#537,#722,.T.);
#443=EDGE_CURVE('',#582,#542,#723,.T.);
#444=EDGE_CURVE('',#583,#543,#724,.T.);
#445=EDGE_CURVE('',#587,#579,#725,.T.);
#446=EDGE_CURVE('',#526,#587,#726,.T.);
#447=EDGE_CURVE('',#588,#589,#727,.T.);
#448=EDGE_CURVE('',#589,#590,#728,.T.);
#449=EDGE_CURVE('',#590,#591,#729,.T.);
#450=EDGE_CURVE('',#591,#587,#730,.T.);
#451=EDGE_CURVE('',#586,#592,#731,.T.);
#452=EDGE_CURVE('',#592,#593,#732,.T.);
#453=EDGE_CURVE('',#593,#594,#733,.T.);
#454=EDGE_CURVE('',#594,#595,#734,.T.);
#455=EDGE_CURVE('',#595,#588,#735,.T.);
#456=EDGE_CURVE('',#590,#530,#736,.T.);
#457=EDGE_CURVE('',#589,#531,#737,.T.);
#458=EDGE_CURVE('',#596,#528,#738,.T.);
#459=EDGE_CURVE('',#596,#597,#739,.T.);
#460=EDGE_CURVE('',#597,#518,#740,.T.);
#461=EDGE_CURVE('',#598,#516,#741,.T.);
#462=EDGE_CURVE('',#598,#599,#742,.T.);
#463=EDGE_CURVE('',#599,#521,#743,.T.);
#464=EDGE_CURVE('',#591,#527,#744,.T.);
#465=EDGE_CURVE('',#592,#522,#745,.T.);
#466=EDGE_CURVE('',#600,#520,#746,.T.);
#467=EDGE_CURVE('',#600,#601,#747,.T.);
#468=EDGE_CURVE('',#601,#517,#748,.T.);
#469=EDGE_CURVE('',#602,#519,#749,.T.);
#470=EDGE_CURVE('',#602,#603,#750,.T.);
#471=EDGE_CURVE('',#603,#529,#751,.T.);
#472=EDGE_CURVE('',#593,#535,#752,.T.);
#473=EDGE_CURVE('',#594,#534,#753,.T.);
#474=EDGE_CURVE('',#595,#604,#754,.T.);
#475=EDGE_CURVE('',#533,#605,#755,.T.);
#476=EDGE_CURVE('',#605,#606,#756,.T.);
#477=EDGE_CURVE('',#606,#607,#757,.T.);
#478=EDGE_CURVE('',#607,#608,#758,.T.);
#479=EDGE_CURVE('',#608,#609,#759,.T.);
#480=EDGE_CURVE('',#609,#610,#760,.T.);
#481=EDGE_CURVE('',#610,#611,#761,.T.);
#482=EDGE_CURVE('',#612,#611,#762,.T.);
#483=EDGE_CURVE('',#613,#612,#763,.T.);
#484=EDGE_CURVE('',#614,#613,#764,.T.);
#485=EDGE_CURVE('',#615,#614,#765,.T.);
#486=EDGE_CURVE('',#604,#615,#766,.T.);
#487=EDGE_CURVE('',#532,#616,#767,.T.);
#488=EDGE_CURVE('',#588,#617,#768,.T.);
#489=EDGE_CURVE('',#617,#618,#769,.T.);
#490=EDGE_CURVE('',#618,#619,#770,.T.);
#491=EDGE_CURVE('',#619,#620,#771,.T.);
#492=EDGE_CURVE('',#620,#621,#772,.T.);
#493=EDGE_CURVE('',#621,#622,#773,.T.);
#494=EDGE_CURVE('',#623,#622,#774,.T.);
#495=EDGE_CURVE('',#624,#623,#775,.T.);
#496=EDGE_CURVE('',#625,#624,#776,.T.);
#497=EDGE_CURVE('',#626,#625,#777,.T.);
#498=EDGE_CURVE('',#627,#626,#778,.T.);
#499=EDGE_CURVE('',#616,#627,#779,.T.);
#500=EDGE_CURVE('',#605,#616,#780,.T.);
#501=EDGE_CURVE('',#607,#626,#781,.T.);
#502=EDGE_CURVE('',#606,#627,#782,.T.);
#503=EDGE_CURVE('',#608,#625,#783,.T.);
#504=EDGE_CURVE('',#609,#624,#784,.T.);
#505=EDGE_CURVE('',#610,#623,#785,.T.);
#506=EDGE_CURVE('',#611,#622,#786,.T.);
#507=EDGE_CURVE('',#612,#621,#787,.T.);
#508=EDGE_CURVE('',#613,#620,#788,.T.);
#509=EDGE_CURVE('',#614,#619,#789,.T.);
#510=EDGE_CURVE('',#615,#618,#790,.T.);
#511=EDGE_CURVE('',#604,#617,#791,.T.);
#512=EDGE_CURVE('',#602,#597,#792,.T.);
#513=EDGE_CURVE('',#596,#603,#793,.T.);
#514=EDGE_CURVE('',#600,#599,#794,.T.);
#515=EDGE_CURVE('',#598,#601,#795,.T.);
#516=VERTEX_POINT('',#1564);
#517=VERTEX_POINT('',#1565);
#518=VERTEX_POINT('',#1567);
#519=VERTEX_POINT('',#1569);
#520=VERTEX_POINT('',#1573);
#521=VERTEX_POINT('',#1574);
#522=VERTEX_POINT('',#1576);
#523=VERTEX_POINT('',#1578);
#524=VERTEX_POINT('',#1580);
#525=VERTEX_POINT('',#1582);
#526=VERTEX_POINT('',#1584);
#527=VERTEX_POINT('',#1586);
#528=VERTEX_POINT('',#1590);
#529=VERTEX_POINT('',#1591);
#530=VERTEX_POINT('',#1593);
#531=VERTEX_POINT('',#1595);
#532=VERTEX_POINT('',#1597);
#533=VERTEX_POINT('',#1599);
#534=VERTEX_POINT('',#1601);
#535=VERTEX_POINT('',#1603);
#536=VERTEX_POINT('',#1607);
#537=VERTEX_POINT('',#1608);
#538=VERTEX_POINT('',#1610);
#539=VERTEX_POINT('',#1612);
#540=VERTEX_POINT('',#1615);
#541=VERTEX_POINT('',#1616);
#542=VERTEX_POINT('',#1618);
#543=VERTEX_POINT('',#1620);
#544=VERTEX_POINT('',#1623);
#545=VERTEX_POINT('',#1625);
#546=VERTEX_POINT('',#1627);
#547=VERTEX_POINT('',#1629);
#548=VERTEX_POINT('',#1631);
#549=VERTEX_POINT('',#1633);
#550=VERTEX_POINT('',#1635);
#551=VERTEX_POINT('',#1637);
#552=VERTEX_POINT('',#1639);
#553=VERTEX_POINT('',#1641);
#554=VERTEX_POINT('',#1643);
#555=VERTEX_POINT('',#1645);
#556=VERTEX_POINT('',#1647);
#557=VERTEX_POINT('',#1649);
#558=VERTEX_POINT('',#1651);
#559=VERTEX_POINT('',#1653);
#560=VERTEX_POINT('',#1657);
#561=VERTEX_POINT('',#1659);
#562=VERTEX_POINT('',#1663);
#563=VERTEX_POINT('',#1665);
#564=VERTEX_POINT('',#1669);
#565=VERTEX_POINT('',#1671);
#566=VERTEX_POINT('',#1675);
#567=VERTEX_POINT('',#1676);
#568=VERTEX_POINT('',#1681);
#569=VERTEX_POINT('',#1685);
#570=VERTEX_POINT('',#1689);
#571=VERTEX_POINT('',#1693);
#572=VERTEX_POINT('',#1697);
#573=VERTEX_POINT('',#1701);
#574=VERTEX_POINT('',#1707);
#575=VERTEX_POINT('',#1708);
#576=VERTEX_POINT('',#1713);
#577=VERTEX_POINT('',#1717);
#578=VERTEX_POINT('',#1721);
#579=VERTEX_POINT('',#1727);
#580=VERTEX_POINT('',#1729);
#581=VERTEX_POINT('',#1731);
#582=VERTEX_POINT('',#1734);
#583=VERTEX_POINT('',#1736);
#584=VERTEX_POINT('',#1739);
#585=VERTEX_POINT('',#1741);
#586=VERTEX_POINT('',#1746);
#587=VERTEX_POINT('',#1756);
#588=VERTEX_POINT('',#1765);
#589=VERTEX_POINT('',#1766);
#590=VERTEX_POINT('',#1768);
#591=VERTEX_POINT('',#1770);
#592=VERTEX_POINT('',#1773);
#593=VERTEX_POINT('',#1775);
#594=VERTEX_POINT('',#1777);
#595=VERTEX_POINT('',#1779);
#596=VERTEX_POINT('',#1786);
#597=VERTEX_POINT('',#1788);
#598=VERTEX_POINT('',#1791);
#599=VERTEX_POINT('',#1793);
#600=VERTEX_POINT('',#1801);
#601=VERTEX_POINT('',#1803);
#602=VERTEX_POINT('',#1806);
#603=VERTEX_POINT('',#1808);
#604=VERTEX_POINT('',#1815);
#605=VERTEX_POINT('',#1817);
#606=VERTEX_POINT('',#1819);
#607=VERTEX_POINT('',#1821);
#608=VERTEX_POINT('',#1823);
#609=VERTEX_POINT('',#1825);
#610=VERTEX_POINT('',#1827);
#611=VERTEX_POINT('',#1829);
#612=VERTEX_POINT('',#1831);
#613=VERTEX_POINT('',#1833);
#614=VERTEX_POINT('',#1835);
#615=VERTEX_POINT('',#1837);
#616=VERTEX_POINT('',#1841);
#617=VERTEX_POINT('',#1843);
#618=VERTEX_POINT('',#1845);
#619=VERTEX_POINT('',#1847);
#620=VERTEX_POINT('',#1849);
#621=VERTEX_POINT('',#1851);
#622=VERTEX_POINT('',#1853);
#623=VERTEX_POINT('',#1855);
#624=VERTEX_POINT('',#1857);
#625=VERTEX_POINT('',#1859);
#626=VERTEX_POINT('',#1861);
#627=VERTEX_POINT('',#1863);
#628=LINE('',#1563,#796);
#629=LINE('',#1566,#797);
#630=LINE('',#1568,#798);
#631=LINE('',#1570,#799);
#632=LINE('',#1572,#800);
#633=LINE('',#1575,#801);
#634=LINE('',#1577,#802);
#635=LINE('',#1579,#803);
#636=LINE('',#1581,#804);
#637=LINE('',#1583,#805);
#638=LINE('',#1585,#806);
#639=LINE('',#1587,#807);
#640=LINE('',#1589,#808);
#641=LINE('',#1592,#809);
#642=LINE('',#1594,#810);
#643=LINE('',#1596,#811);
#644=LINE('',#1598,#812);
#645=LINE('',#1600,#813);
#646=LINE('',#1602,#814);
#647=LINE('',#1604,#815);
#648=LINE('',#1606,#816);
#649=LINE('',#1609,#817);
#650=LINE('',#1611,#818);
#651=LINE('',#1613,#819);
#652=LINE('',#1614,#820);
#653=LINE('',#1617,#821);
#654=LINE('',#1619,#822);
#655=LINE('',#1621,#823);
#656=LINE('',#1622,#824);
#657=LINE('',#1624,#825);
#658=LINE('',#1626,#826);
#659=LINE('',#1628,#827);
#660=LINE('',#1630,#828);
#661=LINE('',#1632,#829);
#662=LINE('',#1634,#830);
#663=LINE('',#1636,#831);
#664=LINE('',#1638,#832);
#665=LINE('',#1640,#833);
#666=LINE('',#1642,#834);
#667=LINE('',#1644,#835);
#668=LINE('',#1646,#836);
#669=LINE('',#1648,#837);
#670=LINE('',#1650,#838);
#671=LINE('',#1652,#839);
#672=LINE('',#1654,#840);
#673=LINE('',#1656,#841);
#674=LINE('',#1658,#842);
#675=LINE('',#1660,#843);
#676=LINE('',#1662,#844);
#677=LINE('',#1664,#845);
#678=LINE('',#1666,#846);
#679=LINE('',#1668,#847);
#680=LINE('',#1670,#848);
#681=LINE('',#1672,#849);
#682=LINE('',#1674,#850);
#683=LINE('',#1677,#851);
#684=LINE('',#1678,#852);
#685=LINE('',#1680,#853);
#686=LINE('',#1682,#854);
#687=LINE('',#1684,#855);
#688=LINE('',#1686,#856);
#689=LINE('',#1688,#857);
#690=LINE('',#1690,#858);
#691=LINE('',#1692,#859);
#692=LINE('',#1694,#860);
#693=LINE('',#1696,#861);
#694=LINE('',#1698,#862);
#695=LINE('',#1700,#863);
#696=LINE('',#1702,#864);
#697=LINE('',#1704,#865);
#698=LINE('',#1706,#866);
#699=LINE('',#1709,#867);
#700=LINE('',#1710,#868);
#701=LINE('',#1712,#869);
#702=LINE('',#1714,#870);
#703=LINE('',#1716,#871);
#704=LINE('',#1718,#872);
#705=LINE('',#1720,#873);
#706=LINE('',#1722,#874);
#707=LINE('',#1724,#875);
#708=LINE('',#1726,#876);
#709=LINE('',#1728,#877);
#710=LINE('',#1730,#878);
#711=LINE('',#1732,#879);
#712=LINE('',#1733,#880);
#713=LINE('',#1735,#881);
#714=LINE('',#1737,#882);
#715=LINE('',#1738,#883);
#716=LINE('',#1740,#884);
#717=LINE('',#1742,#885);
#718=LINE('',#1744,#886);
#719=LINE('',#1745,#887);
#720=LINE('',#1747,#888);
#721=LINE('',#1749,#889);
#722=LINE('',#1750,#890);
#723=LINE('',#1752,#891);
#724=LINE('',#1753,#892);
#725=LINE('',#1755,#893);
#726=LINE('',#1757,#894);
#727=LINE('',#1764,#895);
#728=LINE('',#1767,#896);
#729=LINE('',#1769,#897);
#730=LINE('',#1771,#898);
#731=LINE('',#1772,#899);
#732=LINE('',#1774,#900);
#733=LINE('',#1776,#901);
#734=LINE('',#1778,#902);
#735=LINE('',#1780,#903);
#736=LINE('',#1782,#904);
#737=LINE('',#1783,#905);
#738=LINE('',#1785,#906);
#739=LINE('',#1787,#907);
#740=LINE('',#1789,#908);
#741=LINE('',#1790,#909);
#742=LINE('',#1792,#910);
#743=LINE('',#1794,#911);
#744=LINE('',#1795,#912);
#745=LINE('',#1798,#913);
#746=LINE('',#1800,#914);
#747=LINE('',#1802,#915);
#748=LINE('',#1804,#916);
#749=LINE('',#1805,#917);
#750=LINE('',#1807,#918);
#751=LINE('',#1809,#919);
#752=LINE('',#1810,#920);
#753=LINE('',#1812,#921);
#754=LINE('',#1814,#922);
#755=LINE('',#1816,#923);
#756=LINE('',#1818,#924);
#757=LINE('',#1820,#925);
#758=LINE('',#1822,#926);
#759=LINE('',#1824,#927);
#760=LINE('',#1826,#928);
#761=LINE('',#1828,#929);
#762=LINE('',#1830,#930);
#763=LINE('',#1832,#931);
#764=LINE('',#1834,#932);
#765=LINE('',#1836,#933);
#766=LINE('',#1838,#934);
#767=LINE('',#1840,#935);
#768=LINE('',#1842,#936);
#769=LINE('',#1844,#937);
#770=LINE('',#1846,#938);
#771=LINE('',#1848,#939);
#772=LINE('',#1850,#940);
#773=LINE('',#1852,#941);
#774=LINE('',#1854,#942);
#775=LINE('',#1856,#943);
#776=LINE('',#1858,#944);
#777=LINE('',#1860,#945);
#778=LINE('',#1862,#946);
#779=LINE('',#1864,#947);
#780=LINE('',#1866,#948);
#781=LINE('',#1868,#949);
#782=LINE('',#1869,#950);
#783=LINE('',#1871,#951);
#784=LINE('',#1873,#952);
#785=LINE('',#1875,#953);
#786=LINE('',#1877,#954);
#787=LINE('',#1879,#955);
#788=LINE('',#1881,#956);
#789=LINE('',#1883,#957);
#790=LINE('',#1885,#958);
#791=LINE('',#1887,#959);
#792=LINE('',#1891,#960);
#793=LINE('',#1893,#961);
#794=LINE('',#1896,#962);
#795=LINE('',#1898,#963);
#796=VECTOR('',#1279,1.);
#797=VECTOR('',#1280,1.);
#798=VECTOR('',#1281,1.);
#799=VECTOR('',#1282,1.);
#800=VECTOR('',#1285,1.);
#801=VECTOR('',#1286,1.);
#802=VECTOR('',#1287,1.);
#803=VECTOR('',#1288,1.);
#804=VECTOR('',#1289,1.);
#805=VECTOR('',#1290,1.);
#806=VECTOR('',#1291,1.);
#807=VECTOR('',#1292,1.);
#808=VECTOR('',#1295,1.);
#809=VECTOR('',#1296,1.);
#810=VECTOR('',#1297,1.);
#811=VECTOR('',#1298,1.);
#812=VECTOR('',#1299,1.);
#813=VECTOR('',#1300,1.);
#814=VECTOR('',#1301,1.);
#815=VECTOR('',#1302,1.);
#816=VECTOR('',#1305,1.);
#817=VECTOR('',#1306,1.);
#818=VECTOR('',#1307,1.);
#819=VECTOR('',#1308,1.);
#820=VECTOR('',#1309,1.);
#821=VECTOR('',#1310,1.);
#822=VECTOR('',#1311,1.);
#823=VECTOR('',#1312,1.);
#824=VECTOR('',#1313,1.);
#825=VECTOR('',#1314,1.);
#826=VECTOR('',#1315,1.);
#827=VECTOR('',#1316,1.);
#828=VECTOR('',#1317,1.);
#829=VECTOR('',#1318,1.);
#830=VECTOR('',#1319,1.);
#831=VECTOR('',#1320,1.);
#832=VECTOR('',#1321,1.);
#833=VECTOR('',#1322,1.);
#834=VECTOR('',#1323,1.);
#835=VECTOR('',#1324,1.);
#836=VECTOR('',#1325,1.);
#837=VECTOR('',#1326,1.);
#838=VECTOR('',#1327,1.);
#839=VECTOR('',#1328,1.);
#840=VECTOR('',#1329,1.);
#841=VECTOR('',#1332,1.);
#842=VECTOR('',#1333,1.);
#843=VECTOR('',#1334,1.);
#844=VECTOR('',#1337,1.);
#845=VECTOR('',#1338,1.);
#846=VECTOR('',#1339,1.);
#847=VECTOR('',#1342,1.);
#848=VECTOR('',#1343,1.);
#849=VECTOR('',#1344,1.);
#850=VECTOR('',#1347,1.);
#851=VECTOR('',#1348,1.);
#852=VECTOR('',#1349,1.);
#853=VECTOR('',#1352,1.);
#854=VECTOR('',#1353,1.);
#855=VECTOR('',#1356,1.);
#856=VECTOR('',#1357,1.);
#857=VECTOR('',#1360,1.);
#858=VECTOR('',#1361,1.);
#859=VECTOR('',#1364,1.);
#860=VECTOR('',#1365,1.);
#861=VECTOR('',#1368,1.);
#862=VECTOR('',#1369,1.);
#863=VECTOR('',#1372,1.);
#864=VECTOR('',#1373,1.);
#865=VECTOR('',#1376,1.);
#866=VECTOR('',#1379,1.);
#867=VECTOR('',#1380,1.);
#868=VECTOR('',#1381,1.);
#869=VECTOR('',#1384,1.);
#870=VECTOR('',#1385,1.);
#871=VECTOR('',#1388,1.);
#872=VECTOR('',#1389,1.);
#873=VECTOR('',#1392,1.);
#874=VECTOR('',#1393,1.);
#875=VECTOR('',#1396,1.);
#876=VECTOR('',#1399,1.);
#877=VECTOR('',#1400,1.);
#878=VECTOR('',#1401,1.);
#879=VECTOR('',#1402,1.);
#880=VECTOR('',#1403,1.);
#881=VECTOR('',#1404,1.);
#882=VECTOR('',#1405,1.);
#883=VECTOR('',#1406,1.);
#884=VECTOR('',#1407,1.);
#885=VECTOR('',#1408,1.);
#886=VECTOR('',#1411,1.);
#887=VECTOR('',#1412,1.);
#888=VECTOR('',#1413,1.);
#889=VECTOR('',#1416,1.);
#890=VECTOR('',#1417,1.);
#891=VECTOR('',#1420,1.);
#892=VECTOR('',#1421,1.);
#893=VECTOR('',#1424,1.);
#894=VECTOR('',#1425,1.);
#895=VECTOR('',#1438,1.);
#896=VECTOR('',#1439,1.);
#897=VECTOR('',#1440,1.);
#898=VECTOR('',#1441,1.);
#899=VECTOR('',#1442,1.);
#900=VECTOR('',#1443,1.);
#901=VECTOR('',#1444,1.);
#902=VECTOR('',#1445,1.);
#903=VECTOR('',#1446,1.);
#904=VECTOR('',#1449,1.);
#905=VECTOR('',#1450,1.);
#906=VECTOR('',#1453,1.);
#907=VECTOR('',#1454,1.);
#908=VECTOR('',#1455,1.);
#909=VECTOR('',#1456,1.);
#910=VECTOR('',#1457,1.);
#911=VECTOR('',#1458,1.);
#912=VECTOR('',#1459,1.);
#913=VECTOR('',#1464,1.);
#914=VECTOR('',#1467,1.);
#915=VECTOR('',#1468,1.);
#916=VECTOR('',#1469,1.);
#917=VECTOR('',#1470,1.);
#918=VECTOR('',#1471,1.);
#919=VECTOR('',#1472,1.);
#920=VECTOR('',#1473,1.);
#921=VECTOR('',#1476,1.);
#922=VECTOR('',#1479,1.);
#923=VECTOR('',#1480,1.);
#924=VECTOR('',#1481,1.);
#925=VECTOR('',#1482,1.);
#926=VECTOR('',#1483,1.);
#927=VECTOR('',#1484,1.);
#928=VECTOR('',#1485,1.);
#929=VECTOR('',#1486,1.);
#930=VECTOR('',#1487,1.);
#931=VECTOR('',#1488,1.);
#932=VECTOR('',#1489,1.);
#933=VECTOR('',#1490,1.);
#934=VECTOR('',#1491,1.);
#935=VECTOR('',#1494,1.);
#936=VECTOR('',#1495,1.);
#937=VECTOR('',#1496,1.);
#938=VECTOR('',#1497,1.);
#939=VECTOR('',#1498,1.);
#940=VECTOR('',#1499,1.);
#941=VECTOR('',#1500,1.);
#942=VECTOR('',#1501,1.);
#943=VECTOR('',#1502,1.);
#944=VECTOR('',#1503,1.);
#945=VECTOR('',#1504,1.);
#946=VECTOR('',#1505,1.);
#947=VECTOR('',#1506,1.);
#948=VECTOR('',#1509,1.);
#949=VECTOR('',#1512,1.);
#950=VECTOR('',#1513,1.);
#951=VECTOR('',#1516,1.);
#952=VECTOR('',#1519,1.);
#953=VECTOR('',#1522,1.);
#954=VECTOR('',#1525,1.);
#955=VECTOR('',#1528,1.);
#956=VECTOR('',#1531,1.);
#957=VECTOR('',#1534,1.);
#958=VECTOR('',#1537,1.);
#959=VECTOR('',#1540,1.);
#960=VECTOR('',#1547,1.);
#961=VECTOR('',#1550,1.);
#962=VECTOR('',#1555,1.);
#963=VECTOR('',#1558,1.);
#964=EDGE_LOOP('',(#12,#13,#14,#15));
#965=EDGE_LOOP('',(#16,#17,#18,#19,#20,#21,#22,#23));
#966=EDGE_LOOP('',(#24,#25,#26,#27,#28,#29,#30,#31));
#967=EDGE_LOOP('',(#32,#33,#34,#35));
#968=EDGE_LOOP('',(#36,#37,#38,#39));
#969=EDGE_LOOP('',(#40,#41,#42,#43,#44,#45,#46,#47,#48,#49,#50,#51,#52,
#53,#54,#55,#56,#57));
#970=EDGE_LOOP('',(#58,#59,#60,#61));
#971=EDGE_LOOP('',(#62,#63,#64,#65));
#972=EDGE_LOOP('',(#66,#67,#68,#69));
#973=EDGE_LOOP('',(#70,#71,#72,#73));
#974=EDGE_LOOP('',(#74,#75,#76,#77));
#975=EDGE_LOOP('',(#78,#79,#80,#81));
#976=EDGE_LOOP('',(#82,#83,#84,#85));
#977=EDGE_LOOP('',(#86,#87,#88,#89));
#978=EDGE_LOOP('',(#90,#91,#92,#93));
#979=EDGE_LOOP('',(#94,#95,#96,#97));
#980=EDGE_LOOP('',(#98,#99,#100,#101));
#981=EDGE_LOOP('',(#102,#103,#104,#105));
#982=EDGE_LOOP('',(#106,#107,#108,#109));
#983=EDGE_LOOP('',(#110,#111,#112,#113));
#984=EDGE_LOOP('',(#114,#115,#116,#117));
#985=EDGE_LOOP('',(#118,#119,#120,#121));
#986=EDGE_LOOP('',(#122,#123,#124,#125,#126,#127,#128,#129,#130,#131,#132,
#133,#134,#135,#136,#137,#138,#139));
#987=EDGE_LOOP('',(#140,#141,#142,#143));
#988=EDGE_LOOP('',(#144,#145,#146,#147));
#989=EDGE_LOOP('',(#148,#149,#150,#151,#152,#153));
#990=EDGE_LOOP('',(#154,#155,#156,#157));
#991=EDGE_LOOP('',(#158,#159,#160,#161));
#992=EDGE_LOOP('',(#162,#163,#164,#165,#166,#167));
#993=EDGE_LOOP('',(#168,#169,#170,#171));
#994=EDGE_LOOP('',(#172,#173,#174,#175));
#995=EDGE_LOOP('',(#176,#177,#178,#179));
#996=EDGE_LOOP('',(#180,#181,#182,#183));
#997=EDGE_LOOP('',(#184,#185,#186,#187));
#998=EDGE_LOOP('',(#188,#189,#190,#191,#192,#193,#194,#195,#196,#197,#198,
#199));
#999=EDGE_LOOP('',(#200,#201,#202,#203));
#1000=EDGE_LOOP('',(#204,#205,#206,#207,#208,#209,#210,#211,#212,#213,#214,
#215));
#1001=EDGE_LOOP('',(#216,#217,#218,#219));
#1002=EDGE_LOOP('',(#220,#221,#222,#223));
#1003=EDGE_LOOP('',(#224,#225,#226,#227,#228,#229,#230,#231,#232,#233,#234,
#235));
#1004=EDGE_LOOP('',(#236,#237,#238,#239));
#1005=EDGE_LOOP('',(#240,#241,#242,#243,#244,#245,#246,#247,#248,#249,#250,
#251,#252,#253,#254,#255));
#1006=EDGE_LOOP('',(#256,#257,#258,#259,#260,#261,#262,#263,#264,#265,#266,
#267,#268,#269,#270,#271));
#1007=EDGE_LOOP('',(#272,#273,#274,#275));
#1008=EDGE_LOOP('',(#276,#277,#278,#279));
#1009=EDGE_LOOP('',(#280,#281,#282,#283));
#1010=EDGE_LOOP('',(#284,#285,#286,#287));
#1011=EDGE_LOOP('',(#288,#289,#290,#291));
#1012=EDGE_LOOP('',(#292,#293,#294,#295));
#1013=EDGE_LOOP('',(#296,#297,#298,#299));
#1014=EDGE_LOOP('',(#300,#301,#302,#303));
#1015=EDGE_LOOP('',(#304,#305,#306,#307));
#1016=EDGE_LOOP('',(#308,#309,#310,#311));
#1017=EDGE_LOOP('',(#312,#313,#314,#315));
#1018=EDGE_LOOP('',(#316,#317,#318,#319));
#1019=EDGE_LOOP('',(#320,#321,#322,#323));
#1020=EDGE_LOOP('',(#324,#325,#326,#327));
#1021=EDGE_LOOP('',(#328,#329,#330,#331));
#1022=EDGE_LOOP('',(#332,#333,#334,#335));
#1023=EDGE_LOOP('',(#336,#337,#338,#339));
#1024=EDGE_LOOP('',(#340,#341,#342,#343));
#1025=EDGE_LOOP('',(#344,#345,#346,#347));
#1026=FACE_BOUND('',#964,.T.);
#1027=FACE_BOUND('',#965,.T.);
#1028=FACE_BOUND('',#966,.T.);
#1029=FACE_BOUND('',#967,.T.);
#1030=FACE_BOUND('',#968,.T.);
#1031=FACE_BOUND('',#969,.T.);
#1032=FACE_BOUND('',#970,.T.);
#1033=FACE_BOUND('',#971,.T.);
#1034=FACE_BOUND('',#972,.T.);
#1035=FACE_BOUND('',#973,.T.);
#1036=FACE_BOUND('',#974,.T.);
#1037=FACE_BOUND('',#975,.T.);
#1038=FACE_BOUND('',#976,.T.);
#1039=FACE_BOUND('',#977,.T.);
#1040=FACE_BOUND('',#978,.T.);
#1041=FACE_BOUND('',#979,.T.);
#1042=FACE_BOUND('',#980,.T.);
#1043=FACE_BOUND('',#981,.T.);
#1044=FACE_BOUND('',#982,.T.);
#1045=FACE_BOUND('',#983,.T.);
#1046=FACE_BOUND('',#984,.T.);
#1047=FACE_BOUND('',#985,.T.);
#1048=FACE_BOUND('',#986,.T.);
#1049=FACE_BOUND('',#987,.T.);
#1050=FACE_BOUND('',#988,.T.);
#1051=FACE_BOUND('',#989,.T.);
#1052=FACE_BOUND('',#990,.T.);
#1053=FACE_BOUND('',#991,.T.);
#1054=FACE_BOUND('',#992,.T.);
#1055=FACE_BOUND('',#993,.T.);
#1056=FACE_BOUND('',#994,.T.);
#1057=FACE_BOUND('',#995,.T.);
#1058=FACE_BOUND('',#996,.T.);
#1059=FACE_BOUND('',#997,.T.);
#1060=FACE_BOUND('',#998,.T.);
#1061=FACE_BOUND('',#999,.T.);
#1062=FACE_BOUND('',#1000,.T.);
#1063=FACE_BOUND('',#1001,.T.);
#1064=FACE_BOUND('',#1002,.T.);
#1065=FACE_BOUND('',#1003,.T.);
#1066=FACE_BOUND('',#1004,.T.);
#1067=FACE_BOUND('',#1005,.T.);
#1068=FACE_BOUND('',#1006,.T.);
#1069=FACE_BOUND('',#1007,.T.);
#1070=FACE_BOUND('',#1008,.T.);
#1071=FACE_BOUND('',#1009,.T.);
#1072=FACE_BOUND('',#1010,.T.);
#1073=FACE_BOUND('',#1011,.T.);
#1074=FACE_BOUND('',#1012,.T.);
#1075=FACE_BOUND('',#1013,.T.);
#1076=FACE_BOUND('',#1014,.T.);
#1077=FACE_BOUND('',#1015,.T.);
#1078=FACE_BOUND('',#1016,.T.);
#1079=FACE_BOUND('',#1017,.T.);
#1080=FACE_BOUND('',#1018,.T.);
#1081=FACE_BOUND('',#1019,.T.);
#1082=FACE_BOUND('',#1020,.T.);
#1083=FACE_BOUND('',#1021,.T.);
#1084=FACE_BOUND('',#1022,.T.);
#1085=FACE_BOUND('',#1023,.T.);
#1086=FACE_BOUND('',#1024,.T.);
#1087=FACE_BOUND('',#1025,.T.);
#1088=PLANE('',#1217);
#1089=PLANE('',#1218);
#1090=PLANE('',#1219);
#1091=PLANE('',#1220);
#1092=PLANE('',#1221);
#1093=PLANE('',#1222);
#1094=PLANE('',#1223);
#1095=PLANE('',#1224);
#1096=PLANE('',#1225);
#1097=PLANE('',#1226);
#1098=PLANE('',#1227);
#1099=PLANE('',#1228);
#1100=PLANE('',#1229);
#1101=PLANE('',#1230);
#1102=PLANE('',#1231);
#1103=PLANE('',#1232);
#1104=PLANE('',#1233);
#1105=PLANE('',#1234);
#1106=PLANE('',#1235);
#1107=PLANE('',#1236);
#1108=PLANE('',#1237);
#1109=PLANE('',#1238);
#1110=PLANE('',#1239);
#1111=PLANE('',#1240);
#1112=PLANE('',#1241);
#1113=PLANE('',#1242);
#1114=PLANE('',#1243);
#1115=PLANE('',#1244);
#1116=PLANE('',#1245);
#1117=PLANE('',#1246);
#1118=PLANE('',#1247);
#1119=PLANE('',#1248);
#1120=PLANE('',#1249);
#1121=PLANE('',#1250);
#1122=PLANE('',#1251);
#1123=PLANE('',#1252);
#1124=PLANE('',#1253);
#1125=PLANE('',#1254);
#1126=PLANE('',#1255);
#1127=PLANE('',#1256);
#1128=PLANE('',#1257);
#1129=PLANE('',#1258);
#1130=PLANE('',#1259);
#1131=PLANE('',#1260);
#1132=PLANE('',#1261);
#1133=PLANE('',#1262);
#1134=PLANE('',#1263);
#1135=PLANE('',#1264);
#1136=PLANE('',#1265);
#1137=PLANE('',#1266);
#1138=PLANE('',#1267);
#1139=PLANE('',#1268);
#1140=PLANE('',#1269);
#1141=PLANE('',#1270);
#1142=PLANE('',#1271);
#1143=PLANE('',#1272);
#1144=PLANE('',#1273);
#1145=PLANE('',#1274);
#1146=ADVANCED_FACE('',(#1026),#1088,.F.);
#1147=ADVANCED_FACE('',(#1027),#1089,.F.);
#1148=ADVANCED_FACE('',(#1028),#1090,.F.);
#1149=ADVANCED_FACE('',(#1029,#1030,#1031),#1091,.F.);
#1150=ADVANCED_FACE('',(#1032),#1092,.T.);
#1151=ADVANCED_FACE('',(#1033),#1093,.T.);
#1152=ADVANCED_FACE('',(#1034),#1094,.T.);
#1153=ADVANCED_FACE('',(#1035),#1095,.T.);
#1154=ADVANCED_FACE('',(#1036),#1096,.F.);
#1155=ADVANCED_FACE('',(#1037),#1097,.F.);
#1156=ADVANCED_FACE('',(#1038),#1098,.F.);
#1157=ADVANCED_FACE('',(#1039),#1099,.F.);
#1158=ADVANCED_FACE('',(#1040),#1100,.F.);
#1159=ADVANCED_FACE('',(#1041),#1101,.F.);
#1160=ADVANCED_FACE('',(#1042),#1102,.T.);
#1161=ADVANCED_FACE('',(#1043),#1103,.T.);
#1162=ADVANCED_FACE('',(#1044),#1104,.T.);
#1163=ADVANCED_FACE('',(#1045),#1105,.T.);
#1164=ADVANCED_FACE('',(#1046),#1106,.T.);
#1165=ADVANCED_FACE('',(#1047),#1107,.T.);
#1166=ADVANCED_FACE('',(#1048,#1049,#1050),#1108,.T.);
#1167=ADVANCED_FACE('',(#1051),#1109,.T.);
#1168=ADVANCED_FACE('',(#1052),#1110,.T.);
#1169=ADVANCED_FACE('',(#1053),#1111,.T.);
#1170=ADVANCED_FACE('',(#1054),#1112,.F.);
#1171=ADVANCED_FACE('',(#1055),#1113,.T.);
#1172=ADVANCED_FACE('',(#1056),#1114,.T.);
#1173=ADVANCED_FACE('',(#1057),#1115,.F.);
#1174=ADVANCED_FACE('',(#1058),#1116,.T.);
#1175=ADVANCED_FACE('',(#1059),#1117,.F.);
#1176=ADVANCED_FACE('',(#1060),#1118,.T.);
#1177=ADVANCED_FACE('',(#1061),#1119,.F.);
#1178=ADVANCED_FACE('',(#1062),#1120,.F.);
#1179=ADVANCED_FACE('',(#1063),#1121,.F.);
#1180=ADVANCED_FACE('',(#1064),#1122,.F.);
#1181=ADVANCED_FACE('',(#1065),#1123,.F.);
#1182=ADVANCED_FACE('',(#1066),#1124,.F.);
#1183=ADVANCED_FACE('',(#1067),#1125,.F.);
#1184=ADVANCED_FACE('',(#1068),#1126,.F.);
#1185=ADVANCED_FACE('',(#1069),#1127,.F.);
#1186=ADVANCED_FACE('',(#1070),#1128,.F.);
#1187=ADVANCED_FACE('',(#1071),#1129,.F.);
#1188=ADVANCED_FACE('',(#1072),#1130,.F.);
#1189=ADVANCED_FACE('',(#1073),#1131,.F.);
#1190=ADVANCED_FACE('',(#1074),#1132,.F.);
#1191=ADVANCED_FACE('',(#1075),#1133,.T.);
#1192=ADVANCED_FACE('',(#1076),#1134,.T.);
#1193=ADVANCED_FACE('',(#1077),#1135,.T.);
#1194=ADVANCED_FACE('',(#1078),#1136,.T.);
#1195=ADVANCED_FACE('',(#1079),#1137,.T.);
#1196=ADVANCED_FACE('',(#1080),#1138,.T.);
#1197=ADVANCED_FACE('',(#1081),#1139,.F.);
#1198=ADVANCED_FACE('',(#1082),#1140,.F.);
#1199=ADVANCED_FACE('',(#1083),#1141,.F.);
#1200=ADVANCED_FACE('',(#1084),#1142,.T.);
#1201=ADVANCED_FACE('',(#1085),#1143,.F.);
#1202=ADVANCED_FACE('',(#1086),#1144,.F.);
#1203=ADVANCED_FACE('',(#1087),#1145,.T.);
#1204=CLOSED_SHELL('',(#1146,#1147,#1148,#1149,#1150,#1151,#1152,#1153,
#1154,#1155,#1156,#1157,#1158,#1159,#1160,#1161,#1162,#1163,#1164,#1165,
#1166,#1167,#1168,#1169,#1170,#1171,#1172,#1173,#1174,#1175,#1176,#1177,
#1178,#1179,#1180,#1181,#1182,#1183,#1184,#1185,#1186,#1187,#1188,#1189,
#1190,#1191,#1192,#1193,#1194,#1195,#1196,#1197,#1198,#1199,#1200,#1201,
#1202,#1203));
#1205=STYLED_ITEM('',(#1206),#1213);
#1206=PRESENTATION_STYLE_ASSIGNMENT((#1207));
#1207=SURFACE_STYLE_USAGE(.BOTH.,#1208);
#1208=SURFACE_SIDE_STYLE('',(#1209));
#1209=SURFACE_STYLE_FILL_AREA(#1210);
#1210=FILL_AREA_STYLE('',(#1211));
#1211=FILL_AREA_STYLE_COLOUR('',#1212);
#1212=COLOUR_RGB('',0.768627450980392,0.886274509803922,0.952941176470588);
#1213=MANIFOLD_SOLID_BREP('Front_Engine_Railing',#1204);
#1214=SHAPE_DEFINITION_REPRESENTATION(#1906,#1215);
#1215=SHAPE_REPRESENTATION('Front_Engine_Railing',(#1216),#1901);
#1216=AXIS2_PLACEMENT_3D('',#1561,#1275,#1276);
#1217=AXIS2_PLACEMENT_3D('',#1562,#1277,#1278);
#1218=AXIS2_PLACEMENT_3D('',#1571,#1283,#1284);
#1219=AXIS2_PLACEMENT_3D('',#1588,#1293,#1294);
#1220=AXIS2_PLACEMENT_3D('',#1605,#1303,#1304);
#1221=AXIS2_PLACEMENT_3D('',#1655,#1330,#1331);
#1222=AXIS2_PLACEMENT_3D('',#1661,#1335,#1336);
#1223=AXIS2_PLACEMENT_3D('',#1667,#1340,#1341);
#1224=AXIS2_PLACEMENT_3D('',#1673,#1345,#1346);
#1225=AXIS2_PLACEMENT_3D('',#1679,#1350,#1351);
#1226=AXIS2_PLACEMENT_3D('',#1683,#1354,#1355);
#1227=AXIS2_PLACEMENT_3D('',#1687,#1358,#1359);
#1228=AXIS2_PLACEMENT_3D('',#1691,#1362,#1363);
#1229=AXIS2_PLACEMENT_3D('',#1695,#1366,#1367);
#1230=AXIS2_PLACEMENT_3D('',#1699,#1370,#1371);
#1231=AXIS2_PLACEMENT_3D('',#1703,#1374,#1375);
#1232=AXIS2_PLACEMENT_3D('',#1705,#1377,#1378);
#1233=AXIS2_PLACEMENT_3D('',#1711,#1382,#1383);
#1234=AXIS2_PLACEMENT_3D('',#1715,#1386,#1387);
#1235=AXIS2_PLACEMENT_3D('',#1719,#1390,#1391);
#1236=AXIS2_PLACEMENT_3D('',#1723,#1394,#1395);
#1237=AXIS2_PLACEMENT_3D('',#1725,#1397,#1398);
#1238=AXIS2_PLACEMENT_3D('',#1743,#1409,#1410);
#1239=AXIS2_PLACEMENT_3D('',#1748,#1414,#1415);
#1240=AXIS2_PLACEMENT_3D('',#1751,#1418,#1419);
#1241=AXIS2_PLACEMENT_3D('',#1754,#1422,#1423);
#1242=AXIS2_PLACEMENT_3D('',#1758,#1426,#1427);
#1243=AXIS2_PLACEMENT_3D('',#1759,#1428,#1429);
#1244=AXIS2_PLACEMENT_3D('',#1760,#1430,#1431);
#1245=AXIS2_PLACEMENT_3D('',#1761,#1432,#1433);
#1246=AXIS2_PLACEMENT_3D('',#1762,#1434,#1435);
#1247=AXIS2_PLACEMENT_3D('',#1763,#1436,#1437);
#1248=AXIS2_PLACEMENT_3D('',#1781,#1447,#1448);
#1249=AXIS2_PLACEMENT_3D('',#1784,#1451,#1452);
#1250=AXIS2_PLACEMENT_3D('',#1796,#1460,#1461);
#1251=AXIS2_PLACEMENT_3D('',#1797,#1462,#1463);
#1252=AXIS2_PLACEMENT_3D('',#1799,#1465,#1466);
#1253=AXIS2_PLACEMENT_3D('',#1811,#1474,#1475);
#1254=AXIS2_PLACEMENT_3D('',#1813,#1477,#1478);
#1255=AXIS2_PLACEMENT_3D('',#1839,#1492,#1493);
#1256=AXIS2_PLACEMENT_3D('',#1865,#1507,#1508);
#1257=AXIS2_PLACEMENT_3D('',#1867,#1510,#1511);
#1258=AXIS2_PLACEMENT_3D('',#1870,#1514,#1515);
#1259=AXIS2_PLACEMENT_3D('',#1872,#1517,#1518);
#1260=AXIS2_PLACEMENT_3D('',#1874,#1520,#1521);
#1261=AXIS2_PLACEMENT_3D('',#1876,#1523,#1524);
#1262=AXIS2_PLACEMENT_3D('',#1878,#1526,#1527);
#1263=AXIS2_PLACEMENT_3D('',#1880,#1529,#1530);
#1264=AXIS2_PLACEMENT_3D('',#1882,#1532,#1533);
#1265=AXIS2_PLACEMENT_3D('',#1884,#1535,#1536);
#1266=AXIS2_PLACEMENT_3D('',#1886,#1538,#1539);
#1267=AXIS2_PLACEMENT_3D('',#1888,#1541,#1542);
#1268=AXIS2_PLACEMENT_3D('',#1889,#1543,#1544);
#1269=AXIS2_PLACEMENT_3D('',#1890,#1545,#1546);
#1270=AXIS2_PLACEMENT_3D('',#1892,#1548,#1549);
#1271=AXIS2_PLACEMENT_3D('',#1894,#1551,#1552);
#1272=AXIS2_PLACEMENT_3D('',#1895,#1553,#1554);
#1273=AXIS2_PLACEMENT_3D('',#1897,#1556,#1557);
#1274=AXIS2_PLACEMENT_3D('',#1899,#1559,#1560);
#1275=DIRECTION('',(0.,0.,1.));
#1276=DIRECTION('',(1.,0.,0.));
#1277=DIRECTION('',(0.,-5.69916025931364E-16,1.));
#1278=DIRECTION('',(1.,0.,0.));
#1279=DIRECTION('',(0.,1.,5.69916025931364E-16));
#1280=DIRECTION('',(1.,2.66759724410223E-16,1.5203064201442E-31));
#1281=DIRECTION('',(0.,-1.,-5.69916025931364E-16));
#1282=DIRECTION('',(-1.,0.,0.));
#1283=DIRECTION('',(0.,-5.69916025931364E-16,1.));
#1284=DIRECTION('',(1.,0.,0.));
#1285=DIRECTION('',(0.,-1.,-5.69916025931364E-16));
#1286=DIRECTION('',(-1.,0.,0.));
#1287=DIRECTION('',(-0.707106781186547,-0.707106781186548,-4.02991486642956E-16));
#1288=DIRECTION('',(-1.,0.,0.));
#1289=DIRECTION('',(0.,-1.,0.));
#1290=DIRECTION('',(1.,0.,0.));
#1291=DIRECTION('',(0.707106781186548,0.707106781186548,4.02991486642956E-16));
#1292=DIRECTION('',(1.,2.66759724410223E-16,1.5203064201442E-31));
#1293=DIRECTION('',(0.,-5.69916025931364E-16,1.));
#1294=DIRECTION('',(1.,0.,0.));
#1295=DIRECTION('',(0.,1.,5.69916025931364E-16));
#1296=DIRECTION('',(1.,2.66759724410223E-16,1.5203064201442E-31));
#1297=DIRECTION('',(0.707106781186548,-0.707106781186548,-4.02991486642956E-16));
#1298=DIRECTION('',(1.1259298739144E-16,-1.,-5.69916025931364E-16));
#1299=DIRECTION('',(-1.,0.,0.));
#1300=DIRECTION('',(-2.71984156771426E-16,1.,5.69916025931364E-16));
#1301=DIRECTION('',(-0.707106781186548,0.707106781186548,4.02991486642956E-16));
#1302=DIRECTION('',(-1.,0.,0.));
#1303=DIRECTION('',(1.,0.,0.));
#1304=DIRECTION('',(0.,1.,0.));
#1305=DIRECTION('',(0.,-1.,0.));
#1306=DIRECTION('',(0.,0.,-1.));
#1307=DIRECTION('',(0.,-1.,0.));
#1308=DIRECTION('',(0.,0.,1.));
#1309=DIRECTION('',(0.,0.,-1.));
#1310=DIRECTION('',(0.,-1.,0.));
#1311=DIRECTION('',(0.,0.,1.));
#1312=DIRECTION('',(0.,-1.,0.));
#1313=DIRECTION('',(0.,0.,1.));
#1314=DIRECTION('',(0.,-1.,0.));
#1315=DIRECTION('',(0.,0.,-1.));
#1316=DIRECTION('',(0.,-1.,0.));
#1317=DIRECTION('',(0.,0.571672578598978,0.820481847988117));
#1318=DIRECTION('',(0.,1.,4.45192117579689E-16));
#1319=DIRECTION('',(0.,0.,-1.));
#1320=DIRECTION('',(0.,-1.,0.));
#1321=DIRECTION('',(0.,-0.571672578598978,-0.820481847988117));
#1322=DIRECTION('',(0.,-1.,0.));
#1323=DIRECTION('',(0.,0.,1.));
#1324=DIRECTION('',(0.,1.,0.));
#1325=DIRECTION('',(0.,0.,-1.));
#1326=DIRECTION('',(0.,1.,0.));
#1327=DIRECTION('',(0.,0.,1.));
#1328=DIRECTION('',(0.,1.,0.));
#1329=DIRECTION('',(0.,0.,1.));
#1330=DIRECTION('',(0.,-1.,0.));
#1331=DIRECTION('',(0.,0.,-1.));
#1332=DIRECTION('',(1.,0.,0.));
#1333=DIRECTION('',(0.,0.,-1.));
#1334=DIRECTION('',(1.,0.,0.));
#1335=DIRECTION('',(0.,-1.,0.));
#1336=DIRECTION('',(0.,0.,-1.));
#1337=DIRECTION('',(1.,0.,0.));
#1338=DIRECTION('',(0.,0.,-1.));
#1339=DIRECTION('',(1.,0.,0.));
#1340=DIRECTION('',(0.,-1.,0.));
#1341=DIRECTION('',(0.,0.,-1.));
#1342=DIRECTION('',(1.,0.,0.));
#1343=DIRECTION('',(0.,0.,-1.));
#1344=DIRECTION('',(1.,0.,0.));
#1345=DIRECTION('',(0.,1.,0.));
#1346=DIRECTION('',(0.,0.,1.));
#1347=DIRECTION('',(0.,0.,1.));
#1348=DIRECTION('',(1.,0.,0.));
#1349=DIRECTION('',(1.,0.,0.));
#1350=DIRECTION('',(0.,0.,1.));
#1351=DIRECTION('',(1.,0.,0.));
#1352=DIRECTION('',(0.,-1.,0.));
#1353=DIRECTION('',(1.,0.,0.));
#1354=DIRECTION('',(0.,-0.820481847988117,0.571672578598978));
#1355=DIRECTION('',(0.,-0.571672578598978,-0.820481847988117));
#1356=DIRECTION('',(0.,-0.571672578598978,-0.820481847988117));
#1357=DIRECTION('',(1.,0.,0.));
#1358=DIRECTION('',(0.,0.,1.));
#1359=DIRECTION('',(1.,0.,0.));
#1360=DIRECTION('',(0.,-1.,0.));
#1361=DIRECTION('',(1.,0.,0.));
#1362=DIRECTION('',(0.,-1.,0.));
#1363=DIRECTION('',(0.,0.,-1.));
#1364=DIRECTION('',(0.,0.,-1.));
#1365=DIRECTION('',(1.,0.,0.));
#1366=DIRECTION('',(0.,4.45192117579689E-16,-1.));
#1367=DIRECTION('',(0.,1.,4.45192117579689E-16));
#1368=DIRECTION('',(0.,1.,4.45192117579689E-16));
#1369=DIRECTION('',(1.,0.,0.));
#1370=DIRECTION('',(0.,0.820481847988117,-0.571672578598978));
#1371=DIRECTION('',(0.,0.571672578598978,0.820481847988117));
#1372=DIRECTION('',(0.,0.571672578598978,0.820481847988117));
#1373=DIRECTION('',(1.,0.,0.));
#1374=DIRECTION('',(0.,0.,1.));
#1375=DIRECTION('',(1.,0.,0.));
#1376=DIRECTION('',(0.,-1.,0.));
#1377=DIRECTION('',(0.,0.,-1.));
#1378=DIRECTION('',(-1.,0.,0.));
#1379=DIRECTION('',(0.,1.,0.));
#1380=DIRECTION('',(1.,0.,0.));
#1381=DIRECTION('',(1.,0.,0.));
#1382=DIRECTION('',(0.,1.,0.));
#1383=DIRECTION('',(0.,0.,1.));
#1384=DIRECTION('',(0.,0.,1.));
#1385=DIRECTION('',(1.,0.,0.));
#1386=DIRECTION('',(0.,0.,-1.));
#1387=DIRECTION('',(-1.,0.,0.));
#1388=DIRECTION('',(0.,1.,0.));
#1389=DIRECTION('',(1.,0.,0.));
#1390=DIRECTION('',(0.,-1.,0.));
#1391=DIRECTION('',(0.,0.,-1.));
#1392=DIRECTION('',(0.,0.,-1.));
#1393=DIRECTION('',(1.,0.,0.));
#1394=DIRECTION('',(0.,0.,-1.));
#1395=DIRECTION('',(-1.,0.,0.));
#1396=DIRECTION('',(0.,1.,0.));
#1397=DIRECTION('',(1.,0.,0.));
#1398=DIRECTION('',(0.,1.,0.));
#1399=DIRECTION('',(0.,0.,1.));
#1400=DIRECTION('',(0.,-1.,0.));
#1401=DIRECTION('',(0.,0.,1.));
#1402=DIRECTION('',(0.,-1.,0.));
#1403=DIRECTION('',(0.,-1.,0.));
#1404=DIRECTION('',(0.,-1.,0.));
#1405=DIRECTION('',(0.,0.,1.));
#1406=DIRECTION('',(0.,-1.,0.));
#1407=DIRECTION('',(0.,0.,1.));
#1408=DIRECTION('',(0.,-1.,0.));
#1409=DIRECTION('',(0.,1.,0.));
#1410=DIRECTION('',(0.,0.,1.));
#1411=DIRECTION('',(-1.,0.,0.));
#1412=DIRECTION('',(0.,5.69916025931364E-16,-1.));
#1413=DIRECTION('',(1.,0.,0.));
#1414=DIRECTION('',(0.,1.,0.));
#1415=DIRECTION('',(0.,0.,1.));
#1416=DIRECTION('',(-1.,0.,0.));
#1417=DIRECTION('',(-1.,0.,0.));
#1418=DIRECTION('',(0.,1.,0.));
#1419=DIRECTION('',(0.,0.,1.));
#1420=DIRECTION('',(-1.,0.,0.));
#1421=DIRECTION('',(-1.,0.,0.));
#1422=DIRECTION('',(0.,1.,0.));
#1423=DIRECTION('',(0.,0.,1.));
#1424=DIRECTION('',(1.,0.,0.));
#1425=DIRECTION('',(5.69916025931364E-16,0.,1.));
#1426=DIRECTION('',(0.,0.,1.));
#1427=DIRECTION('',(1.,0.,0.));
#1428=DIRECTION('',(0.,0.,1.));
#1429=DIRECTION('',(1.,0.,0.));
#1430=DIRECTION('',(0.,0.,1.));
#1431=DIRECTION('',(1.,0.,0.));
#1432=DIRECTION('',(0.,0.,1.));
#1433=DIRECTION('',(1.,0.,0.));
#1434=DIRECTION('',(0.,0.,1.));
#1435=DIRECTION('',(1.,0.,0.));
#1436=DIRECTION('',(0.,0.,1.));
#1437=DIRECTION('',(1.,0.,0.));
#1438=DIRECTION('',(1.1259298739144E-16,-1.,-5.69916025931364E-16));
#1439=DIRECTION('',(0.707106781186548,-0.707106781186548,-4.02991486642956E-16));
#1440=DIRECTION('',(1.,2.66759724410223E-16,1.5203064201442E-31));
#1441=DIRECTION('',(0.707106781186548,0.707106781186548,4.02991486642956E-16));
#1442=DIRECTION('',(-0.707106781186547,-0.707106781186548,-4.02991486642956E-16));
#1443=DIRECTION('',(-1.,0.,0.));
#1444=DIRECTION('',(-0.707106781186548,0.707106781186548,4.02991486642956E-16));
#1445=DIRECTION('',(-2.71984156771426E-16,1.,5.69916025931364E-16));
#1446=DIRECTION('',(-1.,0.,0.));
#1447=DIRECTION('',(0.707106781186548,0.707106781186548,4.02991486642956E-16));
#1448=DIRECTION('',(-0.707106781186548,0.707106781186548,0.));
#1449=DIRECTION('',(0.,5.69916025931364E-16,-1.));
#1450=DIRECTION('',(0.,5.69916025931364E-16,-1.));
#1451=DIRECTION('',(-2.66759724410223E-16,1.,5.69916025931364E-16));
#1452=DIRECTION('',(0.,-5.69916025931364E-16,1.));
#1453=DIRECTION('',(0.,-5.69916025931364E-16,1.));
#1454=DIRECTION('',(1.,2.66759724410223E-16,1.5203064201442E-31));
#1455=DIRECTION('',(0.,-5.69916025931364E-16,1.));
#1456=DIRECTION('',(0.,-5.69916025931364E-16,1.));
#1457=DIRECTION('',(1.,2.66759724410223E-16,1.5203064201442E-31));
#1458=DIRECTION('',(0.,-5.69916025931364E-16,1.));
#1459=DIRECTION('',(0.,5.69916025931364E-16,-1.));
#1460=DIRECTION('',(-0.707106781186548,0.707106781186548,4.02991486642956E-16));
#1461=DIRECTION('',(-0.707106781186548,-0.707106781186548,0.));
#1462=DIRECTION('',(0.707106781186548,-0.707106781186547,-4.02991486642956E-16));
#1463=DIRECTION('',(0.707106781186547,0.707106781186548,0.));
#1464=DIRECTION('',(0.,5.69916025931364E-16,-1.));
#1465=DIRECTION('',(0.,-1.,-5.69916025931364E-16));
#1466=DIRECTION('',(0.,5.69916025931364E-16,-1.));
#1467=DIRECTION('',(0.,-5.69916025931364E-16,1.));
#1468=DIRECTION('',(-1.,0.,0.));
#1469=DIRECTION('',(0.,-5.69916025931364E-16,1.));
#1470=DIRECTION('',(0.,-5.69916025931364E-16,1.));
#1471=DIRECTION('',(-1.,0.,0.));
#1472=DIRECTION('',(0.,-5.69916025931364E-16,1.));
#1473=DIRECTION('',(0.,5.69916025931364E-16,-1.));
#1474=DIRECTION('',(-0.707106781186548,-0.707106781186548,-4.02991486642956E-16));
#1475=DIRECTION('',(0.707106781186548,-0.707106781186548,0.));
#1476=DIRECTION('',(0.,5.69916025931364E-16,-1.));
#1477=DIRECTION('',(-1.,-2.71984156771426E-16,-1.55008129743464E-31));
#1478=DIRECTION('',(2.71984156771426E-16,-1.,0.));
#1479=DIRECTION('',(0.,0.571672578598978,0.820481847988117));
#1480=DIRECTION('',(0.,0.,-1.));
#1481=DIRECTION('',(0.,0.999962557180541,-0.00865356787424092));
#1482=DIRECTION('',(0.,0.,1.));
#1483=DIRECTION('',(0.,1.,0.));
#1484=DIRECTION('',(0.,0.,-1.));
#1485=DIRECTION('',(0.,1.,0.));
#1486=DIRECTION('',(0.,0.,1.));
#1487=DIRECTION('',(0.,-1.,0.));
#1488=DIRECTION('',(0.,-0.571672578598978,-0.820481847988117));
#1489=DIRECTION('',(0.,-1.,0.));
#1490=DIRECTION('',(0.,0.,-1.));
#1491=DIRECTION('',(0.,1.,4.45192117579689E-16));
#1492=DIRECTION('',(1.,1.1259298739144E-16,6.41685479218694E-32));
#1493=DIRECTION('',(-1.1259298739144E-16,1.,0.));
#1494=DIRECTION('',(0.,0.,-1.));
#1495=DIRECTION('',(0.,0.571672578598978,0.820481847988117));
#1496=DIRECTION('',(0.,1.,4.45192117579689E-16));
#1497=DIRECTION('',(0.,0.,-1.));
#1498=DIRECTION('',(0.,-1.,0.));
#1499=DIRECTION('',(0.,-0.571672578598978,-0.820481847988117));
#1500=DIRECTION('',(0.,-1.,0.));
#1501=DIRECTION('',(0.,0.,1.));
#1502=DIRECTION('',(0.,1.,0.));
#1503=DIRECTION('',(0.,0.,-1.));
#1504=DIRECTION('',(0.,1.,0.));
#1505=DIRECTION('',(0.,0.,1.));
#1506=DIRECTION('',(0.,0.999962557180541,-0.00865356787424092));
#1507=DIRECTION('',(0.,1.,0.));
#1508=DIRECTION('',(0.,0.,1.));
#1509=DIRECTION('',(-1.,0.,0.));
#1510=DIRECTION('',(0.,-1.,0.));
#1511=DIRECTION('',(0.,0.,-1.));
#1512=DIRECTION('',(-1.,0.,0.));
#1513=DIRECTION('',(-1.,0.,0.));
#1514=DIRECTION('',(0.,0.,1.));
#1515=DIRECTION('',(1.,0.,0.));
#1516=DIRECTION('',(-1.,0.,0.));
#1517=DIRECTION('',(0.,1.,0.));
#1518=DIRECTION('',(0.,0.,1.));
#1519=DIRECTION('',(-1.,0.,0.));
#1520=DIRECTION('',(0.,0.,1.));
#1521=DIRECTION('',(1.,0.,0.));
#1522=DIRECTION('',(-1.,0.,0.));
#1523=DIRECTION('',(0.,-1.,0.));
#1524=DIRECTION('',(0.,0.,-1.));
#1525=DIRECTION('',(-1.,0.,0.));
#1526=DIRECTION('',(0.,0.,-1.));
#1527=DIRECTION('',(-1.,0.,0.));
#1528=DIRECTION('',(-1.,0.,0.));
#1529=DIRECTION('',(0.,0.820481847988117,-0.571672578598978));
#1530=DIRECTION('',(0.,0.571672578598978,0.820481847988117));
#1531=DIRECTION('',(-1.,0.,0.));
#1532=DIRECTION('',(0.,0.,-1.));
#1533=DIRECTION('',(-1.,0.,0.));
#1534=DIRECTION('',(-1.,0.,0.));
#1535=DIRECTION('',(0.,1.,0.));
#1536=DIRECTION('',(0.,0.,1.));
#1537=DIRECTION('',(-1.,0.,0.));
#1538=DIRECTION('',(0.,-4.45192117579689E-16,1.));
#1539=DIRECTION('',(0.,-1.,-4.45192117579689E-16));
#1540=DIRECTION('',(-1.,0.,0.));
#1541=DIRECTION('',(0.,-0.820481847988117,0.571672578598978));
#1542=DIRECTION('',(0.,-0.571672578598978,-0.820481847988117));
#1543=DIRECTION('',(0.,0.00865356787424092,0.999962557180541));
#1544=DIRECTION('',(0.,-0.999962557180541,0.00865356787424092));
#1545=DIRECTION('',(-1.,0.,0.));
#1546=DIRECTION('',(0.,0.,1.));
#1547=DIRECTION('',(0.,-1.,-5.69916025931364E-16));
#1548=DIRECTION('',(1.,0.,0.));
#1549=DIRECTION('',(0.,0.,-1.));
#1550=DIRECTION('',(0.,1.,5.69916025931364E-16));
#1551=DIRECTION('',(0.,5.69916025931364E-16,-1.));
#1552=DIRECTION('',(1.,0.,0.));
#1553=DIRECTION('',(-1.,0.,0.));
#1554=DIRECTION('',(0.,0.,1.));
#1555=DIRECTION('',(0.,-1.,-5.69916025931364E-16));
#1556=DIRECTION('',(1.,0.,0.));
#1557=DIRECTION('',(0.,0.,-1.));
#1558=DIRECTION('',(0.,1.,5.69916025931364E-16));
#1559=DIRECTION('',(0.,5.69916025931364E-16,-1.));
#1560=DIRECTION('',(1.,0.,0.));
#1561=CARTESIAN_POINT('',(0.,0.,0.));
#1562=CARTESIAN_POINT('',(0.00608959730179925,0.0173523835735513,0.0159756557664308));
#1563=CARTESIAN_POINT('',(0.00844474882081572,0.00369573377334748,0.0159756557664308));
#1564=CARTESIAN_POINT('',(0.00844474882081572,0.00309573377334748,0.0159756557664308));
#1565=CARTESIAN_POINT('',(0.00844474882081572,0.00429573377334748,0.0159756557664308));
#1566=CARTESIAN_POINT('',(0.00608959730179924,0.00309573377334748,0.0159756557664308));
#1567=CARTESIAN_POINT('',(0.00373444578278275,0.00309573377334748,0.0159756557664308));
#1568=CARTESIAN_POINT('',(0.00373444578278275,0.00369573377334748,0.0159756557664308));
#1569=CARTESIAN_POINT('',(0.00373444578278275,0.00429573377334748,0.0159756557664308));
#1570=CARTESIAN_POINT('',(0.00608959730179923,0.00429573377334748,0.0159756557664308));
#1571=CARTESIAN_POINT('',(0.00608959730179925,0.0173523835735513,0.0159756557664308));
#1572=CARTESIAN_POINT('',(0.00964474882081572,0.00369573377334748,0.0159756557664308));
#1573=CARTESIAN_POINT('',(0.00964474882081572,0.00429573377334748,0.0159756557664308));
#1574=CARTESIAN_POINT('',(0.00964474882081572,0.00309573377334748,0.0159756557664308));
#1575=CARTESIAN_POINT('',(0.00608959730179923,0.00429573377334748,0.0159756557664308));
#1576=CARTESIAN_POINT('',(0.0104697488208157,0.00429573377334748,0.0159756557664308));
#1577=CARTESIAN_POINT('',(0.01166438393763,0.00549036889016174,0.0159756557664308));
#1578=CARTESIAN_POINT('',(0.0128590190544442,0.00668500400697601,0.0159756557664308));
#1579=CARTESIAN_POINT('',(0.0137075471918681,0.00668500400697601,0.0159756557664308));
#1580=CARTESIAN_POINT('',(0.0152395973017992,0.00668500400697601,0.0159756552556165));
#1581=CARTESIAN_POINT('',(0.0152395973017992,0.00608500400697601,0.0159756552556165));
#1582=CARTESIAN_POINT('',(0.0152395973017992,0.00548500400697601,0.0159756552556165));
#1583=CARTESIAN_POINT('',(-0.00426340269820076,0.00548500400697601,0.0159756552556165));
#1584=CARTESIAN_POINT('',(0.013356075329292,0.00548500400697601,0.0159756552556165));
#1585=CARTESIAN_POINT('',(0.0127614402124777,0.00489036889016174,0.0159756557664308));
#1586=CARTESIAN_POINT('',(0.0109668050956634,0.00309573377334748,0.0159756557664308));
#1587=CARTESIAN_POINT('',(0.00608959730179924,0.00309573377334748,0.0159756557664308));
#1588=CARTESIAN_POINT('',(0.00608959730179925,0.0173523835735513,0.0159756557664308));
#1589=CARTESIAN_POINT('',(0.00253444578278276,0.00369573377334748,0.0159756557664308));
#1590=CARTESIAN_POINT('',(0.00253444578278276,0.00309573377334748,0.0159756557664308));
#1591=CARTESIAN_POINT('',(0.00253444578278276,0.00429573377334748,0.0159756557664308));
#1592=CARTESIAN_POINT('',(0.00608959730179924,0.00309573377334748,0.0159756557664308));
#1593=CARTESIAN_POINT('',(0.00121238950793504,0.00309573377334748,0.0159756557664308));
#1594=CARTESIAN_POINT('',(-0.00331864171194713,0.00762676499322964,0.0159756557664308));
#1595=CARTESIAN_POINT('',(-0.00426040269820076,0.00856852597948328,0.0159756557664308));
#1596=CARTESIAN_POINT('',(-0.00426040269820075,0.0100129349932296,0.0159756557664308));
#1597=CARTESIAN_POINT('',(-0.00426040269820075,0.0110845573563244,0.0159756557664308));
#1598=CARTESIAN_POINT('',(0.00608959730179925,0.0110845573563244,0.0159756557664308));
#1599=CARTESIAN_POINT('',(-0.00306040269820076,0.0110845573563244,0.0159756557664308));
#1600=CARTESIAN_POINT('',(-0.00306040269820076,0.0102614631306535,0.0159756557664308));
#1601=CARTESIAN_POINT('',(-0.00306040269820076,0.00906558225433099,0.0159756557664308));
#1602=CARTESIAN_POINT('',(-0.00187011357452326,0.0078752931306535,0.0159756557664308));
#1603=CARTESIAN_POINT('',(0.00170944578278275,0.00429573377334748,0.0159756557664308));
#1604=CARTESIAN_POINT('',(0.00608959730179923,0.00429573377334748,0.0159756557664308));
#1605=CARTESIAN_POINT('',(0.0152395973017992,0.0782615906203283,0.00931148529251476));
#1606=CARTESIAN_POINT('',(0.0152395973017992,0.032287033373755,0.00120999981859873));
#1607=CARTESIAN_POINT('',(0.0152395973017992,0.0110845573563244,0.00120999981859873));
#1608=CARTESIAN_POINT('',(0.0152395973017992,0.00668500400697601,0.00120999981859874));
#1609=CARTESIAN_POINT('',(0.0152395973017992,0.0110845573563244,0.0123479903024472));
#1610=CARTESIAN_POINT('',(0.0152395973017992,0.0110845573563244,0.00360999981859873));
#1611=CARTESIAN_POINT('',(0.0152395973017992,0.032287033373755,0.00360999981859873));
#1612=CARTESIAN_POINT('',(0.0152395973017992,0.00668500400697601,0.00360999981859873));
#1613=CARTESIAN_POINT('',(0.0152395973017992,0.00668500400697601,0.0116061780110236));
#1614=CARTESIAN_POINT('',(0.0152395973017992,0.0110845573563244,0.0123479903024472));
#1615=CARTESIAN_POINT('',(0.0152395973017992,0.0110845573563244,9.99981859873275E-6));
#1616=CARTESIAN_POINT('',(0.0152395973017992,0.0110845573563244,-0.00239000018140127));
#1617=CARTESIAN_POINT('',(0.0152395973017992,0.032287033373755,9.99981859873145E-6));
#1618=CARTESIAN_POINT('',(0.0152395973017992,0.00668500400697601,9.99981859873145E-6));
#1619=CARTESIAN_POINT('',(0.0152395973017992,0.00668500400697601,0.0116061780110236));
#1620=CARTESIAN_POINT('',(0.0152395973017992,0.00668500400697601,-0.00239000018140127));
#1621=CARTESIAN_POINT('',(0.0152395973017992,0.032287033373755,-0.00239000018140127));
#1622=CARTESIAN_POINT('',(0.0152395973017992,0.00668500400697601,0.0116061780110236));
#1623=CARTESIAN_POINT('',(0.0152395973017992,0.00668500400697601,0.00480999981859875));
#1624=CARTESIAN_POINT('',(0.0152395973017992,0.032287033373755,0.00480999981859873));
#1625=CARTESIAN_POINT('',(0.0152395973017992,0.0110845573563244,0.00480999981859873));
#1626=CARTESIAN_POINT('',(0.0152395973017992,0.0110845573563244,0.0123479903024472));
#1627=CARTESIAN_POINT('',(0.0152395973017992,0.0110845573563244,0.0171756598384636));
#1628=CARTESIAN_POINT('',(0.0152395973017992,0.0152845573563244,0.0171756598384636));
#1629=CARTESIAN_POINT('',(0.0152395973017992,0.0170845573563244,0.0171756598384636));
#1630=CARTESIAN_POINT('',(0.0152395973017992,0.0188394362329607,0.0196943153024472));
#1631=CARTESIAN_POINT('',(0.0152395973017992,0.020594315109597,0.0222129707664308));
#1632=CARTESIAN_POINT('',(0.0152395973017992,0.026439174241676,0.0222129707664308));
#1633=CARTESIAN_POINT('',(0.0152395973017992,0.032284033373755,0.0222129707664308));
#1634=CARTESIAN_POINT('',(0.0152395973017992,0.032284033373755,0.0216129707664308));
#1635=CARTESIAN_POINT('',(0.0152395973017992,0.032284033373755,0.0210129707664308));
#1636=CARTESIAN_POINT('',(0.0152395973017992,0.0267524004921663,0.0210129707664308));
#1637=CARTESIAN_POINT('',(0.0152395973017992,0.0212207676105775,0.0210129707664308));
#1638=CARTESIAN_POINT('',(0.0152395973017992,0.0194658887339412,0.0184943153024472));
#1639=CARTESIAN_POINT('',(0.0152395973017992,0.0177110098573049,0.0159756598384636));
#1640=CARTESIAN_POINT('',(0.0152395973017992,0.0167977836068146,0.0159756598384636));
#1641=CARTESIAN_POINT('',(0.0152395973017992,0.0158845573563243,0.0159756598384636));
#1642=CARTESIAN_POINT('',(0.0152395973017992,0.0158845573563243,0.0117479903024472));
#1643=CARTESIAN_POINT('',(0.0152395973017992,0.0158845573563243,0.00609532076643079));
#1644=CARTESIAN_POINT('',(0.0152395973017992,0.0152845573563244,0.00609532076643079));
#1645=CARTESIAN_POINT('',(0.0152395973017992,0.0146845573563244,0.00609532076643079));
#1646=CARTESIAN_POINT('',(0.0152395973017992,0.0146845573563244,0.0117479903024472));
#1647=CARTESIAN_POINT('',(0.0152395973017992,0.0146845573563244,0.0159756598384636));
#1648=CARTESIAN_POINT('',(0.0152395973017992,0.0134845573563244,0.0159756598384636));
#1649=CARTESIAN_POINT('',(0.0152395973017992,0.0122845573563244,0.0159756598384636));
#1650=CARTESIAN_POINT('',(0.0152395973017992,0.0122845573563244,0.0117479903024472));
#1651=CARTESIAN_POINT('',(0.0152395973017992,0.0122845573563244,-0.00359000018140126));
#1652=CARTESIAN_POINT('',(0.0152395973017992,0.0116845573563244,-0.00359000018140127));
#1653=CARTESIAN_POINT('',(0.0152395973017992,0.00548500400697601,-0.00359000018140127));
#1654=CARTESIAN_POINT('',(0.0152395973017992,0.00548500400697601,0.0150920352556165));
#1655=CARTESIAN_POINT('',(0.0152395973017992,0.0110845573563244,0.0123479903024472));
#1656=CARTESIAN_POINT('',(0.0158395973017993,0.0110845573563244,-0.00239000018140125));
#1657=CARTESIAN_POINT('',(0.0164395973017993,0.0110845573563244,-0.00239000018140127));
#1658=CARTESIAN_POINT('',(0.0164395973017993,0.0110845573563244,0.0123479903024472));
#1659=CARTESIAN_POINT('',(0.0164395973017993,0.0110845573563244,9.99981859873145E-6));
#1660=CARTESIAN_POINT('',(0.0158395973017993,0.0110845573563244,9.99981859874446E-6));
#1661=CARTESIAN_POINT('',(0.0152395973017992,0.0110845573563244,0.0123479903024472));
#1662=CARTESIAN_POINT('',(0.0158395973017993,0.0110845573563244,0.00120999981859874));
#1663=CARTESIAN_POINT('',(0.0164395973017993,0.0110845573563244,0.00120999981859873));
#1664=CARTESIAN_POINT('',(0.0164395973017993,0.0110845573563244,0.0123479903024472));
#1665=CARTESIAN_POINT('',(0.0164395973017993,0.0110845573563244,0.00360999981859873));
#1666=CARTESIAN_POINT('',(0.0158395973017993,0.0110845573563244,0.00360999981859874));
#1667=CARTESIAN_POINT('',(0.0152395973017992,0.0110845573563244,0.0123479903024472));
#1668=CARTESIAN_POINT('',(0.0158395973017993,0.0110845573563244,0.00480999981859875));
#1669=CARTESIAN_POINT('',(0.0164395973017993,0.0110845573563244,0.00480999981859873));
#1670=CARTESIAN_POINT('',(0.0164395973017993,0.0110845573563244,0.0123479903024472));
#1671=CARTESIAN_POINT('',(0.0164395973017993,0.0110845573563244,0.0171756598384636));
#1672=CARTESIAN_POINT('',(0.0152395973017992,0.0110845573563244,0.0171756598384636));
#1673=CARTESIAN_POINT('',(0.0152395973017992,0.0158845573563243,0.0117479903024472));
#1674=CARTESIAN_POINT('',(0.0164395973017993,0.0158845573563243,0.0117479903024472));
#1675=CARTESIAN_POINT('',(0.0164395973017993,0.0158845573563243,0.00609532076643079));
#1676=CARTESIAN_POINT('',(0.0164395973017993,0.0158845573563243,0.0159756598384636));
#1677=CARTESIAN_POINT('',(0.0152395973017992,0.0158845573563243,0.00609532076643079));
#1678=CARTESIAN_POINT('',(0.0152395973017992,0.0158845573563243,0.0159756598384636));
#1679=CARTESIAN_POINT('',(0.0152395973017992,0.0167977836068146,0.0159756598384636));
#1680=CARTESIAN_POINT('',(0.0164395973017993,0.0167977836068146,0.0159756598384636));
#1681=CARTESIAN_POINT('',(0.0164395973017993,0.0177110098573049,0.0159756598384636));
#1682=CARTESIAN_POINT('',(0.0152395973017992,0.0177110098573049,0.0159756598384636));
#1683=CARTESIAN_POINT('',(0.0152395973017992,0.0194658887339412,0.0184943153024472));
#1684=CARTESIAN_POINT('',(0.0164395973017993,0.0194658887339412,0.0184943153024472));
#1685=CARTESIAN_POINT('',(0.0164395973017993,0.0212207676105775,0.0210129707664308));
#1686=CARTESIAN_POINT('',(0.0152395973017992,0.0212207676105775,0.0210129707664308));
#1687=CARTESIAN_POINT('',(0.0152395973017992,0.0267524004921663,0.0210129707664308));
#1688=CARTESIAN_POINT('',(0.0164395973017993,0.0267524004921663,0.0210129707664308));
#1689=CARTESIAN_POINT('',(0.0164395973017993,0.032284033373755,0.0210129707664308));
#1690=CARTESIAN_POINT('',(0.0152395973017992,0.032284033373755,0.0210129707664308));
#1691=CARTESIAN_POINT('',(0.0152395973017992,0.032284033373755,0.0216129707664308));
#1692=CARTESIAN_POINT('',(0.0164395973017993,0.032284033373755,0.0216129707664308));
#1693=CARTESIAN_POINT('',(0.0164395973017993,0.032284033373755,0.0222129707664308));
#1694=CARTESIAN_POINT('',(0.0152395973017992,0.032284033373755,0.0222129707664308));
#1695=CARTESIAN_POINT('',(0.0152395973017992,0.026439174241676,0.0222129707664308));
#1696=CARTESIAN_POINT('',(0.0164395973017993,0.026439174241676,0.0222129707664308));
#1697=CARTESIAN_POINT('',(0.0164395973017993,0.020594315109597,0.0222129707664308));
#1698=CARTESIAN_POINT('',(0.0152395973017992,0.020594315109597,0.0222129707664308));
#1699=CARTESIAN_POINT('',(0.0152395973017992,0.0188394362329607,0.0196943153024472));
#1700=CARTESIAN_POINT('',(0.0164395973017993,0.0188394362329607,0.0196943153024472));
#1701=CARTESIAN_POINT('',(0.0164395973017993,0.0170845573563244,0.0171756598384636));
#1702=CARTESIAN_POINT('',(0.0152395973017992,0.0170845573563244,0.0171756598384636));
#1703=CARTESIAN_POINT('',(0.0152395973017992,0.0152845573563244,0.0171756598384636));
#1704=CARTESIAN_POINT('',(0.0164395973017993,0.0152845573563244,0.0171756598384636));
#1705=CARTESIAN_POINT('',(0.0152395973017992,0.0116845573563244,-0.00359000018140127));
#1706=CARTESIAN_POINT('',(0.0164395973017993,0.0116845573563244,-0.00359000018140127));
#1707=CARTESIAN_POINT('',(0.0164395973017993,0.00548500400697601,-0.00359000018140127));
#1708=CARTESIAN_POINT('',(0.0164395973017993,0.0122845573563244,-0.00359000018140126));
#1709=CARTESIAN_POINT('',(0.0152395973017992,0.00548500400697601,-0.00359000018140127));
#1710=CARTESIAN_POINT('',(0.0152395973017992,0.0122845573563244,-0.00359000018140126));
#1711=CARTESIAN_POINT('',(0.0152395973017992,0.0122845573563244,0.0117479903024472));
#1712=CARTESIAN_POINT('',(0.0164395973017993,0.0122845573563244,0.0117479903024472));
#1713=CARTESIAN_POINT('',(0.0164395973017993,0.0122845573563244,0.0159756598384636));
#1714=CARTESIAN_POINT('',(0.0152395973017992,0.0122845573563244,0.0159756598384636));
#1715=CARTESIAN_POINT('',(0.0152395973017992,0.0134845573563244,0.0159756598384636));
#1716=CARTESIAN_POINT('',(0.0164395973017993,0.0134845573563244,0.0159756598384636));
#1717=CARTESIAN_POINT('',(0.0164395973017993,0.0146845573563244,0.0159756598384636));
#1718=CARTESIAN_POINT('',(0.0152395973017992,0.0146845573563244,0.0159756598384636));
#1719=CARTESIAN_POINT('',(0.0152395973017992,0.0146845573563244,0.0117479903024472));
#1720=CARTESIAN_POINT('',(0.0164395973017993,0.0146845573563244,0.0117479903024472));
#1721=CARTESIAN_POINT('',(0.0164395973017993,0.0146845573563244,0.00609532076643079));
#1722=CARTESIAN_POINT('',(0.0152395973017992,0.0146845573563244,0.00609532076643079));
#1723=CARTESIAN_POINT('',(0.0152395973017992,0.0152845573563244,0.00609532076643079));
#1724=CARTESIAN_POINT('',(0.0164395973017993,0.0152845573563244,0.00609532076643079));
#1725=CARTESIAN_POINT('',(0.0164395973017993,0.0782615906203283,0.00931148529251476));
#1726=CARTESIAN_POINT('',(0.0164395973017993,0.00548500400697601,0.0150920352556165));
#1727=CARTESIAN_POINT('',(0.0164395973017993,0.00548500400697601,0.0171756552556165));
#1728=CARTESIAN_POINT('',(0.0164395973017993,0.032287033373755,0.00480999981859873));
#1729=CARTESIAN_POINT('',(0.0164395973017993,0.00668500400697601,0.00480999981859875));
#1730=CARTESIAN_POINT('',(0.0164395973017993,0.00668500400697601,0.0116061780110236));
#1731=CARTESIAN_POINT('',(0.0164395973017993,0.00668500400697601,0.0171756552556165));
#1732=CARTESIAN_POINT('',(0.0164395973017993,0.00608500400697601,0.0171756552556165));
#1733=CARTESIAN_POINT('',(0.0164395973017993,0.032287033373755,9.99981859873145E-6));
#1734=CARTESIAN_POINT('',(0.0164395973017993,0.00668500400697601,9.99981859874446E-6));
#1735=CARTESIAN_POINT('',(0.0164395973017993,0.032287033373755,-0.00239000018140127));
#1736=CARTESIAN_POINT('',(0.0164395973017993,0.00668500400697601,-0.00239000018140127));
#1737=CARTESIAN_POINT('',(0.0164395973017993,0.00668500400697601,0.0116061780110236));
#1738=CARTESIAN_POINT('',(0.0164395973017993,0.032287033373755,0.00120999981859873));
#1739=CARTESIAN_POINT('',(0.0164395973017993,0.00668500400697601,0.00120999981859874));
#1740=CARTESIAN_POINT('',(0.0164395973017993,0.00668500400697601,0.0116061780110236));
#1741=CARTESIAN_POINT('',(0.0164395973017993,0.00668500400697601,0.00360999981859874));
#1742=CARTESIAN_POINT('',(0.0164395973017993,0.032287033373755,0.00360999981859873));
#1743=CARTESIAN_POINT('',(0.0152395973017992,0.00668500400697601,0.0116061780110236));
#1744=CARTESIAN_POINT('',(0.0158395973017993,0.00668500400697601,0.00480999981859875));
#1745=CARTESIAN_POINT('',(0.0128590190544442,0.00668500400697601,0.0171756557664308));
#1746=CARTESIAN_POINT('',(0.0128590190544442,0.00668500400697601,0.0171756557664308));
#1747=CARTESIAN_POINT('',(0.0152395973017992,0.00668500400697601,0.0171756552556165));
#1748=CARTESIAN_POINT('',(0.0152395973017992,0.00668500400697601,0.0116061780110236));
#1749=CARTESIAN_POINT('',(0.0158395973017993,0.00668500400697601,0.00360999981859874));
#1750=CARTESIAN_POINT('',(0.0158395973017993,0.00668500400697601,0.00120999981859874));
#1751=CARTESIAN_POINT('',(0.0152395973017992,0.00668500400697601,0.0116061780110236));
#1752=CARTESIAN_POINT('',(0.0158395973017993,0.00668500400697601,9.99981859874446E-6));
#1753=CARTESIAN_POINT('',(0.0158395973017993,0.00668500400697601,-0.00239000018140125));
#1754=CARTESIAN_POINT('',(0.0152395973017992,0.00548500400697601,0.0150920352556165));
#1755=CARTESIAN_POINT('',(0.0152395973017992,0.00548500400697601,0.0171756552556165));
#1756=CARTESIAN_POINT('',(0.013356075329292,0.00548500400697601,0.0171756557664308));
#1757=CARTESIAN_POINT('',(0.013356075329292,0.00548500400697601,0.0150920352556165));
#1758=CARTESIAN_POINT('',(0.0158395973017993,0.032287033373755,-0.00239000018140125));
#1759=CARTESIAN_POINT('',(0.0158395973017993,0.032287033373755,0.00120999981859874));
#1760=CARTESIAN_POINT('',(0.0158395973017993,0.032287033373755,9.99981859874446E-6));
#1761=CARTESIAN_POINT('',(0.0158395973017993,0.032287033373755,0.00480999981859875));
#1762=CARTESIAN_POINT('',(0.0158395973017993,0.032287033373755,0.00360999981859874));
#1763=CARTESIAN_POINT('',(0.0152395973017992,0.00608500400697601,0.0171756552556165));
#1764=CARTESIAN_POINT('',(-0.00426040269820075,0.0100129349932296,0.0171756557664308));
#1765=CARTESIAN_POINT('',(-0.00426040269820075,0.0170845573563244,0.0171756598384636));
#1766=CARTESIAN_POINT('',(-0.00426040269820076,0.00856852597948328,0.0171756557664308));
#1767=CARTESIAN_POINT('',(-0.00331864171194713,0.00762676499322964,0.0171756557664308));
#1768=CARTESIAN_POINT('',(0.00121238950793504,0.00309573377334748,0.0171756557664308));
#1769=CARTESIAN_POINT('',(0.00608959730179924,0.00309573377334748,0.0171756557664308));
#1770=CARTESIAN_POINT('',(0.0109668050956634,0.00309573377334748,0.0171756557664308));
#1771=CARTESIAN_POINT('',(0.0127614402124777,0.00489036889016174,0.0171756557664308));
#1772=CARTESIAN_POINT('',(0.01166438393763,0.00549036889016174,0.0171756557664308));
#1773=CARTESIAN_POINT('',(0.0104697488208157,0.00429573377334747,0.0171756557664308));
#1774=CARTESIAN_POINT('',(0.00608959730179923,0.00429573377334747,0.0171756557664308));
#1775=CARTESIAN_POINT('',(0.00170944578278275,0.00429573377334747,0.0171756557664308));
#1776=CARTESIAN_POINT('',(-0.00187011357452326,0.0078752931306535,0.0171756557664308));
#1777=CARTESIAN_POINT('',(-0.00306040269820076,0.00906558225433099,0.0171756557664308));
#1778=CARTESIAN_POINT('',(-0.00306040269820076,0.0102614631306535,0.0171756557664308));
#1779=CARTESIAN_POINT('',(-0.00306040269820076,0.0170845573563244,0.0171756598384636));
#1780=CARTESIAN_POINT('',(-0.00306040269820076,0.0170845573563244,0.0171756598384636));
#1781=CARTESIAN_POINT('',(-0.00331864171194713,0.00762676499322964,0.0171756557664308));
#1782=CARTESIAN_POINT('',(0.00121238950793504,0.00309573377334748,0.0171756557664308));
#1783=CARTESIAN_POINT('',(-0.00426040269820076,0.00856852597948328,0.0171756557664308));
#1784=CARTESIAN_POINT('',(0.00608959730179924,0.00309573377334748,0.0171756557664308));
#1785=CARTESIAN_POINT('',(0.00253444578278276,0.00309573377334748,0.00610765076643079));
#1786=CARTESIAN_POINT('',(0.00253444578278276,0.00309573377334748,0.00610765076643079));
#1787=CARTESIAN_POINT('',(0.00608959730179924,0.00309573377334749,0.00610765076643079));
#1788=CARTESIAN_POINT('',(0.00373444578278275,0.00309573377334749,0.00610765076643079));
#1789=CARTESIAN_POINT('',(0.00373444578278275,0.00309573377334749,0.00610765076643079));
#1790=CARTESIAN_POINT('',(0.00844474882081572,0.00309573377334749,0.00610765076643079));
#1791=CARTESIAN_POINT('',(0.00844474882081572,0.00309573377334749,0.00610765076643079));
#1792=CARTESIAN_POINT('',(0.00608959730179924,0.00309573377334749,0.00610765076643079));
#1793=CARTESIAN_POINT('',(0.00964474882081572,0.00309573377334749,0.00610765076643079));
#1794=CARTESIAN_POINT('',(0.00964474882081572,0.00309573377334749,0.00610765076643079));
#1795=CARTESIAN_POINT('',(0.0109668050956634,0.00309573377334748,0.0171756557664308));
#1796=CARTESIAN_POINT('',(0.0127614402124777,0.00489036889016174,0.0171756557664308));
#1797=CARTESIAN_POINT('',(0.01166438393763,0.00549036889016174,0.0171756557664308));
#1798=CARTESIAN_POINT('',(0.0104697488208157,0.00429573377334747,0.0171756557664308));
#1799=CARTESIAN_POINT('',(0.00608959730179923,0.00429573377334747,0.0171756557664308));
#1800=CARTESIAN_POINT('',(0.00964474882081572,0.00429573377334748,0.00610765076643079));
#1801=CARTESIAN_POINT('',(0.00964474882081572,0.00429573377334748,0.00610765076643079));
#1802=CARTESIAN_POINT('',(0.00608959730179923,0.00429573377334748,0.00610765076643079));
#1803=CARTESIAN_POINT('',(0.00844474882081572,0.00429573377334748,0.00610765076643079));
#1804=CARTESIAN_POINT('',(0.00844474882081572,0.00429573377334748,0.00610765076643079));
#1805=CARTESIAN_POINT('',(0.00373444578278275,0.00429573377334748,0.00610765076643079));
#1806=CARTESIAN_POINT('',(0.00373444578278275,0.00429573377334748,0.00610765076643079));
#1807=CARTESIAN_POINT('',(0.00608959730179923,0.00429573377334748,0.00610765076643079));
#1808=CARTESIAN_POINT('',(0.00253444578278276,0.00429573377334748,0.00610765076643079));
#1809=CARTESIAN_POINT('',(0.00253444578278276,0.00429573377334748,0.00610765076643079));
#1810=CARTESIAN_POINT('',(0.00170944578278275,0.00429573377334747,0.0171756557664308));
#1811=CARTESIAN_POINT('',(-0.00187011357452326,0.0078752931306535,0.0171756557664308));
#1812=CARTESIAN_POINT('',(-0.00306040269820076,0.00906558225433099,0.0171756557664308));
#1813=CARTESIAN_POINT('',(-0.00306040269820076,0.0102614631306535,0.0171756557664308));
#1814=CARTESIAN_POINT('',(-0.00306040269820076,0.0188394362329607,0.0196943153024472));
#1815=CARTESIAN_POINT('',(-0.00306040269820076,0.020594315109597,0.0222129707664308));
#1816=CARTESIAN_POINT('',(-0.00306040269820076,0.0110845573563244,0.00681398629753197));
#1817=CARTESIAN_POINT('',(-0.00306040269820076,0.0110845573563244,0.00610765182863316));
#1818=CARTESIAN_POINT('',(-0.00306040269820076,0.0116845573563244,0.00610245949349295));
#1819=CARTESIAN_POINT('',(-0.00306040269820076,0.0122845573563244,0.00609726715835274));
#1820=CARTESIAN_POINT('',(-0.00306040269820076,0.0122845573563244,0.00680879396239176));
#1821=CARTESIAN_POINT('',(-0.00306040269820076,0.0122845573563244,0.0159756598384636));
#1822=CARTESIAN_POINT('',(-0.00306040269820076,0.0134845573563244,0.0159756598384636));
#1823=CARTESIAN_POINT('',(-0.00306040269820076,0.0146845573563244,0.0159756598384636));
#1824=CARTESIAN_POINT('',(-0.00306040269820076,0.0146845573563244,0.0117479903024472));
#1825=CARTESIAN_POINT('',(-0.00306040269820076,0.0146845573563244,0.00609532076643079));
#1826=CARTESIAN_POINT('',(-0.00306040269820076,0.0152845573563244,0.00609532076643079));
#1827=CARTESIAN_POINT('',(-0.00306040269820076,0.0158845573563243,0.00609532076643079));
#1828=CARTESIAN_POINT('',(-0.00306040269820076,0.0158845573563243,0.0117479903024472));
#1829=CARTESIAN_POINT('',(-0.00306040269820076,0.0158845573563243,0.0159756598384636));
#1830=CARTESIAN_POINT('',(-0.00306040269820076,0.0167977836068146,0.0159756598384636));
#1831=CARTESIAN_POINT('',(-0.00306040269820076,0.0177110098573049,0.0159756598384636));
#1832=CARTESIAN_POINT('',(-0.00306040269820076,0.0194658887339412,0.0184943153024472));
#1833=CARTESIAN_POINT('',(-0.00306040269820076,0.0212207676105775,0.0210129707664308));
#1834=CARTESIAN_POINT('',(-0.00306040269820076,0.0267524004921663,0.0210129707664308));
#1835=CARTESIAN_POINT('',(-0.00306040269820076,0.032284033373755,0.0210129707664308));
#1836=CARTESIAN_POINT('',(-0.00306040269820076,0.032284033373755,0.0216129707664308));
#1837=CARTESIAN_POINT('',(-0.00306040269820076,0.032284033373755,0.0222129707664308));
#1838=CARTESIAN_POINT('',(-0.00306040269820076,0.026439174241676,0.0222129707664308));
#1839=CARTESIAN_POINT('',(-0.00426040269820075,0.0100129349932296,0.0171756557664308));
#1840=CARTESIAN_POINT('',(-0.00426040269820075,0.0110845573563244,0.00681398629753197));
#1841=CARTESIAN_POINT('',(-0.00426040269820075,0.0110845573563244,0.00610765182863316));
#1842=CARTESIAN_POINT('',(-0.00426040269820075,0.0188394362329607,0.0196943153024472));
#1843=CARTESIAN_POINT('',(-0.00426040269820075,0.020594315109597,0.0222129707664308));
#1844=CARTESIAN_POINT('',(-0.00426040269820075,0.026439174241676,0.0222129707664308));
#1845=CARTESIAN_POINT('',(-0.00426040269820075,0.032284033373755,0.0222129707664308));
#1846=CARTESIAN_POINT('',(-0.00426040269820075,0.032284033373755,0.0216129707664308));
#1847=CARTESIAN_POINT('',(-0.00426040269820075,0.032284033373755,0.0210129707664308));
#1848=CARTESIAN_POINT('',(-0.00426040269820075,0.0267524004921663,0.0210129707664308));
#1849=CARTESIAN_POINT('',(-0.00426040269820075,0.0212207676105775,0.0210129707664308));
#1850=CARTESIAN_POINT('',(-0.00426040269820075,0.0194658887339412,0.0184943153024472));
#1851=CARTESIAN_POINT('',(-0.00426040269820075,0.0177110098573049,0.0159756598384636));
#1852=CARTESIAN_POINT('',(-0.00426040269820075,0.0167977836068146,0.0159756598384636));
#1853=CARTESIAN_POINT('',(-0.00426040269820075,0.0158845573563243,0.0159756598384636));
#1854=CARTESIAN_POINT('',(-0.00426040269820075,0.0158845573563243,0.0117479903024472));
#1855=CARTESIAN_POINT('',(-0.00426040269820075,0.0158845573563243,0.00609532076643079));
#1856=CARTESIAN_POINT('',(-0.00426040269820075,0.0152845573563244,0.00609532076643079));
#1857=CARTESIAN_POINT('',(-0.00426040269820075,0.0146845573563244,0.00609532076643079));
#1858=CARTESIAN_POINT('',(-0.00426040269820075,0.0146845573563244,0.0117479903024472));
#1859=CARTESIAN_POINT('',(-0.00426040269820075,0.0146845573563244,0.0159756598384636));
#1860=CARTESIAN_POINT('',(-0.00426040269820075,0.0134845573563244,0.0159756598384636));
#1861=CARTESIAN_POINT('',(-0.00426040269820075,0.0122845573563244,0.0159756598384636));
#1862=CARTESIAN_POINT('',(-0.00426040269820075,0.0122845573563244,0.00680879396239176));
#1863=CARTESIAN_POINT('',(-0.00426040269820075,0.0122845573563244,0.00609726715835274));
#1864=CARTESIAN_POINT('',(-0.00426040269820075,0.0116845573563244,0.00610245949349295));
#1865=CARTESIAN_POINT('',(-0.00306040269820076,0.0110845573563244,0.00681398629753197));
#1866=CARTESIAN_POINT('',(-0.00306040269820076,0.0110845573563244,0.00610765182863316));
#1867=CARTESIAN_POINT('',(-0.00306040269820076,0.0122845573563244,0.00680879396239176));
#1868=CARTESIAN_POINT('',(-0.00306040269820076,0.0122845573563244,0.0159756598384636));
#1869=CARTESIAN_POINT('',(-0.00306040269820076,0.0122845573563244,0.00609726715835274));
#1870=CARTESIAN_POINT('',(-0.00306040269820076,0.0134845573563244,0.0159756598384636));
#1871=CARTESIAN_POINT('',(-0.00306040269820076,0.0146845573563244,0.0159756598384636));
#1872=CARTESIAN_POINT('',(-0.00306040269820076,0.0146845573563244,0.0117479903024472));
#1873=CARTESIAN_POINT('',(-0.00306040269820076,0.0146845573563244,0.00609532076643079));
#1874=CARTESIAN_POINT('',(-0.00306040269820076,0.0152845573563244,0.00609532076643079));
#1875=CARTESIAN_POINT('',(-0.00306040269820076,0.0158845573563243,0.00609532076643079));
#1876=CARTESIAN_POINT('',(-0.00306040269820076,0.0158845573563243,0.0117479903024472));
#1877=CARTESIAN_POINT('',(-0.00306040269820076,0.0158845573563243,0.0159756598384636));
#1878=CARTESIAN_POINT('',(-0.00306040269820076,0.0167977836068146,0.0159756598384636));
#1879=CARTESIAN_POINT('',(-0.00306040269820076,0.0177110098573049,0.0159756598384636));
#1880=CARTESIAN_POINT('',(-0.00306040269820076,0.0194658887339412,0.0184943153024472));
#1881=CARTESIAN_POINT('',(-0.00306040269820076,0.0212207676105775,0.0210129707664308));
#1882=CARTESIAN_POINT('',(-0.00306040269820076,0.0267524004921663,0.0210129707664308));
#1883=CARTESIAN_POINT('',(-0.00306040269820076,0.032284033373755,0.0210129707664308));
#1884=CARTESIAN_POINT('',(-0.00306040269820076,0.032284033373755,0.0216129707664308));
#1885=CARTESIAN_POINT('',(-0.00306040269820076,0.032284033373755,0.0222129707664308));
#1886=CARTESIAN_POINT('',(-0.00306040269820076,0.026439174241676,0.0222129707664308));
#1887=CARTESIAN_POINT('',(-0.00306040269820076,0.020594315109597,0.0222129707664308));
#1888=CARTESIAN_POINT('',(-0.00306040269820076,0.0188394362329607,0.0196943153024472));
#1889=CARTESIAN_POINT('',(-0.00306040269820076,0.0116845573563244,0.00610245949349295));
#1890=CARTESIAN_POINT('',(0.00373444578278275,0.00369573377334749,0.00610765076643079));
#1891=CARTESIAN_POINT('',(0.00373444578278275,0.00369573377334749,0.00610765076643079));
#1892=CARTESIAN_POINT('',(0.00253444578278276,0.00369573377334748,0.00610765076643079));
#1893=CARTESIAN_POINT('',(0.00253444578278276,0.00369573377334748,0.00610765076643079));
#1894=CARTESIAN_POINT('',(0.00548959730179924,0.00716403889016175,0.00610765076643079));
#1895=CARTESIAN_POINT('',(0.00964474882081572,0.00369573377334749,0.00610765076643079));
#1896=CARTESIAN_POINT('',(0.00964474882081572,0.00369573377334749,0.00610765076643079));
#1897=CARTESIAN_POINT('',(0.00844474882081572,0.00369573377334749,0.00610765076643079));
#1898=CARTESIAN_POINT('',(0.00844474882081572,0.00369573377334749,0.00610765076643079));
#1899=CARTESIAN_POINT('',(0.00548959730179924,0.00716403889016175,0.00610765076643079));
#1900=MECHANICAL_DESIGN_GEOMETRIC_PRESENTATION_REPRESENTATION('',(#1205),
#1901);
#1901=(
GEOMETRIC_REPRESENTATION_CONTEXT(3)
GLOBAL_UNCERTAINTY_ASSIGNED_CONTEXT((#1902))
GLOBAL_UNIT_ASSIGNED_CONTEXT((#1905,#1904,#1903))
REPRESENTATION_CONTEXT('Front_Engine_Railing','TOP_LEVEL_ASSEMBLY_PART')
);
#1902=UNCERTAINTY_MEASURE_WITH_UNIT(LENGTH_MEASURE(1.E-8),#1905,
'DISTANCE_ACCURACY_VALUE','Maximum Tolerance applied to model');
#1903=(
NAMED_UNIT(*)
SI_UNIT($,.STERADIAN.)
SOLID_ANGLE_UNIT()
);
#1904=(
NAMED_UNIT(*)
PLANE_ANGLE_UNIT()
SI_UNIT($,.RADIAN.)
);
#1905=(
LENGTH_UNIT()
NAMED_UNIT(*)
SI_UNIT($,.METRE.)
);
#1906=PRODUCT_DEFINITION_SHAPE('','',#1907);
#1907=PRODUCT_DEFINITION('','',#1909,#1908);
#1908=PRODUCT_DEFINITION_CONTEXT('',#1915,'design');
#1909=PRODUCT_DEFINITION_FORMATION_WITH_SPECIFIED_SOURCE('','',#1911,
 .NOT_KNOWN.);
#1910=PRODUCT_RELATED_PRODUCT_CATEGORY('','',(#1911));
#1911=PRODUCT('Front_Engine_Railing','Front_Engine_Railing',
'Front_Engine_Railing',(#1913));
#1912=PRODUCT_CATEGORY('','');
#1913=PRODUCT_CONTEXT('',#1915,'mechanical');
#1914=APPLICATION_PROTOCOL_DEFINITION('international standard',
'ap242_managed_model_based_3d_engineering',2020,#1915);
#1915=APPLICATION_CONTEXT('managed model based 3d engineering');
ENDSEC;
END-ISO-10303-21;
