ISO-10303-21;
HEADER;
/* Generated by software containing ST-Developer
 * from STEP Tools, Inc. (www.steptools.com) 
 */
/* OPTION: using custom renumber hook */

FILE_DESCRIPTION(
/* description */ ('STEP AP242 Edition 2',
'CAx-IF Rec.Pracs.---Representation and Presentation of Product Manufa
cturing Information (PMI)---4.0---2014-10-13',
'CAx-IF Rec.Pracs.---3D Tessellated Geometry---0.4---2014-09-14','2;1',
'CAx-IF Rec.Pracs.---User Defined Attributes---1.5---2016-08-15'),
/* implementation_level */ '2;1');

FILE_NAME(
/* name */ '6a352fc4cfd9af7f5351ab14',
/* time_stamp */ '2026-06-19T12:02:13Z',
/* author */ (''),
/* organization */ (''),
/* preprocessor_version */ 'ST-DEVELOPER v20',
/* originating_system */ 'ONSHAPE BY PTC INC, 1.216',
/* authorisation */ '  ');

FILE_SCHEMA (('AP242_MANAGED_MODEL_BASED_3D_ENGINEERING_MIM_LF { 1 0 10303 442 3 1 4 }'));
ENDSEC;

DATA;
#10=LINE('',#979,#54);
#11=LINE('',#982,#55);
#12=LINE('',#984,#56);
#13=LINE('',#986,#57);
#14=LINE('',#988,#58);
#15=LINE('',#990,#59);
#16=LINE('',#992,#60);
#17=LINE('',#994,#61);
#18=LINE('',#996,#62);
#19=LINE('',#998,#63);
#20=LINE('',#1000,#64);
#21=LINE('',#1001,#65);
#22=LINE('',#1021,#66);
#23=LINE('',#1024,#67);
#24=LINE('',#1026,#68);
#25=LINE('',#1028,#69);
#26=LINE('',#1029,#70);
#27=LINE('',#1032,#71);
#28=LINE('',#1034,#72);
#29=LINE('',#1036,#73);
#30=LINE('',#1037,#74);
#31=LINE('',#1040,#75);
#32=LINE('',#1042,#76);
#33=LINE('',#1044,#77);
#34=LINE('',#1046,#78);
#35=LINE('',#1049,#79);
#36=LINE('',#1051,#80);
#37=LINE('',#1053,#81);
#38=LINE('',#1055,#82);
#39=LINE('',#1056,#83);
#40=LINE('',#1058,#84);
#41=LINE('',#1059,#85);
#42=LINE('',#1087,#86);
#43=LINE('',#1089,#87);
#44=LINE('',#1091,#88);
#45=LINE('',#1093,#89);
#46=LINE('',#1095,#90);
#47=LINE('',#1097,#91);
#48=LINE('',#1106,#92);
#49=LINE('',#1108,#93);
#50=LINE('',#1110,#94);
#51=LINE('',#1112,#95);
#52=LINE('',#1114,#96);
#53=LINE('',#1116,#97);
#54=VECTOR('',#792,1.);
#55=VECTOR('',#793,1.);
#56=VECTOR('',#794,1.);
#57=VECTOR('',#795,1.);
#58=VECTOR('',#798,1.);
#59=VECTOR('',#799,1.);
#60=VECTOR('',#800,1.);
#61=VECTOR('',#803,1.);
#62=VECTOR('',#804,1.);
#63=VECTOR('',#805,1.);
#64=VECTOR('',#808,1.);
#65=VECTOR('',#809,1.);
#66=VECTOR('',#840,1.);
#67=VECTOR('',#841,1.);
#68=VECTOR('',#842,1.);
#69=VECTOR('',#843,1.);
#70=VECTOR('',#844,1.);
#71=VECTOR('',#845,1.);
#72=VECTOR('',#846,1.);
#73=VECTOR('',#847,1.);
#74=VECTOR('',#848,1.);
#75=VECTOR('',#849,1.);
#76=VECTOR('',#850,1.);
#77=VECTOR('',#851,1.);
#78=VECTOR('',#854,1.);
#79=VECTOR('',#855,1.);
#80=VECTOR('',#856,1.);
#81=VECTOR('',#857,1.);
#82=VECTOR('',#860,1.);
#83=VECTOR('',#861,1.);
#84=VECTOR('',#864,1.);
#85=VECTOR('',#865,1.);
#86=VECTOR('',#904,1.);
#87=VECTOR('',#905,1.);
#88=VECTOR('',#906,1.);
#89=VECTOR('',#909,1.);
#90=VECTOR('',#910,1.);
#91=VECTOR('',#911,1.);
#92=VECTOR('',#926,1.);
#93=VECTOR('',#927,1.);
#94=VECTOR('',#928,1.);
#95=VECTOR('',#931,1.);
#96=VECTOR('',#932,1.);
#97=VECTOR('',#933,1.);
#98=CONTEXT_DEPENDENT_SHAPE_REPRESENTATION(#118,#1146);
#99=CONTEXT_DEPENDENT_SHAPE_REPRESENTATION(#119,#1148);
#100=CONTEXT_DEPENDENT_SHAPE_REPRESENTATION(#120,#1150);
#101=CONTEXT_DEPENDENT_SHAPE_REPRESENTATION(#121,#1151);
#102=CONTEXT_DEPENDENT_SHAPE_REPRESENTATION(#122,#1152);
#103=CONTEXT_DEPENDENT_SHAPE_REPRESENTATION(#123,#1154);
#104=CONTEXT_DEPENDENT_SHAPE_REPRESENTATION(#124,#1155);
#105=CONTEXT_DEPENDENT_SHAPE_REPRESENTATION(#125,#1156);
#106=CONTEXT_DEPENDENT_SHAPE_REPRESENTATION(#126,#1157);
#107=CONTEXT_DEPENDENT_SHAPE_REPRESENTATION(#127,#1158);
#108=NEXT_ASSEMBLY_USAGE_OCCURRENCE('NAUO1','Hand Wheel','Hand Wheel',#1159,
#1160,'');
#109=NEXT_ASSEMBLY_USAGE_OCCURRENCE('NAUO2','Lever','Lever',#1159,#1161,
'');
#110=NEXT_ASSEMBLY_USAGE_OCCURRENCE('NAUO3','Hand Wheel Cover',
'Hand Wheel Cover',#1159,#1162,'');
#111=NEXT_ASSEMBLY_USAGE_OCCURRENCE('NAUO4','Hand Wheel Cover',
'Hand Wheel Cover',#1159,#1162,'');
#112=NEXT_ASSEMBLY_USAGE_OCCURRENCE('NAUO5','Hand Wheel','Hand Wheel',#1159,
#1160,'');
#113=NEXT_ASSEMBLY_USAGE_OCCURRENCE('NAUO6','Hand Wheel Chassis',
'Hand Wheel Chassis',#1159,#1163,'');
#114=NEXT_ASSEMBLY_USAGE_OCCURRENCE('NAUO7','Hand Wheel','Hand Wheel',#1159,
#1160,'');
#115=NEXT_ASSEMBLY_USAGE_OCCURRENCE('NAUO8','Hand Wheel Cover',
'Hand Wheel Cover',#1159,#1162,'');
#116=NEXT_ASSEMBLY_USAGE_OCCURRENCE('NAUO9','Hand Wheel','Hand Wheel',#1159,
#1160,'');
#117=NEXT_ASSEMBLY_USAGE_OCCURRENCE('NAUO10','Hand Wheel Cover',
'Hand Wheel Cover',#1159,#1162,'');
#118=(
REPRESENTATION_RELATIONSHIP(' ',' ',#682,#681)
REPRESENTATION_RELATIONSHIP_WITH_TRANSFORMATION(#128)
SHAPE_REPRESENTATION_RELATIONSHIP()
);
#119=(
REPRESENTATION_RELATIONSHIP(' ',' ',#683,#681)
REPRESENTATION_RELATIONSHIP_WITH_TRANSFORMATION(#129)
SHAPE_REPRESENTATION_RELATIONSHIP()
);
#120=(
REPRESENTATION_RELATIONSHIP(' ',' ',#684,#681)
REPRESENTATION_RELATIONSHIP_WITH_TRANSFORMATION(#130)
SHAPE_REPRESENTATION_RELATIONSHIP()
);
#121=(
REPRESENTATION_RELATIONSHIP(' ',' ',#684,#681)
REPRESENTATION_RELATIONSHIP_WITH_TRANSFORMATION(#131)
SHAPE_REPRESENTATION_RELATIONSHIP()
);
#122=(
REPRESENTATION_RELATIONSHIP(' ',' ',#682,#681)
REPRESENTATION_RELATIONSHIP_WITH_TRANSFORMATION(#132)
SHAPE_REPRESENTATION_RELATIONSHIP()
);
#123=(
REPRESENTATION_RELATIONSHIP(' ',' ',#685,#681)
REPRESENTATION_RELATIONSHIP_WITH_TRANSFORMATION(#133)
SHAPE_REPRESENTATION_RELATIONSHIP()
);
#124=(
REPRESENTATION_RELATIONSHIP(' ',' ',#682,#681)
REPRESENTATION_RELATIONSHIP_WITH_TRANSFORMATION(#134)
SHAPE_REPRESENTATION_RELATIONSHIP()
);
#125=(
REPRESENTATION_RELATIONSHIP(' ',' ',#684,#681)
REPRESENTATION_RELATIONSHIP_WITH_TRANSFORMATION(#135)
SHAPE_REPRESENTATION_RELATIONSHIP()
);
#126=(
REPRESENTATION_RELATIONSHIP(' ',' ',#682,#681)
REPRESENTATION_RELATIONSHIP_WITH_TRANSFORMATION(#136)
SHAPE_REPRESENTATION_RELATIONSHIP()
);
#127=(
REPRESENTATION_RELATIONSHIP(' ',' ',#684,#681)
REPRESENTATION_RELATIONSHIP_WITH_TRANSFORMATION(#137)
SHAPE_REPRESENTATION_RELATIONSHIP()
);
#128=ITEM_DEFINED_TRANSFORMATION(' ',' ',#686,#699);
#129=ITEM_DEFINED_TRANSFORMATION(' ',' ',#686,#709);
#130=ITEM_DEFINED_TRANSFORMATION(' ',' ',#686,#715);
#131=ITEM_DEFINED_TRANSFORMATION(' ',' ',#686,#716);
#132=ITEM_DEFINED_TRANSFORMATION(' ',' ',#686,#717);
#133=ITEM_DEFINED_TRANSFORMATION(' ',' ',#686,#757);
#134=ITEM_DEFINED_TRANSFORMATION(' ',' ',#686,#758);
#135=ITEM_DEFINED_TRANSFORMATION(' ',' ',#686,#759);
#136=ITEM_DEFINED_TRANSFORMATION(' ',' ',#686,#760);
#137=ITEM_DEFINED_TRANSFORMATION(' ',' ',#686,#761);
#138=SHAPE_REPRESENTATION_RELATIONSHIP('','',#682,#142);
#139=SHAPE_REPRESENTATION_RELATIONSHIP('','',#683,#143);
#140=SHAPE_REPRESENTATION_RELATIONSHIP('','',#684,#144);
#141=SHAPE_REPRESENTATION_RELATIONSHIP('','',#685,#145);
#142=ADVANCED_BREP_SHAPE_REPRESENTATION('',(#672),#1132);
#143=ADVANCED_BREP_SHAPE_REPRESENTATION('',(#673),#1133);
#144=ADVANCED_BREP_SHAPE_REPRESENTATION('',(#674),#1134);
#145=ADVANCED_BREP_SHAPE_REPRESENTATION('',(#675),#1135);
#146=CONICAL_SURFACE('',#696,0.004125,0.698131700797732);
#147=PLANE('',#693);
#148=PLANE('',#695);
#149=PLANE('',#698);
#150=PLANE('',#700);
#151=PLANE('',#701);
#152=PLANE('',#702);
#153=PLANE('',#703);
#154=PLANE('',#707);
#155=PLANE('',#708);
#156=PLANE('',#713);
#157=PLANE('',#714);
#158=PLANE('',#718);
#159=PLANE('',#719);
#160=PLANE('',#720);
#161=PLANE('',#721);
#162=PLANE('',#722);
#163=PLANE('',#725);
#164=PLANE('',#728);
#165=PLANE('',#731);
#166=PLANE('',#736);
#167=PLANE('',#739);
#168=PLANE('',#740);
#169=PLANE('',#741);
#170=PLANE('',#745);
#171=PLANE('',#746);
#172=PLANE('',#748);
#173=PLANE('',#749);
#174=PLANE('',#753);
#175=PLANE('',#754);
#176=ORIENTED_EDGE('',*,*,#312,.F.);
#177=ORIENTED_EDGE('',*,*,#313,.T.);
#178=ORIENTED_EDGE('',*,*,#314,.F.);
#179=ORIENTED_EDGE('',*,*,#315,.T.);
#180=ORIENTED_EDGE('',*,*,#316,.T.);
#181=ORIENTED_EDGE('',*,*,#312,.T.);
#182=ORIENTED_EDGE('',*,*,#313,.F.);
#183=ORIENTED_EDGE('',*,*,#314,.T.);
#184=ORIENTED_EDGE('',*,*,#316,.F.);
#185=ORIENTED_EDGE('',*,*,#317,.F.);
#186=ORIENTED_EDGE('',*,*,#315,.F.);
#187=ORIENTED_EDGE('',*,*,#317,.T.);
#188=ORIENTED_EDGE('',*,*,#318,.F.);
#189=ORIENTED_EDGE('',*,*,#319,.F.);
#190=ORIENTED_EDGE('',*,*,#320,.T.);
#191=ORIENTED_EDGE('',*,*,#321,.T.);
#192=ORIENTED_EDGE('',*,*,#322,.F.);
#193=ORIENTED_EDGE('',*,*,#323,.F.);
#194=ORIENTED_EDGE('',*,*,#324,.T.);
#195=ORIENTED_EDGE('',*,*,#319,.T.);
#196=ORIENTED_EDGE('',*,*,#325,.T.);
#197=ORIENTED_EDGE('',*,*,#326,.F.);
#198=ORIENTED_EDGE('',*,*,#327,.F.);
#199=ORIENTED_EDGE('',*,*,#323,.T.);
#200=ORIENTED_EDGE('',*,*,#328,.T.);
#201=ORIENTED_EDGE('',*,*,#321,.F.);
#202=ORIENTED_EDGE('',*,*,#329,.F.);
#203=ORIENTED_EDGE('',*,*,#326,.T.);
#204=ORIENTED_EDGE('',*,*,#330,.T.);
#205=ORIENTED_EDGE('',*,*,#331,.F.);
#206=ORIENTED_EDGE('',*,*,#320,.F.);
#207=ORIENTED_EDGE('',*,*,#324,.F.);
#208=ORIENTED_EDGE('',*,*,#327,.T.);
#209=ORIENTED_EDGE('',*,*,#329,.T.);
#210=ORIENTED_EDGE('',*,*,#330,.F.);
#211=ORIENTED_EDGE('',*,*,#318,.T.);
#212=ORIENTED_EDGE('',*,*,#328,.F.);
#213=ORIENTED_EDGE('',*,*,#325,.F.);
#214=ORIENTED_EDGE('',*,*,#322,.T.);
#215=ORIENTED_EDGE('',*,*,#331,.T.);
#216=ORIENTED_EDGE('',*,*,#332,.F.);
#217=ORIENTED_EDGE('',*,*,#333,.T.);
#218=ORIENTED_EDGE('',*,*,#332,.T.);
#219=ORIENTED_EDGE('',*,*,#333,.F.);
#220=ORIENTED_EDGE('',*,*,#334,.F.);
#221=ORIENTED_EDGE('',*,*,#335,.F.);
#222=ORIENTED_EDGE('',*,*,#336,.T.);
#223=ORIENTED_EDGE('',*,*,#337,.T.);
#224=ORIENTED_EDGE('',*,*,#338,.T.);
#225=ORIENTED_EDGE('',*,*,#339,.F.);
#226=ORIENTED_EDGE('',*,*,#340,.F.);
#227=ORIENTED_EDGE('',*,*,#341,.T.);
#228=ORIENTED_EDGE('',*,*,#342,.F.);
#229=ORIENTED_EDGE('',*,*,#343,.T.);
#230=ORIENTED_EDGE('',*,*,#344,.T.);
#231=ORIENTED_EDGE('',*,*,#345,.F.);
#232=ORIENTED_EDGE('',*,*,#346,.T.);
#233=ORIENTED_EDGE('',*,*,#347,.F.);
#234=ORIENTED_EDGE('',*,*,#348,.F.);
#235=ORIENTED_EDGE('',*,*,#349,.T.);
#236=ORIENTED_EDGE('',*,*,#350,.T.);
#237=ORIENTED_EDGE('',*,*,#341,.F.);
#238=ORIENTED_EDGE('',*,*,#351,.F.);
#239=ORIENTED_EDGE('',*,*,#347,.T.);
#240=ORIENTED_EDGE('',*,*,#352,.T.);
#241=ORIENTED_EDGE('',*,*,#349,.F.);
#242=ORIENTED_EDGE('',*,*,#353,.F.);
#243=ORIENTED_EDGE('',*,*,#339,.T.);
#244=ORIENTED_EDGE('',*,*,#354,.T.);
#245=ORIENTED_EDGE('',*,*,#355,.T.);
#246=ORIENTED_EDGE('',*,*,#348,.T.);
#247=ORIENTED_EDGE('',*,*,#351,.T.);
#248=ORIENTED_EDGE('',*,*,#340,.T.);
#249=ORIENTED_EDGE('',*,*,#353,.T.);
#250=ORIENTED_EDGE('',*,*,#356,.F.);
#251=ORIENTED_EDGE('',*,*,#357,.F.);
#252=ORIENTED_EDGE('',*,*,#346,.F.);
#253=ORIENTED_EDGE('',*,*,#352,.F.);
#254=ORIENTED_EDGE('',*,*,#338,.F.);
#255=ORIENTED_EDGE('',*,*,#350,.F.);
#256=ORIENTED_EDGE('',*,*,#358,.F.);
#257=ORIENTED_EDGE('',*,*,#358,.T.);
#258=ORIENTED_EDGE('',*,*,#357,.T.);
#259=ORIENTED_EDGE('',*,*,#359,.F.);
#260=ORIENTED_EDGE('',*,*,#359,.T.);
#261=ORIENTED_EDGE('',*,*,#356,.T.);
#262=ORIENTED_EDGE('',*,*,#355,.F.);
#263=ORIENTED_EDGE('',*,*,#360,.F.);
#264=ORIENTED_EDGE('',*,*,#360,.T.);
#265=ORIENTED_EDGE('',*,*,#354,.F.);
#266=ORIENTED_EDGE('',*,*,#361,.F.);
#267=ORIENTED_EDGE('',*,*,#361,.T.);
#268=ORIENTED_EDGE('',*,*,#362,.F.);
#269=ORIENTED_EDGE('',*,*,#337,.F.);
#270=ORIENTED_EDGE('',*,*,#363,.T.);
#271=ORIENTED_EDGE('',*,*,#364,.T.);
#272=ORIENTED_EDGE('',*,*,#365,.F.);
#273=ORIENTED_EDGE('',*,*,#366,.F.);
#274=ORIENTED_EDGE('',*,*,#367,.T.);
#275=ORIENTED_EDGE('',*,*,#335,.T.);
#276=ORIENTED_EDGE('',*,*,#368,.T.);
#277=ORIENTED_EDGE('',*,*,#364,.F.);
#278=ORIENTED_EDGE('',*,*,#369,.F.);
#279=ORIENTED_EDGE('',*,*,#366,.T.);
#280=ORIENTED_EDGE('',*,*,#363,.F.);
#281=ORIENTED_EDGE('',*,*,#336,.F.);
#282=ORIENTED_EDGE('',*,*,#367,.F.);
#283=ORIENTED_EDGE('',*,*,#369,.T.);
#284=ORIENTED_EDGE('',*,*,#362,.T.);
#285=ORIENTED_EDGE('',*,*,#368,.F.);
#286=ORIENTED_EDGE('',*,*,#365,.T.);
#287=ORIENTED_EDGE('',*,*,#334,.T.);
#288=ORIENTED_EDGE('',*,*,#370,.F.);
#289=ORIENTED_EDGE('',*,*,#371,.T.);
#290=ORIENTED_EDGE('',*,*,#372,.F.);
#291=ORIENTED_EDGE('',*,*,#373,.F.);
#292=ORIENTED_EDGE('',*,*,#345,.T.);
#293=ORIENTED_EDGE('',*,*,#374,.T.);
#294=ORIENTED_EDGE('',*,*,#343,.F.);
#295=ORIENTED_EDGE('',*,*,#375,.F.);
#296=ORIENTED_EDGE('',*,*,#376,.T.);
#297=ORIENTED_EDGE('',*,*,#377,.F.);
#298=ORIENTED_EDGE('',*,*,#376,.F.);
#299=ORIENTED_EDGE('',*,*,#378,.T.);
#300=ORIENTED_EDGE('',*,*,#372,.T.);
#301=ORIENTED_EDGE('',*,*,#373,.T.);
#302=ORIENTED_EDGE('',*,*,#378,.F.);
#303=ORIENTED_EDGE('',*,*,#375,.T.);
#304=ORIENTED_EDGE('',*,*,#342,.T.);
#305=ORIENTED_EDGE('',*,*,#371,.F.);
#306=ORIENTED_EDGE('',*,*,#344,.F.);
#307=ORIENTED_EDGE('',*,*,#374,.F.);
#308=ORIENTED_EDGE('',*,*,#377,.T.);
#309=ORIENTED_EDGE('',*,*,#379,.F.);
#310=ORIENTED_EDGE('',*,*,#379,.T.);
#311=ORIENTED_EDGE('',*,*,#370,.T.);
#312=EDGE_CURVE('',#380,#380,#432,.T.);
#313=EDGE_CURVE('',#381,#381,#433,.T.);
#314=EDGE_CURVE('',#382,#382,#434,.T.);
#315=EDGE_CURVE('',#383,#383,#435,.T.);
#316=EDGE_CURVE('',#384,#384,#436,.F.);
#317=EDGE_CURVE('',#385,#385,#437,.T.);
#318=EDGE_CURVE('',#386,#387,#10,.T.);
#319=EDGE_CURVE('',#388,#386,#11,.T.);
#320=EDGE_CURVE('',#388,#389,#12,.T.);
#321=EDGE_CURVE('',#389,#387,#13,.T.);
#322=EDGE_CURVE('',#390,#386,#14,.T.);
#323=EDGE_CURVE('',#391,#390,#15,.T.);
#324=EDGE_CURVE('',#391,#388,#16,.T.);
#325=EDGE_CURVE('',#390,#392,#17,.T.);
#326=EDGE_CURVE('',#393,#392,#18,.T.);
#327=EDGE_CURVE('',#391,#393,#19,.T.);
#328=EDGE_CURVE('',#392,#387,#20,.T.);
#329=EDGE_CURVE('',#393,#389,#21,.T.);
#330=EDGE_CURVE('',#394,#394,#438,.T.);
#331=EDGE_CURVE('',#395,#395,#439,.T.);
#332=EDGE_CURVE('',#396,#396,#440,.T.);
#333=EDGE_CURVE('',#397,#397,#441,.T.);
#334=EDGE_CURVE('',#398,#399,#22,.T.);
#335=EDGE_CURVE('',#400,#398,#23,.T.);
#336=EDGE_CURVE('',#400,#401,#24,.T.);
#337=EDGE_CURVE('',#401,#399,#25,.T.);
#338=EDGE_CURVE('',#402,#403,#26,.T.);
#339=EDGE_CURVE('',#404,#403,#27,.T.);
#340=EDGE_CURVE('',#405,#404,#28,.T.);
#341=EDGE_CURVE('',#405,#402,#29,.T.);
#342=EDGE_CURVE('',#406,#407,#30,.T.);
#343=EDGE_CURVE('',#406,#408,#31,.T.);
#344=EDGE_CURVE('',#408,#409,#32,.T.);
#345=EDGE_CURVE('',#407,#409,#33,.T.);
#346=EDGE_CURVE('',#410,#411,#34,.T.);
#347=EDGE_CURVE('',#412,#411,#35,.T.);
#348=EDGE_CURVE('',#413,#412,#36,.T.);
#349=EDGE_CURVE('',#413,#410,#37,.T.);
#350=EDGE_CURVE('',#411,#402,#38,.T.);
#351=EDGE_CURVE('',#412,#405,#39,.T.);
#352=EDGE_CURVE('',#403,#410,#40,.T.);
#353=EDGE_CURVE('',#404,#413,#41,.T.);
#354=EDGE_CURVE('',#414,#414,#442,.F.);
#355=EDGE_CURVE('',#415,#415,#443,.F.);
#356=EDGE_CURVE('',#416,#416,#444,.F.);
#357=EDGE_CURVE('',#417,#417,#445,.F.);
#358=EDGE_CURVE('',#418,#418,#446,.T.);
#359=EDGE_CURVE('',#419,#419,#447,.T.);
#360=EDGE_CURVE('',#420,#420,#448,.T.);
#361=EDGE_CURVE('',#421,#421,#449,.T.);
#362=EDGE_CURVE('',#399,#422,#42,.T.);
#363=EDGE_CURVE('',#401,#423,#43,.T.);
#364=EDGE_CURVE('',#423,#422,#44,.T.);
#365=EDGE_CURVE('',#424,#398,#45,.T.);
#366=EDGE_CURVE('',#425,#424,#46,.T.);
#367=EDGE_CURVE('',#425,#400,#47,.T.);
#368=EDGE_CURVE('',#424,#422,#450,.T.);
#369=EDGE_CURVE('',#425,#423,#451,.T.);
#370=EDGE_CURVE('',#426,#426,#452,.F.);
#371=EDGE_CURVE('',#409,#427,#48,.T.);
#372=EDGE_CURVE('',#428,#427,#49,.T.);
#373=EDGE_CURVE('',#407,#428,#50,.T.);
#374=EDGE_CURVE('',#429,#408,#51,.T.);
#375=EDGE_CURVE('',#430,#406,#52,.T.);
#376=EDGE_CURVE('',#430,#429,#53,.T.);
#377=EDGE_CURVE('',#429,#427,#453,.T.);
#378=EDGE_CURVE('',#430,#428,#454,.T.);
#379=EDGE_CURVE('',#431,#431,#455,.T.);
#380=VERTEX_POINT('',#961);
#381=VERTEX_POINT('',#963);
#382=VERTEX_POINT('',#966);
#383=VERTEX_POINT('',#968);
#384=VERTEX_POINT('',#971);
#385=VERTEX_POINT('',#975);
#386=VERTEX_POINT('',#980);
#387=VERTEX_POINT('',#981);
#388=VERTEX_POINT('',#983);
#389=VERTEX_POINT('',#985);
#390=VERTEX_POINT('',#989);
#391=VERTEX_POINT('',#991);
#392=VERTEX_POINT('',#995);
#393=VERTEX_POINT('',#997);
#394=VERTEX_POINT('',#1004);
#395=VERTEX_POINT('',#1006);
#396=VERTEX_POINT('',#1012);
#397=VERTEX_POINT('',#1014);
#398=VERTEX_POINT('',#1022);
#399=VERTEX_POINT('',#1023);
#400=VERTEX_POINT('',#1025);
#401=VERTEX_POINT('',#1027);
#402=VERTEX_POINT('',#1030);
#403=VERTEX_POINT('',#1031);
#404=VERTEX_POINT('',#1033);
#405=VERTEX_POINT('',#1035);
#406=VERTEX_POINT('',#1038);
#407=VERTEX_POINT('',#1039);
#408=VERTEX_POINT('',#1041);
#409=VERTEX_POINT('',#1043);
#410=VERTEX_POINT('',#1047);
#411=VERTEX_POINT('',#1048);
#412=VERTEX_POINT('',#1050);
#413=VERTEX_POINT('',#1052);
#414=VERTEX_POINT('',#1062);
#415=VERTEX_POINT('',#1064);
#416=VERTEX_POINT('',#1067);
#417=VERTEX_POINT('',#1069);
#418=VERTEX_POINT('',#1072);
#419=VERTEX_POINT('',#1076);
#420=VERTEX_POINT('',#1080);
#421=VERTEX_POINT('',#1084);
#422=VERTEX_POINT('',#1088);
#423=VERTEX_POINT('',#1090);
#424=VERTEX_POINT('',#1094);
#425=VERTEX_POINT('',#1096);
#426=VERTEX_POINT('',#1104);
#427=VERTEX_POINT('',#1107);
#428=VERTEX_POINT('',#1109);
#429=VERTEX_POINT('',#1113);
#430=VERTEX_POINT('',#1115);
#431=VERTEX_POINT('',#1123);
#432=CIRCLE('',#688,0.00525);
#433=CIRCLE('',#689,0.00525);
#434=CIRCLE('',#691,0.003);
#435=CIRCLE('',#692,0.003);
#436=CIRCLE('',#694,0.00475432472338296);
#437=CIRCLE('',#697,0.004125);
#438=CIRCLE('',#705,0.001125);
#439=CIRCLE('',#706,0.001125);
#440=CIRCLE('',#711,0.004125);
#441=CIRCLE('',#712,0.004125);
#442=CIRCLE('',#723,0.002625);
#443=CIRCLE('',#724,0.002625);
#444=CIRCLE('',#726,0.002625);
#445=CIRCLE('',#727,0.002625);
#446=CIRCLE('',#729,0.002625);
#447=CIRCLE('',#732,0.002625);
#448=CIRCLE('',#735,0.002625);
#449=CIRCLE('',#738,0.002625);
#450=CIRCLE('',#743,0.00179224350776644);
#451=CIRCLE('',#744,0.00179224350776644);
#452=CIRCLE('',#747,0.001125);
#453=CIRCLE('',#751,0.00179224350776644);
#454=CIRCLE('',#752,0.00179224350776644);
#455=CIRCLE('',#755,0.001125);
#456=EDGE_LOOP('',(#176));
#457=EDGE_LOOP('',(#177));
#458=EDGE_LOOP('',(#178));
#459=EDGE_LOOP('',(#179));
#460=EDGE_LOOP('',(#180));
#461=EDGE_LOOP('',(#181));
#462=EDGE_LOOP('',(#182));
#463=EDGE_LOOP('',(#183));
#464=EDGE_LOOP('',(#184));
#465=EDGE_LOOP('',(#185));
#466=EDGE_LOOP('',(#186));
#467=EDGE_LOOP('',(#187));
#468=EDGE_LOOP('',(#188,#189,#190,#191));
#469=EDGE_LOOP('',(#192,#193,#194,#195));
#470=EDGE_LOOP('',(#196,#197,#198,#199));
#471=EDGE_LOOP('',(#200,#201,#202,#203));
#472=EDGE_LOOP('',(#204));
#473=EDGE_LOOP('',(#205));
#474=EDGE_LOOP('',(#206,#207,#208,#209));
#475=EDGE_LOOP('',(#210));
#476=EDGE_LOOP('',(#211,#212,#213,#214));
#477=EDGE_LOOP('',(#215));
#478=EDGE_LOOP('',(#216));
#479=EDGE_LOOP('',(#217));
#480=EDGE_LOOP('',(#218));
#481=EDGE_LOOP('',(#219));
#482=EDGE_LOOP('',(#220,#221,#222,#223));
#483=EDGE_LOOP('',(#224,#225,#226,#227));
#484=EDGE_LOOP('',(#228,#229,#230,#231));
#485=EDGE_LOOP('',(#232,#233,#234,#235));
#486=EDGE_LOOP('',(#236,#237,#238,#239));
#487=EDGE_LOOP('',(#240,#241,#242,#243));
#488=EDGE_LOOP('',(#244));
#489=EDGE_LOOP('',(#245));
#490=EDGE_LOOP('',(#246,#247,#248,#249));
#491=EDGE_LOOP('',(#250));
#492=EDGE_LOOP('',(#251));
#493=EDGE_LOOP('',(#252,#253,#254,#255));
#494=EDGE_LOOP('',(#256));
#495=EDGE_LOOP('',(#257));
#496=EDGE_LOOP('',(#258));
#497=EDGE_LOOP('',(#259));
#498=EDGE_LOOP('',(#260));
#499=EDGE_LOOP('',(#261));
#500=EDGE_LOOP('',(#262));
#501=EDGE_LOOP('',(#263));
#502=EDGE_LOOP('',(#264));
#503=EDGE_LOOP('',(#265));
#504=EDGE_LOOP('',(#266));
#505=EDGE_LOOP('',(#267));
#506=EDGE_LOOP('',(#268,#269,#270,#271));
#507=EDGE_LOOP('',(#272,#273,#274,#275));
#508=EDGE_LOOP('',(#276,#277,#278,#279));
#509=EDGE_LOOP('',(#280,#281,#282,#283));
#510=EDGE_LOOP('',(#284,#285,#286,#287));
#511=EDGE_LOOP('',(#288));
#512=EDGE_LOOP('',(#289,#290,#291,#292));
#513=EDGE_LOOP('',(#293,#294,#295,#296));
#514=EDGE_LOOP('',(#297,#298,#299,#300));
#515=EDGE_LOOP('',(#301,#302,#303,#304));
#516=EDGE_LOOP('',(#305,#306,#307,#308));
#517=EDGE_LOOP('',(#309));
#518=EDGE_LOOP('',(#310));
#519=EDGE_LOOP('',(#311));
#520=FACE_BOUND('',#456,.T.);
#521=FACE_BOUND('',#457,.T.);
#522=FACE_BOUND('',#458,.T.);
#523=FACE_BOUND('',#459,.T.);
#524=FACE_BOUND('',#460,.T.);
#525=FACE_BOUND('',#461,.T.);
#526=FACE_BOUND('',#462,.T.);
#527=FACE_BOUND('',#463,.T.);
#528=FACE_BOUND('',#464,.T.);
#529=FACE_BOUND('',#465,.T.);
#530=FACE_BOUND('',#466,.T.);
#531=FACE_BOUND('',#467,.T.);
#532=FACE_BOUND('',#468,.T.);
#533=FACE_BOUND('',#469,.T.);
#534=FACE_BOUND('',#470,.T.);
#535=FACE_BOUND('',#471,.T.);
#536=FACE_BOUND('',#472,.T.);
#537=FACE_BOUND('',#473,.T.);
#538=FACE_BOUND('',#474,.T.);
#539=FACE_BOUND('',#475,.T.);
#540=FACE_BOUND('',#476,.T.);
#541=FACE_BOUND('',#477,.T.);
#542=FACE_BOUND('',#478,.T.);
#543=FACE_BOUND('',#479,.T.);
#544=FACE_BOUND('',#480,.T.);
#545=FACE_BOUND('',#481,.T.);
#546=FACE_BOUND('',#482,.T.);
#547=FACE_BOUND('',#483,.T.);
#548=FACE_BOUND('',#484,.T.);
#549=FACE_BOUND('',#485,.T.);
#550=FACE_BOUND('',#486,.T.);
#551=FACE_BOUND('',#487,.T.);
#552=FACE_BOUND('',#488,.T.);
#553=FACE_BOUND('',#489,.T.);
#554=FACE_BOUND('',#490,.T.);
#555=FACE_BOUND('',#491,.T.);
#556=FACE_BOUND('',#492,.T.);
#557=FACE_BOUND('',#493,.T.);
#558=FACE_BOUND('',#494,.T.);
#559=FACE_BOUND('',#495,.T.);
#560=FACE_BOUND('',#496,.T.);
#561=FACE_BOUND('',#497,.T.);
#562=FACE_BOUND('',#498,.T.);
#563=FACE_BOUND('',#499,.T.);
#564=FACE_BOUND('',#500,.T.);
#565=FACE_BOUND('',#501,.T.);
#566=FACE_BOUND('',#502,.T.);
#567=FACE_BOUND('',#503,.T.);
#568=FACE_BOUND('',#504,.T.);
#569=FACE_BOUND('',#505,.T.);
#570=FACE_BOUND('',#506,.T.);
#571=FACE_BOUND('',#507,.T.);
#572=FACE_BOUND('',#508,.T.);
#573=FACE_BOUND('',#509,.T.);
#574=FACE_BOUND('',#510,.T.);
#575=FACE_BOUND('',#511,.T.);
#576=FACE_BOUND('',#512,.T.);
#577=FACE_BOUND('',#513,.T.);
#578=FACE_BOUND('',#514,.T.);
#579=FACE_BOUND('',#515,.T.);
#580=FACE_BOUND('',#516,.T.);
#581=FACE_BOUND('',#517,.T.);
#582=FACE_BOUND('',#518,.T.);
#583=FACE_BOUND('',#519,.T.);
#584=CYLINDRICAL_SURFACE('',#687,0.00525);
#585=CYLINDRICAL_SURFACE('',#690,0.003);
#586=CYLINDRICAL_SURFACE('',#704,0.001125);
#587=CYLINDRICAL_SURFACE('',#710,0.004125);
#588=CYLINDRICAL_SURFACE('',#730,0.002625);
#589=CYLINDRICAL_SURFACE('',#733,0.002625);
#590=CYLINDRICAL_SURFACE('',#734,0.002625);
#591=CYLINDRICAL_SURFACE('',#737,0.002625);
#592=CYLINDRICAL_SURFACE('',#742,0.00179224350776644);
#593=CYLINDRICAL_SURFACE('',#750,0.00179224350776644);
#594=CYLINDRICAL_SURFACE('',#756,0.001125);
#595=ADVANCED_FACE('',(#520,#521),#584,.T.);
#596=ADVANCED_FACE('',(#522,#523),#585,.F.);
#597=ADVANCED_FACE('',(#524,#525),#147,.T.);
#598=ADVANCED_FACE('',(#526,#527),#148,.F.);
#599=ADVANCED_FACE('',(#528,#529),#146,.T.);
#600=ADVANCED_FACE('',(#530,#531),#149,.T.);
#601=ADVANCED_FACE('',(#532),#150,.T.);
#602=ADVANCED_FACE('',(#533),#151,.T.);
#603=ADVANCED_FACE('',(#534),#152,.F.);
#604=ADVANCED_FACE('',(#535),#153,.F.);
#605=ADVANCED_FACE('',(#536,#537),#586,.F.);
#606=ADVANCED_FACE('',(#538,#539),#154,.T.);
#607=ADVANCED_FACE('',(#540,#541),#155,.F.);
#608=ADVANCED_FACE('',(#542,#543),#587,.T.);
#609=ADVANCED_FACE('',(#544),#156,.T.);
#610=ADVANCED_FACE('',(#545),#157,.F.);
#611=ADVANCED_FACE('',(#546,#547,#548),#158,.F.);
#612=ADVANCED_FACE('',(#549),#159,.F.);
#613=ADVANCED_FACE('',(#550),#160,.F.);
#614=ADVANCED_FACE('',(#551),#161,.F.);
#615=ADVANCED_FACE('',(#552,#553,#554),#162,.T.);
#616=ADVANCED_FACE('',(#555,#556,#557),#163,.F.);
#617=ADVANCED_FACE('',(#558),#164,.F.);
#618=ADVANCED_FACE('',(#559,#560),#588,.T.);
#619=ADVANCED_FACE('',(#561),#165,.F.);
#620=ADVANCED_FACE('',(#562,#563),#589,.T.);
#621=ADVANCED_FACE('',(#564,#565),#590,.T.);
#622=ADVANCED_FACE('',(#566),#166,.T.);
#623=ADVANCED_FACE('',(#567,#568),#591,.T.);
#624=ADVANCED_FACE('',(#569),#167,.T.);
#625=ADVANCED_FACE('',(#570),#168,.T.);
#626=ADVANCED_FACE('',(#571),#169,.T.);
#627=ADVANCED_FACE('',(#572),#592,.T.);
#628=ADVANCED_FACE('',(#573),#170,.T.);
#629=ADVANCED_FACE('',(#574,#575),#171,.F.);
#630=ADVANCED_FACE('',(#576),#172,.F.);
#631=ADVANCED_FACE('',(#577),#173,.F.);
#632=ADVANCED_FACE('',(#578),#593,.T.);
#633=ADVANCED_FACE('',(#579),#174,.F.);
#634=ADVANCED_FACE('',(#580,#581),#175,.T.);
#635=ADVANCED_FACE('',(#582,#583),#594,.T.);
#636=CLOSED_SHELL('',(#595,#596,#597,#598,#599,#600));
#637=CLOSED_SHELL('',(#601,#602,#603,#604,#605,#606,#607));
#638=CLOSED_SHELL('',(#608,#609,#610));
#639=CLOSED_SHELL('',(#611,#612,#613,#614,#615,#616,#617,#618,#619,#620,
#621,#622,#623,#624,#625,#626,#627,#628,#629,#630,#631,#632,#633,#634,#635));
#640=STYLED_ITEM('',(#644),#672);
#641=STYLED_ITEM('',(#645),#673);
#642=STYLED_ITEM('',(#646),#674);
#643=STYLED_ITEM('',(#647),#675);
#644=PRESENTATION_STYLE_ASSIGNMENT((#648));
#645=PRESENTATION_STYLE_ASSIGNMENT((#649));
#646=PRESENTATION_STYLE_ASSIGNMENT((#650));
#647=PRESENTATION_STYLE_ASSIGNMENT((#651));
#648=SURFACE_STYLE_USAGE(.BOTH.,#652);
#649=SURFACE_STYLE_USAGE(.BOTH.,#653);
#650=SURFACE_STYLE_USAGE(.BOTH.,#654);
#651=SURFACE_STYLE_USAGE(.BOTH.,#655);
#652=SURFACE_SIDE_STYLE('',(#656));
#653=SURFACE_SIDE_STYLE('',(#657));
#654=SURFACE_SIDE_STYLE('',(#658));
#655=SURFACE_SIDE_STYLE('',(#659));
#656=SURFACE_STYLE_FILL_AREA(#660);
#657=SURFACE_STYLE_FILL_AREA(#661);
#658=SURFACE_STYLE_FILL_AREA(#662);
#659=SURFACE_STYLE_FILL_AREA(#663);
#660=FILL_AREA_STYLE('',(#664));
#661=FILL_AREA_STYLE('',(#665));
#662=FILL_AREA_STYLE('',(#666));
#663=FILL_AREA_STYLE('',(#667));
#664=FILL_AREA_STYLE_COLOUR('',#668);
#665=FILL_AREA_STYLE_COLOUR('',#669);
#666=FILL_AREA_STYLE_COLOUR('',#670);
#667=FILL_AREA_STYLE_COLOUR('',#671);
#668=COLOUR_RGB('',0.768627450980392,0.886274509803922,0.952941176470588);
#669=COLOUR_RGB('',0.647058823529412,0.647058823529412,0.647058823529412);
#670=COLOUR_RGB('',0.972549019607843,0.529411764705882,0.00392156862745098);
#671=COLOUR_RGB('',0.917647058823529,0.917647058823529,0.917647058823529);
#672=MANIFOLD_SOLID_BREP('Hand Wheel',#636);
#673=MANIFOLD_SOLID_BREP('Lever',#637);
#674=MANIFOLD_SOLID_BREP('Hand Wheel Cover',#638);
#675=MANIFOLD_SOLID_BREP('Hand Wheel Chassis',#639);
#676=SHAPE_DEFINITION_REPRESENTATION(#1144,#681);
#677=SHAPE_DEFINITION_REPRESENTATION(#1145,#682);
#678=SHAPE_DEFINITION_REPRESENTATION(#1147,#683);
#679=SHAPE_DEFINITION_REPRESENTATION(#1149,#684);
#680=SHAPE_DEFINITION_REPRESENTATION(#1153,#685);
#681=SHAPE_REPRESENTATION('Hand_Assembly',(#686,#699,#709,#715,#716,#717,
#757,#758,#759,#760,#761),#1131);
#682=SHAPE_REPRESENTATION('Hand Wheel',(#686),#1132);
#683=SHAPE_REPRESENTATION('Lever',(#686),#1133);
#684=SHAPE_REPRESENTATION('Hand Wheel Cover',(#686),#1134);
#685=SHAPE_REPRESENTATION('Hand Wheel Chassis',(#686),#1135);
#686=AXIS2_PLACEMENT_3D('',#958,#762,#763);
#687=AXIS2_PLACEMENT_3D('',#959,#764,#765);
#688=AXIS2_PLACEMENT_3D('',#960,#766,#767);
#689=AXIS2_PLACEMENT_3D('',#962,#768,#769);
#690=AXIS2_PLACEMENT_3D('',#964,#770,#771);
#691=AXIS2_PLACEMENT_3D('',#965,#772,#773);
#692=AXIS2_PLACEMENT_3D('',#967,#774,#775);
#693=AXIS2_PLACEMENT_3D('',#969,#776,#777);
#694=AXIS2_PLACEMENT_3D('',#970,#778,#779);
#695=AXIS2_PLACEMENT_3D('',#972,#780,#781);
#696=AXIS2_PLACEMENT_3D('',#973,#782,#783);
#697=AXIS2_PLACEMENT_3D('',#974,#784,#785);
#698=AXIS2_PLACEMENT_3D('',#976,#786,#787);
#699=AXIS2_PLACEMENT_3D('',#977,#788,#789);
#700=AXIS2_PLACEMENT_3D('',#978,#790,#791);
#701=AXIS2_PLACEMENT_3D('',#987,#796,#797);
#702=AXIS2_PLACEMENT_3D('',#993,#801,#802);
#703=AXIS2_PLACEMENT_3D('',#999,#806,#807);
#704=AXIS2_PLACEMENT_3D('',#1002,#810,#811);
#705=AXIS2_PLACEMENT_3D('',#1003,#812,#813);
#706=AXIS2_PLACEMENT_3D('',#1005,#814,#815);
#707=AXIS2_PLACEMENT_3D('',#1007,#816,#817);
#708=AXIS2_PLACEMENT_3D('',#1008,#818,#819);
#709=AXIS2_PLACEMENT_3D('',#1009,#820,#821);
#710=AXIS2_PLACEMENT_3D('',#1010,#822,#823);
#711=AXIS2_PLACEMENT_3D('',#1011,#824,#825);
#712=AXIS2_PLACEMENT_3D('',#1013,#826,#827);
#713=AXIS2_PLACEMENT_3D('',#1015,#828,#829);
#714=AXIS2_PLACEMENT_3D('',#1016,#830,#831);
#715=AXIS2_PLACEMENT_3D('',#1017,#832,#833);
#716=AXIS2_PLACEMENT_3D('',#1018,#834,#835);
#717=AXIS2_PLACEMENT_3D('',#1019,#836,#837);
#718=AXIS2_PLACEMENT_3D('',#1020,#838,#839);
#719=AXIS2_PLACEMENT_3D('',#1045,#852,#853);
#720=AXIS2_PLACEMENT_3D('',#1054,#858,#859);
#721=AXIS2_PLACEMENT_3D('',#1057,#862,#863);
#722=AXIS2_PLACEMENT_3D('',#1060,#866,#867);
#723=AXIS2_PLACEMENT_3D('',#1061,#868,#869);
#724=AXIS2_PLACEMENT_3D('',#1063,#870,#871);
#725=AXIS2_PLACEMENT_3D('',#1065,#872,#873);
#726=AXIS2_PLACEMENT_3D('',#1066,#874,#875);
#727=AXIS2_PLACEMENT_3D('',#1068,#876,#877);
#728=AXIS2_PLACEMENT_3D('',#1070,#878,#879);
#729=AXIS2_PLACEMENT_3D('',#1071,#880,#881);
#730=AXIS2_PLACEMENT_3D('',#1073,#882,#883);
#731=AXIS2_PLACEMENT_3D('',#1074,#884,#885);
#732=AXIS2_PLACEMENT_3D('',#1075,#886,#887);
#733=AXIS2_PLACEMENT_3D('',#1077,#888,#889);
#734=AXIS2_PLACEMENT_3D('',#1078,#890,#891);
#735=AXIS2_PLACEMENT_3D('',#1079,#892,#893);
#736=AXIS2_PLACEMENT_3D('',#1081,#894,#895);
#737=AXIS2_PLACEMENT_3D('',#1082,#896,#897);
#738=AXIS2_PLACEMENT_3D('',#1083,#898,#899);
#739=AXIS2_PLACEMENT_3D('',#1085,#900,#901);
#740=AXIS2_PLACEMENT_3D('',#1086,#902,#903);
#741=AXIS2_PLACEMENT_3D('',#1092,#907,#908);
#742=AXIS2_PLACEMENT_3D('',#1098,#912,#913);
#743=AXIS2_PLACEMENT_3D('',#1099,#914,#915);
#744=AXIS2_PLACEMENT_3D('',#1100,#916,#917);
#745=AXIS2_PLACEMENT_3D('',#1101,#918,#919);
#746=AXIS2_PLACEMENT_3D('',#1102,#920,#921);
#747=AXIS2_PLACEMENT_3D('',#1103,#922,#923);
#748=AXIS2_PLACEMENT_3D('',#1105,#924,#925);
#749=AXIS2_PLACEMENT_3D('',#1111,#929,#930);
#750=AXIS2_PLACEMENT_3D('',#1117,#934,#935);
#751=AXIS2_PLACEMENT_3D('',#1118,#936,#937);
#752=AXIS2_PLACEMENT_3D('',#1119,#938,#939);
#753=AXIS2_PLACEMENT_3D('',#1120,#940,#941);
#754=AXIS2_PLACEMENT_3D('',#1121,#942,#943);
#755=AXIS2_PLACEMENT_3D('',#1122,#944,#945);
#756=AXIS2_PLACEMENT_3D('',#1124,#946,#947);
#757=AXIS2_PLACEMENT_3D('',#1125,#948,#949);
#758=AXIS2_PLACEMENT_3D('',#1126,#950,#951);
#759=AXIS2_PLACEMENT_3D('',#1127,#952,#953);
#760=AXIS2_PLACEMENT_3D('',#1128,#954,#955);
#761=AXIS2_PLACEMENT_3D('',#1129,#956,#957);
#762=DIRECTION('',(0.,0.,1.));
#763=DIRECTION('',(1.,0.,0.));
#764=DIRECTION('',(-1.,0.,0.));
#765=DIRECTION('',(0.,0.,1.));
#766=DIRECTION('',(1.,0.,0.));
#767=DIRECTION('',(0.,0.,-1.));
#768=DIRECTION('',(1.,0.,0.));
#769=DIRECTION('',(0.,0.,-1.));
#770=DIRECTION('',(-1.,0.,0.));
#771=DIRECTION('',(0.,0.,1.));
#772=DIRECTION('',(1.,0.,0.));
#773=DIRECTION('',(0.,0.,-1.));
#774=DIRECTION('',(1.,0.,0.));
#775=DIRECTION('',(0.,0.,-1.));
#776=DIRECTION('',(1.,0.,0.));
#777=DIRECTION('',(0.,1.,0.));
#778=DIRECTION('',(1.,0.,0.));
#779=DIRECTION('',(0.,0.,-1.));
#780=DIRECTION('',(1.,0.,0.));
#781=DIRECTION('',(0.,1.,0.));
#782=DIRECTION('',(-1.,0.,0.));
#783=DIRECTION('',(0.,0.,-1.));
#784=DIRECTION('',(1.,0.,0.));
#785=DIRECTION('',(0.,0.,-1.));
#786=DIRECTION('',(1.,0.,0.));
#787=DIRECTION('',(0.,1.,0.));
#788=DIRECTION('',(0.,0.,1.));
#789=DIRECTION('',(1.,0.,0.));
#790=DIRECTION('',(0.,-1.,0.));
#791=DIRECTION('',(0.,0.,-1.));
#792=DIRECTION('',(0.,0.,1.));
#793=DIRECTION('',(-1.,0.,0.));
#794=DIRECTION('',(0.,0.,1.));
#795=DIRECTION('',(-1.,0.,0.));
#796=DIRECTION('',(0.,0.,-1.));
#797=DIRECTION('',(-1.,0.,0.));
#798=DIRECTION('',(0.,-1.,0.));
#799=DIRECTION('',(-1.,0.,0.));
#800=DIRECTION('',(0.,-1.,0.));
#801=DIRECTION('',(0.,-1.,0.));
#802=DIRECTION('',(0.,0.,-1.));
#803=DIRECTION('',(0.,0.,1.));
#804=DIRECTION('',(-1.,0.,0.));
#805=DIRECTION('',(0.,0.,1.));
#806=DIRECTION('',(0.,0.,-1.));
#807=DIRECTION('',(-1.,0.,0.));
#808=DIRECTION('',(0.,-1.,0.));
#809=DIRECTION('',(0.,-1.,0.));
#810=DIRECTION('',(-1.,0.,0.));
#811=DIRECTION('',(0.,0.,1.));
#812=DIRECTION('',(1.,0.,0.));
#813=DIRECTION('',(0.,0.,-1.));
#814=DIRECTION('',(1.,0.,0.));
#815=DIRECTION('',(0.,0.,-1.));
#816=DIRECTION('',(1.,0.,0.));
#817=DIRECTION('',(0.,1.,0.));
#818=DIRECTION('',(1.,0.,0.));
#819=DIRECTION('',(0.,1.,0.));
#820=DIRECTION('',(0.,-0.707106781186548,0.707106781186547));
#821=DIRECTION('',(1.,0.,0.));
#822=DIRECTION('',(-1.,0.,0.));
#823=DIRECTION('',(0.,0.,1.));
#824=DIRECTION('',(1.,0.,0.));
#825=DIRECTION('',(0.,0.,-1.));
#826=DIRECTION('',(1.,0.,0.));
#827=DIRECTION('',(0.,0.,-1.));
#828=DIRECTION('',(1.,0.,0.));
#829=DIRECTION('',(0.,1.,0.));
#830=DIRECTION('',(1.,0.,0.));
#831=DIRECTION('',(0.,1.,0.));
#832=DIRECTION('',(0.,0.,-1.));
#833=DIRECTION('',(-1.,0.,0.));
#834=DIRECTION('',(0.,0.,-1.));
#835=DIRECTION('',(-1.,0.,0.));
#836=DIRECTION('',(0.,0.,-1.));
#837=DIRECTION('',(-1.,0.,0.));
#838=DIRECTION('',(0.,2.10929205278012E-16,-1.));
#839=DIRECTION('',(0.,1.,2.10929205278012E-16));
#840=DIRECTION('',(0.,-1.,-2.02853562569293E-16));
#841=DIRECTION('',(-1.,0.,0.));
#842=DIRECTION('',(0.,-1.,-2.02853562569293E-16));
#843=DIRECTION('',(-1.,0.,0.));
#844=DIRECTION('',(0.,-1.,-2.10929205278012E-16));
#845=DIRECTION('',(-1.,0.,0.));
#846=DIRECTION('',(0.,-1.,-2.10929205278012E-16));
#847=DIRECTION('',(-1.,0.,0.));
#848=DIRECTION('',(0.,-1.,-2.02853562569293E-16));
#849=DIRECTION('',(1.,0.,0.));
#850=DIRECTION('',(0.,-1.,-2.02853562569293E-16));
#851=DIRECTION('',(1.,0.,0.));
#852=DIRECTION('',(0.,0.,1.));
#853=DIRECTION('',(1.,0.,0.));
#854=DIRECTION('',(0.,1.,0.));
#855=DIRECTION('',(-1.,0.,0.));
#856=DIRECTION('',(0.,1.,0.));
#857=DIRECTION('',(-1.,0.,0.));
#858=DIRECTION('',(0.,-1.,0.));
#859=DIRECTION('',(0.,0.,-1.));
#860=DIRECTION('',(0.,0.,1.));
#861=DIRECTION('',(0.,0.,1.));
#862=DIRECTION('',(0.,1.,0.));
#863=DIRECTION('',(0.,0.,1.));
#864=DIRECTION('',(0.,0.,-1.));
#865=DIRECTION('',(0.,0.,-1.));
#866=DIRECTION('',(1.,0.,0.));
#867=DIRECTION('',(0.,1.,0.));
#868=DIRECTION('',(1.,0.,0.));
#869=DIRECTION('',(0.,0.,-1.));
#870=DIRECTION('',(1.,0.,0.));
#871=DIRECTION('',(0.,0.,-1.));
#872=DIRECTION('',(1.,0.,0.));
#873=DIRECTION('',(0.,1.,0.));
#874=DIRECTION('',(1.,0.,0.));
#875=DIRECTION('',(0.,0.,-1.));
#876=DIRECTION('',(1.,0.,0.));
#877=DIRECTION('',(0.,0.,-1.));
#878=DIRECTION('',(1.,0.,0.));
#879=DIRECTION('',(0.,1.,0.));
#880=DIRECTION('',(1.,0.,0.));
#881=DIRECTION('',(0.,0.,-1.));
#882=DIRECTION('',(-1.,0.,0.));
#883=DIRECTION('',(0.,0.,1.));
#884=DIRECTION('',(1.,0.,0.));
#885=DIRECTION('',(0.,1.,0.));
#886=DIRECTION('',(1.,0.,0.));
#887=DIRECTION('',(0.,0.,-1.));
#888=DIRECTION('',(-1.,0.,0.));
#889=DIRECTION('',(0.,0.,1.));
#890=DIRECTION('',(-1.,0.,0.));
#891=DIRECTION('',(0.,0.,1.));
#892=DIRECTION('',(1.,0.,0.));
#893=DIRECTION('',(0.,0.,-1.));
#894=DIRECTION('',(1.,0.,0.));
#895=DIRECTION('',(0.,1.,0.));
#896=DIRECTION('',(-1.,0.,0.));
#897=DIRECTION('',(0.,0.,1.));
#898=DIRECTION('',(1.,0.,0.));
#899=DIRECTION('',(0.,0.,-1.));
#900=DIRECTION('',(1.,0.,0.));
#901=DIRECTION('',(0.,1.,0.));
#902=DIRECTION('',(0.,-0.94566139442661,0.325153082549003));
#903=DIRECTION('',(0.,-0.325153082549003,-0.94566139442661));
#904=DIRECTION('',(0.,0.325153082549003,0.94566139442661));
#905=DIRECTION('',(0.,0.325153082549003,0.94566139442661));
#906=DIRECTION('',(-1.,0.,0.));
#907=DIRECTION('',(0.,0.945661394426609,0.325153082549006));
#908=DIRECTION('',(0.,-0.325153082549006,0.945661394426609));
#909=DIRECTION('',(0.,0.325153082549006,-0.945661394426609));
#910=DIRECTION('',(-1.,0.,0.));
#911=DIRECTION('',(0.,0.325153082549006,-0.945661394426609));
#912=DIRECTION('',(-1.,0.,0.));
#913=DIRECTION('',(0.,0.,1.));
#914=DIRECTION('',(1.,0.,0.));
#915=DIRECTION('',(0.,0.,-1.));
#916=DIRECTION('',(1.,0.,0.));
#917=DIRECTION('',(0.,0.,-1.));
#918=DIRECTION('',(1.,0.,0.));
#919=DIRECTION('',(0.,1.,0.));
#920=DIRECTION('',(1.,0.,0.));
#921=DIRECTION('',(0.,1.,0.));
#922=DIRECTION('',(1.,0.,0.));
#923=DIRECTION('',(0.,0.,-1.));
#924=DIRECTION('',(0.,0.94566139442661,-0.325153082549003));
#925=DIRECTION('',(0.,0.325153082549003,0.94566139442661));
#926=DIRECTION('',(0.,0.325153082549003,0.94566139442661));
#927=DIRECTION('',(1.,0.,0.));
#928=DIRECTION('',(0.,0.325153082549003,0.94566139442661));
#929=DIRECTION('',(0.,-0.945661394426609,-0.325153082549006));
#930=DIRECTION('',(0.,0.325153082549006,-0.945661394426609));
#931=DIRECTION('',(0.,0.325153082549006,-0.945661394426609));
#932=DIRECTION('',(0.,0.325153082549006,-0.945661394426609));
#933=DIRECTION('',(1.,0.,0.));
#934=DIRECTION('',(1.,0.,0.));
#935=DIRECTION('',(0.,0.,-1.));
#936=DIRECTION('',(1.,0.,0.));
#937=DIRECTION('',(0.,0.,-1.));
#938=DIRECTION('',(1.,0.,0.));
#939=DIRECTION('',(0.,0.,-1.));
#940=DIRECTION('',(1.,0.,0.));
#941=DIRECTION('',(0.,1.,0.));
#942=DIRECTION('',(1.,0.,0.));
#943=DIRECTION('',(0.,1.,0.));
#944=DIRECTION('',(1.,0.,0.));
#945=DIRECTION('',(0.,0.,-1.));
#946=DIRECTION('',(-1.,0.,0.));
#947=DIRECTION('',(0.,0.,1.));
#948=DIRECTION('',(0.,0.,1.));
#949=DIRECTION('',(1.,0.,0.));
#950=DIRECTION('',(0.,0.,1.));
#951=DIRECTION('',(1.,0.,0.));
#952=DIRECTION('',(0.,0.,1.));
#953=DIRECTION('',(1.,0.,0.));
#954=DIRECTION('',(0.,0.,-1.));
#955=DIRECTION('',(-1.,0.,0.));
#956=DIRECTION('',(0.,0.,-1.));
#957=DIRECTION('',(-1.,0.,0.));
#958=CARTESIAN_POINT('',(0.,0.,0.));
#959=CARTESIAN_POINT('',(0.0139645973017992,0.0149632545681308,-0.0037664840385507));
#960=CARTESIAN_POINT('',(0.0139645973017992,0.0149632545681308,-0.0037664840385507));
#961=CARTESIAN_POINT('',(0.0139645973017992,0.0149632545681308,-0.00901648403855071));
#962=CARTESIAN_POINT('',(0.0132145973017992,0.0149632545681308,-0.0037664840385507));
#963=CARTESIAN_POINT('',(0.0132145973017992,0.0149632545681308,-0.00901648403855071));
#964=CARTESIAN_POINT('',(0.0139645973017992,0.0149632545681308,-0.00376648403855071));
#965=CARTESIAN_POINT('',(0.0132145973017992,0.0149632545681308,-0.00376648403855071));
#966=CARTESIAN_POINT('',(0.0132145973017992,0.0149632545681308,-0.00676648403855071));
#967=CARTESIAN_POINT('',(0.0147145973017992,0.0149632545681308,-0.00376648403855071));
#968=CARTESIAN_POINT('',(0.0147145973017992,0.0149632545681308,-0.00676648403855071));
#969=CARTESIAN_POINT('',(0.0139645973017992,0.0285810508848144,0.00467918763827783));
#970=CARTESIAN_POINT('',(0.0139645973017992,0.0149632545681308,-0.00376648403855071));
#971=CARTESIAN_POINT('',(0.0139645973017992,0.0149632545681308,-0.00852080876193367));
#972=CARTESIAN_POINT('',(0.0132145973017992,0.0285810508848144,0.00467918763827783));
#973=CARTESIAN_POINT('',(0.0147145973017992,0.0149632545681308,-0.00376648403855071));
#974=CARTESIAN_POINT('',(0.0147145973017992,0.0149632545681308,-0.00376648403855071));
#975=CARTESIAN_POINT('',(0.0147145973017992,0.0149632545681308,-0.00789148403855071));
#976=CARTESIAN_POINT('',(0.0147145973017992,0.0285810508848144,0.00467918763827783));
#977=CARTESIAN_POINT('',(0.0005,0.00226584758445453,-0.00315787377502646));
#978=CARTESIAN_POINT('',(-0.00216040269820076,0.0135810508848144,0.0161248593151064));
#979=CARTESIAN_POINT('',(-0.00516040269820076,0.0135810508848144,0.0161248593151064));
#980=CARTESIAN_POINT('',(-0.00516040269820076,0.0135810508848144,0.0138748593151064));
#981=CARTESIAN_POINT('',(-0.00516040269820076,0.0135810508848144,0.0183748593151064));
#982=CARTESIAN_POINT('',(-0.00216040269820076,0.0135810508848144,0.0138748593151064));
#983=CARTESIAN_POINT('',(-0.00216040269820076,0.0135810508848144,0.0138748593151064));
#984=CARTESIAN_POINT('',(-0.00216040269820076,0.0135810508848144,0.0161248593151064));
#985=CARTESIAN_POINT('',(-0.00216040269820076,0.0135810508848144,0.0183748593151064));
#986=CARTESIAN_POINT('',(-0.00216040269820076,0.0135810508848144,0.0183748593151064));
#987=CARTESIAN_POINT('',(-0.00216040269820076,0.0374154809241373,0.0138748593151064));
#988=CARTESIAN_POINT('',(-0.00516040269820076,0.0374154809241373,0.0138748593151064));
#989=CARTESIAN_POINT('',(-0.00516040269820076,0.0435810508848144,0.0138748593151064));
#990=CARTESIAN_POINT('',(-0.00216040269820076,0.0435810508848144,0.0138748593151064));
#991=CARTESIAN_POINT('',(-0.00216040269820076,0.0435810508848144,0.0138748593151064));
#992=CARTESIAN_POINT('',(-0.00216040269820076,0.0374154809241373,0.0138748593151064));
#993=CARTESIAN_POINT('',(-0.00216040269820076,0.0435810508848144,0.0161248593151064));
#994=CARTESIAN_POINT('',(-0.00516040269820076,0.0435810508848144,0.0161248593151064));
#995=CARTESIAN_POINT('',(-0.00516040269820076,0.0435810508848144,0.0183748593151064));
#996=CARTESIAN_POINT('',(-0.00216040269820076,0.0435810508848144,0.0183748593151064));
#997=CARTESIAN_POINT('',(-0.00216040269820076,0.0435810508848144,0.0183748593151064));
#998=CARTESIAN_POINT('',(-0.00216040269820076,0.0435810508848144,0.0161248593151064));
#999=CARTESIAN_POINT('',(-0.00216040269820076,0.0285810508848144,0.0183748593151064));
#1000=CARTESIAN_POINT('',(-0.00516040269820076,0.0285810508848144,0.0183748593151064));
#1001=CARTESIAN_POINT('',(-0.00216040269820076,0.0285810508848144,0.0183748593151064));
#1002=CARTESIAN_POINT('',(-0.00216040269820076,0.0285810508848144,0.0161248593151063));
#1003=CARTESIAN_POINT('',(-0.00216040269820076,0.0285810508848144,0.0161248593151063));
#1004=CARTESIAN_POINT('',(-0.00216040269820076,0.0285810508848144,0.0149998593151063));
#1005=CARTESIAN_POINT('',(-0.00516040269820076,0.0285810508848144,0.0161248593151063));
#1006=CARTESIAN_POINT('',(-0.00516040269820076,0.0285810508848144,0.0149998593151063));
#1007=CARTESIAN_POINT('',(-0.00216040269820076,0.0285810508848144,0.00467918763827783));
#1008=CARTESIAN_POINT('',(-0.00516040269820076,0.0285810508848144,0.00467918763827783));
#1009=CARTESIAN_POINT('',(0.00975,0.0220390409425697,-0.0186448667214009));
#1010=CARTESIAN_POINT('',(0.0170395973017993,0.0149632545681308,-0.00376648403855071));
#1011=CARTESIAN_POINT('',(0.0170395973017993,0.0149632545681308,-0.00376648403855071));
#1012=CARTESIAN_POINT('',(0.0170395973017993,0.0149632545681308,-0.00789148403855071));
#1013=CARTESIAN_POINT('',(0.0158395973017993,0.0149632545681308,-0.00376648403855071));
#1014=CARTESIAN_POINT('',(0.0158395973017993,0.0149632545681308,-0.00789148403855071));
#1015=CARTESIAN_POINT('',(0.0170395973017993,0.0285810508848144,0.00467918763827783));
#1016=CARTESIAN_POINT('',(0.0158395973017993,0.0285810508848144,0.00467918763827783));
#1017=CARTESIAN_POINT('',(0.0328791946035985,0.0295014402178217,-0.0106908418521279));
#1018=CARTESIAN_POINT('',(0.0121791946035985,0.0295014402178217,-0.0106908418521279));
#1019=CARTESIAN_POINT('',(0.0116791946035985,0.0295014402178217,-0.0106908418521279));
#1020=CARTESIAN_POINT('',(0.0132145973017992,0.0411629026415791,0.00298351596144929));
#1021=CARTESIAN_POINT('',(0.00833959730179925,0.0285810508848144,0.00298351596144929));
#1022=CARTESIAN_POINT('',(0.00833959730179925,0.0349947543983437,0.00298351596144928));
#1023=CARTESIAN_POINT('',(0.00833959730179925,0.0221673473712852,0.00298351596144929));
#1024=CARTESIAN_POINT('',(0.00983959730179925,0.0349947543983437,0.00298351596144928));
#1025=CARTESIAN_POINT('',(0.00983959730179925,0.0349947543983437,0.00298351596144928));
#1026=CARTESIAN_POINT('',(0.00983959730179925,0.0285810508848144,0.00298351596144929));
#1027=CARTESIAN_POINT('',(0.00983959730179925,0.0221673473712852,0.00298351596144929));
#1028=CARTESIAN_POINT('',(0.00983959730179925,0.0221673473712852,0.00298351596144929));
#1029=CARTESIAN_POINT('',(-0.00103540269820075,0.0411629026415791,0.00298351596144929));
#1030=CARTESIAN_POINT('',(-0.00103540269820075,0.0473310508848144,0.00298351596144929));
#1031=CARTESIAN_POINT('',(-0.00103540269820075,0.0098310508848144,0.00298351596144929));
#1032=CARTESIAN_POINT('',(0.0132145973017992,0.0098310508848144,0.00298351596144929));
#1033=CARTESIAN_POINT('',(0.0132145973017992,0.0098310508848144,0.00298351596144929));
#1034=CARTESIAN_POINT('',(0.0132145973017992,0.0411629026415791,0.00298351596144929));
#1035=CARTESIAN_POINT('',(0.0132145973017992,0.0473310508848144,0.00298351596144929));
#1036=CARTESIAN_POINT('',(0.0132145973017992,0.0473310508848144,0.00298351596144929));
#1037=CARTESIAN_POINT('',(0.00233959730179925,0.0285810508848144,0.00298351596144929));
#1038=CARTESIAN_POINT('',(0.00233959730179925,0.0349947543983437,0.00298351596144928));
#1039=CARTESIAN_POINT('',(0.00233959730179925,0.0221673473712852,0.00298351596144929));
#1040=CARTESIAN_POINT('',(0.00233959730179925,0.0349947543983437,0.00298351596144928));
#1041=CARTESIAN_POINT('',(0.00383959730179925,0.0349947543983437,0.00298351596144928));
#1042=CARTESIAN_POINT('',(0.00383959730179925,0.0285810508848144,0.00298351596144929));
#1043=CARTESIAN_POINT('',(0.00383959730179925,0.0221673473712852,0.00298351596144929));
#1044=CARTESIAN_POINT('',(0.00233959730179925,0.0221673473712852,0.00298351596144929));
#1045=CARTESIAN_POINT('',(0.0132145973017992,0.0105600354193852,-0.00751648403855072));
#1046=CARTESIAN_POINT('',(-0.00103540269820075,0.0105600354193852,-0.00751648403855072));
#1047=CARTESIAN_POINT('',(-0.00103540269820075,0.0098310508848144,-0.00751648403855072));
#1048=CARTESIAN_POINT('',(-0.00103540269820075,0.0473310508848144,-0.00751648403855072));
#1049=CARTESIAN_POINT('',(0.0132145973017992,0.0473310508848144,-0.00751648403855072));
#1050=CARTESIAN_POINT('',(0.0132145973017992,0.0473310508848144,-0.00751648403855072));
#1051=CARTESIAN_POINT('',(0.0132145973017992,0.0105600354193852,-0.00751648403855072));
#1052=CARTESIAN_POINT('',(0.0132145973017992,0.0098310508848144,-0.00751648403855072));
#1053=CARTESIAN_POINT('',(0.0132145973017992,0.0098310508848144,-0.00751648403855072));
#1054=CARTESIAN_POINT('',(0.0132145973017992,0.0473310508848144,0.000161459302342658));
#1055=CARTESIAN_POINT('',(-0.00103540269820075,0.0473310508848144,0.000161459302342658));
#1056=CARTESIAN_POINT('',(0.0132145973017992,0.0473310508848144,0.000161459302342658));
#1057=CARTESIAN_POINT('',(0.0132145973017992,0.0098310508848144,-0.00619442737944408));
#1058=CARTESIAN_POINT('',(-0.00103540269820075,0.0098310508848144,-0.00619442737944408));
#1059=CARTESIAN_POINT('',(0.0132145973017992,0.0098310508848144,-0.00619442737944408));
#1060=CARTESIAN_POINT('',(0.0132145973017992,0.0285810508848144,0.00467918763827783));
#1061=CARTESIAN_POINT('',(0.0132145973017992,0.0149632545681308,-0.00376648403855071));
#1062=CARTESIAN_POINT('',(0.0132145973017992,0.0149632545681308,-0.00639148403855071));
#1063=CARTESIAN_POINT('',(0.0132145973017992,0.0421988472014979,-0.0037664840385507));
#1064=CARTESIAN_POINT('',(0.0132145973017992,0.0421988472014979,-0.00639148403855071));
#1065=CARTESIAN_POINT('',(-0.00103540269820075,0.0285810508848144,0.00467918763827783));
#1066=CARTESIAN_POINT('',(-0.00103540269820075,0.0149632545681308,-0.00376648403855071));
#1067=CARTESIAN_POINT('',(-0.00103540269820075,0.0149632545681308,-0.00639148403855071));
#1068=CARTESIAN_POINT('',(-0.00103540269820075,0.0421988472014979,-0.0037664840385507));
#1069=CARTESIAN_POINT('',(-0.00103540269820075,0.0421988472014979,-0.00639148403855071));
#1070=CARTESIAN_POINT('',(-0.00366040269820076,0.0285810508848144,0.00467918763827783));
#1071=CARTESIAN_POINT('',(-0.00366040269820076,0.0421988472014979,-0.0037664840385507));
#1072=CARTESIAN_POINT('',(-0.00366040269820076,0.0421988472014979,-0.00639148403855071));
#1073=CARTESIAN_POINT('',(0.0158395973017993,0.0421988472014979,-0.0037664840385507));
#1074=CARTESIAN_POINT('',(-0.00366040269820076,0.0285810508848144,0.00467918763827783));
#1075=CARTESIAN_POINT('',(-0.00366040269820076,0.0149632545681308,-0.00376648403855071));
#1076=CARTESIAN_POINT('',(-0.00366040269820076,0.0149632545681308,-0.00639148403855071));
#1077=CARTESIAN_POINT('',(0.0158395973017993,0.0149632545681308,-0.00376648403855071));
#1078=CARTESIAN_POINT('',(0.0158395973017993,0.0421988472014979,-0.0037664840385507));
#1079=CARTESIAN_POINT('',(0.0158395973017993,0.0421988472014979,-0.0037664840385507));
#1080=CARTESIAN_POINT('',(0.0158395973017993,0.0421988472014979,-0.00639148403855071));
#1081=CARTESIAN_POINT('',(0.0158395973017993,0.0285810508848144,0.00467918763827783));
#1082=CARTESIAN_POINT('',(0.0158395973017993,0.0149632545681308,-0.00376648403855071));
#1083=CARTESIAN_POINT('',(0.0158395973017993,0.0149632545681308,-0.00376648403855071));
#1084=CARTESIAN_POINT('',(0.0158395973017993,0.0149632545681308,-0.00639148403855071));
#1085=CARTESIAN_POINT('',(0.0158395973017993,0.0285810508848144,0.00467918763827783));
#1086=CARTESIAN_POINT('',(0.00983959730179925,0.0263991930981383,0.0152912360657207));
#1087=CARTESIAN_POINT('',(0.00833959730179925,0.0263991930981383,0.0152912360657207));
#1088=CARTESIAN_POINT('',(0.00833959730179925,0.0268861953901079,0.0167076128163351));
#1089=CARTESIAN_POINT('',(0.00983959730179925,0.0263991930981383,0.0152912360657207));
#1090=CARTESIAN_POINT('',(0.00983959730179925,0.0268861953901079,0.0167076128163351));
#1091=CARTESIAN_POINT('',(0.00983959730179925,0.0268861953901079,0.0167076128163351));
#1092=CARTESIAN_POINT('',(0.00983959730179925,0.0307629086714905,0.0152912360657207));
#1093=CARTESIAN_POINT('',(0.00833959730179925,0.0307629086714905,0.0152912360657207));
#1094=CARTESIAN_POINT('',(0.00833959730179925,0.0302759063795209,0.0167076128163351));
#1095=CARTESIAN_POINT('',(0.00983959730179925,0.0302759063795209,0.0167076128163351));
#1096=CARTESIAN_POINT('',(0.00983959730179925,0.0302759063795209,0.0167076128163351));
#1097=CARTESIAN_POINT('',(0.00983959730179925,0.0307629086714905,0.0152912360657207));
#1098=CARTESIAN_POINT('',(0.00983959730179925,0.0285810508848144,0.0161248593151063));
#1099=CARTESIAN_POINT('',(0.00833959730179925,0.0285810508848144,0.0161248593151063));
#1100=CARTESIAN_POINT('',(0.00983959730179925,0.0285810508848144,0.0161248593151063));
#1101=CARTESIAN_POINT('',(0.00983959730179925,0.0285810508848144,0.00467918763827783));
#1102=CARTESIAN_POINT('',(0.00833959730179925,0.0285810508848144,0.00467918763827783));
#1103=CARTESIAN_POINT('',(0.00833959730179925,0.0285810508848144,0.0161248593151063));
#1104=CARTESIAN_POINT('',(0.00833959730179925,0.0285810508848144,0.0149998593151063));
#1105=CARTESIAN_POINT('',(0.00233959730179925,0.0263991930981383,0.0152912360657207));
#1106=CARTESIAN_POINT('',(0.00383959730179925,0.0263991930981383,0.0152912360657207));
#1107=CARTESIAN_POINT('',(0.00383959730179925,0.0268861953901079,0.0167076128163351));
#1108=CARTESIAN_POINT('',(0.00233959730179925,0.0268861953901079,0.0167076128163351));
#1109=CARTESIAN_POINT('',(0.00233959730179925,0.0268861953901079,0.0167076128163351));
#1110=CARTESIAN_POINT('',(0.00233959730179925,0.0263991930981383,0.0152912360657207));
#1111=CARTESIAN_POINT('',(0.00233959730179925,0.0307629086714905,0.0152912360657207));
#1112=CARTESIAN_POINT('',(0.00383959730179925,0.0307629086714905,0.0152912360657207));
#1113=CARTESIAN_POINT('',(0.00383959730179925,0.0302759063795209,0.0167076128163351));
#1114=CARTESIAN_POINT('',(0.00233959730179925,0.0307629086714905,0.0152912360657207));
#1115=CARTESIAN_POINT('',(0.00233959730179925,0.0302759063795209,0.0167076128163351));
#1116=CARTESIAN_POINT('',(0.00233959730179925,0.0302759063795209,0.0167076128163351));
#1117=CARTESIAN_POINT('',(0.00233959730179925,0.0285810508848144,0.0161248593151063));
#1118=CARTESIAN_POINT('',(0.00383959730179925,0.0285810508848144,0.0161248593151063));
#1119=CARTESIAN_POINT('',(0.00233959730179925,0.0285810508848144,0.0161248593151063));
#1120=CARTESIAN_POINT('',(0.00233959730179925,0.0285810508848144,0.00467918763827783));
#1121=CARTESIAN_POINT('',(0.00383959730179925,0.0285810508848144,0.00467918763827783));
#1122=CARTESIAN_POINT('',(0.00383959730179925,0.0285810508848144,0.0161248593151063));
#1123=CARTESIAN_POINT('',(0.00383959730179925,0.0285810508848144,0.0149998593151063));
#1124=CARTESIAN_POINT('',(0.00983959730179925,0.0285810508848144,0.0161248593151063));
#1125=CARTESIAN_POINT('',(0.,0.00226584758445454,-0.00315787377502645));
#1126=CARTESIAN_POINT('',(0.0005,0.0295014402178217,-0.00315787377502645));
#1127=CARTESIAN_POINT('',(0.,0.00226584758445454,-0.00315787377502645));
#1128=CARTESIAN_POINT('',(0.0116791946035985,0.00226584758445453,-0.0106908418521279));
#1129=CARTESIAN_POINT('',(0.0121791946035985,0.00226584758445454,-0.0106908418521279));
#1130=MECHANICAL_DESIGN_GEOMETRIC_PRESENTATION_REPRESENTATION('',(#640,
#641,#642,#643),#1131);
#1131=(
GEOMETRIC_REPRESENTATION_CONTEXT(3)
GLOBAL_UNCERTAINTY_ASSIGNED_CONTEXT((#1136))
GLOBAL_UNIT_ASSIGNED_CONTEXT((#1143,#1142,#1141))
REPRESENTATION_CONTEXT('Hand_Assembly','TOP_LEVEL_ASSEMBLY_PART')
);
#1132=(
GEOMETRIC_REPRESENTATION_CONTEXT(3)
GLOBAL_UNCERTAINTY_ASSIGNED_CONTEXT((#1137))
GLOBAL_UNIT_ASSIGNED_CONTEXT((#1143,#1142,#1141))
REPRESENTATION_CONTEXT('Hand Wheel','COMPONENT_PART')
);
#1133=(
GEOMETRIC_REPRESENTATION_CONTEXT(3)
GLOBAL_UNCERTAINTY_ASSIGNED_CONTEXT((#1138))
GLOBAL_UNIT_ASSIGNED_CONTEXT((#1143,#1142,#1141))
REPRESENTATION_CONTEXT('Lever','COMPONENT_PART')
);
#1134=(
GEOMETRIC_REPRESENTATION_CONTEXT(3)
GLOBAL_UNCERTAINTY_ASSIGNED_CONTEXT((#1139))
GLOBAL_UNIT_ASSIGNED_CONTEXT((#1143,#1142,#1141))
REPRESENTATION_CONTEXT('Hand Wheel Cover','COMPONENT_PART')
);
#1135=(
GEOMETRIC_REPRESENTATION_CONTEXT(3)
GLOBAL_UNCERTAINTY_ASSIGNED_CONTEXT((#1140))
GLOBAL_UNIT_ASSIGNED_CONTEXT((#1143,#1142,#1141))
REPRESENTATION_CONTEXT('Hand Wheel Chassis','COMPONENT_PART')
);
#1136=UNCERTAINTY_MEASURE_WITH_UNIT(LENGTH_MEASURE(1.E-8),#1143,
'DISTANCE_ACCURACY_VALUE','Maximum Tolerance applied to model');
#1137=UNCERTAINTY_MEASURE_WITH_UNIT(LENGTH_MEASURE(1.E-8),#1143,
'DISTANCE_ACCURACY_VALUE','Maximum Tolerance applied to model');
#1138=UNCERTAINTY_MEASURE_WITH_UNIT(LENGTH_MEASURE(1.E-8),#1143,
'DISTANCE_ACCURACY_VALUE','Maximum Tolerance applied to model');
#1139=UNCERTAINTY_MEASURE_WITH_UNIT(LENGTH_MEASURE(1.E-8),#1143,
'DISTANCE_ACCURACY_VALUE','Maximum Tolerance applied to model');
#1140=UNCERTAINTY_MEASURE_WITH_UNIT(LENGTH_MEASURE(1.E-8),#1143,
'DISTANCE_ACCURACY_VALUE','Maximum Tolerance applied to model');
#1141=(
NAMED_UNIT(*)
SI_UNIT($,.STERADIAN.)
SOLID_ANGLE_UNIT()
);
#1142=(
NAMED_UNIT(*)
PLANE_ANGLE_UNIT()
SI_UNIT($,.RADIAN.)
);
#1143=(
LENGTH_UNIT()
NAMED_UNIT(*)
SI_UNIT($,.METRE.)
);
#1144=PRODUCT_DEFINITION_SHAPE('','',#1159);
#1145=PRODUCT_DEFINITION_SHAPE('','',#1160);
#1146=PRODUCT_DEFINITION_SHAPE(' ','NAUO PRDDFN',#108);
#1147=PRODUCT_DEFINITION_SHAPE('','',#1161);
#1148=PRODUCT_DEFINITION_SHAPE(' ','NAUO PRDDFN',#109);
#1149=PRODUCT_DEFINITION_SHAPE('','',#1162);
#1150=PRODUCT_DEFINITION_SHAPE(' ','NAUO PRDDFN',#110);
#1151=PRODUCT_DEFINITION_SHAPE(' ','NAUO PRDDFN',#111);
#1152=PRODUCT_DEFINITION_SHAPE(' ','NAUO PRDDFN',#112);
#1153=PRODUCT_DEFINITION_SHAPE('','',#1163);
#1154=PRODUCT_DEFINITION_SHAPE(' ','NAUO PRDDFN',#113);
#1155=PRODUCT_DEFINITION_SHAPE(' ','NAUO PRDDFN',#114);
#1156=PRODUCT_DEFINITION_SHAPE(' ','NAUO PRDDFN',#115);
#1157=PRODUCT_DEFINITION_SHAPE(' ','NAUO PRDDFN',#116);
#1158=PRODUCT_DEFINITION_SHAPE(' ','NAUO PRDDFN',#117);
#1159=PRODUCT_DEFINITION('','',#1169,#1164);
#1160=PRODUCT_DEFINITION('','',#1170,#1165);
#1161=PRODUCT_DEFINITION('','',#1171,#1166);
#1162=PRODUCT_DEFINITION('','',#1172,#1167);
#1163=PRODUCT_DEFINITION('','',#1173,#1168);
#1164=PRODUCT_DEFINITION_CONTEXT('',#1195,'design');
#1165=PRODUCT_DEFINITION_CONTEXT('',#1195,'design');
#1166=PRODUCT_DEFINITION_CONTEXT('',#1195,'design');
#1167=PRODUCT_DEFINITION_CONTEXT('',#1195,'design');
#1168=PRODUCT_DEFINITION_CONTEXT('',#1195,'design');
#1169=PRODUCT_DEFINITION_FORMATION_WITH_SPECIFIED_SOURCE('','',#1179,
 .NOT_KNOWN.);
#1170=PRODUCT_DEFINITION_FORMATION_WITH_SPECIFIED_SOURCE('','',#1180,
 .NOT_KNOWN.);
#1171=PRODUCT_DEFINITION_FORMATION_WITH_SPECIFIED_SOURCE('','',#1181,
 .NOT_KNOWN.);
#1172=PRODUCT_DEFINITION_FORMATION_WITH_SPECIFIED_SOURCE('','',#1182,
 .NOT_KNOWN.);
#1173=PRODUCT_DEFINITION_FORMATION_WITH_SPECIFIED_SOURCE('','',#1183,
 .NOT_KNOWN.);
#1174=PRODUCT_RELATED_PRODUCT_CATEGORY('','',(#1179));
#1175=PRODUCT_RELATED_PRODUCT_CATEGORY('','',(#1180));
#1176=PRODUCT_RELATED_PRODUCT_CATEGORY('','',(#1181));
#1177=PRODUCT_RELATED_PRODUCT_CATEGORY('','',(#1182));
#1178=PRODUCT_RELATED_PRODUCT_CATEGORY('','',(#1183));
#1179=PRODUCT('Hand_Assembly','Hand_Assembly','Hand_Assembly',(#1189));
#1180=PRODUCT('Hand Wheel','Hand Wheel','Hand Wheel',(#1190));
#1181=PRODUCT('Lever','Lever','Lever',(#1191));
#1182=PRODUCT('Hand Wheel Cover','Hand Wheel Cover','Hand Wheel Cover',
(#1192));
#1183=PRODUCT('Hand Wheel Chassis','Hand Wheel Chassis',
'Hand Wheel Chassis',(#1193));
#1184=PRODUCT_CATEGORY('','');
#1185=PRODUCT_CATEGORY('','');
#1186=PRODUCT_CATEGORY('','');
#1187=PRODUCT_CATEGORY('','');
#1188=PRODUCT_CATEGORY('','');
#1189=PRODUCT_CONTEXT('',#1195,'mechanical');
#1190=PRODUCT_CONTEXT('',#1195,'mechanical');
#1191=PRODUCT_CONTEXT('',#1195,'mechanical');
#1192=PRODUCT_CONTEXT('',#1195,'mechanical');
#1193=PRODUCT_CONTEXT('',#1195,'mechanical');
#1194=APPLICATION_PROTOCOL_DEFINITION('international standard',
'ap242_managed_model_based_3d_engineering',2020,#1195);
#1195=APPLICATION_CONTEXT('managed model based 3d engineering');
ENDSEC;
END-ISO-10303-21;
