ISO-10303-21;
HEADER;
/* Generated by software containing ST-Developer
 * from STEP Tools, Inc. (www.steptools.com) 
 */
/* OPTION: using custom renumber hook */

FILE_DESCRIPTION(
/* description */ ('STEP AP242 Edition 2',
'CAx-IF Rec.Pracs.---Representation and Presentation of Product Manufa
cturing Information (PMI)---4.0---2014-10-13',
'CAx-IF Rec.Pracs.---3D Tessellated Geometry---0.4---2014-09-14','2;1',
'CAx-IF Rec.Pracs.---User Defined Attributes---1.5---2016-08-15'),
/* implementation_level */ '2;1');

FILE_NAME(
/* name */ 'Cargo_Plate - Container',
/* time_stamp */ '2026-06-19T12:12:14Z',
/* author */ (''),
/* organization */ (''),
/* preprocessor_version */ 'ST-DEVELOPER v20',
/* originating_system */ 'ONSHAPE BY PTC INC, 1.216',
/* authorisation */ '  ');

FILE_SCHEMA (('AP242_MANAGED_MODEL_BASED_3D_ENGINEERING_MIM_LF { 1 0 10303 442 3 1 4 }'));
ENDSEC;

DATA;
#10=SHAPE_REPRESENTATION_RELATIONSHIP('','',#979,#11);
#11=ADVANCED_BREP_SHAPE_REPRESENTATION('',(#977),#1629);
#12=SPHERICAL_SURFACE('',#1065,0.00075);
#13=SPHERICAL_SURFACE('',#1066,0.00075);
#14=SPHERICAL_SURFACE('',#1067,0.00075);
#15=SPHERICAL_SURFACE('',#1068,0.00075);
#16=CYLINDRICAL_SURFACE('',#1016,0.0015);
#17=CYLINDRICAL_SURFACE('',#1018,0.0015);
#18=CYLINDRICAL_SURFACE('',#1020,0.0015);
#19=CYLINDRICAL_SURFACE('',#1022,0.0015);
#20=CYLINDRICAL_SURFACE('',#1024,0.0015);
#21=CYLINDRICAL_SURFACE('',#1026,0.0015);
#22=CYLINDRICAL_SURFACE('',#1028,0.0015);
#23=CYLINDRICAL_SURFACE('',#1030,0.0015);
#24=CYLINDRICAL_SURFACE('',#1057,0.0015);
#25=CYLINDRICAL_SURFACE('',#1058,0.0015);
#26=CYLINDRICAL_SURFACE('',#1059,0.0015);
#27=CYLINDRICAL_SURFACE('',#1060,0.0015);
#28=CYLINDRICAL_SURFACE('',#1061,0.0015);
#29=CYLINDRICAL_SURFACE('',#1062,0.0015);
#30=CYLINDRICAL_SURFACE('',#1063,0.0015);
#31=CYLINDRICAL_SURFACE('',#1064,0.0015);
#32=CIRCLE('',#998,0.0015);
#33=CIRCLE('',#999,0.0015);
#34=CIRCLE('',#1000,0.0015);
#35=CIRCLE('',#1001,0.0015);
#36=CIRCLE('',#1002,0.0015);
#37=CIRCLE('',#1003,0.0015);
#38=CIRCLE('',#1004,0.0015);
#39=CIRCLE('',#1005,0.0015);
#40=CIRCLE('',#1007,0.0015);
#41=CIRCLE('',#1008,0.0015);
#42=CIRCLE('',#1009,0.0015);
#43=CIRCLE('',#1010,0.0015);
#44=CIRCLE('',#1011,0.0015);
#45=CIRCLE('',#1012,0.0015);
#46=CIRCLE('',#1013,0.0015);
#47=CIRCLE('',#1014,0.0015);
#48=CIRCLE('',#1017,0.0015);
#49=CIRCLE('',#1019,0.0015);
#50=CIRCLE('',#1021,0.0015);
#51=CIRCLE('',#1023,0.0015);
#52=CIRCLE('',#1025,0.0015);
#53=CIRCLE('',#1027,0.0015);
#54=CIRCLE('',#1029,0.0015);
#55=CIRCLE('',#1031,0.0015);
#56=CIRCLE('',#1038,0.00075);
#57=CIRCLE('',#1039,0.00075);
#58=CIRCLE('',#1040,0.00075);
#59=CIRCLE('',#1041,0.00075);
#60=CIRCLE('',#1047,0.0015);
#61=CIRCLE('',#1048,0.0015);
#62=CIRCLE('',#1049,0.0015);
#63=CIRCLE('',#1050,0.0015);
#64=CIRCLE('',#1051,0.0015);
#65=CIRCLE('',#1052,0.0015);
#66=CIRCLE('',#1053,0.0015);
#67=CIRCLE('',#1054,0.0015);
#68=ORIENTED_EDGE('',*,*,#340,.T.);
#69=ORIENTED_EDGE('',*,*,#341,.T.);
#70=ORIENTED_EDGE('',*,*,#342,.T.);
#71=ORIENTED_EDGE('',*,*,#343,.T.);
#72=ORIENTED_EDGE('',*,*,#344,.F.);
#73=ORIENTED_EDGE('',*,*,#345,.T.);
#74=ORIENTED_EDGE('',*,*,#346,.T.);
#75=ORIENTED_EDGE('',*,*,#347,.T.);
#76=ORIENTED_EDGE('',*,*,#348,.F.);
#77=ORIENTED_EDGE('',*,*,#349,.T.);
#78=ORIENTED_EDGE('',*,*,#350,.T.);
#79=ORIENTED_EDGE('',*,*,#351,.T.);
#80=ORIENTED_EDGE('',*,*,#352,.F.);
#81=ORIENTED_EDGE('',*,*,#353,.T.);
#82=ORIENTED_EDGE('',*,*,#354,.T.);
#83=ORIENTED_EDGE('',*,*,#355,.T.);
#84=ORIENTED_EDGE('',*,*,#356,.F.);
#85=ORIENTED_EDGE('',*,*,#357,.T.);
#86=ORIENTED_EDGE('',*,*,#358,.T.);
#87=ORIENTED_EDGE('',*,*,#359,.T.);
#88=ORIENTED_EDGE('',*,*,#360,.F.);
#89=ORIENTED_EDGE('',*,*,#361,.T.);
#90=ORIENTED_EDGE('',*,*,#362,.T.);
#91=ORIENTED_EDGE('',*,*,#363,.T.);
#92=ORIENTED_EDGE('',*,*,#364,.F.);
#93=ORIENTED_EDGE('',*,*,#365,.T.);
#94=ORIENTED_EDGE('',*,*,#366,.T.);
#95=ORIENTED_EDGE('',*,*,#367,.T.);
#96=ORIENTED_EDGE('',*,*,#368,.F.);
#97=ORIENTED_EDGE('',*,*,#369,.T.);
#98=ORIENTED_EDGE('',*,*,#370,.T.);
#99=ORIENTED_EDGE('',*,*,#371,.T.);
#100=ORIENTED_EDGE('',*,*,#372,.F.);
#101=ORIENTED_EDGE('',*,*,#373,.F.);
#102=ORIENTED_EDGE('',*,*,#374,.T.);
#103=ORIENTED_EDGE('',*,*,#375,.F.);
#104=ORIENTED_EDGE('',*,*,#376,.F.);
#105=ORIENTED_EDGE('',*,*,#377,.T.);
#106=ORIENTED_EDGE('',*,*,#378,.F.);
#107=ORIENTED_EDGE('',*,*,#379,.F.);
#108=ORIENTED_EDGE('',*,*,#380,.F.);
#109=ORIENTED_EDGE('',*,*,#381,.T.);
#110=ORIENTED_EDGE('',*,*,#382,.F.);
#111=ORIENTED_EDGE('',*,*,#383,.F.);
#112=ORIENTED_EDGE('',*,*,#384,.F.);
#113=ORIENTED_EDGE('',*,*,#385,.F.);
#114=ORIENTED_EDGE('',*,*,#386,.T.);
#115=ORIENTED_EDGE('',*,*,#387,.F.);
#116=ORIENTED_EDGE('',*,*,#388,.F.);
#117=ORIENTED_EDGE('',*,*,#389,.F.);
#118=ORIENTED_EDGE('',*,*,#390,.T.);
#119=ORIENTED_EDGE('',*,*,#391,.F.);
#120=ORIENTED_EDGE('',*,*,#392,.F.);
#121=ORIENTED_EDGE('',*,*,#393,.F.);
#122=ORIENTED_EDGE('',*,*,#394,.T.);
#123=ORIENTED_EDGE('',*,*,#395,.F.);
#124=ORIENTED_EDGE('',*,*,#396,.F.);
#125=ORIENTED_EDGE('',*,*,#397,.F.);
#126=ORIENTED_EDGE('',*,*,#398,.T.);
#127=ORIENTED_EDGE('',*,*,#399,.F.);
#128=ORIENTED_EDGE('',*,*,#400,.F.);
#129=ORIENTED_EDGE('',*,*,#401,.F.);
#130=ORIENTED_EDGE('',*,*,#402,.F.);
#131=ORIENTED_EDGE('',*,*,#403,.F.);
#132=ORIENTED_EDGE('',*,*,#404,.F.);
#133=ORIENTED_EDGE('',*,*,#340,.F.);
#134=ORIENTED_EDGE('',*,*,#405,.F.);
#135=ORIENTED_EDGE('',*,*,#406,.F.);
#136=ORIENTED_EDGE('',*,*,#407,.T.);
#137=ORIENTED_EDGE('',*,*,#408,.F.);
#138=ORIENTED_EDGE('',*,*,#409,.F.);
#139=ORIENTED_EDGE('',*,*,#369,.F.);
#140=ORIENTED_EDGE('',*,*,#410,.F.);
#141=ORIENTED_EDGE('',*,*,#365,.F.);
#142=ORIENTED_EDGE('',*,*,#411,.F.);
#143=ORIENTED_EDGE('',*,*,#361,.F.);
#144=ORIENTED_EDGE('',*,*,#412,.F.);
#145=ORIENTED_EDGE('',*,*,#357,.F.);
#146=ORIENTED_EDGE('',*,*,#413,.F.);
#147=ORIENTED_EDGE('',*,*,#353,.F.);
#148=ORIENTED_EDGE('',*,*,#414,.F.);
#149=ORIENTED_EDGE('',*,*,#349,.F.);
#150=ORIENTED_EDGE('',*,*,#415,.F.);
#151=ORIENTED_EDGE('',*,*,#345,.F.);
#152=ORIENTED_EDGE('',*,*,#416,.F.);
#153=ORIENTED_EDGE('',*,*,#376,.T.);
#154=ORIENTED_EDGE('',*,*,#417,.F.);
#155=ORIENTED_EDGE('',*,*,#380,.T.);
#156=ORIENTED_EDGE('',*,*,#418,.F.);
#157=ORIENTED_EDGE('',*,*,#419,.T.);
#158=ORIENTED_EDGE('',*,*,#420,.T.);
#159=ORIENTED_EDGE('',*,*,#421,.T.);
#160=ORIENTED_EDGE('',*,*,#422,.F.);
#161=ORIENTED_EDGE('',*,*,#401,.T.);
#162=ORIENTED_EDGE('',*,*,#423,.F.);
#163=ORIENTED_EDGE('',*,*,#397,.T.);
#164=ORIENTED_EDGE('',*,*,#424,.F.);
#165=ORIENTED_EDGE('',*,*,#393,.T.);
#166=ORIENTED_EDGE('',*,*,#425,.F.);
#167=ORIENTED_EDGE('',*,*,#389,.T.);
#168=ORIENTED_EDGE('',*,*,#426,.F.);
#169=ORIENTED_EDGE('',*,*,#385,.T.);
#170=ORIENTED_EDGE('',*,*,#427,.F.);
#171=ORIENTED_EDGE('',*,*,#373,.T.);
#172=ORIENTED_EDGE('',*,*,#428,.F.);
#173=ORIENTED_EDGE('',*,*,#408,.T.);
#174=ORIENTED_EDGE('',*,*,#429,.T.);
#175=ORIENTED_EDGE('',*,*,#430,.T.);
#176=ORIENTED_EDGE('',*,*,#431,.F.);
#177=ORIENTED_EDGE('',*,*,#370,.F.);
#178=ORIENTED_EDGE('',*,*,#409,.T.);
#179=ORIENTED_EDGE('',*,*,#428,.T.);
#180=ORIENTED_EDGE('',*,*,#432,.F.);
#181=ORIENTED_EDGE('',*,*,#366,.F.);
#182=ORIENTED_EDGE('',*,*,#410,.T.);
#183=ORIENTED_EDGE('',*,*,#368,.T.);
#184=ORIENTED_EDGE('',*,*,#433,.F.);
#185=ORIENTED_EDGE('',*,*,#362,.F.);
#186=ORIENTED_EDGE('',*,*,#411,.T.);
#187=ORIENTED_EDGE('',*,*,#364,.T.);
#188=ORIENTED_EDGE('',*,*,#434,.F.);
#189=ORIENTED_EDGE('',*,*,#358,.F.);
#190=ORIENTED_EDGE('',*,*,#412,.T.);
#191=ORIENTED_EDGE('',*,*,#360,.T.);
#192=ORIENTED_EDGE('',*,*,#435,.F.);
#193=ORIENTED_EDGE('',*,*,#354,.F.);
#194=ORIENTED_EDGE('',*,*,#413,.T.);
#195=ORIENTED_EDGE('',*,*,#356,.T.);
#196=ORIENTED_EDGE('',*,*,#436,.F.);
#197=ORIENTED_EDGE('',*,*,#350,.F.);
#198=ORIENTED_EDGE('',*,*,#414,.T.);
#199=ORIENTED_EDGE('',*,*,#352,.T.);
#200=ORIENTED_EDGE('',*,*,#437,.F.);
#201=ORIENTED_EDGE('',*,*,#346,.F.);
#202=ORIENTED_EDGE('',*,*,#415,.T.);
#203=ORIENTED_EDGE('',*,*,#348,.T.);
#204=ORIENTED_EDGE('',*,*,#438,.F.);
#205=ORIENTED_EDGE('',*,*,#341,.F.);
#206=ORIENTED_EDGE('',*,*,#404,.T.);
#207=ORIENTED_EDGE('',*,*,#344,.T.);
#208=ORIENTED_EDGE('',*,*,#371,.F.);
#209=ORIENTED_EDGE('',*,*,#431,.T.);
#210=ORIENTED_EDGE('',*,*,#430,.F.);
#211=ORIENTED_EDGE('',*,*,#439,.F.);
#212=ORIENTED_EDGE('',*,*,#440,.F.);
#213=ORIENTED_EDGE('',*,*,#441,.T.);
#214=ORIENTED_EDGE('',*,*,#342,.F.);
#215=ORIENTED_EDGE('',*,*,#438,.T.);
#216=ORIENTED_EDGE('',*,*,#347,.F.);
#217=ORIENTED_EDGE('',*,*,#437,.T.);
#218=ORIENTED_EDGE('',*,*,#351,.F.);
#219=ORIENTED_EDGE('',*,*,#436,.T.);
#220=ORIENTED_EDGE('',*,*,#355,.F.);
#221=ORIENTED_EDGE('',*,*,#435,.T.);
#222=ORIENTED_EDGE('',*,*,#359,.F.);
#223=ORIENTED_EDGE('',*,*,#434,.T.);
#224=ORIENTED_EDGE('',*,*,#363,.F.);
#225=ORIENTED_EDGE('',*,*,#433,.T.);
#226=ORIENTED_EDGE('',*,*,#367,.F.);
#227=ORIENTED_EDGE('',*,*,#432,.T.);
#228=ORIENTED_EDGE('',*,*,#343,.F.);
#229=ORIENTED_EDGE('',*,*,#441,.F.);
#230=ORIENTED_EDGE('',*,*,#442,.F.);
#231=ORIENTED_EDGE('',*,*,#405,.T.);
#232=ORIENTED_EDGE('',*,*,#429,.F.);
#233=ORIENTED_EDGE('',*,*,#407,.F.);
#234=ORIENTED_EDGE('',*,*,#443,.F.);
#235=ORIENTED_EDGE('',*,*,#439,.T.);
#236=ORIENTED_EDGE('',*,*,#442,.T.);
#237=ORIENTED_EDGE('',*,*,#440,.T.);
#238=ORIENTED_EDGE('',*,*,#443,.T.);
#239=ORIENTED_EDGE('',*,*,#406,.T.);
#240=ORIENTED_EDGE('',*,*,#444,.F.);
#241=ORIENTED_EDGE('',*,*,#445,.F.);
#242=ORIENTED_EDGE('',*,*,#446,.F.);
#243=ORIENTED_EDGE('',*,*,#447,.F.);
#244=ORIENTED_EDGE('',*,*,#448,.T.);
#245=ORIENTED_EDGE('',*,*,#449,.F.);
#246=ORIENTED_EDGE('',*,*,#450,.F.);
#247=ORIENTED_EDGE('',*,*,#444,.T.);
#248=ORIENTED_EDGE('',*,*,#451,.T.);
#249=ORIENTED_EDGE('',*,*,#452,.F.);
#250=ORIENTED_EDGE('',*,*,#453,.F.);
#251=ORIENTED_EDGE('',*,*,#454,.T.);
#252=ORIENTED_EDGE('',*,*,#455,.T.);
#253=ORIENTED_EDGE('',*,*,#456,.F.);
#254=ORIENTED_EDGE('',*,*,#448,.F.);
#255=ORIENTED_EDGE('',*,*,#447,.T.);
#256=ORIENTED_EDGE('',*,*,#457,.T.);
#257=ORIENTED_EDGE('',*,*,#458,.F.);
#258=ORIENTED_EDGE('',*,*,#455,.F.);
#259=ORIENTED_EDGE('',*,*,#446,.T.);
#260=ORIENTED_EDGE('',*,*,#450,.T.);
#261=ORIENTED_EDGE('',*,*,#459,.F.);
#262=ORIENTED_EDGE('',*,*,#457,.F.);
#263=ORIENTED_EDGE('',*,*,#445,.T.);
#264=ORIENTED_EDGE('',*,*,#460,.F.);
#265=ORIENTED_EDGE('',*,*,#421,.F.);
#266=ORIENTED_EDGE('',*,*,#461,.F.);
#267=ORIENTED_EDGE('',*,*,#462,.F.);
#268=ORIENTED_EDGE('',*,*,#449,.T.);
#269=ORIENTED_EDGE('',*,*,#456,.T.);
#270=ORIENTED_EDGE('',*,*,#458,.T.);
#271=ORIENTED_EDGE('',*,*,#459,.T.);
#272=ORIENTED_EDGE('',*,*,#420,.F.);
#273=ORIENTED_EDGE('',*,*,#463,.T.);
#274=ORIENTED_EDGE('',*,*,#464,.T.);
#275=ORIENTED_EDGE('',*,*,#461,.T.);
#276=ORIENTED_EDGE('',*,*,#399,.T.);
#277=ORIENTED_EDGE('',*,*,#465,.T.);
#278=ORIENTED_EDGE('',*,*,#403,.T.);
#279=ORIENTED_EDGE('',*,*,#466,.T.);
#280=ORIENTED_EDGE('',*,*,#462,.T.);
#281=ORIENTED_EDGE('',*,*,#464,.F.);
#282=ORIENTED_EDGE('',*,*,#467,.T.);
#283=ORIENTED_EDGE('',*,*,#468,.T.);
#284=ORIENTED_EDGE('',*,*,#382,.T.);
#285=ORIENTED_EDGE('',*,*,#469,.T.);
#286=ORIENTED_EDGE('',*,*,#378,.T.);
#287=ORIENTED_EDGE('',*,*,#470,.T.);
#288=ORIENTED_EDGE('',*,*,#375,.T.);
#289=ORIENTED_EDGE('',*,*,#471,.T.);
#290=ORIENTED_EDGE('',*,*,#387,.T.);
#291=ORIENTED_EDGE('',*,*,#472,.T.);
#292=ORIENTED_EDGE('',*,*,#391,.T.);
#293=ORIENTED_EDGE('',*,*,#473,.T.);
#294=ORIENTED_EDGE('',*,*,#395,.T.);
#295=ORIENTED_EDGE('',*,*,#474,.T.);
#296=ORIENTED_EDGE('',*,*,#466,.F.);
#297=ORIENTED_EDGE('',*,*,#402,.T.);
#298=ORIENTED_EDGE('',*,*,#422,.T.);
#299=ORIENTED_EDGE('',*,*,#460,.T.);
#300=ORIENTED_EDGE('',*,*,#419,.F.);
#301=ORIENTED_EDGE('',*,*,#475,.T.);
#302=ORIENTED_EDGE('',*,*,#467,.F.);
#303=ORIENTED_EDGE('',*,*,#463,.F.);
#304=ORIENTED_EDGE('',*,*,#470,.F.);
#305=ORIENTED_EDGE('',*,*,#377,.F.);
#306=ORIENTED_EDGE('',*,*,#416,.T.);
#307=ORIENTED_EDGE('',*,*,#372,.T.);
#308=ORIENTED_EDGE('',*,*,#469,.F.);
#309=ORIENTED_EDGE('',*,*,#381,.F.);
#310=ORIENTED_EDGE('',*,*,#417,.T.);
#311=ORIENTED_EDGE('',*,*,#379,.T.);
#312=ORIENTED_EDGE('',*,*,#468,.F.);
#313=ORIENTED_EDGE('',*,*,#475,.F.);
#314=ORIENTED_EDGE('',*,*,#418,.T.);
#315=ORIENTED_EDGE('',*,*,#383,.T.);
#316=ORIENTED_EDGE('',*,*,#471,.F.);
#317=ORIENTED_EDGE('',*,*,#374,.F.);
#318=ORIENTED_EDGE('',*,*,#427,.T.);
#319=ORIENTED_EDGE('',*,*,#384,.T.);
#320=ORIENTED_EDGE('',*,*,#472,.F.);
#321=ORIENTED_EDGE('',*,*,#386,.F.);
#322=ORIENTED_EDGE('',*,*,#426,.T.);
#323=ORIENTED_EDGE('',*,*,#388,.T.);
#324=ORIENTED_EDGE('',*,*,#473,.F.);
#325=ORIENTED_EDGE('',*,*,#390,.F.);
#326=ORIENTED_EDGE('',*,*,#425,.T.);
#327=ORIENTED_EDGE('',*,*,#392,.T.);
#328=ORIENTED_EDGE('',*,*,#474,.F.);
#329=ORIENTED_EDGE('',*,*,#394,.F.);
#330=ORIENTED_EDGE('',*,*,#424,.T.);
#331=ORIENTED_EDGE('',*,*,#396,.T.);
#332=ORIENTED_EDGE('',*,*,#465,.F.);
#333=ORIENTED_EDGE('',*,*,#398,.F.);
#334=ORIENTED_EDGE('',*,*,#423,.T.);
#335=ORIENTED_EDGE('',*,*,#400,.T.);
#336=ORIENTED_EDGE('',*,*,#454,.F.);
#337=ORIENTED_EDGE('',*,*,#453,.T.);
#338=ORIENTED_EDGE('',*,*,#452,.T.);
#339=ORIENTED_EDGE('',*,*,#451,.F.);
#340=EDGE_CURVE('',#476,#477,#568,.T.);
#341=EDGE_CURVE('',#477,#478,#569,.T.);
#342=EDGE_CURVE('',#478,#479,#570,.T.);
#343=EDGE_CURVE('',#479,#476,#571,.T.);
#344=EDGE_CURVE('',#480,#481,#572,.T.);
#345=EDGE_CURVE('',#480,#482,#573,.T.);
#346=EDGE_CURVE('',#482,#483,#574,.T.);
#347=EDGE_CURVE('',#483,#481,#575,.T.);
#348=EDGE_CURVE('',#484,#485,#576,.T.);
#349=EDGE_CURVE('',#484,#486,#577,.T.);
#350=EDGE_CURVE('',#486,#487,#578,.T.);
#351=EDGE_CURVE('',#487,#485,#579,.T.);
#352=EDGE_CURVE('',#488,#489,#580,.T.);
#353=EDGE_CURVE('',#488,#490,#581,.T.);
#354=EDGE_CURVE('',#490,#491,#582,.T.);
#355=EDGE_CURVE('',#491,#489,#583,.T.);
#356=EDGE_CURVE('',#492,#493,#584,.T.);
#357=EDGE_CURVE('',#492,#494,#585,.T.);
#358=EDGE_CURVE('',#494,#495,#586,.T.);
#359=EDGE_CURVE('',#495,#493,#587,.T.);
#360=EDGE_CURVE('',#496,#497,#588,.T.);
#361=EDGE_CURVE('',#496,#498,#589,.T.);
#362=EDGE_CURVE('',#498,#499,#590,.T.);
#363=EDGE_CURVE('',#499,#497,#591,.T.);
#364=EDGE_CURVE('',#500,#501,#592,.T.);
#365=EDGE_CURVE('',#500,#502,#593,.T.);
#366=EDGE_CURVE('',#502,#503,#594,.T.);
#367=EDGE_CURVE('',#503,#501,#595,.T.);
#368=EDGE_CURVE('',#504,#505,#596,.T.);
#369=EDGE_CURVE('',#504,#506,#597,.T.);
#370=EDGE_CURVE('',#506,#507,#598,.T.);
#371=EDGE_CURVE('',#507,#505,#599,.T.);
#372=EDGE_CURVE('',#508,#509,#600,.T.);
#373=EDGE_CURVE('',#510,#508,#601,.T.);
#374=EDGE_CURVE('',#510,#511,#602,.T.);
#375=EDGE_CURVE('',#509,#511,#603,.T.);
#376=EDGE_CURVE('',#512,#513,#604,.T.);
#377=EDGE_CURVE('',#512,#514,#605,.T.);
#378=EDGE_CURVE('',#515,#514,#606,.T.);
#379=EDGE_CURVE('',#513,#515,#607,.T.);
#380=EDGE_CURVE('',#516,#517,#608,.T.);
#381=EDGE_CURVE('',#516,#518,#609,.T.);
#382=EDGE_CURVE('',#519,#518,#610,.T.);
#383=EDGE_CURVE('',#517,#519,#611,.T.);
#384=EDGE_CURVE('',#520,#521,#612,.T.);
#385=EDGE_CURVE('',#522,#520,#613,.T.);
#386=EDGE_CURVE('',#522,#523,#614,.T.);
#387=EDGE_CURVE('',#521,#523,#615,.T.);
#388=EDGE_CURVE('',#524,#525,#616,.T.);
#389=EDGE_CURVE('',#526,#524,#617,.T.);
#390=EDGE_CURVE('',#526,#527,#618,.T.);
#391=EDGE_CURVE('',#525,#527,#619,.T.);
#392=EDGE_CURVE('',#528,#529,#620,.T.);
#393=EDGE_CURVE('',#530,#528,#621,.T.);
#394=EDGE_CURVE('',#530,#531,#622,.T.);
#395=EDGE_CURVE('',#529,#531,#623,.T.);
#396=EDGE_CURVE('',#532,#533,#624,.T.);
#397=EDGE_CURVE('',#534,#532,#625,.T.);
#398=EDGE_CURVE('',#534,#535,#626,.T.);
#399=EDGE_CURVE('',#533,#535,#627,.T.);
#400=EDGE_CURVE('',#536,#537,#628,.T.);
#401=EDGE_CURVE('',#538,#536,#629,.T.);
#402=EDGE_CURVE('',#539,#538,#630,.T.);
#403=EDGE_CURVE('',#537,#539,#631,.T.);
#404=EDGE_CURVE('',#477,#480,#32,.F.);
#405=EDGE_CURVE('',#540,#476,#632,.T.);
#406=EDGE_CURVE('',#541,#540,#633,.T.);
#407=EDGE_CURVE('',#541,#542,#634,.T.);
#408=EDGE_CURVE('',#543,#542,#635,.T.);
#409=EDGE_CURVE('',#506,#543,#33,.F.);
#410=EDGE_CURVE('',#502,#504,#34,.F.);
#411=EDGE_CURVE('',#498,#500,#35,.F.);
#412=EDGE_CURVE('',#494,#496,#36,.F.);
#413=EDGE_CURVE('',#490,#492,#37,.F.);
#414=EDGE_CURVE('',#486,#488,#38,.F.);
#415=EDGE_CURVE('',#482,#484,#39,.F.);
#416=EDGE_CURVE('',#512,#508,#40,.F.);
#417=EDGE_CURVE('',#516,#513,#41,.F.);
#418=EDGE_CURVE('',#544,#517,#42,.F.);
#419=EDGE_CURVE('',#544,#545,#636,.T.);
#420=EDGE_CURVE('',#545,#546,#637,.T.);
#421=EDGE_CURVE('',#546,#547,#638,.T.);
#422=EDGE_CURVE('',#538,#547,#639,.T.);
#423=EDGE_CURVE('',#534,#536,#43,.F.);
#424=EDGE_CURVE('',#530,#532,#44,.F.);
#425=EDGE_CURVE('',#526,#528,#45,.F.);
#426=EDGE_CURVE('',#522,#524,#46,.F.);
#427=EDGE_CURVE('',#510,#520,#47,.F.);
#428=EDGE_CURVE('',#543,#548,#640,.T.);
#429=EDGE_CURVE('',#542,#549,#641,.T.);
#430=EDGE_CURVE('',#549,#548,#642,.T.);
#431=EDGE_CURVE('',#507,#548,#48,.T.);
#432=EDGE_CURVE('',#503,#505,#49,.T.);
#433=EDGE_CURVE('',#499,#501,#50,.T.);
#434=EDGE_CURVE('',#495,#497,#51,.T.);
#435=EDGE_CURVE('',#491,#493,#52,.T.);
#436=EDGE_CURVE('',#487,#489,#53,.T.);
#437=EDGE_CURVE('',#483,#485,#54,.T.);
#438=EDGE_CURVE('',#478,#481,#55,.T.);
#439=EDGE_CURVE('',#550,#549,#643,.T.);
#440=EDGE_CURVE('',#551,#550,#644,.T.);
#441=EDGE_CURVE('',#551,#479,#645,.T.);
#442=EDGE_CURVE('',#540,#551,#646,.T.);
#443=EDGE_CURVE('',#550,#541,#647,.T.);
#444=EDGE_CURVE('',#552,#553,#648,.T.);
#445=EDGE_CURVE('',#554,#552,#649,.T.);
#446=EDGE_CURVE('',#555,#554,#650,.T.);
#447=EDGE_CURVE('',#553,#555,#651,.T.);
#448=EDGE_CURVE('',#553,#556,#652,.T.);
#449=EDGE_CURVE('',#557,#556,#653,.T.);
#450=EDGE_CURVE('',#552,#557,#654,.T.);
#451=EDGE_CURVE('',#558,#558,#56,.F.);
#452=EDGE_CURVE('',#559,#559,#57,.T.);
#453=EDGE_CURVE('',#560,#560,#58,.T.);
#454=EDGE_CURVE('',#561,#561,#59,.F.);
#455=EDGE_CURVE('',#555,#562,#655,.T.);
#456=EDGE_CURVE('',#556,#562,#656,.T.);
#457=EDGE_CURVE('',#554,#563,#657,.T.);
#458=EDGE_CURVE('',#562,#563,#658,.T.);
#459=EDGE_CURVE('',#563,#557,#659,.T.);
#460=EDGE_CURVE('',#547,#564,#660,.T.);
#461=EDGE_CURVE('',#565,#546,#661,.T.);
#462=EDGE_CURVE('',#564,#565,#662,.T.);
#463=EDGE_CURVE('',#545,#566,#663,.T.);
#464=EDGE_CURVE('',#566,#565,#664,.T.);
#465=EDGE_CURVE('',#535,#537,#60,.T.);
#466=EDGE_CURVE('',#539,#564,#665,.T.);
#467=EDGE_CURVE('',#566,#567,#666,.T.);
#468=EDGE_CURVE('',#567,#519,#61,.T.);
#469=EDGE_CURVE('',#518,#515,#62,.T.);
#470=EDGE_CURVE('',#514,#509,#63,.T.);
#471=EDGE_CURVE('',#511,#521,#64,.T.);
#472=EDGE_CURVE('',#523,#525,#65,.T.);
#473=EDGE_CURVE('',#527,#529,#66,.T.);
#474=EDGE_CURVE('',#531,#533,#67,.T.);
#475=EDGE_CURVE('',#544,#567,#667,.T.);
#476=VERTEX_POINT('',#1350);
#477=VERTEX_POINT('',#1351);
#478=VERTEX_POINT('',#1353);
#479=VERTEX_POINT('',#1355);
#480=VERTEX_POINT('',#1359);
#481=VERTEX_POINT('',#1360);
#482=VERTEX_POINT('',#1362);
#483=VERTEX_POINT('',#1364);
#484=VERTEX_POINT('',#1368);
#485=VERTEX_POINT('',#1369);
#486=VERTEX_POINT('',#1371);
#487=VERTEX_POINT('',#1373);
#488=VERTEX_POINT('',#1377);
#489=VERTEX_POINT('',#1378);
#490=VERTEX_POINT('',#1380);
#491=VERTEX_POINT('',#1382);
#492=VERTEX_POINT('',#1386);
#493=VERTEX_POINT('',#1387);
#494=VERTEX_POINT('',#1389);
#495=VERTEX_POINT('',#1391);
#496=VERTEX_POINT('',#1395);
#497=VERTEX_POINT('',#1396);
#498=VERTEX_POINT('',#1398);
#499=VERTEX_POINT('',#1400);
#500=VERTEX_POINT('',#1404);
#501=VERTEX_POINT('',#1405);
#502=VERTEX_POINT('',#1407);
#503=VERTEX_POINT('',#1409);
#504=VERTEX_POINT('',#1413);
#505=VERTEX_POINT('',#1414);
#506=VERTEX_POINT('',#1416);
#507=VERTEX_POINT('',#1418);
#508=VERTEX_POINT('',#1422);
#509=VERTEX_POINT('',#1423);
#510=VERTEX_POINT('',#1425);
#511=VERTEX_POINT('',#1427);
#512=VERTEX_POINT('',#1431);
#513=VERTEX_POINT('',#1432);
#514=VERTEX_POINT('',#1434);
#515=VERTEX_POINT('',#1436);
#516=VERTEX_POINT('',#1440);
#517=VERTEX_POINT('',#1441);
#518=VERTEX_POINT('',#1443);
#519=VERTEX_POINT('',#1445);
#520=VERTEX_POINT('',#1449);
#521=VERTEX_POINT('',#1450);
#522=VERTEX_POINT('',#1452);
#523=VERTEX_POINT('',#1454);
#524=VERTEX_POINT('',#1458);
#525=VERTEX_POINT('',#1459);
#526=VERTEX_POINT('',#1461);
#527=VERTEX_POINT('',#1463);
#528=VERTEX_POINT('',#1467);
#529=VERTEX_POINT('',#1468);
#530=VERTEX_POINT('',#1470);
#531=VERTEX_POINT('',#1472);
#532=VERTEX_POINT('',#1476);
#533=VERTEX_POINT('',#1477);
#534=VERTEX_POINT('',#1479);
#535=VERTEX_POINT('',#1481);
#536=VERTEX_POINT('',#1485);
#537=VERTEX_POINT('',#1486);
#538=VERTEX_POINT('',#1488);
#539=VERTEX_POINT('',#1490);
#540=VERTEX_POINT('',#1495);
#541=VERTEX_POINT('',#1497);
#542=VERTEX_POINT('',#1499);
#543=VERTEX_POINT('',#1501);
#544=VERTEX_POINT('',#1513);
#545=VERTEX_POINT('',#1515);
#546=VERTEX_POINT('',#1517);
#547=VERTEX_POINT('',#1519);
#548=VERTEX_POINT('',#1528);
#549=VERTEX_POINT('',#1530);
#550=VERTEX_POINT('',#1550);
#551=VERTEX_POINT('',#1552);
#552=VERTEX_POINT('',#1560);
#553=VERTEX_POINT('',#1561);
#554=VERTEX_POINT('',#1563);
#555=VERTEX_POINT('',#1565);
#556=VERTEX_POINT('',#1569);
#557=VERTEX_POINT('',#1571);
#558=VERTEX_POINT('',#1575);
#559=VERTEX_POINT('',#1577);
#560=VERTEX_POINT('',#1579);
#561=VERTEX_POINT('',#1581);
#562=VERTEX_POINT('',#1583);
#563=VERTEX_POINT('',#1587);
#564=VERTEX_POINT('',#1593);
#565=VERTEX_POINT('',#1595);
#566=VERTEX_POINT('',#1599);
#567=VERTEX_POINT('',#1605);
#568=LINE('',#1349,#668);
#569=LINE('',#1352,#669);
#570=LINE('',#1354,#670);
#571=LINE('',#1356,#671);
#572=LINE('',#1358,#672);
#573=LINE('',#1361,#673);
#574=LINE('',#1363,#674);
#575=LINE('',#1365,#675);
#576=LINE('',#1367,#676);
#577=LINE('',#1370,#677);
#578=LINE('',#1372,#678);
#579=LINE('',#1374,#679);
#580=LINE('',#1376,#680);
#581=LINE('',#1379,#681);
#582=LINE('',#1381,#682);
#583=LINE('',#1383,#683);
#584=LINE('',#1385,#684);
#585=LINE('',#1388,#685);
#586=LINE('',#1390,#686);
#587=LINE('',#1392,#687);
#588=LINE('',#1394,#688);
#589=LINE('',#1397,#689);
#590=LINE('',#1399,#690);
#591=LINE('',#1401,#691);
#592=LINE('',#1403,#692);
#593=LINE('',#1406,#693);
#594=LINE('',#1408,#694);
#595=LINE('',#1410,#695);
#596=LINE('',#1412,#696);
#597=LINE('',#1415,#697);
#598=LINE('',#1417,#698);
#599=LINE('',#1419,#699);
#600=LINE('',#1421,#700);
#601=LINE('',#1424,#701);
#602=LINE('',#1426,#702);
#603=LINE('',#1428,#703);
#604=LINE('',#1430,#704);
#605=LINE('',#1433,#705);
#606=LINE('',#1435,#706);
#607=LINE('',#1437,#707);
#608=LINE('',#1439,#708);
#609=LINE('',#1442,#709);
#610=LINE('',#1444,#710);
#611=LINE('',#1446,#711);
#612=LINE('',#1448,#712);
#613=LINE('',#1451,#713);
#614=LINE('',#1453,#714);
#615=LINE('',#1455,#715);
#616=LINE('',#1457,#716);
#617=LINE('',#1460,#717);
#618=LINE('',#1462,#718);
#619=LINE('',#1464,#719);
#620=LINE('',#1466,#720);
#621=LINE('',#1469,#721);
#622=LINE('',#1471,#722);
#623=LINE('',#1473,#723);
#624=LINE('',#1475,#724);
#625=LINE('',#1478,#725);
#626=LINE('',#1480,#726);
#627=LINE('',#1482,#727);
#628=LINE('',#1484,#728);
#629=LINE('',#1487,#729);
#630=LINE('',#1489,#730);
#631=LINE('',#1491,#731);
#632=LINE('',#1494,#732);
#633=LINE('',#1496,#733);
#634=LINE('',#1498,#734);
#635=LINE('',#1500,#735);
#636=LINE('',#1514,#736);
#637=LINE('',#1516,#737);
#638=LINE('',#1518,#738);
#639=LINE('',#1520,#739);
#640=LINE('',#1527,#740);
#641=LINE('',#1529,#741);
#642=LINE('',#1531,#742);
#643=LINE('',#1549,#743);
#644=LINE('',#1551,#744);
#645=LINE('',#1553,#745);
#646=LINE('',#1555,#746);
#647=LINE('',#1557,#747);
#648=LINE('',#1559,#748);
#649=LINE('',#1562,#749);
#650=LINE('',#1564,#750);
#651=LINE('',#1566,#751);
#652=LINE('',#1568,#752);
#653=LINE('',#1570,#753);
#654=LINE('',#1572,#754);
#655=LINE('',#1582,#755);
#656=LINE('',#1584,#756);
#657=LINE('',#1586,#757);
#658=LINE('',#1588,#758);
#659=LINE('',#1590,#759);
#660=LINE('',#1592,#760);
#661=LINE('',#1594,#761);
#662=LINE('',#1596,#762);
#663=LINE('',#1598,#763);
#664=LINE('',#1600,#764);
#665=LINE('',#1603,#765);
#666=LINE('',#1604,#766);
#667=LINE('',#1615,#767);
#668=VECTOR('',#1073,1.);
#669=VECTOR('',#1074,1.);
#670=VECTOR('',#1075,1.);
#671=VECTOR('',#1076,1.);
#672=VECTOR('',#1079,1.);
#673=VECTOR('',#1080,1.);
#674=VECTOR('',#1081,1.);
#675=VECTOR('',#1082,1.);
#676=VECTOR('',#1085,1.);
#677=VECTOR('',#1086,1.);
#678=VECTOR('',#1087,1.);
#679=VECTOR('',#1088,1.);
#680=VECTOR('',#1091,1.);
#681=VECTOR('',#1092,1.);
#682=VECTOR('',#1093,1.);
#683=VECTOR('',#1094,1.);
#684=VECTOR('',#1097,1.);
#685=VECTOR('',#1098,1.);
#686=VECTOR('',#1099,1.);
#687=VECTOR('',#1100,1.);
#688=VECTOR('',#1103,1.);
#689=VECTOR('',#1104,1.);
#690=VECTOR('',#1105,1.);
#691=VECTOR('',#1106,1.);
#692=VECTOR('',#1109,1.);
#693=VECTOR('',#1110,1.);
#694=VECTOR('',#1111,1.);
#695=VECTOR('',#1112,1.);
#696=VECTOR('',#1115,1.);
#697=VECTOR('',#1116,1.);
#698=VECTOR('',#1117,1.);
#699=VECTOR('',#1118,1.);
#700=VECTOR('',#1121,1.);
#701=VECTOR('',#1122,1.);
#702=VECTOR('',#1123,1.);
#703=VECTOR('',#1124,1.);
#704=VECTOR('',#1127,1.);
#705=VECTOR('',#1128,1.);
#706=VECTOR('',#1129,1.);
#707=VECTOR('',#1130,1.);
#708=VECTOR('',#1133,1.);
#709=VECTOR('',#1134,1.);
#710=VECTOR('',#1135,1.);
#711=VECTOR('',#1136,1.);
#712=VECTOR('',#1139,1.);
#713=VECTOR('',#1140,1.);
#714=VECTOR('',#1141,1.);
#715=VECTOR('',#1142,1.);
#716=VECTOR('',#1145,1.);
#717=VECTOR('',#1146,1.);
#718=VECTOR('',#1147,1.);
#719=VECTOR('',#1148,1.);
#720=VECTOR('',#1151,1.);
#721=VECTOR('',#1152,1.);
#722=VECTOR('',#1153,1.);
#723=VECTOR('',#1154,1.);
#724=VECTOR('',#1157,1.);
#725=VECTOR('',#1158,1.);
#726=VECTOR('',#1159,1.);
#727=VECTOR('',#1160,1.);
#728=VECTOR('',#1163,1.);
#729=VECTOR('',#1164,1.);
#730=VECTOR('',#1165,1.);
#731=VECTOR('',#1166,1.);
#732=VECTOR('',#1171,1.);
#733=VECTOR('',#1172,1.);
#734=VECTOR('',#1173,1.);
#735=VECTOR('',#1174,1.);
#736=VECTOR('',#1197,1.);
#737=VECTOR('',#1198,1.);
#738=VECTOR('',#1199,1.);
#739=VECTOR('',#1200,1.);
#740=VECTOR('',#1213,1.);
#741=VECTOR('',#1214,1.);
#742=VECTOR('',#1215,1.);
#743=VECTOR('',#1250,1.);
#744=VECTOR('',#1251,1.);
#745=VECTOR('',#1252,1.);
#746=VECTOR('',#1255,1.);
#747=VECTOR('',#1258,1.);
#748=VECTOR('',#1261,1.);
#749=VECTOR('',#1262,1.);
#750=VECTOR('',#1263,1.);
#751=VECTOR('',#1264,1.);
#752=VECTOR('',#1267,1.);
#753=VECTOR('',#1268,1.);
#754=VECTOR('',#1269,1.);
#755=VECTOR('',#1280,1.);
#756=VECTOR('',#1281,1.);
#757=VECTOR('',#1284,1.);
#758=VECTOR('',#1285,1.);
#759=VECTOR('',#1288,1.);
#760=VECTOR('',#1291,1.);
#761=VECTOR('',#1292,1.);
#762=VECTOR('',#1293,1.);
#763=VECTOR('',#1296,1.);
#764=VECTOR('',#1297,1.);
#765=VECTOR('',#1302,1.);
#766=VECTOR('',#1303,1.);
#767=VECTOR('',#1322,1.);
#768=EDGE_LOOP('',(#68,#69,#70,#71));
#769=EDGE_LOOP('',(#72,#73,#74,#75));
#770=EDGE_LOOP('',(#76,#77,#78,#79));
#771=EDGE_LOOP('',(#80,#81,#82,#83));
#772=EDGE_LOOP('',(#84,#85,#86,#87));
#773=EDGE_LOOP('',(#88,#89,#90,#91));
#774=EDGE_LOOP('',(#92,#93,#94,#95));
#775=EDGE_LOOP('',(#96,#97,#98,#99));
#776=EDGE_LOOP('',(#100,#101,#102,#103));
#777=EDGE_LOOP('',(#104,#105,#106,#107));
#778=EDGE_LOOP('',(#108,#109,#110,#111));
#779=EDGE_LOOP('',(#112,#113,#114,#115));
#780=EDGE_LOOP('',(#116,#117,#118,#119));
#781=EDGE_LOOP('',(#120,#121,#122,#123));
#782=EDGE_LOOP('',(#124,#125,#126,#127));
#783=EDGE_LOOP('',(#128,#129,#130,#131));
#784=EDGE_LOOP('',(#132,#133,#134,#135,#136,#137,#138,#139,#140,#141,#142,
#143,#144,#145,#146,#147,#148,#149,#150,#151));
#785=EDGE_LOOP('',(#152,#153,#154,#155,#156,#157,#158,#159,#160,#161,#162,
#163,#164,#165,#166,#167,#168,#169,#170,#171));
#786=EDGE_LOOP('',(#172,#173,#174,#175));
#787=EDGE_LOOP('',(#176,#177,#178,#179));
#788=EDGE_LOOP('',(#180,#181,#182,#183));
#789=EDGE_LOOP('',(#184,#185,#186,#187));
#790=EDGE_LOOP('',(#188,#189,#190,#191));
#791=EDGE_LOOP('',(#192,#193,#194,#195));
#792=EDGE_LOOP('',(#196,#197,#198,#199));
#793=EDGE_LOOP('',(#200,#201,#202,#203));
#794=EDGE_LOOP('',(#204,#205,#206,#207));
#795=EDGE_LOOP('',(#208,#209,#210,#211,#212,#213,#214,#215,#216,#217,#218,
#219,#220,#221,#222,#223,#224,#225,#226,#227));
#796=EDGE_LOOP('',(#228,#229,#230,#231));
#797=EDGE_LOOP('',(#232,#233,#234,#235));
#798=EDGE_LOOP('',(#236,#237,#238,#239));
#799=EDGE_LOOP('',(#240,#241,#242,#243));
#800=EDGE_LOOP('',(#244,#245,#246,#247));
#801=EDGE_LOOP('',(#248));
#802=EDGE_LOOP('',(#249));
#803=EDGE_LOOP('',(#250));
#804=EDGE_LOOP('',(#251));
#805=EDGE_LOOP('',(#252,#253,#254,#255));
#806=EDGE_LOOP('',(#256,#257,#258,#259));
#807=EDGE_LOOP('',(#260,#261,#262,#263));
#808=EDGE_LOOP('',(#264,#265,#266,#267));
#809=EDGE_LOOP('',(#268,#269,#270,#271));
#810=EDGE_LOOP('',(#272,#273,#274,#275));
#811=EDGE_LOOP('',(#276,#277,#278,#279,#280,#281,#282,#283,#284,#285,#286,
#287,#288,#289,#290,#291,#292,#293,#294,#295));
#812=EDGE_LOOP('',(#296,#297,#298,#299));
#813=EDGE_LOOP('',(#300,#301,#302,#303));
#814=EDGE_LOOP('',(#304,#305,#306,#307));
#815=EDGE_LOOP('',(#308,#309,#310,#311));
#816=EDGE_LOOP('',(#312,#313,#314,#315));
#817=EDGE_LOOP('',(#316,#317,#318,#319));
#818=EDGE_LOOP('',(#320,#321,#322,#323));
#819=EDGE_LOOP('',(#324,#325,#326,#327));
#820=EDGE_LOOP('',(#328,#329,#330,#331));
#821=EDGE_LOOP('',(#332,#333,#334,#335));
#822=EDGE_LOOP('',(#336));
#823=EDGE_LOOP('',(#337));
#824=EDGE_LOOP('',(#338));
#825=EDGE_LOOP('',(#339));
#826=FACE_BOUND('',#768,.T.);
#827=FACE_BOUND('',#769,.T.);
#828=FACE_BOUND('',#770,.T.);
#829=FACE_BOUND('',#771,.T.);
#830=FACE_BOUND('',#772,.T.);
#831=FACE_BOUND('',#773,.T.);
#832=FACE_BOUND('',#774,.T.);
#833=FACE_BOUND('',#775,.T.);
#834=FACE_BOUND('',#776,.T.);
#835=FACE_BOUND('',#777,.T.);
#836=FACE_BOUND('',#778,.T.);
#837=FACE_BOUND('',#779,.T.);
#838=FACE_BOUND('',#780,.T.);
#839=FACE_BOUND('',#781,.T.);
#840=FACE_BOUND('',#782,.T.);
#841=FACE_BOUND('',#783,.T.);
#842=FACE_BOUND('',#784,.T.);
#843=FACE_BOUND('',#785,.T.);
#844=FACE_BOUND('',#786,.T.);
#845=FACE_BOUND('',#787,.T.);
#846=FACE_BOUND('',#788,.T.);
#847=FACE_BOUND('',#789,.T.);
#848=FACE_BOUND('',#790,.T.);
#849=FACE_BOUND('',#791,.T.);
#850=FACE_BOUND('',#792,.T.);
#851=FACE_BOUND('',#793,.T.);
#852=FACE_BOUND('',#794,.T.);
#853=FACE_BOUND('',#795,.T.);
#854=FACE_BOUND('',#796,.T.);
#855=FACE_BOUND('',#797,.T.);
#856=FACE_BOUND('',#798,.T.);
#857=FACE_BOUND('',#799,.T.);
#858=FACE_BOUND('',#800,.T.);
#859=FACE_BOUND('',#801,.T.);
#860=FACE_BOUND('',#802,.T.);
#861=FACE_BOUND('',#803,.T.);
#862=FACE_BOUND('',#804,.T.);
#863=FACE_BOUND('',#805,.T.);
#864=FACE_BOUND('',#806,.T.);
#865=FACE_BOUND('',#807,.T.);
#866=FACE_BOUND('',#808,.T.);
#867=FACE_BOUND('',#809,.T.);
#868=FACE_BOUND('',#810,.T.);
#869=FACE_BOUND('',#811,.T.);
#870=FACE_BOUND('',#812,.T.);
#871=FACE_BOUND('',#813,.T.);
#872=FACE_BOUND('',#814,.T.);
#873=FACE_BOUND('',#815,.T.);
#874=FACE_BOUND('',#816,.T.);
#875=FACE_BOUND('',#817,.T.);
#876=FACE_BOUND('',#818,.T.);
#877=FACE_BOUND('',#819,.T.);
#878=FACE_BOUND('',#820,.T.);
#879=FACE_BOUND('',#821,.T.);
#880=FACE_BOUND('',#822,.T.);
#881=FACE_BOUND('',#823,.T.);
#882=FACE_BOUND('',#824,.T.);
#883=FACE_BOUND('',#825,.T.);
#884=PLANE('',#981);
#885=PLANE('',#982);
#886=PLANE('',#983);
#887=PLANE('',#984);
#888=PLANE('',#985);
#889=PLANE('',#986);
#890=PLANE('',#987);
#891=PLANE('',#988);
#892=PLANE('',#989);
#893=PLANE('',#990);
#894=PLANE('',#991);
#895=PLANE('',#992);
#896=PLANE('',#993);
#897=PLANE('',#994);
#898=PLANE('',#995);
#899=PLANE('',#996);
#900=PLANE('',#997);
#901=PLANE('',#1006);
#902=PLANE('',#1015);
#903=PLANE('',#1032);
#904=PLANE('',#1033);
#905=PLANE('',#1034);
#906=PLANE('',#1035);
#907=PLANE('',#1036);
#908=PLANE('',#1037);
#909=PLANE('',#1042);
#910=PLANE('',#1043);
#911=PLANE('',#1044);
#912=PLANE('',#1045);
#913=PLANE('',#1046);
#914=PLANE('',#1055);
#915=PLANE('',#1056);
#916=ADVANCED_FACE('',(#826),#884,.T.);
#917=ADVANCED_FACE('',(#827),#885,.T.);
#918=ADVANCED_FACE('',(#828),#886,.T.);
#919=ADVANCED_FACE('',(#829),#887,.T.);
#920=ADVANCED_FACE('',(#830),#888,.T.);
#921=ADVANCED_FACE('',(#831),#889,.T.);
#922=ADVANCED_FACE('',(#832),#890,.T.);
#923=ADVANCED_FACE('',(#833),#891,.T.);
#924=ADVANCED_FACE('',(#834),#892,.F.);
#925=ADVANCED_FACE('',(#835),#893,.F.);
#926=ADVANCED_FACE('',(#836),#894,.F.);
#927=ADVANCED_FACE('',(#837),#895,.F.);
#928=ADVANCED_FACE('',(#838),#896,.F.);
#929=ADVANCED_FACE('',(#839),#897,.F.);
#930=ADVANCED_FACE('',(#840),#898,.F.);
#931=ADVANCED_FACE('',(#841),#899,.F.);
#932=ADVANCED_FACE('',(#842),#900,.F.);
#933=ADVANCED_FACE('',(#843),#901,.F.);
#934=ADVANCED_FACE('',(#844),#902,.T.);
#935=ADVANCED_FACE('',(#845),#16,.T.);
#936=ADVANCED_FACE('',(#846),#17,.T.);
#937=ADVANCED_FACE('',(#847),#18,.T.);
#938=ADVANCED_FACE('',(#848),#19,.T.);
#939=ADVANCED_FACE('',(#849),#20,.T.);
#940=ADVANCED_FACE('',(#850),#21,.T.);
#941=ADVANCED_FACE('',(#851),#22,.T.);
#942=ADVANCED_FACE('',(#852),#23,.T.);
#943=ADVANCED_FACE('',(#853),#903,.F.);
#944=ADVANCED_FACE('',(#854),#904,.F.);
#945=ADVANCED_FACE('',(#855),#905,.F.);
#946=ADVANCED_FACE('',(#856,#857),#906,.F.);
#947=ADVANCED_FACE('',(#858),#907,.T.);
#948=ADVANCED_FACE('',(#859,#860,#861,#862,#863),#908,.T.);
#949=ADVANCED_FACE('',(#864),#909,.T.);
#950=ADVANCED_FACE('',(#865),#910,.T.);
#951=ADVANCED_FACE('',(#866,#867),#911,.T.);
#952=ADVANCED_FACE('',(#868),#912,.F.);
#953=ADVANCED_FACE('',(#869),#913,.F.);
#954=ADVANCED_FACE('',(#870),#914,.F.);
#955=ADVANCED_FACE('',(#871),#915,.F.);
#956=ADVANCED_FACE('',(#872),#24,.T.);
#957=ADVANCED_FACE('',(#873),#25,.T.);
#958=ADVANCED_FACE('',(#874),#26,.T.);
#959=ADVANCED_FACE('',(#875),#27,.T.);
#960=ADVANCED_FACE('',(#876),#28,.T.);
#961=ADVANCED_FACE('',(#877),#29,.T.);
#962=ADVANCED_FACE('',(#878),#30,.T.);
#963=ADVANCED_FACE('',(#879),#31,.T.);
#964=ADVANCED_FACE('',(#880),#12,.T.);
#965=ADVANCED_FACE('',(#881),#13,.T.);
#966=ADVANCED_FACE('',(#882),#14,.T.);
#967=ADVANCED_FACE('',(#883),#15,.T.);
#968=CLOSED_SHELL('',(#916,#917,#918,#919,#920,#921,#922,#923,#924,#925,
#926,#927,#928,#929,#930,#931,#932,#933,#934,#935,#936,#937,#938,#939,#940,
#941,#942,#943,#944,#945,#946,#947,#948,#949,#950,#951,#952,#953,#954,#955,
#956,#957,#958,#959,#960,#961,#962,#963,#964,#965,#966,#967));
#969=STYLED_ITEM('',(#970),#977);
#970=PRESENTATION_STYLE_ASSIGNMENT((#971));
#971=SURFACE_STYLE_USAGE(.BOTH.,#972);
#972=SURFACE_SIDE_STYLE('',(#973));
#973=SURFACE_STYLE_FILL_AREA(#974);
#974=FILL_AREA_STYLE('',(#975));
#975=FILL_AREA_STYLE_COLOUR('',#976);
#976=COLOUR_RGB('',0.231372549019608,0.380392156862745,0.705882352941177);
#977=MANIFOLD_SOLID_BREP('Container',#968);
#978=SHAPE_DEFINITION_REPRESENTATION(#1634,#979);
#979=SHAPE_REPRESENTATION('Container',(#980),#1629);
#980=AXIS2_PLACEMENT_3D('',#1347,#1069,#1070);
#981=AXIS2_PLACEMENT_3D('',#1348,#1071,#1072);
#982=AXIS2_PLACEMENT_3D('',#1357,#1077,#1078);
#983=AXIS2_PLACEMENT_3D('',#1366,#1083,#1084);
#984=AXIS2_PLACEMENT_3D('',#1375,#1089,#1090);
#985=AXIS2_PLACEMENT_3D('',#1384,#1095,#1096);
#986=AXIS2_PLACEMENT_3D('',#1393,#1101,#1102);
#987=AXIS2_PLACEMENT_3D('',#1402,#1107,#1108);
#988=AXIS2_PLACEMENT_3D('',#1411,#1113,#1114);
#989=AXIS2_PLACEMENT_3D('',#1420,#1119,#1120);
#990=AXIS2_PLACEMENT_3D('',#1429,#1125,#1126);
#991=AXIS2_PLACEMENT_3D('',#1438,#1131,#1132);
#992=AXIS2_PLACEMENT_3D('',#1447,#1137,#1138);
#993=AXIS2_PLACEMENT_3D('',#1456,#1143,#1144);
#994=AXIS2_PLACEMENT_3D('',#1465,#1149,#1150);
#995=AXIS2_PLACEMENT_3D('',#1474,#1155,#1156);
#996=AXIS2_PLACEMENT_3D('',#1483,#1161,#1162);
#997=AXIS2_PLACEMENT_3D('',#1492,#1167,#1168);
#998=AXIS2_PLACEMENT_3D('',#1493,#1169,#1170);
#999=AXIS2_PLACEMENT_3D('',#1502,#1175,#1176);
#1000=AXIS2_PLACEMENT_3D('',#1503,#1177,#1178);
#1001=AXIS2_PLACEMENT_3D('',#1504,#1179,#1180);
#1002=AXIS2_PLACEMENT_3D('',#1505,#1181,#1182);
#1003=AXIS2_PLACEMENT_3D('',#1506,#1183,#1184);
#1004=AXIS2_PLACEMENT_3D('',#1507,#1185,#1186);
#1005=AXIS2_PLACEMENT_3D('',#1508,#1187,#1188);
#1006=AXIS2_PLACEMENT_3D('',#1509,#1189,#1190);
#1007=AXIS2_PLACEMENT_3D('',#1510,#1191,#1192);
#1008=AXIS2_PLACEMENT_3D('',#1511,#1193,#1194);
#1009=AXIS2_PLACEMENT_3D('',#1512,#1195,#1196);
#1010=AXIS2_PLACEMENT_3D('',#1521,#1201,#1202);
#1011=AXIS2_PLACEMENT_3D('',#1522,#1203,#1204);
#1012=AXIS2_PLACEMENT_3D('',#1523,#1205,#1206);
#1013=AXIS2_PLACEMENT_3D('',#1524,#1207,#1208);
#1014=AXIS2_PLACEMENT_3D('',#1525,#1209,#1210);
#1015=AXIS2_PLACEMENT_3D('',#1526,#1211,#1212);
#1016=AXIS2_PLACEMENT_3D('',#1532,#1216,#1217);
#1017=AXIS2_PLACEMENT_3D('',#1533,#1218,#1219);
#1018=AXIS2_PLACEMENT_3D('',#1534,#1220,#1221);
#1019=AXIS2_PLACEMENT_3D('',#1535,#1222,#1223);
#1020=AXIS2_PLACEMENT_3D('',#1536,#1224,#1225);
#1021=AXIS2_PLACEMENT_3D('',#1537,#1226,#1227);
#1022=AXIS2_PLACEMENT_3D('',#1538,#1228,#1229);
#1023=AXIS2_PLACEMENT_3D('',#1539,#1230,#1231);
#1024=AXIS2_PLACEMENT_3D('',#1540,#1232,#1233);
#1025=AXIS2_PLACEMENT_3D('',#1541,#1234,#1235);
#1026=AXIS2_PLACEMENT_3D('',#1542,#1236,#1237);
#1027=AXIS2_PLACEMENT_3D('',#1543,#1238,#1239);
#1028=AXIS2_PLACEMENT_3D('',#1544,#1240,#1241);
#1029=AXIS2_PLACEMENT_3D('',#1545,#1242,#1243);
#1030=AXIS2_PLACEMENT_3D('',#1546,#1244,#1245);
#1031=AXIS2_PLACEMENT_3D('',#1547,#1246,#1247);
#1032=AXIS2_PLACEMENT_3D('',#1548,#1248,#1249);
#1033=AXIS2_PLACEMENT_3D('',#1554,#1253,#1254);
#1034=AXIS2_PLACEMENT_3D('',#1556,#1256,#1257);
#1035=AXIS2_PLACEMENT_3D('',#1558,#1259,#1260);
#1036=AXIS2_PLACEMENT_3D('',#1567,#1265,#1266);
#1037=AXIS2_PLACEMENT_3D('',#1573,#1270,#1271);
#1038=AXIS2_PLACEMENT_3D('',#1574,#1272,#1273);
#1039=AXIS2_PLACEMENT_3D('',#1576,#1274,#1275);
#1040=AXIS2_PLACEMENT_3D('',#1578,#1276,#1277);
#1041=AXIS2_PLACEMENT_3D('',#1580,#1278,#1279);
#1042=AXIS2_PLACEMENT_3D('',#1585,#1282,#1283);
#1043=AXIS2_PLACEMENT_3D('',#1589,#1286,#1287);
#1044=AXIS2_PLACEMENT_3D('',#1591,#1289,#1290);
#1045=AXIS2_PLACEMENT_3D('',#1597,#1294,#1295);
#1046=AXIS2_PLACEMENT_3D('',#1601,#1298,#1299);
#1047=AXIS2_PLACEMENT_3D('',#1602,#1300,#1301);
#1048=AXIS2_PLACEMENT_3D('',#1606,#1304,#1305);
#1049=AXIS2_PLACEMENT_3D('',#1607,#1306,#1307);
#1050=AXIS2_PLACEMENT_3D('',#1608,#1308,#1309);
#1051=AXIS2_PLACEMENT_3D('',#1609,#1310,#1311);
#1052=AXIS2_PLACEMENT_3D('',#1610,#1312,#1313);
#1053=AXIS2_PLACEMENT_3D('',#1611,#1314,#1315);
#1054=AXIS2_PLACEMENT_3D('',#1612,#1316,#1317);
#1055=AXIS2_PLACEMENT_3D('',#1613,#1318,#1319);
#1056=AXIS2_PLACEMENT_3D('',#1614,#1320,#1321);
#1057=AXIS2_PLACEMENT_3D('',#1616,#1323,#1324);
#1058=AXIS2_PLACEMENT_3D('',#1617,#1325,#1326);
#1059=AXIS2_PLACEMENT_3D('',#1618,#1327,#1328);
#1060=AXIS2_PLACEMENT_3D('',#1619,#1329,#1330);
#1061=AXIS2_PLACEMENT_3D('',#1620,#1331,#1332);
#1062=AXIS2_PLACEMENT_3D('',#1621,#1333,#1334);
#1063=AXIS2_PLACEMENT_3D('',#1622,#1335,#1336);
#1064=AXIS2_PLACEMENT_3D('',#1623,#1337,#1338);
#1065=AXIS2_PLACEMENT_3D('',#1624,#1339,#1340);
#1066=AXIS2_PLACEMENT_3D('',#1625,#1341,#1342);
#1067=AXIS2_PLACEMENT_3D('',#1626,#1343,#1344);
#1068=AXIS2_PLACEMENT_3D('',#1627,#1345,#1346);
#1069=DIRECTION('',(0.,0.,1.));
#1070=DIRECTION('',(1.,0.,0.));
#1071=DIRECTION('',(1.,0.,0.));
#1072=DIRECTION('',(0.,1.,0.));
#1073=DIRECTION('',(0.,-1.,0.));
#1074=DIRECTION('',(0.,4.24043516349886E-16,-1.));
#1075=DIRECTION('',(0.,1.,4.28639328892144E-16));
#1076=DIRECTION('',(0.,-6.12323399573677E-17,1.));
#1077=DIRECTION('',(1.,0.,0.));
#1078=DIRECTION('',(0.,1.,0.));
#1079=DIRECTION('',(0.,4.24043516349886E-16,-1.));
#1080=DIRECTION('',(0.,-1.,0.));
#1081=DIRECTION('',(0.,4.24043516349886E-16,-1.));
#1082=DIRECTION('',(0.,1.,4.28639328892144E-16));
#1083=DIRECTION('',(1.,0.,0.));
#1084=DIRECTION('',(0.,1.,0.));
#1085=DIRECTION('',(0.,4.24043516349886E-16,-1.));
#1086=DIRECTION('',(0.,-1.,0.));
#1087=DIRECTION('',(0.,4.24043516349886E-16,-1.));
#1088=DIRECTION('',(0.,1.,4.28639328892144E-16));
#1089=DIRECTION('',(1.,0.,0.));
#1090=DIRECTION('',(0.,1.,0.));
#1091=DIRECTION('',(0.,4.24043516349886E-16,-1.));
#1092=DIRECTION('',(0.,-1.,0.));
#1093=DIRECTION('',(0.,4.24043516349886E-16,-1.));
#1094=DIRECTION('',(0.,1.,4.28639328892144E-16));
#1095=DIRECTION('',(1.,0.,0.));
#1096=DIRECTION('',(0.,1.,0.));
#1097=DIRECTION('',(0.,4.24043516349886E-16,-1.));
#1098=DIRECTION('',(0.,-1.,0.));
#1099=DIRECTION('',(0.,4.24043516349886E-16,-1.));
#1100=DIRECTION('',(0.,1.,4.28639328892144E-16));
#1101=DIRECTION('',(1.,0.,0.));
#1102=DIRECTION('',(0.,1.,0.));
#1103=DIRECTION('',(0.,4.24043516349886E-16,-1.));
#1104=DIRECTION('',(0.,-1.,0.));
#1105=DIRECTION('',(0.,4.24043516349886E-16,-1.));
#1106=DIRECTION('',(0.,1.,4.28639328892144E-16));
#1107=DIRECTION('',(1.,0.,0.));
#1108=DIRECTION('',(0.,1.,0.));
#1109=DIRECTION('',(0.,4.24043516349886E-16,-1.));
#1110=DIRECTION('',(0.,-1.,0.));
#1111=DIRECTION('',(0.,4.24043516349886E-16,-1.));
#1112=DIRECTION('',(0.,1.,4.28639328892144E-16));
#1113=DIRECTION('',(1.,0.,0.));
#1114=DIRECTION('',(0.,1.,0.));
#1115=DIRECTION('',(0.,4.24043516349886E-16,-1.));
#1116=DIRECTION('',(0.,-1.,0.));
#1117=DIRECTION('',(0.,4.24043516349886E-16,-1.));
#1118=DIRECTION('',(0.,1.,4.28639328892144E-16));
#1119=DIRECTION('',(1.,0.,0.));
#1120=DIRECTION('',(0.,1.,0.));
#1121=DIRECTION('',(0.,4.24043516349886E-16,-1.));
#1122=DIRECTION('',(0.,-1.,0.));
#1123=DIRECTION('',(0.,4.24043516349886E-16,-1.));
#1124=DIRECTION('',(0.,1.,4.28639328892144E-16));
#1125=DIRECTION('',(1.,0.,0.));
#1126=DIRECTION('',(0.,1.,0.));
#1127=DIRECTION('',(0.,-1.,0.));
#1128=DIRECTION('',(0.,4.24043516349886E-16,-1.));
#1129=DIRECTION('',(0.,1.,4.28639328892144E-16));
#1130=DIRECTION('',(0.,4.24043516349886E-16,-1.));
#1131=DIRECTION('',(1.,0.,0.));
#1132=DIRECTION('',(0.,1.,0.));
#1133=DIRECTION('',(0.,-1.,0.));
#1134=DIRECTION('',(0.,4.24043516349886E-16,-1.));
#1135=DIRECTION('',(0.,1.,4.28639328892144E-16));
#1136=DIRECTION('',(0.,4.24043516349886E-16,-1.));
#1137=DIRECTION('',(1.,0.,0.));
#1138=DIRECTION('',(0.,1.,0.));
#1139=DIRECTION('',(0.,4.24043516349886E-16,-1.));
#1140=DIRECTION('',(0.,-1.,0.));
#1141=DIRECTION('',(0.,4.24043516349886E-16,-1.));
#1142=DIRECTION('',(0.,1.,4.28639328892144E-16));
#1143=DIRECTION('',(1.,0.,0.));
#1144=DIRECTION('',(0.,1.,0.));
#1145=DIRECTION('',(0.,4.24043516349886E-16,-1.));
#1146=DIRECTION('',(0.,-1.,0.));
#1147=DIRECTION('',(0.,4.24043516349886E-16,-1.));
#1148=DIRECTION('',(0.,1.,4.28639328892144E-16));
#1149=DIRECTION('',(1.,0.,0.));
#1150=DIRECTION('',(0.,1.,0.));
#1151=DIRECTION('',(0.,4.24043516349886E-16,-1.));
#1152=DIRECTION('',(0.,-1.,0.));
#1153=DIRECTION('',(0.,4.24043516349886E-16,-1.));
#1154=DIRECTION('',(0.,1.,4.28639328892144E-16));
#1155=DIRECTION('',(1.,0.,0.));
#1156=DIRECTION('',(0.,1.,0.));
#1157=DIRECTION('',(0.,4.24043516349886E-16,-1.));
#1158=DIRECTION('',(0.,-1.,0.));
#1159=DIRECTION('',(0.,4.24043516349886E-16,-1.));
#1160=DIRECTION('',(0.,1.,4.28639328892144E-16));
#1161=DIRECTION('',(1.,0.,0.));
#1162=DIRECTION('',(0.,1.,0.));
#1163=DIRECTION('',(0.,4.24043516349886E-16,-1.));
#1164=DIRECTION('',(0.,-1.,0.));
#1165=DIRECTION('',(0.,-6.12323399573677E-17,1.));
#1166=DIRECTION('',(0.,1.,4.28639328892144E-16));
#1167=DIRECTION('',(0.,0.,1.));
#1168=DIRECTION('',(1.,0.,0.));
#1169=DIRECTION('',(0.,0.,1.));
#1170=DIRECTION('',(1.,0.,0.));
#1171=DIRECTION('',(-1.,0.,0.));
#1172=DIRECTION('',(0.,1.,0.));
#1173=DIRECTION('',(-1.,0.,0.));
#1174=DIRECTION('',(0.,-1.,0.));
#1175=DIRECTION('',(0.,0.,1.));
#1176=DIRECTION('',(1.,0.,0.));
#1177=DIRECTION('',(0.,0.,1.));
#1178=DIRECTION('',(1.,0.,0.));
#1179=DIRECTION('',(0.,0.,1.));
#1180=DIRECTION('',(1.,0.,0.));
#1181=DIRECTION('',(0.,0.,1.));
#1182=DIRECTION('',(1.,0.,0.));
#1183=DIRECTION('',(0.,0.,1.));
#1184=DIRECTION('',(1.,0.,0.));
#1185=DIRECTION('',(0.,0.,1.));
#1186=DIRECTION('',(1.,0.,0.));
#1187=DIRECTION('',(0.,0.,1.));
#1188=DIRECTION('',(1.,0.,0.));
#1189=DIRECTION('',(0.,0.,1.));
#1190=DIRECTION('',(1.,0.,0.));
#1191=DIRECTION('',(0.,0.,1.));
#1192=DIRECTION('',(1.,0.,0.));
#1193=DIRECTION('',(0.,0.,1.));
#1194=DIRECTION('',(1.,0.,0.));
#1195=DIRECTION('',(0.,0.,1.));
#1196=DIRECTION('',(1.,0.,0.));
#1197=DIRECTION('',(0.,-1.,0.));
#1198=DIRECTION('',(-1.,0.,0.));
#1199=DIRECTION('',(0.,1.,0.));
#1200=DIRECTION('',(-1.,0.,0.));
#1201=DIRECTION('',(0.,0.,1.));
#1202=DIRECTION('',(1.,0.,0.));
#1203=DIRECTION('',(0.,0.,1.));
#1204=DIRECTION('',(1.,0.,0.));
#1205=DIRECTION('',(0.,0.,1.));
#1206=DIRECTION('',(1.,0.,0.));
#1207=DIRECTION('',(0.,0.,1.));
#1208=DIRECTION('',(1.,0.,0.));
#1209=DIRECTION('',(0.,0.,1.));
#1210=DIRECTION('',(1.,0.,0.));
#1211=DIRECTION('',(1.,0.,0.));
#1212=DIRECTION('',(0.,1.,0.));
#1213=DIRECTION('',(0.,4.24043516349886E-16,-1.));
#1214=DIRECTION('',(0.,2.4492935982947E-16,-1.));
#1215=DIRECTION('',(0.,1.,4.28639328892144E-16));
#1216=DIRECTION('',(0.,4.24043516349886E-16,-1.));
#1217=DIRECTION('',(0.,1.,4.24043516349886E-16));
#1218=DIRECTION('',(0.,4.24043516349886E-16,-1.));
#1219=DIRECTION('',(0.,1.,4.24043516349886E-16));
#1220=DIRECTION('',(0.,4.24043516349886E-16,-1.));
#1221=DIRECTION('',(0.,1.,4.24043516349886E-16));
#1222=DIRECTION('',(0.,4.24043516349886E-16,-1.));
#1223=DIRECTION('',(0.,1.,4.24043516349886E-16));
#1224=DIRECTION('',(0.,4.24043516349886E-16,-1.));
#1225=DIRECTION('',(0.,1.,4.24043516349886E-16));
#1226=DIRECTION('',(0.,4.24043516349886E-16,-1.));
#1227=DIRECTION('',(0.,1.,4.24043516349886E-16));
#1228=DIRECTION('',(0.,4.24043516349886E-16,-1.));
#1229=DIRECTION('',(0.,1.,4.24043516349886E-16));
#1230=DIRECTION('',(0.,4.24043516349886E-16,-1.));
#1231=DIRECTION('',(0.,1.,4.24043516349886E-16));
#1232=DIRECTION('',(0.,4.24043516349886E-16,-1.));
#1233=DIRECTION('',(0.,1.,4.24043516349886E-16));
#1234=DIRECTION('',(0.,4.24043516349886E-16,-1.));
#1235=DIRECTION('',(0.,1.,4.24043516349886E-16));
#1236=DIRECTION('',(0.,4.24043516349886E-16,-1.));
#1237=DIRECTION('',(0.,1.,4.24043516349886E-16));
#1238=DIRECTION('',(0.,4.24043516349886E-16,-1.));
#1239=DIRECTION('',(0.,1.,4.24043516349886E-16));
#1240=DIRECTION('',(0.,4.24043516349886E-16,-1.));
#1241=DIRECTION('',(0.,1.,4.24043516349886E-16));
#1242=DIRECTION('',(0.,4.24043516349886E-16,-1.));
#1243=DIRECTION('',(0.,1.,4.24043516349886E-16));
#1244=DIRECTION('',(0.,4.24043516349886E-16,-1.));
#1245=DIRECTION('',(0.,1.,4.24043516349886E-16));
#1246=DIRECTION('',(0.,4.24043516349886E-16,-1.));
#1247=DIRECTION('',(0.,1.,4.24043516349886E-16));
#1248=DIRECTION('',(0.,4.28639328892144E-16,-1.));
#1249=DIRECTION('',(0.,1.,4.28639328892144E-16));
#1250=DIRECTION('',(-1.,0.,0.));
#1251=DIRECTION('',(0.,-1.,-4.28639328892144E-16));
#1252=DIRECTION('',(-1.,0.,0.));
#1253=DIRECTION('',(0.,1.,6.12323399573677E-17));
#1254=DIRECTION('',(0.,-6.12323399573677E-17,1.));
#1255=DIRECTION('',(0.,6.12323399573677E-17,-1.));
#1256=DIRECTION('',(0.,-1.,-2.4492935982947E-16));
#1257=DIRECTION('',(0.,2.4492935982947E-16,-1.));
#1258=DIRECTION('',(0.,-2.4492935982947E-16,1.));
#1259=DIRECTION('',(-1.,0.,0.));
#1260=DIRECTION('',(0.,0.,1.));
#1261=DIRECTION('',(0.,6.12323399573677E-17,-1.));
#1262=DIRECTION('',(0.,1.,0.));
#1263=DIRECTION('',(0.,-2.4492935982947E-16,1.));
#1264=DIRECTION('',(0.,-1.,-4.28639328892144E-16));
#1265=DIRECTION('',(0.,1.,0.));
#1266=DIRECTION('',(0.,0.,1.));
#1267=DIRECTION('',(-1.,0.,0.));
#1268=DIRECTION('',(0.,6.12323399573677E-17,-1.));
#1269=DIRECTION('',(-1.,0.,0.));
#1270=DIRECTION('',(0.,4.24043516349886E-16,-1.));
#1271=DIRECTION('',(0.,1.,4.24043516349886E-16));
#1272=DIRECTION('',(0.,4.24043516349886E-16,-1.));
#1273=DIRECTION('',(0.,1.,4.24043516349886E-16));
#1274=DIRECTION('',(0.,4.24043516349886E-16,-1.));
#1275=DIRECTION('',(0.,1.,4.24043516349886E-16));
#1276=DIRECTION('',(0.,4.24043516349886E-16,-1.));
#1277=DIRECTION('',(0.,1.,4.24043516349886E-16));
#1278=DIRECTION('',(0.,4.24043516349886E-16,-1.));
#1279=DIRECTION('',(0.,1.,4.24043516349886E-16));
#1280=DIRECTION('',(-1.,0.,0.));
#1281=DIRECTION('',(0.,-1.,-4.28639328892144E-16));
#1282=DIRECTION('',(0.,-1.,0.));
#1283=DIRECTION('',(0.,0.,-1.));
#1284=DIRECTION('',(-1.,0.,0.));
#1285=DIRECTION('',(0.,-2.4492935982947E-16,1.));
#1286=DIRECTION('',(0.,0.,1.));
#1287=DIRECTION('',(1.,0.,0.));
#1288=DIRECTION('',(0.,1.,0.));
#1289=DIRECTION('',(-1.,0.,0.));
#1290=DIRECTION('',(0.,0.,1.));
#1291=DIRECTION('',(0.,6.12323399573677E-17,-1.));
#1292=DIRECTION('',(0.,-2.4492935982947E-16,1.));
#1293=DIRECTION('',(0.,-1.,-4.28639328892144E-16));
#1294=DIRECTION('',(0.,-1.,-2.4492935982947E-16));
#1295=DIRECTION('',(0.,2.4492935982947E-16,-1.));
#1296=DIRECTION('',(0.,2.4492935982947E-16,-1.));
#1297=DIRECTION('',(-1.,0.,0.));
#1298=DIRECTION('',(0.,4.28639328892144E-16,-1.));
#1299=DIRECTION('',(0.,1.,4.28639328892144E-16));
#1300=DIRECTION('',(0.,4.24043516349886E-16,-1.));
#1301=DIRECTION('',(0.,1.,4.24043516349886E-16));
#1302=DIRECTION('',(-1.,0.,0.));
#1303=DIRECTION('',(0.,1.,4.28639328892144E-16));
#1304=DIRECTION('',(0.,4.24043516349886E-16,-1.));
#1305=DIRECTION('',(0.,1.,4.24043516349886E-16));
#1306=DIRECTION('',(0.,4.24043516349886E-16,-1.));
#1307=DIRECTION('',(0.,1.,4.24043516349886E-16));
#1308=DIRECTION('',(0.,4.24043516349886E-16,-1.));
#1309=DIRECTION('',(0.,1.,4.24043516349886E-16));
#1310=DIRECTION('',(0.,4.24043516349886E-16,-1.));
#1311=DIRECTION('',(0.,1.,4.24043516349886E-16));
#1312=DIRECTION('',(0.,4.24043516349886E-16,-1.));
#1313=DIRECTION('',(0.,1.,4.24043516349886E-16));
#1314=DIRECTION('',(0.,4.24043516349886E-16,-1.));
#1315=DIRECTION('',(0.,1.,4.24043516349886E-16));
#1316=DIRECTION('',(0.,4.24043516349886E-16,-1.));
#1317=DIRECTION('',(0.,1.,4.24043516349886E-16));
#1318=DIRECTION('',(0.,1.,6.12323399573677E-17));
#1319=DIRECTION('',(0.,-6.12323399573677E-17,1.));
#1320=DIRECTION('',(1.,0.,0.));
#1321=DIRECTION('',(0.,1.,0.));
#1322=DIRECTION('',(0.,4.24043516349886E-16,-1.));
#1323=DIRECTION('',(0.,4.24043516349886E-16,-1.));
#1324=DIRECTION('',(0.,1.,4.24043516349886E-16));
#1325=DIRECTION('',(0.,4.24043516349886E-16,-1.));
#1326=DIRECTION('',(0.,1.,4.24043516349886E-16));
#1327=DIRECTION('',(0.,4.24043516349886E-16,-1.));
#1328=DIRECTION('',(0.,1.,4.24043516349886E-16));
#1329=DIRECTION('',(0.,4.24043516349886E-16,-1.));
#1330=DIRECTION('',(0.,1.,4.24043516349886E-16));
#1331=DIRECTION('',(0.,4.24043516349886E-16,-1.));
#1332=DIRECTION('',(0.,1.,4.24043516349886E-16));
#1333=DIRECTION('',(0.,4.24043516349886E-16,-1.));
#1334=DIRECTION('',(0.,1.,4.24043516349886E-16));
#1335=DIRECTION('',(0.,4.24043516349886E-16,-1.));
#1336=DIRECTION('',(0.,1.,4.24043516349886E-16));
#1337=DIRECTION('',(0.,4.24043516349886E-16,-1.));
#1338=DIRECTION('',(0.,1.,4.24043516349886E-16));
#1339=DIRECTION('',(0.,1.,0.));
#1340=DIRECTION('',(-1.,0.,0.));
#1341=DIRECTION('',(0.,-1.,0.));
#1342=DIRECTION('',(1.,0.,0.));
#1343=DIRECTION('',(0.,-1.,0.));
#1344=DIRECTION('',(1.,0.,0.));
#1345=DIRECTION('',(0.,-1.,0.));
#1346=DIRECTION('',(1.,0.,0.));
#1347=CARTESIAN_POINT('',(0.,0.,0.));
#1348=CARTESIAN_POINT('',(0.0150895973017993,0.0607501195616134,0.0210729207627592));
#1349=CARTESIAN_POINT('',(0.0150895973017993,0.0607501195616134,0.0326979207627592));
#1350=CARTESIAN_POINT('',(0.0150895973017993,0.0930001195616134,0.0326979207627592));
#1351=CARTESIAN_POINT('',(0.0150895973017993,0.0882543153740188,0.0326979207627592));
#1352=CARTESIAN_POINT('',(0.0150895973017993,0.0882543153740188,0.0319479207627592));
#1353=CARTESIAN_POINT('',(0.0150895973017993,0.0882543153740188,0.00944792076275921));
#1354=CARTESIAN_POINT('',(0.0150895973017993,0.0607501195616134,0.0094479207627592));
#1355=CARTESIAN_POINT('',(0.0150895973017993,0.0930001195616134,0.00944792076275922));
#1356=CARTESIAN_POINT('',(0.0150895973017993,0.0930001195616134,0.0210729207627592));
#1357=CARTESIAN_POINT('',(0.0150895973017993,0.0607501195616134,0.0210729207627592));
#1358=CARTESIAN_POINT('',(0.0150895973017993,0.0858543153740188,0.0319479207627592));
#1359=CARTESIAN_POINT('',(0.0150895973017993,0.0858543153740188,0.0326979207627592));
#1360=CARTESIAN_POINT('',(0.0150895973017993,0.0858543153740188,0.00944792076275921));
#1361=CARTESIAN_POINT('',(0.0150895973017993,0.0607501195616134,0.0326979207627592));
#1362=CARTESIAN_POINT('',(0.0150895973017993,0.0807543153740188,0.0326979207627592));
#1363=CARTESIAN_POINT('',(0.0150895973017993,0.0807543153740188,0.0319479207627592));
#1364=CARTESIAN_POINT('',(0.0150895973017993,0.0807543153740189,0.00944792076275921));
#1365=CARTESIAN_POINT('',(0.0150895973017993,0.0607501195616134,0.0094479207627592));
#1366=CARTESIAN_POINT('',(0.0150895973017993,0.0607501195616134,0.0210729207627592));
#1367=CARTESIAN_POINT('',(0.0150895973017993,0.0783543153740188,0.0319479207627592));
#1368=CARTESIAN_POINT('',(0.0150895973017993,0.0783543153740188,0.0326979207627592));
#1369=CARTESIAN_POINT('',(0.0150895973017993,0.0783543153740189,0.00944792076275921));
#1370=CARTESIAN_POINT('',(0.0150895973017993,0.0607501195616134,0.0326979207627592));
#1371=CARTESIAN_POINT('',(0.0150895973017993,0.0732543153740188,0.0326979207627592));
#1372=CARTESIAN_POINT('',(0.0150895973017993,0.0732543153740188,0.0319479207627592));
#1373=CARTESIAN_POINT('',(0.0150895973017993,0.0732543153740188,0.00944792076275921));
#1374=CARTESIAN_POINT('',(0.0150895973017993,0.0607501195616134,0.0094479207627592));
#1375=CARTESIAN_POINT('',(0.0150895973017993,0.0607501195616134,0.0210729207627592));
#1376=CARTESIAN_POINT('',(0.0150895973017993,0.0708543153740188,0.0319479207627592));
#1377=CARTESIAN_POINT('',(0.0150895973017993,0.0708543153740188,0.0326979207627592));
#1378=CARTESIAN_POINT('',(0.0150895973017993,0.0708543153740188,0.00944792076275921));
#1379=CARTESIAN_POINT('',(0.0150895973017993,0.0607501195616134,0.0326979207627592));
#1380=CARTESIAN_POINT('',(0.0150895973017993,0.0657543153740188,0.0326979207627592));
#1381=CARTESIAN_POINT('',(0.0150895973017993,0.0657543153740188,0.0319479207627592));
#1382=CARTESIAN_POINT('',(0.0150895973017993,0.0657543153740188,0.0094479207627592));
#1383=CARTESIAN_POINT('',(0.0150895973017993,0.0607501195616134,0.0094479207627592));
#1384=CARTESIAN_POINT('',(0.0150895973017993,0.0607501195616134,0.0210729207627592));
#1385=CARTESIAN_POINT('',(0.0150895973017993,0.0633543153740188,0.0319479207627592));
#1386=CARTESIAN_POINT('',(0.0150895973017993,0.0633543153740188,0.0326979207627592));
#1387=CARTESIAN_POINT('',(0.0150895973017993,0.0633543153740188,0.0094479207627592));
#1388=CARTESIAN_POINT('',(0.0150895973017993,0.0607501195616134,0.0326979207627592));
#1389=CARTESIAN_POINT('',(0.0150895973017993,0.0582543153740188,0.0326979207627592));
#1390=CARTESIAN_POINT('',(0.0150895973017993,0.0582543153740188,0.0319479207627592));
#1391=CARTESIAN_POINT('',(0.0150895973017993,0.0582543153740188,0.0094479207627592));
#1392=CARTESIAN_POINT('',(0.0150895973017993,0.0607501195616134,0.0094479207627592));
#1393=CARTESIAN_POINT('',(0.0150895973017993,0.0607501195616134,0.0210729207627592));
#1394=CARTESIAN_POINT('',(0.0150895973017993,0.0558543153740188,0.0319479207627592));
#1395=CARTESIAN_POINT('',(0.0150895973017993,0.0558543153740188,0.0326979207627592));
#1396=CARTESIAN_POINT('',(0.0150895973017993,0.0558543153740188,0.0094479207627592));
#1397=CARTESIAN_POINT('',(0.0150895973017993,0.0607501195616134,0.0326979207627592));
#1398=CARTESIAN_POINT('',(0.0150895973017993,0.0507543153740188,0.0326979207627592));
#1399=CARTESIAN_POINT('',(0.0150895973017993,0.0507543153740188,0.0319479207627592));
#1400=CARTESIAN_POINT('',(0.0150895973017993,0.0507543153740188,0.0094479207627592));
#1401=CARTESIAN_POINT('',(0.0150895973017993,0.0607501195616134,0.0094479207627592));
#1402=CARTESIAN_POINT('',(0.0150895973017993,0.0607501195616134,0.0210729207627592));
#1403=CARTESIAN_POINT('',(0.0150895973017993,0.0483543153740188,0.0319479207627592));
#1404=CARTESIAN_POINT('',(0.0150895973017993,0.0483543153740188,0.0326979207627592));
#1405=CARTESIAN_POINT('',(0.0150895973017993,0.0483543153740188,0.0094479207627592));
#1406=CARTESIAN_POINT('',(0.0150895973017993,0.0607501195616134,0.0326979207627592));
#1407=CARTESIAN_POINT('',(0.0150895973017993,0.0432543153740188,0.0326979207627592));
#1408=CARTESIAN_POINT('',(0.0150895973017993,0.0432543153740188,0.0319479207627592));
#1409=CARTESIAN_POINT('',(0.0150895973017993,0.0432543153740188,0.00944792076275919));
#1410=CARTESIAN_POINT('',(0.0150895973017993,0.0607501195616134,0.0094479207627592));
#1411=CARTESIAN_POINT('',(0.0150895973017993,0.0607501195616134,0.0210729207627592));
#1412=CARTESIAN_POINT('',(0.0150895973017993,0.0408543153740188,0.0319479207627592));
#1413=CARTESIAN_POINT('',(0.0150895973017993,0.0408543153740188,0.0326979207627592));
#1414=CARTESIAN_POINT('',(0.0150895973017993,0.0408543153740188,0.00944792076275919));
#1415=CARTESIAN_POINT('',(0.0150895973017993,0.0607501195616134,0.0326979207627592));
#1416=CARTESIAN_POINT('',(0.0150895973017993,0.0357543153740188,0.0326979207627592));
#1417=CARTESIAN_POINT('',(0.0150895973017993,0.0357543153740188,0.0319479207627592));
#1418=CARTESIAN_POINT('',(0.0150895973017993,0.0357543153740188,0.00944792076275919));
#1419=CARTESIAN_POINT('',(0.0150895973017993,0.0607501195616134,0.0094479207627592));
#1420=CARTESIAN_POINT('',(-0.00291040269820076,0.0607501195616134,0.0210729207627592));
#1421=CARTESIAN_POINT('',(-0.00291040269820076,0.0510001195616133,0.0319479207627592));
#1422=CARTESIAN_POINT('',(-0.00291040269820076,0.0510001195616133,0.0326979207627592));
#1423=CARTESIAN_POINT('',(-0.00291040269820076,0.0510001195616133,0.00944792076275919));
#1424=CARTESIAN_POINT('',(-0.00291040269820076,0.0607501195616134,0.0326979207627592));
#1425=CARTESIAN_POINT('',(-0.00291040269820076,0.0561001195616133,0.0326979207627592));
#1426=CARTESIAN_POINT('',(-0.00291040269820076,0.0561001195616133,0.0319479207627592));
#1427=CARTESIAN_POINT('',(-0.00291040269820076,0.0561001195616133,0.00944792076275919));
#1428=CARTESIAN_POINT('',(-0.00291040269820076,0.0607501195616134,0.0094479207627592));
#1429=CARTESIAN_POINT('',(-0.00291040269820076,0.0607501195616134,0.0210729207627592));
#1430=CARTESIAN_POINT('',(-0.00291040269820076,0.0607501195616134,0.0326979207627592));
#1431=CARTESIAN_POINT('',(-0.00291040269820076,0.0486001195616133,0.0326979207627592));
#1432=CARTESIAN_POINT('',(-0.00291040269820076,0.0435001195616133,0.0326979207627592));
#1433=CARTESIAN_POINT('',(-0.00291040269820076,0.0486001195616133,0.0319479207627592));
#1434=CARTESIAN_POINT('',(-0.00291040269820076,0.0486001195616133,0.00944792076275919));
#1435=CARTESIAN_POINT('',(-0.00291040269820076,0.0607501195616134,0.0094479207627592));
#1436=CARTESIAN_POINT('',(-0.00291040269820076,0.0435001195616133,0.00944792076275919));
#1437=CARTESIAN_POINT('',(-0.00291040269820076,0.0435001195616133,0.0319479207627592));
#1438=CARTESIAN_POINT('',(-0.00291040269820076,0.0607501195616134,0.0210729207627592));
#1439=CARTESIAN_POINT('',(-0.00291040269820076,0.0607501195616134,0.0326979207627592));
#1440=CARTESIAN_POINT('',(-0.00291040269820076,0.0411001195616134,0.0326979207627592));
#1441=CARTESIAN_POINT('',(-0.00291040269820076,0.0360001195616134,0.0326979207627592));
#1442=CARTESIAN_POINT('',(-0.00291040269820076,0.0411001195616134,0.0319479207627592));
#1443=CARTESIAN_POINT('',(-0.00291040269820076,0.0411001195616134,0.00944792076275919));
#1444=CARTESIAN_POINT('',(-0.00291040269820076,0.0607501195616134,0.0094479207627592));
#1445=CARTESIAN_POINT('',(-0.00291040269820076,0.0360001195616134,0.00944792076275919));
#1446=CARTESIAN_POINT('',(-0.00291040269820076,0.0360001195616134,0.0319479207627592));
#1447=CARTESIAN_POINT('',(-0.00291040269820076,0.0607501195616134,0.0210729207627592));
#1448=CARTESIAN_POINT('',(-0.00291040269820076,0.0585001195616133,0.0319479207627592));
#1449=CARTESIAN_POINT('',(-0.00291040269820076,0.0585001195616133,0.0326979207627592));
#1450=CARTESIAN_POINT('',(-0.00291040269820076,0.0585001195616134,0.0094479207627592));
#1451=CARTESIAN_POINT('',(-0.00291040269820076,0.0607501195616134,0.0326979207627592));
#1452=CARTESIAN_POINT('',(-0.00291040269820076,0.0636001195616133,0.0326979207627592));
#1453=CARTESIAN_POINT('',(-0.00291040269820076,0.0636001195616133,0.0319479207627592));
#1454=CARTESIAN_POINT('',(-0.00291040269820076,0.0636001195616133,0.0094479207627592));
#1455=CARTESIAN_POINT('',(-0.00291040269820076,0.0607501195616134,0.0094479207627592));
#1456=CARTESIAN_POINT('',(-0.00291040269820076,0.0607501195616134,0.0210729207627592));
#1457=CARTESIAN_POINT('',(-0.00291040269820076,0.0660001195616133,0.0319479207627592));
#1458=CARTESIAN_POINT('',(-0.00291040269820076,0.0660001195616133,0.0326979207627592));
#1459=CARTESIAN_POINT('',(-0.00291040269820076,0.0660001195616133,0.0094479207627592));
#1460=CARTESIAN_POINT('',(-0.00291040269820076,0.0607501195616134,0.0326979207627592));
#1461=CARTESIAN_POINT('',(-0.00291040269820076,0.0711001195616133,0.0326979207627592));
#1462=CARTESIAN_POINT('',(-0.00291040269820076,0.0711001195616133,0.0319479207627592));
#1463=CARTESIAN_POINT('',(-0.00291040269820076,0.0711001195616133,0.00944792076275921));
#1464=CARTESIAN_POINT('',(-0.00291040269820076,0.0607501195616134,0.0094479207627592));
#1465=CARTESIAN_POINT('',(-0.00291040269820076,0.0607501195616134,0.0210729207627592));
#1466=CARTESIAN_POINT('',(-0.00291040269820076,0.0735001195616133,0.0319479207627592));
#1467=CARTESIAN_POINT('',(-0.00291040269820076,0.0735001195616133,0.0326979207627592));
#1468=CARTESIAN_POINT('',(-0.00291040269820076,0.0735001195616134,0.00944792076275921));
#1469=CARTESIAN_POINT('',(-0.00291040269820076,0.0607501195616134,0.0326979207627592));
#1470=CARTESIAN_POINT('',(-0.00291040269820076,0.0786001195616133,0.0326979207627592));
#1471=CARTESIAN_POINT('',(-0.00291040269820076,0.0786001195616133,0.0319479207627592));
#1472=CARTESIAN_POINT('',(-0.00291040269820076,0.0786001195616133,0.00944792076275921));
#1473=CARTESIAN_POINT('',(-0.00291040269820076,0.0607501195616134,0.0094479207627592));
#1474=CARTESIAN_POINT('',(-0.00291040269820076,0.0607501195616134,0.0210729207627592));
#1475=CARTESIAN_POINT('',(-0.00291040269820076,0.0810001195616133,0.0319479207627592));
#1476=CARTESIAN_POINT('',(-0.00291040269820076,0.0810001195616133,0.0326979207627592));
#1477=CARTESIAN_POINT('',(-0.00291040269820076,0.0810001195616133,0.00944792076275921));
#1478=CARTESIAN_POINT('',(-0.00291040269820076,0.0607501195616134,0.0326979207627592));
#1479=CARTESIAN_POINT('',(-0.00291040269820076,0.0861001195616133,0.0326979207627592));
#1480=CARTESIAN_POINT('',(-0.00291040269820076,0.0861001195616133,0.0319479207627592));
#1481=CARTESIAN_POINT('',(-0.00291040269820076,0.0861001195616133,0.00944792076275921));
#1482=CARTESIAN_POINT('',(-0.00291040269820076,0.0607501195616134,0.0094479207627592));
#1483=CARTESIAN_POINT('',(-0.00291040269820076,0.0607501195616134,0.0210729207627592));
#1484=CARTESIAN_POINT('',(-0.00291040269820076,0.0885001195616133,0.0319479207627592));
#1485=CARTESIAN_POINT('',(-0.00291040269820076,0.0885001195616133,0.0326979207627592));
#1486=CARTESIAN_POINT('',(-0.00291040269820076,0.0885001195616134,0.00944792076275921));
#1487=CARTESIAN_POINT('',(-0.00291040269820076,0.0607501195616134,0.0326979207627592));
#1488=CARTESIAN_POINT('',(-0.00291040269820076,0.0930001195616134,0.0326979207627592));
#1489=CARTESIAN_POINT('',(-0.00291040269820076,0.0930001195616134,0.0210729207627592));
#1490=CARTESIAN_POINT('',(-0.00291040269820076,0.0930001195616134,0.00944792076275922));
#1491=CARTESIAN_POINT('',(-0.00291040269820076,0.0607501195616134,0.0094479207627592));
#1492=CARTESIAN_POINT('',(0.0158395973017993,0.0563734432923356,0.0326979207627592));
#1493=CARTESIAN_POINT('',(0.0141895973017992,0.0870543153740188,0.0326979207627592));
#1494=CARTESIAN_POINT('',(0.0158395973017993,0.0930001195616134,0.0326979207627592));
#1495=CARTESIAN_POINT('',(0.0158395973017993,0.0930001195616134,0.0326979207627592));
#1496=CARTESIAN_POINT('',(0.0158395973017993,0.0563734432923356,0.0326979207627592));
#1497=CARTESIAN_POINT('',(0.0158395973017993,0.0285001195616134,0.0326979207627592));
#1498=CARTESIAN_POINT('',(0.0158395973017993,0.0285001195616134,0.0326979207627592));
#1499=CARTESIAN_POINT('',(0.0150895973017993,0.0285001195616134,0.0326979207627592));
#1500=CARTESIAN_POINT('',(0.0150895973017993,0.0607501195616134,0.0326979207627592));
#1501=CARTESIAN_POINT('',(0.0150895973017993,0.0333543153740188,0.0326979207627592));
#1502=CARTESIAN_POINT('',(0.0141895973017992,0.0345543153740188,0.0326979207627592));
#1503=CARTESIAN_POINT('',(0.0141895973017992,0.0420543153740188,0.0326979207627592));
#1504=CARTESIAN_POINT('',(0.0141895973017992,0.0495543153740188,0.0326979207627592));
#1505=CARTESIAN_POINT('',(0.0141895973017992,0.0570543153740188,0.0326979207627592));
#1506=CARTESIAN_POINT('',(0.0141895973017992,0.0645543153740188,0.0326979207627592));
#1507=CARTESIAN_POINT('',(0.0141895973017992,0.0720543153740188,0.0326979207627592));
#1508=CARTESIAN_POINT('',(0.0141895973017992,0.0795543153740188,0.0326979207627592));
#1509=CARTESIAN_POINT('',(0.0158395973017993,0.0563734432923356,0.0326979207627592));
#1510=CARTESIAN_POINT('',(-0.00201040269820075,0.0498001195616133,0.0326979207627592));
#1511=CARTESIAN_POINT('',(-0.00201040269820075,0.0423001195616134,0.0326979207627592));
#1512=CARTESIAN_POINT('',(-0.00201040269820075,0.0348001195616134,0.0326979207627592));
#1513=CARTESIAN_POINT('',(-0.00291040269820076,0.0336001195616134,0.0326979207627592));
#1514=CARTESIAN_POINT('',(-0.00291040269820076,0.0607501195616134,0.0326979207627592));
#1515=CARTESIAN_POINT('',(-0.00291040269820076,0.0285001195616134,0.0326979207627592));
#1516=CARTESIAN_POINT('',(0.0158395973017993,0.0285001195616134,0.0326979207627592));
#1517=CARTESIAN_POINT('',(-0.00366040269820076,0.0285001195616134,0.0326979207627592));
#1518=CARTESIAN_POINT('',(-0.00366040269820076,0.0563734432923356,0.0326979207627592));
#1519=CARTESIAN_POINT('',(-0.00366040269820076,0.0930001195616134,0.0326979207627592));
#1520=CARTESIAN_POINT('',(0.0158395973017993,0.0930001195616134,0.0326979207627592));
#1521=CARTESIAN_POINT('',(-0.00201040269820076,0.0873001195616134,0.0326979207627592));
#1522=CARTESIAN_POINT('',(-0.00201040269820074,0.0798001195616133,0.0326979207627592));
#1523=CARTESIAN_POINT('',(-0.00201040269820074,0.0723001195616133,0.0326979207627592));
#1524=CARTESIAN_POINT('',(-0.00201040269820076,0.0648001195616133,0.0326979207627592));
#1525=CARTESIAN_POINT('',(-0.00201040269820076,0.0573001195616133,0.0326979207627592));
#1526=CARTESIAN_POINT('',(0.0150895973017993,0.0607501195616134,0.0210729207627592));
#1527=CARTESIAN_POINT('',(0.0150895973017993,0.0333543153740188,0.0319479207627592));
#1528=CARTESIAN_POINT('',(0.0150895973017993,0.0333543153740188,0.00944792076275919));
#1529=CARTESIAN_POINT('',(0.0150895973017993,0.0285001195616134,0.0210729207627591));
#1530=CARTESIAN_POINT('',(0.0150895973017993,0.0285001195616134,0.00944792076275919));
#1531=CARTESIAN_POINT('',(0.0150895973017993,0.0607501195616134,0.0094479207627592));
#1532=CARTESIAN_POINT('',(0.0141895973017992,0.0345543153740188,0.0319479207627592));
#1533=CARTESIAN_POINT('',(0.0141895973017992,0.0345543153740188,0.00944792076275919));
#1534=CARTESIAN_POINT('',(0.0141895973017992,0.0420543153740188,0.0319479207627592));
#1535=CARTESIAN_POINT('',(0.0141895973017992,0.0420543153740188,0.00944792076275919));
#1536=CARTESIAN_POINT('',(0.0141895973017992,0.0495543153740188,0.0319479207627592));
#1537=CARTESIAN_POINT('',(0.0141895973017992,0.0495543153740188,0.00944792076275919));
#1538=CARTESIAN_POINT('',(0.0141895973017992,0.0570543153740188,0.0319479207627592));
#1539=CARTESIAN_POINT('',(0.0141895973017992,0.0570543153740188,0.00944792076275919));
#1540=CARTESIAN_POINT('',(0.0141895973017992,0.0645543153740188,0.0319479207627592));
#1541=CARTESIAN_POINT('',(0.0141895973017992,0.0645543153740188,0.0094479207627592));
#1542=CARTESIAN_POINT('',(0.0141895973017992,0.0720543153740188,0.0319479207627592));
#1543=CARTESIAN_POINT('',(0.0141895973017992,0.0720543153740188,0.00944792076275921));
#1544=CARTESIAN_POINT('',(0.0141895973017992,0.0795543153740188,0.0319479207627592));
#1545=CARTESIAN_POINT('',(0.0141895973017992,0.0795543153740188,0.00944792076275921));
#1546=CARTESIAN_POINT('',(0.0141895973017992,0.0870543153740188,0.0319479207627592));
#1547=CARTESIAN_POINT('',(0.0141895973017992,0.0870543153740188,0.00944792076275921));
#1548=CARTESIAN_POINT('',(0.0158395973017993,0.0563734454856298,0.0094479207627592));
#1549=CARTESIAN_POINT('',(0.0158395973017993,0.0285001195616134,0.00944792076275919));
#1550=CARTESIAN_POINT('',(0.0158395973017993,0.0285001195616134,0.00944792076275919));
#1551=CARTESIAN_POINT('',(0.0158395973017993,0.0563734454856298,0.0094479207627592));
#1552=CARTESIAN_POINT('',(0.0158395973017993,0.0930001195616134,0.00944792076275922));
#1553=CARTESIAN_POINT('',(0.0158395973017993,0.0930001195616134,0.00944792076275922));
#1554=CARTESIAN_POINT('',(0.0158395973017993,0.0930001195616134,0.0211405294848469));
#1555=CARTESIAN_POINT('',(0.0158395973017993,0.0930001195616134,0.0211405294848469));
#1556=CARTESIAN_POINT('',(0.0158395973017993,0.0285001195616134,0.0211277349954129));
#1557=CARTESIAN_POINT('',(0.0158395973017993,0.0285001195616134,0.0211277349954129));
#1558=CARTESIAN_POINT('',(0.0158395973017993,-0.00517645949794674,-0.0112835877232137));
#1559=CARTESIAN_POINT('',(0.0158395973017993,0.0945001195616134,0.0211405294848469));
#1560=CARTESIAN_POINT('',(0.0158395973017993,0.0945001195616134,0.0341979207627592));
#1561=CARTESIAN_POINT('',(0.0158395973017993,0.0945001195616134,0.00794792076275921));
#1562=CARTESIAN_POINT('',(0.0158395973017993,0.0563734432923356,0.0341979207627592));
#1563=CARTESIAN_POINT('',(0.0158395973017993,0.0270001195616133,0.0341979207627592));
#1564=CARTESIAN_POINT('',(0.0158395973017993,0.0270001195616133,0.0211277349954129));
#1565=CARTESIAN_POINT('',(0.0158395973017993,0.0270001195616133,0.00794792076275919));
#1566=CARTESIAN_POINT('',(0.0158395973017993,0.0563734454856298,0.0079479207627592));
#1567=CARTESIAN_POINT('',(0.0150895973017993,0.0945001195616134,0.00870495997345765));
#1568=CARTESIAN_POINT('',(0.0150895973017993,0.0945001195616134,0.00794792076275921));
#1569=CARTESIAN_POINT('',(-0.00366040269820076,0.0945001195616134,0.00794792076275921));
#1570=CARTESIAN_POINT('',(-0.00366040269820076,0.0945001195616134,0.0211405294848469));
#1571=CARTESIAN_POINT('',(-0.00366040269820076,0.0945001195616134,0.0341979207627592));
#1572=CARTESIAN_POINT('',(0.0150895973017993,0.0945001195616134,0.0341979207627592));
#1573=CARTESIAN_POINT('',(0.0150895973017993,0.0607501195616134,0.0079479207627592));
#1574=CARTESIAN_POINT('',(0.0128395973017992,0.0907501195616134,0.00794792076275921));
#1575=CARTESIAN_POINT('',(0.0128395973017992,0.0915001195616134,0.00794792076275921));
#1576=CARTESIAN_POINT('',(-0.000660402698200751,0.0907501195616134,0.00794792076275921));
#1577=CARTESIAN_POINT('',(-0.000660402698200751,0.0915001195616134,0.00794792076275921));
#1578=CARTESIAN_POINT('',(-0.000660402698200754,0.0307501195616134,0.00794792076275919));
#1579=CARTESIAN_POINT('',(-0.000660402698200754,0.0315001195616134,0.00794792076275919));
#1580=CARTESIAN_POINT('',(0.0128395973017992,0.0307501195616134,0.00794792076275919));
#1581=CARTESIAN_POINT('',(0.0128395973017992,0.0315001195616134,0.00794792076275919));
#1582=CARTESIAN_POINT('',(0.0150895973017993,0.0270001195616134,0.00794792076275917));
#1583=CARTESIAN_POINT('',(-0.00366040269820076,0.0270001195616133,0.00794792076275919));
#1584=CARTESIAN_POINT('',(-0.00366040269820076,0.0563734454856298,0.0079479207627592));
#1585=CARTESIAN_POINT('',(0.0150895973017993,0.0270001195616134,0.00870495997345762));
#1586=CARTESIAN_POINT('',(0.0150895973017993,0.0270001195616133,0.0341979207627592));
#1587=CARTESIAN_POINT('',(-0.00366040269820076,0.0270001195616133,0.0341979207627592));
#1588=CARTESIAN_POINT('',(-0.00366040269820076,0.0270001195616133,0.0211277349954129));
#1589=CARTESIAN_POINT('',(0.0150895973017993,0.0607501195616134,0.0341979207627592));
#1590=CARTESIAN_POINT('',(-0.00366040269820076,0.0563734432923356,0.0341979207627592));
#1591=CARTESIAN_POINT('',(-0.00366040269820076,-0.00517645949794674,-0.0112835877232137));
#1592=CARTESIAN_POINT('',(-0.00366040269820076,0.0930001195616134,0.0211405294848469));
#1593=CARTESIAN_POINT('',(-0.00366040269820076,0.0930001195616134,0.00944792076275922));
#1594=CARTESIAN_POINT('',(-0.00366040269820076,0.0285001195616134,0.0211277349954129));
#1595=CARTESIAN_POINT('',(-0.00366040269820076,0.0285001195616134,0.00944792076275919));
#1596=CARTESIAN_POINT('',(-0.00366040269820076,0.0563734454856298,0.0094479207627592));
#1597=CARTESIAN_POINT('',(0.0158395973017993,0.0285001195616134,0.0211277349954129));
#1598=CARTESIAN_POINT('',(-0.00291040269820076,0.0285001195616134,0.0210729207627591));
#1599=CARTESIAN_POINT('',(-0.00291040269820076,0.0285001195616134,0.00944792076275919));
#1600=CARTESIAN_POINT('',(0.0158395973017993,0.0285001195616134,0.00944792076275919));
#1601=CARTESIAN_POINT('',(0.0158395973017993,0.0563734454856298,0.0094479207627592));
#1602=CARTESIAN_POINT('',(-0.00201040269820076,0.0873001195616134,0.00944792076275921));
#1603=CARTESIAN_POINT('',(0.0158395973017993,0.0930001195616134,0.00944792076275922));
#1604=CARTESIAN_POINT('',(-0.00291040269820076,0.0607501195616134,0.0094479207627592));
#1605=CARTESIAN_POINT('',(-0.00291040269820076,0.0336001195616134,0.00944792076275919));
#1606=CARTESIAN_POINT('',(-0.00201040269820075,0.0348001195616134,0.00944792076275919));
#1607=CARTESIAN_POINT('',(-0.00201040269820075,0.0423001195616134,0.00944792076275919));
#1608=CARTESIAN_POINT('',(-0.00201040269820075,0.0498001195616133,0.00944792076275919));
#1609=CARTESIAN_POINT('',(-0.00201040269820076,0.0573001195616134,0.00944792076275919));
#1610=CARTESIAN_POINT('',(-0.00201040269820076,0.0648001195616133,0.0094479207627592));
#1611=CARTESIAN_POINT('',(-0.00201040269820074,0.0723001195616134,0.00944792076275921));
#1612=CARTESIAN_POINT('',(-0.00201040269820074,0.0798001195616133,0.00944792076275921));
#1613=CARTESIAN_POINT('',(0.0158395973017993,0.0930001195616134,0.0211405294848469));
#1614=CARTESIAN_POINT('',(-0.00291040269820076,0.0607501195616134,0.0210729207627592));
#1615=CARTESIAN_POINT('',(-0.00291040269820076,0.0336001195616134,0.0319479207627592));
#1616=CARTESIAN_POINT('',(-0.00201040269820075,0.0498001195616133,0.0319479207627592));
#1617=CARTESIAN_POINT('',(-0.00201040269820075,0.0423001195616134,0.0319479207627592));
#1618=CARTESIAN_POINT('',(-0.00201040269820075,0.0348001195616134,0.0319479207627592));
#1619=CARTESIAN_POINT('',(-0.00201040269820076,0.0573001195616133,0.0319479207627592));
#1620=CARTESIAN_POINT('',(-0.00201040269820076,0.0648001195616133,0.0319479207627592));
#1621=CARTESIAN_POINT('',(-0.00201040269820074,0.0723001195616133,0.0319479207627592));
#1622=CARTESIAN_POINT('',(-0.00201040269820074,0.0798001195616133,0.0319479207627592));
#1623=CARTESIAN_POINT('',(-0.00201040269820076,0.0873001195616134,0.0319479207627592));
#1624=CARTESIAN_POINT('',(0.0128395973017992,0.0307501195616134,0.00794792076275919));
#1625=CARTESIAN_POINT('',(-0.000660402698200754,0.0307501195616134,0.00794792076275919));
#1626=CARTESIAN_POINT('',(-0.000660402698200751,0.0907501195616134,0.00794792076275921));
#1627=CARTESIAN_POINT('',(0.0128395973017992,0.0907501195616134,0.00794792076275921));
#1628=MECHANICAL_DESIGN_GEOMETRIC_PRESENTATION_REPRESENTATION('',(#969),
#1629);
#1629=(
GEOMETRIC_REPRESENTATION_CONTEXT(3)
GLOBAL_UNCERTAINTY_ASSIGNED_CONTEXT((#1630))
GLOBAL_UNIT_ASSIGNED_CONTEXT((#1633,#1632,#1631))
REPRESENTATION_CONTEXT('Container','TOP_LEVEL_ASSEMBLY_PART')
);
#1630=UNCERTAINTY_MEASURE_WITH_UNIT(LENGTH_MEASURE(1.E-8),#1633,
'DISTANCE_ACCURACY_VALUE','Maximum Tolerance applied to model');
#1631=(
NAMED_UNIT(*)
SI_UNIT($,.STERADIAN.)
SOLID_ANGLE_UNIT()
);
#1632=(
NAMED_UNIT(*)
PLANE_ANGLE_UNIT()
SI_UNIT($,.RADIAN.)
);
#1633=(
LENGTH_UNIT()
NAMED_UNIT(*)
SI_UNIT($,.METRE.)
);
#1634=PRODUCT_DEFINITION_SHAPE('','',#1635);
#1635=PRODUCT_DEFINITION('','',#1637,#1636);
#1636=PRODUCT_DEFINITION_CONTEXT('',#1643,'design');
#1637=PRODUCT_DEFINITION_FORMATION_WITH_SPECIFIED_SOURCE('','',#1639,
 .NOT_KNOWN.);
#1638=PRODUCT_RELATED_PRODUCT_CATEGORY('','',(#1639));
#1639=PRODUCT('Container','Container','Container',(#1641));
#1640=PRODUCT_CATEGORY('','');
#1641=PRODUCT_CONTEXT('',#1643,'mechanical');
#1642=APPLICATION_PROTOCOL_DEFINITION('international standard',
'ap242_managed_model_based_3d_engineering',2020,#1643);
#1643=APPLICATION_CONTEXT('managed model based 3d engineering');
ENDSEC;
END-ISO-10303-21;
