ISO-10303-21;
HEADER;
/* Generated by software containing ST-Developer
 * from STEP Tools, Inc. (www.steptools.com) 
 */
/* OPTION: using custom renumber hook */

FILE_DESCRIPTION(
/* description */ ('STEP AP242 Edition 2',
'CAx-IF Rec.Pracs.---Representation and Presentation of Product Manufa
cturing Information (PMI)---4.0---2014-10-13',
'CAx-IF Rec.Pracs.---3D Tessellated Geometry---0.4---2014-09-14','2;1',
'CAx-IF Rec.Pracs.---User Defined Attributes---1.5---2016-08-15'),
/* implementation_level */ '2;1');

FILE_NAME(
/* name */ 'Cargo_Plate - Cargo_Body',
/* time_stamp */ '2026-06-19T12:12:14Z',
/* author */ (''),
/* organization */ (''),
/* preprocessor_version */ 'ST-DEVELOPER v20',
/* originating_system */ 'ONSHAPE BY PTC INC, 1.216',
/* authorisation */ '  ');

FILE_SCHEMA (('AP242_MANAGED_MODEL_BASED_3D_ENGINEERING_MIM_LF { 1 0 10303 442 3 1 4 }'));
ENDSEC;

DATA;
#10=SHAPE_REPRESENTATION_RELATIONSHIP('','',#552,#11);
#11=ADVANCED_BREP_SHAPE_REPRESENTATION('',(#550),#907);
#12=DEGENERATE_TOROIDAL_SURFACE('',#598,0.0003,0.00045,.T.);
#13=SPHERICAL_SURFACE('',#581,0.0015);
#14=SPHERICAL_SURFACE('',#582,0.0015);
#15=SPHERICAL_SURFACE('',#583,0.0015);
#16=SPHERICAL_SURFACE('',#584,0.0015);
#17=SPHERICAL_SURFACE('',#585,0.0015);
#18=SPHERICAL_SURFACE('',#586,0.0015);
#19=SPHERICAL_SURFACE('',#587,0.0015);
#20=SPHERICAL_SURFACE('',#588,0.0015);
#21=CYLINDRICAL_SURFACE('',#575,0.003);
#22=CYLINDRICAL_SURFACE('',#578,0.003);
#23=CYLINDRICAL_SURFACE('',#594,0.00075);
#24=CYLINDRICAL_SURFACE('',#604,0.00105);
#25=CIRCLE('',#557,0.003);
#26=CIRCLE('',#562,0.00105);
#27=CIRCLE('',#563,0.003);
#28=CIRCLE('',#565,0.0015);
#29=CIRCLE('',#566,0.0015);
#30=CIRCLE('',#567,0.0015);
#31=CIRCLE('',#568,0.0015);
#32=CIRCLE('',#569,0.0015);
#33=CIRCLE('',#570,0.0015);
#34=CIRCLE('',#571,0.0015);
#35=CIRCLE('',#572,0.0015);
#36=CIRCLE('',#576,0.003);
#37=CIRCLE('',#579,0.003);
#38=CIRCLE('',#591,0.00075);
#39=CIRCLE('',#595,0.00075);
#40=CIRCLE('',#597,0.0003);
#41=CIRCLE('',#602,0.00105);
#42=ORIENTED_EDGE('',*,*,#172,.T.);
#43=ORIENTED_EDGE('',*,*,#173,.T.);
#44=ORIENTED_EDGE('',*,*,#174,.T.);
#45=ORIENTED_EDGE('',*,*,#175,.T.);
#46=ORIENTED_EDGE('',*,*,#176,.T.);
#47=ORIENTED_EDGE('',*,*,#177,.F.);
#48=ORIENTED_EDGE('',*,*,#178,.F.);
#49=ORIENTED_EDGE('',*,*,#179,.T.);
#50=ORIENTED_EDGE('',*,*,#180,.F.);
#51=ORIENTED_EDGE('',*,*,#181,.F.);
#52=ORIENTED_EDGE('',*,*,#182,.F.);
#53=ORIENTED_EDGE('',*,*,#183,.T.);
#54=ORIENTED_EDGE('',*,*,#184,.F.);
#55=ORIENTED_EDGE('',*,*,#185,.F.);
#56=ORIENTED_EDGE('',*,*,#186,.T.);
#57=ORIENTED_EDGE('',*,*,#187,.T.);
#58=ORIENTED_EDGE('',*,*,#188,.F.);
#59=ORIENTED_EDGE('',*,*,#189,.F.);
#60=ORIENTED_EDGE('',*,*,#190,.F.);
#61=ORIENTED_EDGE('',*,*,#191,.T.);
#62=ORIENTED_EDGE('',*,*,#185,.T.);
#63=ORIENTED_EDGE('',*,*,#192,.F.);
#64=ORIENTED_EDGE('',*,*,#193,.F.);
#65=ORIENTED_EDGE('',*,*,#194,.T.);
#66=ORIENTED_EDGE('',*,*,#190,.T.);
#67=ORIENTED_EDGE('',*,*,#195,.F.);
#68=ORIENTED_EDGE('',*,*,#196,.F.);
#69=ORIENTED_EDGE('',*,*,#197,.T.);
#70=ORIENTED_EDGE('',*,*,#193,.T.);
#71=ORIENTED_EDGE('',*,*,#198,.F.);
#72=ORIENTED_EDGE('',*,*,#199,.F.);
#73=ORIENTED_EDGE('',*,*,#200,.T.);
#74=ORIENTED_EDGE('',*,*,#196,.T.);
#75=ORIENTED_EDGE('',*,*,#201,.F.);
#76=ORIENTED_EDGE('',*,*,#202,.F.);
#77=ORIENTED_EDGE('',*,*,#203,.F.);
#78=ORIENTED_EDGE('',*,*,#176,.F.);
#79=ORIENTED_EDGE('',*,*,#204,.F.);
#80=ORIENTED_EDGE('',*,*,#205,.F.);
#81=ORIENTED_EDGE('',*,*,#206,.T.);
#82=ORIENTED_EDGE('',*,*,#172,.F.);
#83=ORIENTED_EDGE('',*,*,#207,.T.);
#84=ORIENTED_EDGE('',*,*,#199,.T.);
#85=ORIENTED_EDGE('',*,*,#208,.T.);
#86=ORIENTED_EDGE('',*,*,#209,.T.);
#87=ORIENTED_EDGE('',*,*,#210,.F.);
#88=ORIENTED_EDGE('',*,*,#211,.T.);
#89=ORIENTED_EDGE('',*,*,#212,.T.);
#90=ORIENTED_EDGE('',*,*,#213,.F.);
#91=ORIENTED_EDGE('',*,*,#214,.T.);
#92=ORIENTED_EDGE('',*,*,#215,.T.);
#93=ORIENTED_EDGE('',*,*,#216,.F.);
#94=ORIENTED_EDGE('',*,*,#183,.F.);
#95=ORIENTED_EDGE('',*,*,#217,.F.);
#96=ORIENTED_EDGE('',*,*,#218,.F.);
#97=ORIENTED_EDGE('',*,*,#219,.T.);
#98=ORIENTED_EDGE('',*,*,#187,.F.);
#99=ORIENTED_EDGE('',*,*,#220,.T.);
#100=ORIENTED_EDGE('',*,*,#178,.T.);
#101=ORIENTED_EDGE('',*,*,#186,.F.);
#102=ORIENTED_EDGE('',*,*,#191,.F.);
#103=ORIENTED_EDGE('',*,*,#194,.F.);
#104=ORIENTED_EDGE('',*,*,#197,.F.);
#105=ORIENTED_EDGE('',*,*,#200,.F.);
#106=ORIENTED_EDGE('',*,*,#207,.F.);
#107=ORIENTED_EDGE('',*,*,#179,.F.);
#108=ORIENTED_EDGE('',*,*,#220,.F.);
#109=ORIENTED_EDGE('',*,*,#184,.T.);
#110=ORIENTED_EDGE('',*,*,#216,.T.);
#111=ORIENTED_EDGE('',*,*,#177,.T.);
#112=ORIENTED_EDGE('',*,*,#203,.T.);
#113=ORIENTED_EDGE('',*,*,#198,.T.);
#114=ORIENTED_EDGE('',*,*,#195,.T.);
#115=ORIENTED_EDGE('',*,*,#192,.T.);
#116=ORIENTED_EDGE('',*,*,#189,.T.);
#117=ORIENTED_EDGE('',*,*,#221,.F.);
#118=ORIENTED_EDGE('',*,*,#202,.T.);
#119=ORIENTED_EDGE('',*,*,#221,.T.);
#120=ORIENTED_EDGE('',*,*,#222,.F.);
#121=ORIENTED_EDGE('',*,*,#188,.T.);
#122=ORIENTED_EDGE('',*,*,#222,.T.);
#123=ORIENTED_EDGE('',*,*,#215,.F.);
#124=ORIENTED_EDGE('',*,*,#214,.F.);
#125=ORIENTED_EDGE('',*,*,#213,.T.);
#126=ORIENTED_EDGE('',*,*,#212,.F.);
#127=ORIENTED_EDGE('',*,*,#211,.F.);
#128=ORIENTED_EDGE('',*,*,#210,.T.);
#129=ORIENTED_EDGE('',*,*,#209,.F.);
#130=ORIENTED_EDGE('',*,*,#208,.F.);
#131=ORIENTED_EDGE('',*,*,#182,.T.);
#132=ORIENTED_EDGE('',*,*,#223,.F.);
#133=ORIENTED_EDGE('',*,*,#224,.F.);
#134=ORIENTED_EDGE('',*,*,#217,.T.);
#135=ORIENTED_EDGE('',*,*,#225,.F.);
#136=ORIENTED_EDGE('',*,*,#181,.T.);
#137=ORIENTED_EDGE('',*,*,#226,.F.);
#138=ORIENTED_EDGE('',*,*,#227,.F.);
#139=ORIENTED_EDGE('',*,*,#223,.T.);
#140=ORIENTED_EDGE('',*,*,#180,.T.);
#141=ORIENTED_EDGE('',*,*,#219,.F.);
#142=ORIENTED_EDGE('',*,*,#228,.F.);
#143=ORIENTED_EDGE('',*,*,#226,.T.);
#144=ORIENTED_EDGE('',*,*,#218,.T.);
#145=ORIENTED_EDGE('',*,*,#224,.T.);
#146=ORIENTED_EDGE('',*,*,#227,.T.);
#147=ORIENTED_EDGE('',*,*,#228,.T.);
#148=ORIENTED_EDGE('',*,*,#229,.T.);
#149=ORIENTED_EDGE('',*,*,#225,.T.);
#150=ORIENTED_EDGE('',*,*,#230,.T.);
#151=ORIENTED_EDGE('',*,*,#229,.F.);
#152=ORIENTED_EDGE('',*,*,#230,.F.);
#153=ORIENTED_EDGE('',*,*,#173,.F.);
#154=ORIENTED_EDGE('',*,*,#206,.F.);
#155=ORIENTED_EDGE('',*,*,#231,.T.);
#156=ORIENTED_EDGE('',*,*,#232,.T.);
#157=ORIENTED_EDGE('',*,*,#175,.F.);
#158=ORIENTED_EDGE('',*,*,#233,.F.);
#159=ORIENTED_EDGE('',*,*,#234,.T.);
#160=ORIENTED_EDGE('',*,*,#204,.T.);
#161=ORIENTED_EDGE('',*,*,#235,.F.);
#162=ORIENTED_EDGE('',*,*,#174,.F.);
#163=ORIENTED_EDGE('',*,*,#232,.F.);
#164=ORIENTED_EDGE('',*,*,#236,.T.);
#165=ORIENTED_EDGE('',*,*,#233,.T.);
#166=ORIENTED_EDGE('',*,*,#231,.F.);
#167=ORIENTED_EDGE('',*,*,#205,.T.);
#168=ORIENTED_EDGE('',*,*,#234,.F.);
#169=ORIENTED_EDGE('',*,*,#236,.F.);
#170=ORIENTED_EDGE('',*,*,#201,.T.);
#171=ORIENTED_EDGE('',*,*,#235,.T.);
#172=EDGE_CURVE('',#237,#238,#286,.T.);
#173=EDGE_CURVE('',#238,#239,#287,.T.);
#174=EDGE_CURVE('',#239,#240,#288,.T.);
#175=EDGE_CURVE('',#240,#241,#289,.T.);
#176=EDGE_CURVE('',#241,#242,#290,.T.);
#177=EDGE_CURVE('',#243,#242,#291,.T.);
#178=EDGE_CURVE('',#244,#243,#292,.T.);
#179=EDGE_CURVE('',#244,#237,#293,.T.);
#180=EDGE_CURVE('',#245,#246,#294,.T.);
#181=EDGE_CURVE('',#247,#245,#295,.T.);
#182=EDGE_CURVE('',#248,#247,#296,.T.);
#183=EDGE_CURVE('',#248,#249,#297,.T.);
#184=EDGE_CURVE('',#250,#249,#298,.T.);
#185=EDGE_CURVE('',#251,#250,#299,.T.);
#186=EDGE_CURVE('',#251,#252,#300,.T.);
#187=EDGE_CURVE('',#252,#246,#301,.T.);
#188=EDGE_CURVE('',#253,#253,#25,.T.);
#189=EDGE_CURVE('',#254,#250,#302,.T.);
#190=EDGE_CURVE('',#255,#254,#303,.T.);
#191=EDGE_CURVE('',#255,#251,#304,.T.);
#192=EDGE_CURVE('',#256,#254,#305,.T.);
#193=EDGE_CURVE('',#257,#256,#306,.T.);
#194=EDGE_CURVE('',#257,#255,#307,.T.);
#195=EDGE_CURVE('',#258,#256,#308,.T.);
#196=EDGE_CURVE('',#259,#258,#309,.T.);
#197=EDGE_CURVE('',#259,#257,#310,.T.);
#198=EDGE_CURVE('',#260,#258,#311,.T.);
#199=EDGE_CURVE('',#261,#260,#312,.T.);
#200=EDGE_CURVE('',#261,#259,#313,.T.);
#201=EDGE_CURVE('',#262,#262,#26,.T.);
#202=EDGE_CURVE('',#263,#263,#27,.T.);
#203=EDGE_CURVE('',#242,#260,#314,.T.);
#204=EDGE_CURVE('',#264,#241,#315,.T.);
#205=EDGE_CURVE('',#265,#264,#316,.T.);
#206=EDGE_CURVE('',#265,#238,#317,.T.);
#207=EDGE_CURVE('',#237,#261,#318,.T.);
#208=EDGE_CURVE('',#266,#266,#28,.F.);
#209=EDGE_CURVE('',#267,#267,#29,.F.);
#210=EDGE_CURVE('',#268,#268,#30,.T.);
#211=EDGE_CURVE('',#269,#269,#31,.F.);
#212=EDGE_CURVE('',#270,#270,#32,.F.);
#213=EDGE_CURVE('',#271,#271,#33,.T.);
#214=EDGE_CURVE('',#272,#272,#34,.F.);
#215=EDGE_CURVE('',#273,#273,#35,.F.);
#216=EDGE_CURVE('',#249,#243,#319,.T.);
#217=EDGE_CURVE('',#274,#248,#320,.T.);
#218=EDGE_CURVE('',#275,#274,#321,.T.);
#219=EDGE_CURVE('',#275,#246,#322,.T.);
#220=EDGE_CURVE('',#252,#244,#323,.T.);
#221=EDGE_CURVE('',#276,#276,#36,.T.);
#222=EDGE_CURVE('',#277,#277,#37,.T.);
#223=EDGE_CURVE('',#278,#247,#324,.T.);
#224=EDGE_CURVE('',#274,#278,#325,.T.);
#225=EDGE_CURVE('',#279,#279,#38,.F.);
#226=EDGE_CURVE('',#280,#245,#326,.T.);
#227=EDGE_CURVE('',#278,#280,#327,.T.);
#228=EDGE_CURVE('',#280,#275,#328,.T.);
#229=EDGE_CURVE('',#281,#281,#39,.F.);
#230=EDGE_CURVE('',#282,#282,#40,.T.);
#231=EDGE_CURVE('',#265,#283,#329,.T.);
#232=EDGE_CURVE('',#283,#239,#330,.T.);
#233=EDGE_CURVE('',#284,#240,#331,.T.);
#234=EDGE_CURVE('',#284,#264,#332,.T.);
#235=EDGE_CURVE('',#285,#285,#41,.T.);
#236=EDGE_CURVE('',#283,#284,#333,.T.);
#237=VERTEX_POINT('',#760);
#238=VERTEX_POINT('',#761);
#239=VERTEX_POINT('',#763);
#240=VERTEX_POINT('',#765);
#241=VERTEX_POINT('',#767);
#242=VERTEX_POINT('',#769);
#243=VERTEX_POINT('',#771);
#244=VERTEX_POINT('',#773);
#245=VERTEX_POINT('',#777);
#246=VERTEX_POINT('',#778);
#247=VERTEX_POINT('',#780);
#248=VERTEX_POINT('',#782);
#249=VERTEX_POINT('',#784);
#250=VERTEX_POINT('',#786);
#251=VERTEX_POINT('',#788);
#252=VERTEX_POINT('',#790);
#253=VERTEX_POINT('',#794);
#254=VERTEX_POINT('',#796);
#255=VERTEX_POINT('',#798);
#256=VERTEX_POINT('',#802);
#257=VERTEX_POINT('',#804);
#258=VERTEX_POINT('',#808);
#259=VERTEX_POINT('',#810);
#260=VERTEX_POINT('',#814);
#261=VERTEX_POINT('',#816);
#262=VERTEX_POINT('',#820);
#263=VERTEX_POINT('',#822);
#264=VERTEX_POINT('',#825);
#265=VERTEX_POINT('',#827);
#266=VERTEX_POINT('',#832);
#267=VERTEX_POINT('',#834);
#268=VERTEX_POINT('',#836);
#269=VERTEX_POINT('',#838);
#270=VERTEX_POINT('',#840);
#271=VERTEX_POINT('',#842);
#272=VERTEX_POINT('',#844);
#273=VERTEX_POINT('',#846);
#274=VERTEX_POINT('',#849);
#275=VERTEX_POINT('',#851);
#276=VERTEX_POINT('',#858);
#277=VERTEX_POINT('',#862);
#278=VERTEX_POINT('',#874);
#279=VERTEX_POINT('',#878);
#280=VERTEX_POINT('',#880);
#281=VERTEX_POINT('',#887);
#282=VERTEX_POINT('',#890);
#283=VERTEX_POINT('',#894);
#284=VERTEX_POINT('',#898);
#285=VERTEX_POINT('',#902);
#286=LINE('',#759,#334);
#287=LINE('',#762,#335);
#288=LINE('',#764,#336);
#289=LINE('',#766,#337);
#290=LINE('',#768,#338);
#291=LINE('',#770,#339);
#292=LINE('',#772,#340);
#293=LINE('',#774,#341);
#294=LINE('',#776,#342);
#295=LINE('',#779,#343);
#296=LINE('',#781,#344);
#297=LINE('',#783,#345);
#298=LINE('',#785,#346);
#299=LINE('',#787,#347);
#300=LINE('',#789,#348);
#301=LINE('',#791,#349);
#302=LINE('',#795,#350);
#303=LINE('',#797,#351);
#304=LINE('',#799,#352);
#305=LINE('',#801,#353);
#306=LINE('',#803,#354);
#307=LINE('',#805,#355);
#308=LINE('',#807,#356);
#309=LINE('',#809,#357);
#310=LINE('',#811,#358);
#311=LINE('',#813,#359);
#312=LINE('',#815,#360);
#313=LINE('',#817,#361);
#314=LINE('',#823,#362);
#315=LINE('',#824,#363);
#316=LINE('',#826,#364);
#317=LINE('',#828,#365);
#318=LINE('',#829,#366);
#319=LINE('',#847,#367);
#320=LINE('',#848,#368);
#321=LINE('',#850,#369);
#322=LINE('',#852,#370);
#323=LINE('',#853,#371);
#324=LINE('',#873,#372);
#325=LINE('',#875,#373);
#326=LINE('',#879,#374);
#327=LINE('',#881,#375);
#328=LINE('',#883,#376);
#329=LINE('',#893,#377);
#330=LINE('',#895,#378);
#331=LINE('',#897,#379);
#332=LINE('',#899,#380);
#333=LINE('',#903,#381);
#334=VECTOR('',#609,1.);
#335=VECTOR('',#610,1.);
#336=VECTOR('',#611,1.);
#337=VECTOR('',#612,1.);
#338=VECTOR('',#613,1.);
#339=VECTOR('',#614,1.);
#340=VECTOR('',#615,1.);
#341=VECTOR('',#616,1.);
#342=VECTOR('',#619,1.);
#343=VECTOR('',#620,1.);
#344=VECTOR('',#621,1.);
#345=VECTOR('',#622,1.);
#346=VECTOR('',#623,1.);
#347=VECTOR('',#624,1.);
#348=VECTOR('',#625,1.);
#349=VECTOR('',#626,1.);
#350=VECTOR('',#631,1.);
#351=VECTOR('',#632,1.);
#352=VECTOR('',#633,1.);
#353=VECTOR('',#636,1.);
#354=VECTOR('',#637,1.);
#355=VECTOR('',#638,1.);
#356=VECTOR('',#641,1.);
#357=VECTOR('',#642,1.);
#358=VECTOR('',#643,1.);
#359=VECTOR('',#646,1.);
#360=VECTOR('',#647,1.);
#361=VECTOR('',#648,1.);
#362=VECTOR('',#655,1.);
#363=VECTOR('',#656,1.);
#364=VECTOR('',#657,1.);
#365=VECTOR('',#658,1.);
#366=VECTOR('',#659,1.);
#367=VECTOR('',#678,1.);
#368=VECTOR('',#679,1.);
#369=VECTOR('',#680,1.);
#370=VECTOR('',#681,1.);
#371=VECTOR('',#682,1.);
#372=VECTOR('',#717,1.);
#373=VECTOR('',#718,1.);
#374=VECTOR('',#723,1.);
#375=VECTOR('',#724,1.);
#376=VECTOR('',#727,1.);
#377=VECTOR('',#742,1.);
#378=VECTOR('',#743,1.);
#379=VECTOR('',#746,1.);
#380=VECTOR('',#747,1.);
#381=VECTOR('',#752,1.);
#382=EDGE_LOOP('',(#42,#43,#44,#45,#46,#47,#48,#49));
#383=EDGE_LOOP('',(#50,#51,#52,#53,#54,#55,#56,#57));
#384=EDGE_LOOP('',(#58));
#385=EDGE_LOOP('',(#59,#60,#61,#62));
#386=EDGE_LOOP('',(#63,#64,#65,#66));
#387=EDGE_LOOP('',(#67,#68,#69,#70));
#388=EDGE_LOOP('',(#71,#72,#73,#74));
#389=EDGE_LOOP('',(#75));
#390=EDGE_LOOP('',(#76));
#391=EDGE_LOOP('',(#77,#78,#79,#80,#81,#82,#83,#84));
#392=EDGE_LOOP('',(#85));
#393=EDGE_LOOP('',(#86));
#394=EDGE_LOOP('',(#87));
#395=EDGE_LOOP('',(#88));
#396=EDGE_LOOP('',(#89));
#397=EDGE_LOOP('',(#90));
#398=EDGE_LOOP('',(#91));
#399=EDGE_LOOP('',(#92));
#400=EDGE_LOOP('',(#93,#94,#95,#96,#97,#98,#99,#100));
#401=EDGE_LOOP('',(#101,#102,#103,#104,#105,#106,#107,#108));
#402=EDGE_LOOP('',(#109,#110,#111,#112,#113,#114,#115,#116));
#403=EDGE_LOOP('',(#117));
#404=EDGE_LOOP('',(#118));
#405=EDGE_LOOP('',(#119));
#406=EDGE_LOOP('',(#120));
#407=EDGE_LOOP('',(#121));
#408=EDGE_LOOP('',(#122));
#409=EDGE_LOOP('',(#123));
#410=EDGE_LOOP('',(#124));
#411=EDGE_LOOP('',(#125));
#412=EDGE_LOOP('',(#126));
#413=EDGE_LOOP('',(#127));
#414=EDGE_LOOP('',(#128));
#415=EDGE_LOOP('',(#129));
#416=EDGE_LOOP('',(#130));
#417=EDGE_LOOP('',(#131,#132,#133,#134));
#418=EDGE_LOOP('',(#135));
#419=EDGE_LOOP('',(#136,#137,#138,#139));
#420=EDGE_LOOP('',(#140,#141,#142,#143));
#421=EDGE_LOOP('',(#144,#145,#146,#147));
#422=EDGE_LOOP('',(#148));
#423=EDGE_LOOP('',(#149));
#424=EDGE_LOOP('',(#150));
#425=EDGE_LOOP('',(#151));
#426=EDGE_LOOP('',(#152));
#427=EDGE_LOOP('',(#153,#154,#155,#156));
#428=EDGE_LOOP('',(#157,#158,#159,#160));
#429=EDGE_LOOP('',(#161));
#430=EDGE_LOOP('',(#162,#163,#164,#165));
#431=EDGE_LOOP('',(#166,#167,#168,#169));
#432=EDGE_LOOP('',(#170));
#433=EDGE_LOOP('',(#171));
#434=FACE_BOUND('',#382,.T.);
#435=FACE_BOUND('',#383,.T.);
#436=FACE_BOUND('',#384,.T.);
#437=FACE_BOUND('',#385,.T.);
#438=FACE_BOUND('',#386,.T.);
#439=FACE_BOUND('',#387,.T.);
#440=FACE_BOUND('',#388,.T.);
#441=FACE_BOUND('',#389,.T.);
#442=FACE_BOUND('',#390,.T.);
#443=FACE_BOUND('',#391,.T.);
#444=FACE_BOUND('',#392,.T.);
#445=FACE_BOUND('',#393,.T.);
#446=FACE_BOUND('',#394,.T.);
#447=FACE_BOUND('',#395,.T.);
#448=FACE_BOUND('',#396,.T.);
#449=FACE_BOUND('',#397,.T.);
#450=FACE_BOUND('',#398,.T.);
#451=FACE_BOUND('',#399,.T.);
#452=FACE_BOUND('',#400,.T.);
#453=FACE_BOUND('',#401,.T.);
#454=FACE_BOUND('',#402,.T.);
#455=FACE_BOUND('',#403,.T.);
#456=FACE_BOUND('',#404,.T.);
#457=FACE_BOUND('',#405,.T.);
#458=FACE_BOUND('',#406,.T.);
#459=FACE_BOUND('',#407,.T.);
#460=FACE_BOUND('',#408,.T.);
#461=FACE_BOUND('',#409,.T.);
#462=FACE_BOUND('',#410,.T.);
#463=FACE_BOUND('',#411,.T.);
#464=FACE_BOUND('',#412,.T.);
#465=FACE_BOUND('',#413,.T.);
#466=FACE_BOUND('',#414,.T.);
#467=FACE_BOUND('',#415,.T.);
#468=FACE_BOUND('',#416,.T.);
#469=FACE_BOUND('',#417,.T.);
#470=FACE_BOUND('',#418,.T.);
#471=FACE_BOUND('',#419,.T.);
#472=FACE_BOUND('',#420,.T.);
#473=FACE_BOUND('',#421,.T.);
#474=FACE_BOUND('',#422,.T.);
#475=FACE_BOUND('',#423,.T.);
#476=FACE_BOUND('',#424,.T.);
#477=FACE_BOUND('',#425,.T.);
#478=FACE_BOUND('',#426,.T.);
#479=FACE_BOUND('',#427,.T.);
#480=FACE_BOUND('',#428,.T.);
#481=FACE_BOUND('',#429,.T.);
#482=FACE_BOUND('',#430,.T.);
#483=FACE_BOUND('',#431,.T.);
#484=FACE_BOUND('',#432,.T.);
#485=FACE_BOUND('',#433,.T.);
#486=PLANE('',#554);
#487=PLANE('',#555);
#488=PLANE('',#556);
#489=PLANE('',#558);
#490=PLANE('',#559);
#491=PLANE('',#560);
#492=PLANE('',#561);
#493=PLANE('',#564);
#494=PLANE('',#573);
#495=PLANE('',#574);
#496=PLANE('',#577);
#497=PLANE('',#580);
#498=PLANE('',#589);
#499=PLANE('',#590);
#500=PLANE('',#592);
#501=PLANE('',#593);
#502=PLANE('',#596);
#503=PLANE('',#599);
#504=PLANE('',#600);
#505=PLANE('',#601);
#506=PLANE('',#603);
#507=ADVANCED_FACE('',(#434),#486,.T.);
#508=ADVANCED_FACE('',(#435),#487,.T.);
#509=ADVANCED_FACE('',(#436,#437),#488,.T.);
#510=ADVANCED_FACE('',(#438),#489,.T.);
#511=ADVANCED_FACE('',(#439),#490,.T.);
#512=ADVANCED_FACE('',(#440),#491,.T.);
#513=ADVANCED_FACE('',(#441,#442,#443),#492,.T.);
#514=ADVANCED_FACE('',(#444,#445,#446,#447,#448,#449,#450,#451,#452),#493,
 .T.);
#515=ADVANCED_FACE('',(#453),#494,.T.);
#516=ADVANCED_FACE('',(#454),#495,.F.);
#517=ADVANCED_FACE('',(#455,#456),#21,.F.);
#518=ADVANCED_FACE('',(#457),#496,.T.);
#519=ADVANCED_FACE('',(#458,#459),#22,.F.);
#520=ADVANCED_FACE('',(#460),#497,.T.);
#521=ADVANCED_FACE('',(#461),#13,.F.);
#522=ADVANCED_FACE('',(#462),#14,.F.);
#523=ADVANCED_FACE('',(#463),#15,.F.);
#524=ADVANCED_FACE('',(#464),#16,.F.);
#525=ADVANCED_FACE('',(#465),#17,.F.);
#526=ADVANCED_FACE('',(#466),#18,.F.);
#527=ADVANCED_FACE('',(#467),#19,.F.);
#528=ADVANCED_FACE('',(#468),#20,.F.);
#529=ADVANCED_FACE('',(#469),#498,.F.);
#530=ADVANCED_FACE('',(#470,#471),#499,.F.);
#531=ADVANCED_FACE('',(#472),#500,.F.);
#532=ADVANCED_FACE('',(#473),#501,.T.);
#533=ADVANCED_FACE('',(#474,#475),#23,.T.);
#534=ADVANCED_FACE('',(#476),#502,.T.);
#535=ADVANCED_FACE('',(#477,#478),#12,.T.);
#536=ADVANCED_FACE('',(#479),#503,.T.);
#537=ADVANCED_FACE('',(#480),#504,.T.);
#538=ADVANCED_FACE('',(#481,#482),#505,.T.);
#539=ADVANCED_FACE('',(#483),#506,.T.);
#540=ADVANCED_FACE('',(#484,#485),#24,.F.);
#541=CLOSED_SHELL('',(#507,#508,#509,#510,#511,#512,#513,#514,#515,#516,
#517,#518,#519,#520,#521,#522,#523,#524,#525,#526,#527,#528,#529,#530,#531,
#532,#533,#534,#535,#536,#537,#538,#539,#540));
#542=STYLED_ITEM('',(#543),#550);
#543=PRESENTATION_STYLE_ASSIGNMENT((#544));
#544=SURFACE_STYLE_USAGE(.BOTH.,#545);
#545=SURFACE_SIDE_STYLE('',(#546));
#546=SURFACE_STYLE_FILL_AREA(#547);
#547=FILL_AREA_STYLE('',(#548));
#548=FILL_AREA_STYLE_COLOUR('',#549);
#549=COLOUR_RGB('',0.980392156862745,0.713725490196078,0.00392156862745098);
#550=MANIFOLD_SOLID_BREP('Cargo_Body',#541);
#551=SHAPE_DEFINITION_REPRESENTATION(#912,#552);
#552=SHAPE_REPRESENTATION('Cargo_Body',(#553),#907);
#553=AXIS2_PLACEMENT_3D('',#757,#605,#606);
#554=AXIS2_PLACEMENT_3D('',#758,#607,#608);
#555=AXIS2_PLACEMENT_3D('',#775,#617,#618);
#556=AXIS2_PLACEMENT_3D('',#792,#627,#628);
#557=AXIS2_PLACEMENT_3D('',#793,#629,#630);
#558=AXIS2_PLACEMENT_3D('',#800,#634,#635);
#559=AXIS2_PLACEMENT_3D('',#806,#639,#640);
#560=AXIS2_PLACEMENT_3D('',#812,#644,#645);
#561=AXIS2_PLACEMENT_3D('',#818,#649,#650);
#562=AXIS2_PLACEMENT_3D('',#819,#651,#652);
#563=AXIS2_PLACEMENT_3D('',#821,#653,#654);
#564=AXIS2_PLACEMENT_3D('',#830,#660,#661);
#565=AXIS2_PLACEMENT_3D('',#831,#662,#663);
#566=AXIS2_PLACEMENT_3D('',#833,#664,#665);
#567=AXIS2_PLACEMENT_3D('',#835,#666,#667);
#568=AXIS2_PLACEMENT_3D('',#837,#668,#669);
#569=AXIS2_PLACEMENT_3D('',#839,#670,#671);
#570=AXIS2_PLACEMENT_3D('',#841,#672,#673);
#571=AXIS2_PLACEMENT_3D('',#843,#674,#675);
#572=AXIS2_PLACEMENT_3D('',#845,#676,#677);
#573=AXIS2_PLACEMENT_3D('',#854,#683,#684);
#574=AXIS2_PLACEMENT_3D('',#855,#685,#686);
#575=AXIS2_PLACEMENT_3D('',#856,#687,#688);
#576=AXIS2_PLACEMENT_3D('',#857,#689,#690);
#577=AXIS2_PLACEMENT_3D('',#859,#691,#692);
#578=AXIS2_PLACEMENT_3D('',#860,#693,#694);
#579=AXIS2_PLACEMENT_3D('',#861,#695,#696);
#580=AXIS2_PLACEMENT_3D('',#863,#697,#698);
#581=AXIS2_PLACEMENT_3D('',#864,#699,#700);
#582=AXIS2_PLACEMENT_3D('',#865,#701,#702);
#583=AXIS2_PLACEMENT_3D('',#866,#703,#704);
#584=AXIS2_PLACEMENT_3D('',#867,#705,#706);
#585=AXIS2_PLACEMENT_3D('',#868,#707,#708);
#586=AXIS2_PLACEMENT_3D('',#869,#709,#710);
#587=AXIS2_PLACEMENT_3D('',#870,#711,#712);
#588=AXIS2_PLACEMENT_3D('',#871,#713,#714);
#589=AXIS2_PLACEMENT_3D('',#872,#715,#716);
#590=AXIS2_PLACEMENT_3D('',#876,#719,#720);
#591=AXIS2_PLACEMENT_3D('',#877,#721,#722);
#592=AXIS2_PLACEMENT_3D('',#882,#725,#726);
#593=AXIS2_PLACEMENT_3D('',#884,#728,#729);
#594=AXIS2_PLACEMENT_3D('',#885,#730,#731);
#595=AXIS2_PLACEMENT_3D('',#886,#732,#733);
#596=AXIS2_PLACEMENT_3D('',#888,#734,#735);
#597=AXIS2_PLACEMENT_3D('',#889,#736,#737);
#598=AXIS2_PLACEMENT_3D('',#891,#738,#739);
#599=AXIS2_PLACEMENT_3D('',#892,#740,#741);
#600=AXIS2_PLACEMENT_3D('',#896,#744,#745);
#601=AXIS2_PLACEMENT_3D('',#900,#748,#749);
#602=AXIS2_PLACEMENT_3D('',#901,#750,#751);
#603=AXIS2_PLACEMENT_3D('',#904,#753,#754);
#604=AXIS2_PLACEMENT_3D('',#905,#755,#756);
#605=DIRECTION('',(0.,0.,1.));
#606=DIRECTION('',(1.,0.,0.));
#607=DIRECTION('',(0.,1.,0.));
#608=DIRECTION('',(0.,0.,1.));
#609=DIRECTION('',(-1.,0.,0.));
#610=DIRECTION('',(0.,0.,1.));
#611=DIRECTION('',(-1.,0.,0.));
#612=DIRECTION('',(0.,0.,-1.));
#613=DIRECTION('',(-1.,0.,0.));
#614=DIRECTION('',(0.,0.,-1.));
#615=DIRECTION('',(-1.,0.,0.));
#616=DIRECTION('',(0.,0.,-1.));
#617=DIRECTION('',(0.,-1.,0.));
#618=DIRECTION('',(0.,0.,-1.));
#619=DIRECTION('',(0.,0.,1.));
#620=DIRECTION('',(1.,0.,0.));
#621=DIRECTION('',(0.,0.,-1.));
#622=DIRECTION('',(-1.,0.,0.));
#623=DIRECTION('',(0.,0.,1.));
#624=DIRECTION('',(-1.,0.,0.));
#625=DIRECTION('',(0.,0.,1.));
#626=DIRECTION('',(-1.,0.,0.));
#627=DIRECTION('',(0.,0.,-1.));
#628=DIRECTION('',(-1.,0.,0.));
#629=DIRECTION('',(0.,0.,-1.));
#630=DIRECTION('',(-1.,0.,0.));
#631=DIRECTION('',(0.,-1.,0.));
#632=DIRECTION('',(-1.,0.,0.));
#633=DIRECTION('',(0.,-1.,0.));
#634=DIRECTION('',(0.,-0.468025227900069,-0.88371510457222));
#635=DIRECTION('',(0.,0.88371510457222,-0.468025227900069));
#636=DIRECTION('',(0.,-0.883715104572219,0.468025227900069));
#637=DIRECTION('',(-1.,0.,0.));
#638=DIRECTION('',(0.,-0.883715104572219,0.468025227900069));
#639=DIRECTION('',(0.,1.6484032784593E-16,-1.));
#640=DIRECTION('',(0.,1.,1.6484032784593E-16));
#641=DIRECTION('',(0.,-1.,-1.6484032784593E-16));
#642=DIRECTION('',(-1.,0.,0.));
#643=DIRECTION('',(0.,-1.,-1.6484032784593E-16));
#644=DIRECTION('',(0.,0.468025227900069,-0.883715104572219));
#645=DIRECTION('',(0.,0.883715104572219,0.468025227900069));
#646=DIRECTION('',(0.,-0.883715104572219,-0.468025227900069));
#647=DIRECTION('',(-1.,0.,0.));
#648=DIRECTION('',(0.,-0.883715104572219,-0.468025227900069));
#649=DIRECTION('',(0.,1.56667759988356E-16,-1.));
#650=DIRECTION('',(0.,1.,1.56667759988356E-16));
#651=DIRECTION('',(0.,1.56667759988356E-16,-1.));
#652=DIRECTION('',(0.,1.,1.56667759988356E-16));
#653=DIRECTION('',(0.,1.56667759988356E-16,-1.));
#654=DIRECTION('',(0.,1.,1.56667759988356E-16));
#655=DIRECTION('',(0.,-1.,-1.56667759988356E-16));
#656=DIRECTION('',(0.,-1.,0.));
#657=DIRECTION('',(-1.,0.,0.));
#658=DIRECTION('',(0.,-1.,0.));
#659=DIRECTION('',(0.,-1.,-1.56667759988356E-16));
#660=DIRECTION('',(0.,0.,1.));
#661=DIRECTION('',(1.,0.,0.));
#662=DIRECTION('',(0.,0.,1.));
#663=DIRECTION('',(1.,0.,0.));
#664=DIRECTION('',(0.,0.,1.));
#665=DIRECTION('',(1.,0.,0.));
#666=DIRECTION('',(0.,0.,1.));
#667=DIRECTION('',(1.,0.,0.));
#668=DIRECTION('',(0.,0.,1.));
#669=DIRECTION('',(1.,0.,0.));
#670=DIRECTION('',(0.,0.,1.));
#671=DIRECTION('',(1.,0.,0.));
#672=DIRECTION('',(0.,0.,1.));
#673=DIRECTION('',(1.,0.,0.));
#674=DIRECTION('',(0.,0.,1.));
#675=DIRECTION('',(1.,0.,0.));
#676=DIRECTION('',(0.,0.,1.));
#677=DIRECTION('',(1.,0.,0.));
#678=DIRECTION('',(0.,1.,0.));
#679=DIRECTION('',(0.,1.,0.));
#680=DIRECTION('',(-1.,0.,0.));
#681=DIRECTION('',(0.,1.,0.));
#682=DIRECTION('',(0.,1.,0.));
#683=DIRECTION('',(1.,0.,0.));
#684=DIRECTION('',(0.,1.,0.));
#685=DIRECTION('',(1.,0.,0.));
#686=DIRECTION('',(0.,1.,0.));
#687=DIRECTION('',(0.,1.56667759988356E-16,-1.));
#688=DIRECTION('',(0.,1.,1.56667759988356E-16));
#689=DIRECTION('',(0.,1.56667759988356E-16,-1.));
#690=DIRECTION('',(0.,1.,1.56667759988356E-16));
#691=DIRECTION('',(0.,1.56667759988356E-16,-1.));
#692=DIRECTION('',(1.,0.,0.));
#693=DIRECTION('',(0.,1.56667759988356E-16,-1.));
#694=DIRECTION('',(0.,1.,1.56667759988356E-16));
#695=DIRECTION('',(0.,0.,-1.));
#696=DIRECTION('',(-1.,0.,0.));
#697=DIRECTION('',(0.,0.,-1.));
#698=DIRECTION('',(1.,0.,0.));
#699=DIRECTION('',(0.,-1.,0.));
#700=DIRECTION('',(-1.,0.,0.));
#701=DIRECTION('',(0.,-1.,0.));
#702=DIRECTION('',(-1.,0.,0.));
#703=DIRECTION('',(1.7347234759768E-16,-1.,0.));
#704=DIRECTION('',(-1.,-1.7347234759768E-16,0.));
#705=DIRECTION('',(1.84314369322536E-16,-1.,0.));
#706=DIRECTION('',(1.,1.84314369322536E-16,0.));
#707=DIRECTION('',(0.,-1.,0.));
#708=DIRECTION('',(-1.,0.,0.));
#709=DIRECTION('',(0.,-1.,0.));
#710=DIRECTION('',(-1.,0.,0.));
#711=DIRECTION('',(0.,1.,0.));
#712=DIRECTION('',(1.,0.,0.));
#713=DIRECTION('',(4.33680868994202E-16,-1.,0.));
#714=DIRECTION('',(1.,4.33680868994202E-16,0.));
#715=DIRECTION('',(1.,0.,0.));
#716=DIRECTION('',(0.,0.,-1.));
#717=DIRECTION('',(0.,1.,0.));
#718=DIRECTION('',(0.,0.,-1.));
#719=DIRECTION('',(0.,0.,1.));
#720=DIRECTION('',(1.,0.,0.));
#721=DIRECTION('',(0.,0.,1.));
#722=DIRECTION('',(1.,0.,0.));
#723=DIRECTION('',(0.,1.,0.));
#724=DIRECTION('',(1.,0.,0.));
#725=DIRECTION('',(-1.,0.,0.));
#726=DIRECTION('',(0.,0.,1.));
#727=DIRECTION('',(0.,0.,1.));
#728=DIRECTION('',(0.,-1.,0.));
#729=DIRECTION('',(1.,0.,0.));
#730=DIRECTION('',(0.,0.,1.));
#731=DIRECTION('',(1.,0.,0.));
#732=DIRECTION('',(0.,0.,-1.));
#733=DIRECTION('',(-1.,0.,0.));
#734=DIRECTION('',(0.,0.,-1.));
#735=DIRECTION('',(1.,0.,0.));
#736=DIRECTION('',(0.,0.,-1.));
#737=DIRECTION('',(-1.,0.,0.));
#738=DIRECTION('',(0.,0.,-1.));
#739=DIRECTION('',(-1.,0.,0.));
#740=DIRECTION('',(1.,0.,0.));
#741=DIRECTION('',(0.,0.,-1.));
#742=DIRECTION('',(0.,0.,1.));
#743=DIRECTION('',(0.,-1.,0.));
#744=DIRECTION('',(-1.,0.,0.));
#745=DIRECTION('',(0.,0.,1.));
#746=DIRECTION('',(0.,-1.,0.));
#747=DIRECTION('',(0.,0.,-1.));
#748=DIRECTION('',(0.,0.,1.));
#749=DIRECTION('',(1.,0.,0.));
#750=DIRECTION('',(0.,0.,1.));
#751=DIRECTION('',(1.,0.,0.));
#752=DIRECTION('',(-1.,0.,0.));
#753=DIRECTION('',(0.,1.,0.));
#754=DIRECTION('',(-1.,0.,0.));
#755=DIRECTION('',(0.,0.,1.));
#756=DIRECTION('',(1.,0.,0.));
#757=CARTESIAN_POINT('',(0.,0.,0.));
#758=CARTESIAN_POINT('',(0.0173395973017993,0.171580354624254,0.00640536908694779));
#759=CARTESIAN_POINT('',(0.0173395973017993,0.171580354624254,0.0048628174111364));
#760=CARTESIAN_POINT('',(0.0173395973017993,0.171580354624254,0.0048628174111364));
#761=CARTESIAN_POINT('',(0.00758959730179925,0.171580354624254,0.0048628174111364));
#762=CARTESIAN_POINT('',(0.00758959730179925,0.171580354624254,0.0054628174111364));
#763=CARTESIAN_POINT('',(0.00758959730179925,0.171580354624254,0.0060628174111364));
#764=CARTESIAN_POINT('',(0.00608959730179925,0.171580354624254,0.0060628174111364));
#765=CARTESIAN_POINT('',(0.00458959730179924,0.171580354624254,0.0060628174111364));
#766=CARTESIAN_POINT('',(0.00458959730179924,0.171580354624254,0.0054628174111364));
#767=CARTESIAN_POINT('',(0.00458959730179924,0.171580354624254,0.0048628174111364));
#768=CARTESIAN_POINT('',(0.0173395973017993,0.171580354624254,0.0048628174111364));
#769=CARTESIAN_POINT('',(-0.00516040269820076,0.171580354624254,0.0048628174111364));
#770=CARTESIAN_POINT('',(-0.00516040269820076,0.171580354624254,0.00640536908694779));
#771=CARTESIAN_POINT('',(-0.00516040269820076,0.171580354624254,0.0079479207627592));
#772=CARTESIAN_POINT('',(0.0173395973017993,0.171580354624254,0.0079479207627592));
#773=CARTESIAN_POINT('',(0.0173395973017993,0.171580354624254,0.0079479207627592));
#774=CARTESIAN_POINT('',(0.0173395973017993,0.171580354624254,0.00640536908694779));
#775=CARTESIAN_POINT('',(0.0173395973017993,0.0189410995476594,0.00640536908694779));
#776=CARTESIAN_POINT('',(0.00796459730179924,0.0189410995476594,0.0071979207627592));
#777=CARTESIAN_POINT('',(0.00796459730179924,0.0189410995476594,0.0064479207627592));
#778=CARTESIAN_POINT('',(0.00796459730179924,0.0189410995476594,0.0079479207627592));
#779=CARTESIAN_POINT('',(0.00608959730179925,0.0189410995476594,0.0064479207627592));
#780=CARTESIAN_POINT('',(0.00421459730179924,0.0189410995476594,0.0064479207627592));
#781=CARTESIAN_POINT('',(0.00421459730179924,0.0189410995476594,0.0071979207627592));
#782=CARTESIAN_POINT('',(0.00421459730179924,0.0189410995476594,0.0079479207627592));
#783=CARTESIAN_POINT('',(0.0173395973017993,0.0189410995476594,0.0079479207627592));
#784=CARTESIAN_POINT('',(-0.00516040269820076,0.0189410995476594,0.0079479207627592));
#785=CARTESIAN_POINT('',(-0.00516040269820076,0.0189410995476594,0.00640536908694779));
#786=CARTESIAN_POINT('',(-0.00516040269820076,0.0189410995476594,0.00486281741113638));
#787=CARTESIAN_POINT('',(0.0173395973017993,0.0189410995476594,0.00486281741113638));
#788=CARTESIAN_POINT('',(0.0173395973017993,0.0189410995476594,0.00486281741113638));
#789=CARTESIAN_POINT('',(0.0173395973017993,0.0189410995476594,0.00640536908694779));
#790=CARTESIAN_POINT('',(0.0173395973017993,0.0189410995476594,0.0079479207627592));
#791=CARTESIAN_POINT('',(0.0173395973017993,0.0189410995476594,0.0079479207627592));
#792=CARTESIAN_POINT('',(0.0173395973017993,0.0355500381969297,0.00486281741113638));
#793=CARTESIAN_POINT('',(0.00608959730179925,0.035363694242861,0.00486281741113638));
#794=CARTESIAN_POINT('',(0.00308959730179925,0.035363694242861,0.00486281741113638));
#795=CARTESIAN_POINT('',(-0.00516040269820076,0.0355500381969297,0.00486281741113638));
#796=CARTESIAN_POINT('',(-0.00516040269820076,0.0521589768462,0.00486281741113638));
#797=CARTESIAN_POINT('',(0.0173395973017993,0.0521589768462,0.00486281741113638));
#798=CARTESIAN_POINT('',(0.0173395973017993,0.0521589768462,0.00486281741113638));
#799=CARTESIAN_POINT('',(0.0173395973017993,0.0355500381969297,0.00486281741113638));
#800=CARTESIAN_POINT('',(0.0173395973017993,0.0579243627719698,0.00180940568615919));
#801=CARTESIAN_POINT('',(-0.00516040269820076,0.0579243627719698,0.00180940568615919));
#802=CARTESIAN_POINT('',(-0.00516040269820076,0.0636897486977396,-0.00124400603881801));
#803=CARTESIAN_POINT('',(0.0173395973017993,0.0636897486977396,-0.00124400603881801));
#804=CARTESIAN_POINT('',(0.0173395973017993,0.0636897486977396,-0.00124400603881801));
#805=CARTESIAN_POINT('',(0.0173395973017993,0.0579243627719698,0.00180940568615919));
#806=CARTESIAN_POINT('',(0.0173395973017993,0.0952607270859564,-0.001244006038818));
#807=CARTESIAN_POINT('',(-0.00516040269820076,0.0952607270859564,-0.001244006038818));
#808=CARTESIAN_POINT('',(-0.00516040269820076,0.126831705474173,-0.00124400603881799));
#809=CARTESIAN_POINT('',(0.0173395973017993,0.126831705474173,-0.00124400603881799));
#810=CARTESIAN_POINT('',(0.0173395973017993,0.126831705474173,-0.00124400603881799));
#811=CARTESIAN_POINT('',(0.0173395973017993,0.0952607270859564,-0.001244006038818));
#812=CARTESIAN_POINT('',(0.0173395973017993,0.132597091399943,0.0018094056861592));
#813=CARTESIAN_POINT('',(-0.00516040269820076,0.132597091399943,0.0018094056861592));
#814=CARTESIAN_POINT('',(-0.00516040269820076,0.138362477325713,0.0048628174111364));
#815=CARTESIAN_POINT('',(0.0173395973017993,0.138362477325713,0.0048628174111364));
#816=CARTESIAN_POINT('',(0.0173395973017993,0.138362477325713,0.0048628174111364));
#817=CARTESIAN_POINT('',(0.0173395973017993,0.132597091399943,0.0018094056861592));
#818=CARTESIAN_POINT('',(0.0173395973017993,0.154971415974983,0.00486281741113639));
#819=CARTESIAN_POINT('',(0.00608959730179925,0.176080354624253,0.0048628174111364));
#820=CARTESIAN_POINT('',(0.00608959730179925,0.177130354624253,0.0048628174111364));
#821=CARTESIAN_POINT('',(0.00608959730179926,0.155149894624253,0.00486281741113639));
#822=CARTESIAN_POINT('',(0.00608959730179926,0.158149894624253,0.00486281741113639));
#823=CARTESIAN_POINT('',(-0.00516040269820076,0.154971415974983,0.00486281741113639));
#824=CARTESIAN_POINT('',(0.00458959730179924,0.177580354624253,0.0048628174111364));
#825=CARTESIAN_POINT('',(0.00458959730179924,0.177580354624253,0.0048628174111364));
#826=CARTESIAN_POINT('',(0.0173395973017993,0.177580354624253,0.0048628174111364));
#827=CARTESIAN_POINT('',(0.00758959730179925,0.177580354624253,0.0048628174111364));
#828=CARTESIAN_POINT('',(0.00758959730179925,0.177580354624253,0.0048628174111364));
#829=CARTESIAN_POINT('',(0.0173395973017993,0.154971415974983,0.00486281741113639));
#830=CARTESIAN_POINT('',(0.0173395973017993,0.0952607270859564,0.0079479207627592));
#831=CARTESIAN_POINT('',(-0.000660402698200762,0.0277607270859563,0.0079479207627592));
#832=CARTESIAN_POINT('',(0.000839597301799238,0.0277607270859563,0.0079479207627592));
#833=CARTESIAN_POINT('',(0.0128395973017992,0.0277607270859563,0.0079479207627592));
#834=CARTESIAN_POINT('',(0.0143395973017992,0.0277607270859563,0.0079479207627592));
#835=CARTESIAN_POINT('',(0.0128395973017992,0.0877607270859564,0.0079479207627592));
#836=CARTESIAN_POINT('',(0.0143395973017992,0.0877607270859564,0.0079479207627592));
#837=CARTESIAN_POINT('',(-0.00066040269820075,0.0877607270859564,0.0079479207627592));
#838=CARTESIAN_POINT('',(0.00083959730179925,0.0877607270859564,0.0079479207627592));
#839=CARTESIAN_POINT('',(-0.000660402698200767,0.102760727085956,0.0079479207627592));
#840=CARTESIAN_POINT('',(0.000839597301799233,0.102760727085956,0.0079479207627592));
#841=CARTESIAN_POINT('',(0.0128395973017992,0.102760727085956,0.0079479207627592));
#842=CARTESIAN_POINT('',(0.0143395973017992,0.102760727085956,0.0079479207627592));
#843=CARTESIAN_POINT('',(0.0128395973017993,0.162760727085956,0.0079479207627592));
#844=CARTESIAN_POINT('',(0.0143395973017993,0.162760727085956,0.0079479207627592));
#845=CARTESIAN_POINT('',(-0.000660402698200762,0.162760727085956,0.0079479207627592));
#846=CARTESIAN_POINT('',(0.000839597301799238,0.162760727085956,0.0079479207627592));
#847=CARTESIAN_POINT('',(-0.00516040269820076,0.0952607270859564,0.0079479207627592));
#848=CARTESIAN_POINT('',(0.00421459730179924,0.0129410995476594,0.0079479207627592));
#849=CARTESIAN_POINT('',(0.00421459730179924,0.0129410995476594,0.0079479207627592));
#850=CARTESIAN_POINT('',(0.0173395973017993,0.0129410995476594,0.0079479207627592));
#851=CARTESIAN_POINT('',(0.00796459730179924,0.0129410995476594,0.0079479207627592));
#852=CARTESIAN_POINT('',(0.00796459730179924,0.0129410995476594,0.0079479207627592));
#853=CARTESIAN_POINT('',(0.0173395973017993,0.0952607270859564,0.0079479207627592));
#854=CARTESIAN_POINT('',(0.0173395973017993,0.0952607270859564,-0.0025768385682604));
#855=CARTESIAN_POINT('',(-0.00516040269820076,0.0952607270859564,-0.0025768385682604));
#856=CARTESIAN_POINT('',(0.00608959730179926,0.155149894624253,0.0078628174111364));
#857=CARTESIAN_POINT('',(0.00608959730179926,0.155149894624253,0.0078628174111364));
#858=CARTESIAN_POINT('',(0.00608959730179926,0.158149894624253,0.0078628174111364));
#859=CARTESIAN_POINT('',(0.00608959730179925,0.154971415974983,0.0078628174111364));
#860=CARTESIAN_POINT('',(0.00608959730179925,0.035363694242861,0.00786281741113639));
#861=CARTESIAN_POINT('',(0.00608959730179925,0.035363694242861,0.00786281741113639));
#862=CARTESIAN_POINT('',(0.00308959730179925,0.035363694242861,0.00786281741113639));
#863=CARTESIAN_POINT('',(0.00608959730179925,0.0355500381969297,0.00786281741113639));
#864=CARTESIAN_POINT('',(-0.000660402698200762,0.162760727085956,0.0079479207627592));
#865=CARTESIAN_POINT('',(0.0128395973017993,0.162760727085956,0.0079479207627592));
#866=CARTESIAN_POINT('',(0.0128395973017992,0.102760727085956,0.0079479207627592));
#867=CARTESIAN_POINT('',(-0.000660402698200767,0.102760727085956,0.0079479207627592));
#868=CARTESIAN_POINT('',(-0.00066040269820075,0.0877607270859564,0.0079479207627592));
#869=CARTESIAN_POINT('',(0.0128395973017992,0.0877607270859564,0.0079479207627592));
#870=CARTESIAN_POINT('',(0.0128395973017992,0.0277607270859563,0.0079479207627592));
#871=CARTESIAN_POINT('',(-0.000660402698200762,0.0277607270859563,0.0079479207627592));
#872=CARTESIAN_POINT('',(0.00421459730179924,0.0129410995476594,0.0071979207627592));
#873=CARTESIAN_POINT('',(0.00421459730179924,0.0129410995476594,0.0064479207627592));
#874=CARTESIAN_POINT('',(0.00421459730179924,0.0129410995476594,0.0064479207627592));
#875=CARTESIAN_POINT('',(0.00421459730179924,0.0129410995476594,0.0071979207627592));
#876=CARTESIAN_POINT('',(0.00608959730179925,0.0129410995476594,0.0064479207627592));
#877=CARTESIAN_POINT('',(0.00608959730179925,0.0144410995476595,0.0064479207627592));
#878=CARTESIAN_POINT('',(0.00683959730179925,0.0144410995476595,0.0064479207627592));
#879=CARTESIAN_POINT('',(0.00796459730179924,0.0129410995476594,0.0064479207627592));
#880=CARTESIAN_POINT('',(0.00796459730179924,0.0129410995476594,0.0064479207627592));
#881=CARTESIAN_POINT('',(0.00608959730179925,0.0129410995476594,0.0064479207627592));
#882=CARTESIAN_POINT('',(0.00796459730179924,0.0129410995476594,0.0071979207627592));
#883=CARTESIAN_POINT('',(0.00796459730179924,0.0129410995476594,0.0071979207627592));
#884=CARTESIAN_POINT('',(0.00608959730179925,0.0129410995476594,0.00640536908694779));
#885=CARTESIAN_POINT('',(0.00608959730179925,0.0144410995476595,0.0019479207627592));
#886=CARTESIAN_POINT('',(0.00608959730179925,0.0144410995476595,0.0023979207627592));
#887=CARTESIAN_POINT('',(0.00533959730179925,0.0144410995476595,0.0023979207627592));
#888=CARTESIAN_POINT('',(0.00608959730179925,0.0159410995476594,0.0019479207627592));
#889=CARTESIAN_POINT('',(0.00608959730179925,0.0144410995476595,0.0019479207627592));
#890=CARTESIAN_POINT('',(0.00578959730179925,0.0144410995476595,0.0019479207627592));
#891=CARTESIAN_POINT('',(0.00608959730179925,0.0144410995476595,0.0023979207627592));
#892=CARTESIAN_POINT('',(0.00758959730179925,0.177580354624253,0.0054628174111364));
#893=CARTESIAN_POINT('',(0.00758959730179925,0.177580354624253,0.0054628174111364));
#894=CARTESIAN_POINT('',(0.00758959730179925,0.177580354624253,0.0060628174111364));
#895=CARTESIAN_POINT('',(0.00758959730179925,0.177580354624253,0.0060628174111364));
#896=CARTESIAN_POINT('',(0.00458959730179924,0.177580354624253,0.0054628174111364));
#897=CARTESIAN_POINT('',(0.00458959730179924,0.177580354624253,0.0060628174111364));
#898=CARTESIAN_POINT('',(0.00458959730179924,0.177580354624253,0.0060628174111364));
#899=CARTESIAN_POINT('',(0.00458959730179924,0.177580354624253,0.0054628174111364));
#900=CARTESIAN_POINT('',(0.00608959730179925,0.177580354624253,0.0060628174111364));
#901=CARTESIAN_POINT('',(0.00608959730179925,0.176080354624253,0.0060628174111364));
#902=CARTESIAN_POINT('',(0.00713959730179925,0.176080354624253,0.0060628174111364));
#903=CARTESIAN_POINT('',(0.00608959730179925,0.177580354624253,0.0060628174111364));
#904=CARTESIAN_POINT('',(0.00608959730179925,0.177580354624253,0.0064053690869478));
#905=CARTESIAN_POINT('',(0.00608959730179925,0.176080354624253,-0.0314371825888636));
#906=MECHANICAL_DESIGN_GEOMETRIC_PRESENTATION_REPRESENTATION('',(#542),
#907);
#907=(
GEOMETRIC_REPRESENTATION_CONTEXT(3)
GLOBAL_UNCERTAINTY_ASSIGNED_CONTEXT((#908))
GLOBAL_UNIT_ASSIGNED_CONTEXT((#911,#910,#909))
REPRESENTATION_CONTEXT('Cargo_Body','TOP_LEVEL_ASSEMBLY_PART')
);
#908=UNCERTAINTY_MEASURE_WITH_UNIT(LENGTH_MEASURE(1.E-8),#911,
'DISTANCE_ACCURACY_VALUE','Maximum Tolerance applied to model');
#909=(
NAMED_UNIT(*)
SI_UNIT($,.STERADIAN.)
SOLID_ANGLE_UNIT()
);
#910=(
NAMED_UNIT(*)
PLANE_ANGLE_UNIT()
SI_UNIT($,.RADIAN.)
);
#911=(
LENGTH_UNIT()
NAMED_UNIT(*)
SI_UNIT($,.METRE.)
);
#912=PRODUCT_DEFINITION_SHAPE('','',#913);
#913=PRODUCT_DEFINITION('','',#915,#914);
#914=PRODUCT_DEFINITION_CONTEXT('',#921,'design');
#915=PRODUCT_DEFINITION_FORMATION_WITH_SPECIFIED_SOURCE('','',#917,
 .NOT_KNOWN.);
#916=PRODUCT_RELATED_PRODUCT_CATEGORY('','',(#917));
#917=PRODUCT('Cargo_Body','Cargo_Body','Cargo_Body',(#919));
#918=PRODUCT_CATEGORY('','');
#919=PRODUCT_CONTEXT('',#921,'mechanical');
#920=APPLICATION_PROTOCOL_DEFINITION('international standard',
'ap242_managed_model_based_3d_engineering',2020,#921);
#921=APPLICATION_CONTEXT('managed model based 3d engineering');
ENDSEC;
END-ISO-10303-21;
